<svg id="Layer_1" data-name="Layer 1" xmlns="http://www.w3.org/2000/svg" viewBox="0 0 32 32" width="22" height="22"><defs><style>.cls-1{fill:#fff;}</style></defs><title>icons-for-Tim</title><path class="cls-1" d="M30.34,13.59v4.82a1.29,1.29,0,0,1-1.42.9q-11.47,0-22.94,0H2.79a1.08,1.08,0,0,1-1.12-1.11c0-1.46,0-2.91,0-4.37a0.94,0.94,0,0,1,.45-0.88A1.92,1.92,0,0,1,3,12.71l25.91,0A1.32,1.32,0,0,1,30.34,13.59ZM28.14,16H13.81V17.1H28.14V16ZM5,14.69a1.32,1.32,0,0,0,0,2.63A1.32,1.32,0,1,0,5,14.69Z"/></svg>
