<svg id="Layer_1" data-name="Layer 1" xmlns="http://www.w3.org/2000/svg" viewBox="0 0 32 32" width="22" height="22"><defs><style>.cls-1{fill:#fff;}</style></defs><title>icons-for-Tim</title><path class="cls-1" d="M27.38,21.68V20.2H25.79v1.47a1.79,1.79,0,0,0-.8.8H18.62A2.56,2.56,0,0,0,17,20.85V15H15.4v5.84a2.56,2.56,0,0,0-1.63,1.63H7.28a1.79,1.79,0,0,0-.8-0.8V20.2H4.89v1.47a1.78,1.78,0,1,0,2.39,2.39h6.5a2.55,2.55,0,0,0,4.84,0H25A1.78,1.78,0,1,0,27.38,21.68Z"/><path class="cls-1" d="M8.92,12H1.37a0.41,0.41,0,0,0-.41.41v1.7a0.41,0.41,0,0,0,.41.41H8.92a0.41,0.41,0,0,0,.41-0.41v-1.7A0.41,0.41,0,0,0,8.92,12ZM1.72,13A0.33,0.33,0,1,1,2,12.71,0.33,0.33,0,0,1,1.72,13Zm0.89,0a0.33,0.33,0,1,1,.33-0.33A0.33,0.33,0,0,1,2.61,13ZM3.5,13a0.33,0.33,0,1,1,.33-0.33A0.33,0.33,0,0,1,3.5,13Z"/><path class="cls-1" d="M8.92,14.82H1.37a0.41,0.41,0,0,0-.41.41v1.7a0.41,0.41,0,0,0,.41.41H8.92a0.41,0.41,0,0,0,.41-0.41v-1.7A0.41,0.41,0,0,0,8.92,14.82Zm-7.2,1.07A0.33,0.33,0,1,1,2,15.56,0.33,0.33,0,0,1,1.72,15.89Zm0.89,0a0.33,0.33,0,1,1,.33-0.33A0.33,0.33,0,0,1,2.61,15.89Zm0.89,0a0.33,0.33,0,1,1,.33-0.33A0.33,0.33,0,0,1,3.5,15.89Z"/><path class="cls-1" d="M8.92,17.67H1.37a0.41,0.41,0,0,0-.41.41v1.7a0.41,0.41,0,0,0,.41.41H8.92a0.41,0.41,0,0,0,.41-0.41v-1.7A0.41,0.41,0,0,0,8.92,17.67Zm-7.2,1.07A0.33,0.33,0,1,1,2,18.41,0.33,0.33,0,0,1,1.72,18.75Zm0.89,0a0.33,0.33,0,1,1,.33-0.33A0.33,0.33,0,0,1,2.61,18.75Zm0.89,0a0.33,0.33,0,1,1,.33-0.33A0.33,0.33,0,0,1,3.5,18.75Z"/><path class="cls-1" d="M30.66,12H23.11a0.41,0.41,0,0,0-.41.41v1.7a0.41,0.41,0,0,0,.41.41h7.55a0.41,0.41,0,0,0,.41-0.41v-1.7A0.41,0.41,0,0,0,30.66,12ZM23.46,13a0.33,0.33,0,1,1,.33-0.33A0.33,0.33,0,0,1,23.46,13Zm0.89,0a0.33,0.33,0,1,1,.33-0.33A0.33,0.33,0,0,1,24.35,13Zm0.89,0a0.33,0.33,0,1,1,.33-0.33A0.33,0.33,0,0,1,25.24,13Z"/><path class="cls-1" d="M30.66,14.82H23.11a0.41,0.41,0,0,0-.41.41v1.7a0.41,0.41,0,0,0,.41.41h7.55a0.41,0.41,0,0,0,.41-0.41v-1.7A0.41,0.41,0,0,0,30.66,14.82Zm-7.2,1.07a0.33,0.33,0,1,1,.33-0.33A0.33,0.33,0,0,1,23.46,15.89Zm0.89,0a0.33,0.33,0,1,1,.33-0.33A0.33,0.33,0,0,1,24.35,15.89Zm0.89,0a0.33,0.33,0,1,1,.33-0.33A0.33,0.33,0,0,1,25.24,15.89Z"/><path class="cls-1" d="M30.66,17.67H23.11a0.41,0.41,0,0,0-.41.41v1.7a0.41,0.41,0,0,0,.41.41h7.55a0.41,0.41,0,0,0,.41-0.41v-1.7A0.41,0.41,0,0,0,30.66,17.67Zm-7.2,1.07a0.33,0.33,0,1,1,.33-0.33A0.33,0.33,0,0,1,23.46,18.75Zm0.89,0a0.33,0.33,0,1,1,.33-0.33A0.33,0.33,0,0,1,24.35,18.75Zm0.89,0a0.33,0.33,0,1,1,.33-0.33A0.33,0.33,0,0,1,25.24,18.75Z"/><path class="cls-1" d="M21.13,4.08H10.9a0.56,0.56,0,0,0-.56.56v2.3a0.56,0.56,0,0,0,.56.56H21.13a0.56,0.56,0,0,0,.56-0.56V4.64A0.56,0.56,0,0,0,21.13,4.08ZM11.37,5.53a0.45,0.45,0,1,1,.45-0.45A0.45,0.45,0,0,1,11.37,5.53Zm1.21,0A0.45,0.45,0,1,1,13,5.08,0.45,0.45,0,0,1,12.57,5.53Zm1.21,0a0.45,0.45,0,1,1,.45-0.45A0.45,0.45,0,0,1,13.78,5.53Z"/><path class="cls-1" d="M21.13,7.95H10.9a0.56,0.56,0,0,0-.56.56v2.3a0.56,0.56,0,0,0,.56.56H21.13a0.56,0.56,0,0,0,.56-0.56V8.5A0.56,0.56,0,0,0,21.13,7.95ZM11.37,9.4a0.45,0.45,0,1,1,.45-0.45A0.45,0.45,0,0,1,11.37,9.4Zm1.21,0A0.45,0.45,0,1,1,13,8.95,0.45,0.45,0,0,1,12.57,9.4Zm1.21,0a0.45,0.45,0,1,1,.45-0.45A0.45,0.45,0,0,1,13.78,9.4Z"/><path class="cls-1" d="M21.13,11.81H10.9a0.56,0.56,0,0,0-.56.56v2.3a0.56,0.56,0,0,0,.56.56H21.13a0.56,0.56,0,0,0,.56-0.56v-2.3A0.56,0.56,0,0,0,21.13,11.81Zm-9.77,1.45a0.45,0.45,0,1,1,.45-0.45A0.45,0.45,0,0,1,11.37,13.26Zm1.21,0A0.45,0.45,0,1,1,13,12.81,0.45,0.45,0,0,1,12.57,13.26Zm1.21,0a0.45,0.45,0,1,1,.45-0.45A0.45,0.45,0,0,1,13.78,13.26Z"/></svg>
