<svg id="Layer_1" data-name="Layer 1" xmlns="http://www.w3.org/2000/svg" viewBox="0 0 32 32" width="22" height="22"><defs><style>.cls-1{fill:#fff;}</style></defs><title>icons-for-Tim</title><path class="cls-1" d="M22.15,17.73h3.93a1,1,0,0,0,1-1V12.82a1,1,0,0,0-1-1H24.3L22.15,14v3.71Z"/><path class="cls-1" d="M14.19,16.07l0.48-.48L15.21,15V14l-2.13-2.13H5.92a1,1,0,0,0-1,1v3.95a1,1,0,0,0,1,1h7.84A1.74,1.74,0,0,1,14.19,16.07ZM6.72,14.36a0.77,0.77,0,1,1,.77-0.77A0.77,0.77,0,0,1,6.72,14.36Zm2.07,0a0.77,0.77,0,1,1,.77-0.77A0.77,0.77,0,0,1,8.79,14.36Zm2.07,0a0.77,0.77,0,1,1,.77-0.77A0.77,0.77,0,0,1,10.86,14.36Z"/><path class="cls-1" d="M15.27,23.39c0-.17,0-0.34,0-0.51L14.2,21.82a1.72,1.72,0,0,1,0-2.4L14.65,19l-0.43-.43,0,0H5.92a1,1,0,0,0-1,1V23.4a1,1,0,0,0,1,1h9.45a1.76,1.76,0,0,1-.1-0.56V23.39ZM6.72,21a0.77,0.77,0,1,1,.77-0.77A0.77,0.77,0,0,1,6.72,21Zm2.07,0a0.77,0.77,0,1,1,.77-0.77A0.77,0.77,0,0,1,8.79,21Zm2.07,0a0.77,0.77,0,1,1,.77-0.77A0.77,0.77,0,0,1,10.86,21Z"/><path class="cls-1" d="M22,24.36h4.05a1,1,0,0,0,1-1V19.46a1,1,0,0,0-1-1H22.15v5.21A1.87,1.87,0,0,1,22,24.36Z"/><path class="cls-1" d="M18.69,27.25a1.71,1.71,0,0,1-1.2-.49l-0.87-.87-0.75-.75h-10a1,1,0,0,0-1,1V30a1,1,0,0,0,1,1H26.08a1,1,0,0,0,1-1V26.09a1,1,0,0,0-1-1H21.52l-1.61,1.61A1.71,1.71,0,0,1,18.69,27.25Zm-12,.37a0.77,0.77,0,1,1,.77-0.77A0.77,0.77,0,0,1,6.72,27.62Zm2.07,0a0.77,0.77,0,1,1,.77-0.77A0.77,0.77,0,0,1,8.79,27.62Zm2.07,0a0.77,0.77,0,1,1,.77-0.77A0.77,0.77,0,0,1,10.86,27.62Z"/><path class="cls-1" d="M21.06,13.82a0.6,0.6,0,0,1,.17-0.42l3.62-3.62a2.57,2.57,0,0,0,0-3.64l-4.4-4.4a2.57,2.57,0,0,0-3.64,0L12.47,6.1a2.57,2.57,0,0,0,0,3.64l3.64,3.65a0.54,0.54,0,0,1,.16.37v1.59a0.32,0.32,0,0,1-.09.22L15,16.83a0.66,0.66,0,0,0,0,.93l1.2,1.19-0.47.47L15,20.18a0.62,0.62,0,0,0,0,.87l1.24,1.22a0.41,0.41,0,0,1,.15.33c0,0.4,0,.79,0,1.19a0.67,0.67,0,0,0,.2.48c0.58,0.57,1.12,1.14,1.7,1.71a0.63,0.63,0,0,0,.88,0l1.68-1.68a0.81,0.81,0,0,0,.24-0.58V13.82ZM17.13,4a1.71,1.71,0,1,1,.62,2.34A1.71,1.71,0,0,1,17.13,4Z"/></svg>
