<svg id="Layer_1" data-name="Layer 1" xmlns="http://www.w3.org/2000/svg" viewBox="0 0 32 32" width="22" height="22"><defs><style>.cls-1{fill:#fff;}</style></defs><title>icons-for-Tim</title><path class="cls-1" d="M27,26.2V24.78H25.45V26.2a1.73,1.73,0,0,0-.77.77H18.53a2.46,2.46,0,0,0-.58-1l-0.87.87a1.33,1.33,0,0,1-1.87,0l-0.82-.82a2.45,2.45,0,0,0-.54.9H7.58a1.73,1.73,0,0,0-.77-0.77V24.78H5.27V26.2a1.72,1.72,0,1,0,2.31,2.31h6.27a2.46,2.46,0,0,0,4.68,0h6.14A1.72,1.72,0,1,0,27,26.2Z"/><path class="cls-1" d="M1.88,19.26H9.16a0.4,0.4,0,0,0,.4-0.4V17.23a0.4,0.4,0,0,0-.4-0.4H1.88a0.4,0.4,0,0,0-.4.4v1.64A0.4,0.4,0,0,0,1.88,19.26Zm2-2a0.32,0.32,0,1,1-.32.32A0.32,0.32,0,0,1,3.93,17.23Zm-0.86,0a0.32,0.32,0,1,1-.32.32A0.32,0.32,0,0,1,3.07,17.23Zm-0.86,0a0.32,0.32,0,1,1-.32.32A0.32,0.32,0,0,1,2.21,17.23Z"/><path class="cls-1" d="M1.88,22H9.16a0.4,0.4,0,0,0,.4-0.4V20a0.4,0.4,0,0,0-.4-0.4H1.88a0.4,0.4,0,0,0-.4.4v1.64A0.4,0.4,0,0,0,1.88,22Zm2-2a0.32,0.32,0,1,1-.32.32A0.32,0.32,0,0,1,3.93,20ZM3.07,20a0.32,0.32,0,1,1-.32.32A0.32,0.32,0,0,1,3.07,20ZM2.21,20a0.32,0.32,0,1,1-.32.32A0.32,0.32,0,0,1,2.21,20Z"/><path class="cls-1" d="M9.56,24.38V22.74a0.4,0.4,0,0,0-.4-0.4H1.88a0.4,0.4,0,0,0-.4.4v1.64a0.4,0.4,0,0,0,.4.4H9.16A0.4,0.4,0,0,0,9.56,24.38Zm-7.35-1a0.32,0.32,0,1,1,.32-0.32A0.32,0.32,0,0,1,2.21,23.37Zm0.86,0a0.32,0.32,0,1,1,.32-0.32A0.32,0.32,0,0,1,3.07,23.37Zm0.86,0a0.32,0.32,0,1,1,.32-0.32A0.32,0.32,0,0,1,3.93,23.37Z"/><path class="cls-1" d="M30.15,16.83H22.86a0.4,0.4,0,0,0-.4.4v1.64a0.4,0.4,0,0,0,.4.4h7.29a0.4,0.4,0,0,0,.4-0.4V17.23A0.4,0.4,0,0,0,30.15,16.83Zm-7,1a0.32,0.32,0,1,1,.32-0.32A0.32,0.32,0,0,1,23.2,17.86Zm0.86,0a0.32,0.32,0,1,1,.32-0.32A0.32,0.32,0,0,1,24.06,17.86Zm0.86,0a0.32,0.32,0,1,1,.32-0.32A0.32,0.32,0,0,1,24.91,17.86Z"/><path class="cls-1" d="M30.15,19.59H22.86a0.4,0.4,0,0,0-.4.4v1.64a0.4,0.4,0,0,0,.4.4h7.29a0.4,0.4,0,0,0,.4-0.4V20A0.4,0.4,0,0,0,30.15,19.59Zm-7,1a0.32,0.32,0,1,1,.32-0.32A0.32,0.32,0,0,1,23.2,20.62Zm0.86,0a0.32,0.32,0,1,1,.32-0.32A0.32,0.32,0,0,1,24.06,20.62Zm0.86,0a0.32,0.32,0,1,1,.32-0.32A0.32,0.32,0,0,1,24.91,20.62Z"/><path class="cls-1" d="M30.15,22.34H22.86a0.4,0.4,0,0,0-.4.4v1.64a0.4,0.4,0,0,0,.4.4h7.29a0.4,0.4,0,0,0,.4-0.4V22.74A0.4,0.4,0,0,0,30.15,22.34Zm-7,1a0.32,0.32,0,1,1,.32-0.32A0.32,0.32,0,0,1,23.2,23.37Zm0.86,0a0.32,0.32,0,1,1,.32-0.32A0.32,0.32,0,0,1,24.06,23.37Zm0.86,0a0.32,0.32,0,1,1,.32-0.32A0.32,0.32,0,0,1,24.91,23.37Z"/><path class="cls-1" d="M15.71,26.39a0.62,0.62,0,0,0,.87,0l1.66-1.66a0.8,0.8,0,0,0,.24-0.57V14.43A0.59,0.59,0,0,1,18.63,14l3.56-3.56a2.53,2.53,0,0,0,0-3.58L17.84,2.55a2.53,2.53,0,0,0-3.58,0L10,6.83a2.53,2.53,0,0,0,0,3.58L13.62,14a0.53,0.53,0,0,1,.16.37v1.56a0.32,0.32,0,0,1-.09.22l-1.22,1.24a0.65,0.65,0,0,0,0,.91l1.18,1.17-0.46.47-0.74.75a0.61,0.61,0,0,0,0,.86l1.22,1.2a0.41,0.41,0,0,1,.14.33c0,0.39,0,.78,0,1.17a0.66,0.66,0,0,0,.2.47C14.6,25.27,15.14,25.84,15.71,26.39ZM14.59,4.78a1.69,1.69,0,1,1,.61,2.3A1.69,1.69,0,0,1,14.59,4.78Z"/></svg>
