<svg id="Layer_1" data-name="Layer 1" xmlns="http://www.w3.org/2000/svg" viewBox="0 0 32 32" width="22" height="22"><defs><style>.cls-1{fill:#fff;}</style></defs><title>icons-for-Tim</title><path class="cls-1" d="M8.33,15.46c-1.29,0-2.58,0-3.86,0-0.27,0-.34-0.1-0.33-0.45q0-2.38,0-4.77c0-.28.06-0.37,0.28-0.37h7.81c0.23,0,.3.09,0.3,0.39q0,2.4,0,4.8c0,0.3-.07.39-0.3,0.39H8.33Z"/><path class="cls-1" d="M6.91,18.88c-0.52,0-1,0-1.5,0a0.26,0.26,0,0,1-.14-0.19c0-.42,0-0.83,0-1.25a0.26,0.26,0,0,1,.15-0.2q0.67,0,1.34,0a0.25,0.25,0,0,1,.15.19C6.91,17.88,6.91,18.36,6.91,18.88Z"/><path class="cls-1" d="M9.16,18.88c-0.52,0-1,0-1.47,0a0.3,0.3,0,0,1-.17-0.23,11.52,11.52,0,0,1,0-1.18,0.32,0.32,0,0,1,.2-0.24c0.42,0,.84,0,1.26,0a0.26,0.26,0,0,1,.17.19C9.17,17.88,9.16,18.36,9.16,18.88Z"/><path class="cls-1" d="M11.4,18.88c-0.52,0-1,0-1.46,0a0.3,0.3,0,0,1-.17-0.22,11.52,11.52,0,0,1,0-1.18,0.32,0.32,0,0,1,.2-0.24,12.43,12.43,0,0,1,1.26,0,0.29,0.29,0,0,1,.17.22C11.41,17.9,11.4,18.37,11.4,18.88Z"/><path class="cls-1" d="M6.91,21.32c-0.52,0-1,0-1.5,0a0.26,0.26,0,0,1-.14-0.2c0-.4,0-0.81,0-1.22a0.3,0.3,0,0,1,.18-0.23q0.64,0,1.29,0a0.3,0.3,0,0,1,.17.23C6.92,20.34,6.91,20.8,6.91,21.32Z"/><path class="cls-1" d="M9.16,21.32c-0.52,0-1,0-1.49,0a0.28,0.28,0,0,1-.15-0.22c0-.39,0-0.79,0-1.18a0.33,0.33,0,0,1,.19-0.25,12.43,12.43,0,0,1,1.26,0,0.29,0.29,0,0,1,.18.21C9.17,20.33,9.16,20.8,9.16,21.32Z"/><path class="cls-1" d="M11.4,21.32c-0.52,0-1,0-1.5,0a0.26,0.26,0,0,1-.14-0.2c0-.4,0-0.81,0-1.21a0.3,0.3,0,0,1,.18-0.23q0.64,0,1.28,0a0.3,0.3,0,0,1,.17.23C11.41,20.34,11.4,20.8,11.4,21.32Z"/><path class="cls-1" d="M15.52,9.69a5,5,0,0,0-.08-0.89,2.83,2.83,0,0,0-2.6-2.6h-9c-1.74,0-2.71,1.87-2.66,3.46,0,1.34,0,2.68,0,4A8.56,8.56,0,0,0,2.24,18a1.73,1.73,0,0,1,.22.88c0,3.64,0-.76,0,2.88,0,2.12,1.3,3.57,2.69,3.53,2.13-.05,4.26,0,6.39,0a2.22,2.22,0,0,0,.55,0,3.27,3.27,0,0,0,2.13-3.38c0-3.72,0,.62,0-3.1a1.46,1.46,0,0,1,.16-0.65,9.2,9.2,0,0,0,1.14-4.54C15.51,12.24,15.52,11,15.52,9.69Zm-1.46,4a6.08,6.08,0,0,1-1.15,3.61,1,1,0,0,0-.15.53v3.78a1.74,1.74,0,0,1-.51,1.42,1.09,1.09,0,0,1-.64.26c-2.18,0-4.37,0-6.55,0A1.25,1.25,0,0,1,3.94,22l0-4.1a1,1,0,0,0-.2-0.63,5.65,5.65,0,0,1-1.1-3.37c0-1.39,0-2.77,0-4.16a1.36,1.36,0,0,1,1.24-1.6h8.8c0.95,0,1.39.58,1.39,1.83S14.07,12.45,14.05,13.71Z"/><path class="cls-1" d="M24,15.46c-1.29,0-2.58,0-3.86,0-0.27,0-.34-0.1-0.33-0.45q0-2.38,0-4.77c0-.28.06-0.37,0.28-0.37h7.81c0.23,0,.3.09,0.3,0.39q0,2.4,0,4.8c0,0.3-.07.39-0.3,0.39H24Z"/><path class="cls-1" d="M22.55,18.88c-0.52,0-1,0-1.5,0a0.26,0.26,0,0,1-.14-0.19c0-.42,0-0.83,0-1.25a0.26,0.26,0,0,1,.15-0.2q0.67,0,1.34,0a0.25,0.25,0,0,1,.15.19C22.55,17.88,22.55,18.36,22.55,18.88Z"/><path class="cls-1" d="M24.8,18.88c-0.52,0-1,0-1.47,0a0.3,0.3,0,0,1-.17-0.23,11.52,11.52,0,0,1,0-1.18,0.32,0.32,0,0,1,.2-0.24c0.42,0,.84,0,1.26,0a0.26,0.26,0,0,1,.17.19C24.8,17.88,24.8,18.36,24.8,18.88Z"/><path class="cls-1" d="M27,18.88c-0.52,0-1,0-1.46,0a0.3,0.3,0,0,1-.17-0.22,11.52,11.52,0,0,1,0-1.18,0.32,0.32,0,0,1,.2-0.24,12.43,12.43,0,0,1,1.26,0,0.29,0.29,0,0,1,.17.22C27.05,17.9,27,18.37,27,18.88Z"/><path class="cls-1" d="M22.55,21.32c-0.52,0-1,0-1.5,0a0.26,0.26,0,0,1-.14-0.2c0-.4,0-0.81,0-1.22a0.3,0.3,0,0,1,.18-0.23q0.64,0,1.29,0a0.3,0.3,0,0,1,.17.23C22.56,20.34,22.55,20.8,22.55,21.32Z"/><path class="cls-1" d="M24.8,21.32c-0.52,0-1,0-1.49,0a0.28,0.28,0,0,1-.15-0.22c0-.39,0-0.79,0-1.18a0.33,0.33,0,0,1,.19-0.25,12.43,12.43,0,0,1,1.26,0,0.29,0.29,0,0,1,.18.21C24.81,20.33,24.8,20.8,24.8,21.32Z"/><path class="cls-1" d="M27,21.32c-0.52,0-1,0-1.5,0a0.26,0.26,0,0,1-.14-0.2c0-.4,0-0.81,0-1.21a0.3,0.3,0,0,1,.18-0.23q0.64,0,1.28,0a0.3,0.3,0,0,1,.17.23C27.05,20.34,27,20.8,27,21.32Z"/><path class="cls-1" d="M31.15,9.69a5,5,0,0,0-.08-0.89,2.83,2.83,0,0,0-2.6-2.6h-9c-1.74,0-2.71,1.87-2.66,3.46,0,1.34,0,2.68,0,4A8.56,8.56,0,0,0,17.88,18a1.73,1.73,0,0,1,.22.88c0,3.64,0-.76,0,2.88,0,2.12,1.3,3.57,2.69,3.53,2.13-.05,4.26,0,6.39,0a2.22,2.22,0,0,0,.55,0,3.27,3.27,0,0,0,2.13-3.38c0-3.72,0,.62,0-3.1A1.46,1.46,0,0,1,30,18.07a9.2,9.2,0,0,0,1.14-4.54C31.15,12.24,31.16,11,31.15,9.69Zm-1.46,4a6.08,6.08,0,0,1-1.15,3.61,1,1,0,0,0-.15.53v3.78a1.74,1.74,0,0,1-.51,1.42,1.09,1.09,0,0,1-.64.26c-2.18,0-4.37,0-6.55,0A1.25,1.25,0,0,1,19.58,22l0-4.1a1,1,0,0,0-.2-0.63,5.65,5.65,0,0,1-1.1-3.37c0-1.39,0-2.77,0-4.16a1.36,1.36,0,0,1,1.24-1.6h8.8c0.95,0,1.39.58,1.39,1.83S29.71,12.45,29.69,13.71Z"/></svg>
