<svg id="Layer_1" data-name="Layer 1" xmlns="http://www.w3.org/2000/svg" viewBox="0 0 32 32" width="22" height="22"><defs><style>.cls-1{fill:#fff;}</style></defs><title>icons-for-Tim</title><path class="cls-1" d="M16,15.59c-2,0-4,0-6,0-0.41,0-.52-0.16-0.51-0.69q0-3.67,0-7.35c0-.44.1-0.57,0.43-0.57q6,0,12,0c0.35,0,.46.14,0.46,0.6q0,3.7,0,7.41c0,0.46-.11.6-0.46,0.6C20,15.58,18,15.59,16,15.59Z"/><path class="cls-1" d="M13.8,20.86c-0.8,0-1.55,0-2.31,0a0.39,0.39,0,0,1-.22-0.3c0-.64,0-1.29,0-1.93a0.4,0.4,0,0,1,.23-0.3q1,0,2.07,0a0.38,0.38,0,0,1,.22.29C13.81,19.33,13.8,20.06,13.8,20.86Z"/><path class="cls-1" d="M17.27,20.86c-0.8,0-1.53,0-2.26,0a0.47,0.47,0,0,1-.26-0.35,17.76,17.76,0,0,1,0-1.82A0.49,0.49,0,0,1,15,18.31c0.65,0,1.29,0,1.94,0a0.4,0.4,0,0,1,.27.29C17.28,19.33,17.27,20.06,17.27,20.86Z"/><path class="cls-1" d="M20.73,20.86c-0.8,0-1.53,0-2.26,0a0.46,0.46,0,0,1-.27-0.35,17.77,17.77,0,0,1,0-1.82,0.5,0.5,0,0,1,.3-0.37,19.16,19.16,0,0,1,1.94,0,0.45,0.45,0,0,1,.27.34C20.74,19.36,20.73,20.07,20.73,20.86Z"/><path class="cls-1" d="M13.8,24.62c-0.81,0-1.56,0-2.32,0a0.4,0.4,0,0,1-.21-0.31c0-.62,0-1.25,0-1.87a0.47,0.47,0,0,1,.28-0.35q1,0,2,0a0.47,0.47,0,0,1,.26.35C13.81,23.12,13.8,23.82,13.8,24.62Z"/><path class="cls-1" d="M17.27,24.62c-0.81,0-1.55,0-2.29,0a0.44,0.44,0,0,1-.24-0.33c0-.61,0-1.21,0-1.82A0.51,0.51,0,0,1,15,22.07a19.16,19.16,0,0,1,1.94,0,0.44,0.44,0,0,1,.28.32C17.28,23.11,17.27,23.82,17.27,24.62Z"/><path class="cls-1" d="M20.73,24.62c-0.8,0-1.56,0-2.31,0a0.4,0.4,0,0,1-.21-0.31c0-.62,0-1.25,0-1.87a0.47,0.47,0,0,1,.28-0.35q1,0,2,0a0.47,0.47,0,0,1,.25.35C20.74,23.12,20.73,23.82,20.73,24.62Z"/><path class="cls-1" d="M27.07,6.69a7.78,7.78,0,0,0-.13-1.37c-0.45-2.41-2-4-4-4H16c-2.33,0-4.65,0-7,0-2.68,0-4.18,2.89-4.1,5.34,0.06,2.06,0,4.13,0,6.19A13.19,13.19,0,0,0,6.6,19.43a2.67,2.67,0,0,1,.34,1.36c0,5.62,0-1.18,0,4.44,0,3.27,2,5.5,4.15,5.45,3.28-.08,6.57,0,9.85,0a3.43,3.43,0,0,0,.84-0.07c2-.5,3.28-2.59,3.28-5.22,0-5.73,0,1,0-4.77a2.25,2.25,0,0,1,.25-1,14.19,14.19,0,0,0,1.76-7C27.06,10.63,27.08,8.66,27.07,6.69Zm-2.26,6.2A9.38,9.38,0,0,1,23,18.46a1.54,1.54,0,0,0-.23.82V25.1A2.69,2.69,0,0,1,22,27.3a1.68,1.68,0,0,1-1,.4c-3.37,0-6.74,0-10.11,0a1.92,1.92,0,0,1-1.71-2.07l0-6.32a1.48,1.48,0,0,0-.3-1,8.71,8.71,0,0,1-1.69-5.2c0-2.14,0-4.27,0-6.41,0-1.51.73-2.46,1.91-2.47,1.35,0,2.71,0,4.06,0h9.51c1.46,0,2.14.9,2.14,2.82S24.84,11,24.81,12.89Z"/></svg>
