<?xml version="1.0" encoding="utf-8"?>
<!-- Generator: Adobe Illustrator 19.2.0, SVG Export Plug-In . SVG Version: 6.00 Build 0)  -->
<svg version="1.1" id="Layer_1" xmlns="http://www.w3.org/2000/svg" xmlns:xlink="http://www.w3.org/1999/xlink" x="0px" y="0px"
	 viewBox="0 0 32 32" style="enable-background:new 0 0 32 32; width=22px; height=22px" xml:space="preserve">
<style type="text/css">
	.st0{fill:#FFFFFF;}
</style>
<g>
	<path class="st0" d="M29.7,15.7c-0.3,0.2-0.6,0.3-0.9,0.4c-0.9,0.3-1.9,0.5-2.9,0.5l0,0.6c0,0.2,0,0.5,0,0.7c0,0.2,0,0.4,0,0.6
		c0.5,0,1-0.1,1.5-0.2c1-0.2,1.9-0.5,2.8-1.1c0.4-0.3,0.7-0.6,0.7-1.1c0-0.5,0-1.1,0-1.6C30.7,15.1,30.2,15.4,29.7,15.7z"/>
	<path class="st0" d="M29.2,13.3c-1,0.4-2.1,0.6-3.2,0.7c0,0,0,0-0.1,0c0,0.6,0,1.3,0,1.9c0.7,0,1.5-0.2,2.3-0.3
		c0.8-0.2,1.6-0.5,2.2-1.1c0.3-0.2,0.5-0.5,0.5-0.8c0.1-0.6,0-1.2,0-1.8C30.6,12.6,29.9,13,29.2,13.3z"/>
	<path class="st0" d="M26,13.3c0.6,0,1.1-0.1,1.7-0.2c0.9-0.2,1.8-0.5,2.5-1c0.4-0.3,0.7-0.6,0.8-1c0.1-0.6,0-1.2,0-1.8
		c-0.4,0.8-1.1,1.2-1.8,1.5c-0.8,0.3-1.7,0.5-2.6,0.6c-0.2,0-0.4,0-0.6,0c0,0.2,0,0.4-0.1,0.6l0,1.1C26,13.1,26,13.2,26,13.3z"/>
	<path class="st0" d="M30.7,9c0.5-0.5,0.5-1.2,0-1.7c-0.4-0.5-0.9-0.8-1.4-1c-2.4-0.9-4.8-0.9-7.2-0.2c-0.6,0.2-1.2,0.5-1.7,0.9
		c0.8,0.2,1.6,0.4,2.4,0.7c1.1,0.4,2,1,2.6,1.8c0.2,0.2,0.3,0.5,0.4,0.7l0.1,0.4h0c0,0,0,0,0,0.1c0.9,0,2-0.2,3-0.6
		C29.5,9.9,30.2,9.5,30.7,9z"/>
	<path class="st0" d="M6.2,16.6c-0.5,0-1-0.1-1.5-0.2c-1.3-0.3-2.7-0.6-3.5-2c0,0.5,0,0.9,0,1.3c0,0.7,0.3,1.1,0.8,1.5
		c0.5,0.4,1.1,0.7,1.8,0.8c0.8,0.2,1.6,0.4,2.5,0.4c0-0.2,0-0.3,0-0.5L6.2,16.6z"/>
	<path class="st0" d="M3.3,13.4c-0.8-0.3-1.6-0.7-2-1.6c0,0.6,0,1.1,0,1.7c0,0.3,0.1,0.5,0.3,0.7c0.4,0.5,0.9,0.8,1.5,1
		c1.1,0.4,2.1,0.6,3.2,0.7l0-0.4c0-0.1,0-0.2,0-0.3c0-0.4,0-0.9,0-1.3C5.2,13.9,4.2,13.7,3.3,13.4z"/>
	<path class="st0" d="M3.5,12.8c0.9,0.3,1.8,0.5,2.7,0.5l0-1.9c-1-0.1-1.9-0.2-2.8-0.6c-0.8-0.3-1.6-0.7-2.1-1.6c0,0.5,0,0.9,0,1.4
		c0,0.5,0.2,0.9,0.5,1.2C2.2,12.3,2.8,12.6,3.5,12.8z"/>
	<path class="st0" d="M10.6,7.3C11.1,7.1,11.5,7,12,6.9c-0.3-0.3-0.7-0.5-1.1-0.6C8.5,5.4,6.1,5.4,3.7,6.1C3,6.2,2.3,6.5,1.8,7
		c-0.7,0.7-0.7,1.5,0,2.2C2,9.4,2.3,9.6,2.7,9.8c1.1,0.5,2.3,0.8,3.7,0.8l0.1-0.2c0.2-0.5,0.5-1,1-1.4C8.2,8.2,9.3,7.6,10.6,7.3z"/>
	<path class="st0" d="M23.2,23.5c-0.5,0.3-1,0.5-1.5,0.6c-3,1-6.1,1.1-9.2,0.5c-2.2-0.4-4.3-1-5.6-3.2c0,0.8,0,1.5,0,2.1
		c-0.1,1.1,0.4,1.8,1.2,2.4c0.8,0.6,1.8,1.1,2.8,1.3c2.9,0.8,5.8,0.9,8.7,0.4c1.6-0.3,3.1-0.7,4.4-1.8c0.6-0.5,1.1-1,1.2-1.8
		c0-0.9,0-1.7,0-2.6C24.8,22.4,24,23,23.2,23.5z"/>
	<path class="st0" d="M22.4,19.6c-1.6,0.7-3.3,1-5.1,1.1c-2.4,0.1-4.8-0.1-7.1-0.9c-1.3-0.5-2.6-1.1-3.3-2.5c0,0.9,0,1.8,0,2.7
		c0,0.4,0.2,0.8,0.5,1.1c0.6,0.8,1.4,1.3,2.3,1.6c3.6,1.4,7.3,1.5,11,0.6c1.3-0.3,2.6-0.8,3.6-1.7c0.4-0.4,0.8-0.8,0.9-1.4
		c0.1-1,0-1.9,0-2.9C24.6,18.5,23.5,19.1,22.4,19.6z"/>
	<path class="st0" d="M22.3,15.4c-1.3,0.6-2.7,0.8-4.2,1c-2.7,0.3-5.3,0.1-7.8-0.8c-1.3-0.5-2.6-1.1-3.4-2.5c0,0.7,0,1.5,0,2.2
		c0,0.8,0.3,1.4,0.8,1.9c0.8,0.7,1.7,1.2,2.7,1.5c3.1,1,6.2,1.1,9.4,0.5c1.5-0.3,2.9-0.7,4.1-1.6c0.6-0.4,1.1-0.9,1.2-1.6
		c0.2-1,0-2,0-2.9C24.6,14.3,23.5,14.9,22.3,15.4z"/>
	<path class="st0" d="M7.8,9.5c-1.2,1.1-1.2,2.4,0,3.5c0.4,0.4,0.9,0.7,1.4,1c2.2,1.1,4.5,1.4,7.4,1.4c1.5,0,3.5-0.3,5.3-0.9
		c1.1-0.4,2.1-0.9,2.9-1.8c0.7-0.9,0.7-1.9,0-2.7c-0.6-0.8-1.4-1.2-2.3-1.6C18.6,6.9,14.7,6.9,10.8,8C9.7,8.3,8.7,8.8,7.8,9.5z"/>
</g>
</svg>
