<svg id="Layer_1" data-name="Layer 1" xmlns="http://www.w3.org/2000/svg" viewBox="0 0 32 32" width="22" height="22"><defs><style>.cls-1{fill:#fff;}</style></defs><title>icons-for-Tim</title><path class="cls-1" d="M16.66,13c-3.8-.07-6.91-0.45-9.8-1.88A7.4,7.4,0,0,1,5,9.86,2.88,2.88,0,0,1,5,5.24,9.64,9.64,0,0,1,9,3.15a24,24,0,0,1,15.44.5,7,7,0,0,1,3.08,2.11,2.67,2.67,0,0,1,0,3.65,8.37,8.37,0,0,1-3.84,2.39A22.42,22.42,0,0,1,16.66,13Z"/><path class="cls-1" d="M3.86,15.56a7.24,7.24,0,0,0,4.37,3.32,23.12,23.12,0,0,0,9.41,1.21,20.47,20.47,0,0,0,6.74-1.42,6.7,6.7,0,0,0,3.8-3.13,26.64,26.64,0,0,1,0,3.87A3,3,0,0,1,27,21.21a10.75,10.75,0,0,1-4.8,2.31,24,24,0,0,1-14.63-.75,7,7,0,0,1-3.11-2.17,2.51,2.51,0,0,1-.63-1.51C3.85,17.93,3.86,16.74,3.86,15.56Z"/><path class="cls-1" d="M28.22,21.25c0,1.16,0,2.33,0,3.49a3.31,3.31,0,0,1-1.55,2.43,13.11,13.11,0,0,1-5.9,2.34A25.19,25.19,0,0,1,9.19,29a11.22,11.22,0,0,1-3.74-1.8A3.58,3.58,0,0,1,3.83,24c0.06-.91,0-1.82,0-2.85,1.73,2.89,4.55,3.65,7.43,4.21a24.19,24.19,0,0,0,12.27-.7,11.23,11.23,0,0,0,1.94-.84A6.44,6.44,0,0,0,28.22,21.25Z"/><path class="cls-1" d="M3.84,9.92a7.42,7.42,0,0,0,4.48,3.35,23.79,23.79,0,0,0,10.45,1.09A19.05,19.05,0,0,0,24.32,13,6.73,6.73,0,0,0,28.18,9.9a20.27,20.27,0,0,1,0,3.93A3.53,3.53,0,0,1,26.54,16a13.19,13.19,0,0,1-5.43,2.17A24.68,24.68,0,0,1,8.56,17.5a9.19,9.19,0,0,1-3.61-2,3.27,3.27,0,0,1-1.11-2.59C3.87,11.89,3.84,10.91,3.84,9.92Z"/></svg>
