<svg id="Layer_1" data-name="Layer 1" xmlns="http://www.w3.org/2000/svg" viewBox="0 0 32 32" width="22" height="22"><defs><style>.cls-1{fill:#fff;}</style></defs><title>icons-for-Tim</title><path class="cls-1" d="M4.55,7.16V22.9a1.36,1.36,0,0,1,.76,0,0.93,0.93,0,0,1,.51.68,1.49,1.49,0,0,1,0,.16v0.6h6.62v-0.6a1.47,1.47,0,0,1,0-.16,0.93,0.93,0,0,1,1.84,0,1.47,1.47,0,0,1,0,.16v0.6H27.42v-0.6a1.47,1.47,0,0,1,0-.16h0a0.93,0.93,0,0,1,.51-0.68h0a1.36,1.36,0,0,1,.76,0V7.16H4.55ZM27.95,22.3a1.51,1.51,0,0,0-1.09,1.29H26.18V22.12a0.31,0.31,0,0,0-.62,0V23.6H24.94V22.12a0.31,0.31,0,0,0-.62,0V23.6H23.69V22.12a0.31,0.31,0,0,0-.62,0V23.6H22.44V22.12a0.31,0.31,0,0,0-.62,0V23.6H21.19V22.12a0.31,0.31,0,0,0-.62,0V23.6H19.94V22.12a0.31,0.31,0,0,0-.62,0V23.6H18.7V22.12a0.31,0.31,0,0,0-.62,0V23.6H17.45V22.12a0.31,0.31,0,0,0-.62,0V23.6H16.2V22.12a0.31,0.31,0,0,0-.62,0V23.6H14.89a1.5,1.5,0,0,0-3,0h-0.6V22.12a0.31,0.31,0,0,0-.62,0V23.6H10.05V22.12a0.31,0.31,0,0,0-.62,0V23.6H8.81V22.12a0.31,0.31,0,0,0-.62,0V23.6H7.57V22.12a0.31,0.31,0,0,0-.62,0V23.6H6.4a1.51,1.51,0,0,0-1.09-1.29V7.92H27.95V22.3Z"/><path class="cls-1" d="M3.69,5.07H0.95a0.44,0.44,0,0,0-.44.44V5.77a0.44,0.44,0,0,0,.44.44h1.6A0.44,0.44,0,0,1,3,6.65V22.41a0.44,0.44,0,0,0,.44.44H3.69a0.44,0.44,0,0,0,.44-0.44V5.51A0.44,0.44,0,0,0,3.69,5.07Z"/><polygon class="cls-1" points="7.26 18.67 8.15 18.67 8.15 19.59 8.8 19.59 8.8 18.67 9.22 18.67 9.22 19.59 9.88 19.59 9.88 18.67 10.3 18.67 10.3 19.59 10.96 19.59 10.96 18.67 11.38 18.67 11.38 19.59 12.03 19.59 12.03 18.67 12.45 18.67 12.45 19.59 13.11 19.59 13.11 18.67 13.53 18.67 13.53 19.59 14.19 19.59 14.19 18.67 15.07 18.67 15.07 17.71 16.17 17.71 16.17 17.05 15.07 17.05 15.07 16.63 16.17 16.63 16.17 15.97 15.07 15.97 15.07 15.55 16.17 15.55 16.17 14.9 15.07 14.9 15.07 14.48 16.17 14.48 16.17 13.82 15.07 13.82 15.07 13.4 16.17 13.4 16.17 12.74 15.07 12.74 15.07 12.32 16.17 12.32 16.17 11.67 15.07 11.67 15.07 10.87 14.19 10.87 14.19 9.9 13.53 9.9 13.53 10.87 13.11 10.87 13.11 9.9 12.45 9.9 12.45 10.87 12.03 10.87 12.03 9.9 11.38 9.9 11.38 10.87 10.96 10.87 10.96 9.9 10.3 9.9 10.3 10.87 9.88 10.87 9.88 9.9 9.22 9.9 9.22 10.87 8.8 10.87 8.8 9.9 8.15 9.9 8.15 10.87 7.26 10.87 7.26 11.67 6.21 11.67 6.21 12.32 7.26 12.32 7.26 12.74 6.21 12.74 6.21 13.4 7.26 13.4 7.26 13.82 6.21 13.82 6.21 14.48 7.26 14.48 7.26 14.9 6.21 14.9 6.21 15.55 7.26 15.55 7.26 15.97 6.21 15.97 6.21 16.63 7.26 16.63 7.26 17.05 6.21 17.05 6.21 17.71 7.26 17.71 7.26 18.67"/><polygon class="cls-1" points="18.52 18.67 19.4 18.67 19.4 19.59 20.06 19.59 20.06 18.67 20.48 18.67 20.48 19.59 21.13 19.59 21.13 18.67 21.55 18.67 21.55 19.59 22.21 19.59 22.21 18.67 22.63 18.67 22.63 19.59 23.29 19.59 23.29 18.67 23.71 18.67 23.71 19.59 24.36 19.59 24.36 18.67 24.78 18.67 24.78 19.59 25.44 19.59 25.44 18.67 26.32 18.67 26.32 17.71 27.42 17.71 27.42 17.05 26.32 17.05 26.32 16.63 27.42 16.63 27.42 15.97 26.32 15.97 26.32 15.55 27.42 15.55 27.42 14.9 26.32 14.9 26.32 14.48 27.42 14.48 27.42 13.82 26.32 13.82 26.32 13.4 27.42 13.4 27.42 12.74 26.32 12.74 26.32 12.32 27.42 12.32 27.42 11.67 26.32 11.67 26.32 10.87 25.44 10.87 25.44 9.9 24.78 9.9 24.78 10.87 24.36 10.87 24.36 9.9 23.71 9.9 23.71 10.87 23.29 10.87 23.29 9.9 22.63 9.9 22.63 10.87 22.21 10.87 22.21 9.9 21.55 9.9 21.55 10.87 21.13 10.87 21.13 9.9 20.48 9.9 20.48 10.87 20.06 10.87 20.06 9.9 19.4 9.9 19.4 10.87 18.52 10.87 18.52 11.67 17.46 11.67 17.46 12.32 18.52 12.32 18.52 12.74 17.46 12.74 17.46 13.4 18.52 13.4 18.52 13.82 17.46 13.82 17.46 14.48 18.52 14.48 18.52 14.9 17.46 14.9 17.46 15.55 18.52 15.55 18.52 15.97 17.46 15.97 17.46 16.63 18.52 16.63 18.52 17.05 17.46 17.05 17.46 17.71 18.52 17.71 18.52 18.67"/></svg>
