<svg id="Layer_1" data-name="Layer 1" xmlns="http://www.w3.org/2000/svg" viewBox="0 0 32 32" width="22" height="22"><defs><style>.cls-1{fill:#fff;}</style></defs><title>icons-for-Tim</title><path class="cls-1" d="M29.28,3.46H2.78A1.26,1.26,0,0,0,1.52,4.72V9.9a1.26,1.26,0,0,0,1.26,1.26h26.5A1.26,1.26,0,0,0,30.54,9.9V4.72A1.26,1.26,0,0,0,29.28,3.46ZM3.83,6.73a1,1,0,1,1,1-1A1,1,0,0,1,3.83,6.73Zm2.72,0a1,1,0,1,1,1-1A1,1,0,0,1,6.55,6.73Zm2.72,0a1,1,0,1,1,1-1A1,1,0,0,1,9.27,6.73Z"/><path class="cls-1" d="M29.28,12.17H2.78a1.26,1.26,0,0,0-1.26,1.26v5.19a1.26,1.26,0,0,0,1.26,1.26h26.5a1.26,1.26,0,0,0,1.26-1.26V13.43A1.26,1.26,0,0,0,29.28,12.17ZM3.83,15.45a1,1,0,1,1,1-1A1,1,0,0,1,3.83,15.45Zm2.72,0a1,1,0,1,1,1-1A1,1,0,0,1,6.55,15.45Zm2.72,0a1,1,0,1,1,1-1A1,1,0,0,1,9.27,15.45Z"/><path class="cls-1" d="M29.28,20.89H2.78a1.26,1.26,0,0,0-1.26,1.26v5.19a1.26,1.26,0,0,0,1.26,1.26h26.5a1.26,1.26,0,0,0,1.26-1.26V22.15A1.26,1.26,0,0,0,29.28,20.89ZM3.83,24.16a1,1,0,1,1,1-1A1,1,0,0,1,3.83,24.16Zm2.72,0a1,1,0,1,1,1-1A1,1,0,0,1,6.55,24.16Zm2.72,0a1,1,0,1,1,1-1A1,1,0,0,1,9.27,24.16Z"/></svg>
