<svg width="190" height="190" viewBox="0 0 190 190" fill="none" xmlns="http://www.w3.org/2000/svg">
<g opacity="0.5">
<path d="M182.083 141.787C182.241 147.725 180.658 153.346 177.808 158.175C176.225 161.025 174.087 163.638 171.712 165.775C166.25 170.842 159.046 173.929 151.05 174.167C139.491 174.404 129.279 168.467 123.658 159.363C120.65 154.692 118.829 149.071 118.75 143.133C118.512 133.158 122.946 124.133 130.071 118.196C135.454 113.762 142.262 110.992 149.704 110.833C167.2 110.438 181.687 124.291 182.083 141.787Z" stroke="#911211" stroke-width="1.5" stroke-miterlimit="10" stroke-linecap="round" stroke-linejoin="round"/>
<path d="M138.066 142.738L146.062 150.337L162.608 134.346" stroke="#911211" stroke-width="1.5" stroke-linecap="round" stroke-linejoin="round"/>
<path d="M25.0957 58.9L94.9998 99.3541L164.429 59.1373" stroke="#911211" stroke-width="1.5" stroke-linecap="round" stroke-linejoin="round"/>
<path d="M95 171.079V99.2748" stroke="#911211" stroke-width="1.5" stroke-linecap="round" stroke-linejoin="round"/>
<path d="M171.079 72.5959V117.404C171.079 117.8 171.079 118.117 171 118.512C165.458 113.683 158.333 110.834 150.417 110.834C142.975 110.834 136.087 113.446 130.625 117.8C123.342 123.579 118.75 132.525 118.75 142.5C118.75 148.438 120.412 154.059 123.342 158.809C124.054 160.075 124.925 161.263 125.875 162.371L111.388 170.367C102.363 175.434 87.6374 175.434 78.6124 170.367L36.3374 146.934C26.7583 141.629 18.9209 128.329 18.9209 117.404V72.5959C18.9209 61.6709 26.7583 48.371 36.3374 43.0669L78.6124 19.6334C87.6374 14.5667 102.363 14.5667 111.388 19.6334L153.662 43.0669C163.242 48.371 171.079 61.6709 171.079 72.5959Z" stroke="#911211" stroke-width="1.5" stroke-linecap="round" stroke-linejoin="round"/>
</g>
</svg>
