<svg width="24" height="24" viewBox="0 0 24 24" fill="none" xmlns="http://www.w3.org/2000/svg">
<path d="M5.54003 11.1199C0.860029 11.4499 0.860029 18.2599 5.54003 18.5899H7.46007" stroke="#911211" stroke-width="1.5" stroke-miterlimit="10" stroke-linecap="round" stroke-linejoin="round"/>
<path d="M5.59003 11.1199C2.38003 2.1899 15.92 -1.3801 17.47 7.9999C21.8 8.5499 23.55 14.3199 20.27 17.1899C19.27 18.0999 17.98 18.5999 16.63 18.5899H16.54" stroke="#911211" stroke-width="1.5" stroke-miterlimit="10" stroke-linecap="round" stroke-linejoin="round"/>
<path d="M17 16.53C17 17.27 16.84 17.97 16.54 18.59C16.46 18.77 16.37 18.94 16.27 19.1C15.41 20.55 13.82 21.53 12 21.53C10.18 21.53 8.58998 20.55 7.72998 19.1C7.62998 18.94 7.54002 18.77 7.46002 18.59C7.16002 17.97 7 17.27 7 16.53C7 13.77 9.24 11.53 12 11.53C14.76 11.53 17 13.77 17 16.53Z" stroke="#911211" stroke-width="1.5" stroke-miterlimit="10" stroke-linecap="round" stroke-linejoin="round"/>
<path d="M10.4399 16.53L11.4299 17.5201L13.5599 15.55" stroke="#911211" stroke-width="1.5" stroke-linecap="round" stroke-linejoin="round"/>
</svg>
