<svg width="131" height="131" viewBox="0 0 131 131" fill="none" xmlns="http://www.w3.org/2000/svg">
<path fill-rule="evenodd" clip-rule="evenodd" d="M113.576 51.9851C114.832 56.3495 115.542 60.9484 115.542 65.7107C115.542 93.1241 93.3128 115.423 65.9854 115.423C38.6621 115.423 16.4286 93.1241 16.4286 65.7107C16.4286 38.2973 38.6621 15.998 65.9854 15.998C80.0353 15.998 92.7074 21.9204 101.739 31.3738C105.567 28.1193 109.605 24.8565 113.784 21.6649C101.893 8.6933 84.8954 0.504883 65.9896 0.504883C30.1487 0.504883 0.988281 29.757 0.988281 65.7149C0.988281 101.668 30.1487 130.925 65.9896 130.925C101.835 130.925 130.995 101.668 130.995 65.7149C130.995 56.6887 129.154 48.0857 125.834 40.2616C121.743 43.9391 117.613 47.8721 113.576 51.9851Z" fill="#911211"/>
</svg>
