<svg width="30" height="32" viewBox="0 0 30 32" fill="none" xmlns="http://www.w3.org/2000/svg">
<path d="M28.6978 19.9116C28.6978 21.1776 28.3422 22.3724 27.7164 23.3965C26.55 25.3595 24.4021 26.6681 21.9414 26.6681C19.4806 26.6681 17.3327 25.3453 16.1664 23.3965C15.5405 22.3866 15.1849 21.1776 15.1849 19.9116C15.1849 16.1849 18.2146 13.1552 21.9414 13.1552C25.6681 13.1552 28.6978 16.1849 28.6978 19.9116Z" stroke="#911211" stroke-width="2" stroke-miterlimit="10" stroke-linecap="round" stroke-linejoin="round"/>
<path d="M24.4733 19.8831H19.4237" stroke="#911211" stroke-width="2" stroke-miterlimit="10" stroke-linecap="round" stroke-linejoin="round"/>
<path d="M21.9414 17.4224V22.4719" stroke="#911211" stroke-width="2" stroke-miterlimit="10" stroke-linecap="round" stroke-linejoin="round"/>
<path d="M27.3608 4.64918V7.8069C27.3608 8.95905 26.6353 10.3957 25.9241 11.1211L23.4207 13.3259C22.9513 13.2121 22.4534 13.1552 21.9414 13.1552C18.2147 13.1552 15.1849 16.1849 15.1849 19.9117C15.1849 21.1776 15.5405 22.3724 16.1664 23.3966C16.6927 24.2785 17.4181 25.0323 18.3 25.5728V26.0565C18.3 26.9242 17.731 28.0763 17.0056 28.503L15 29.7974C13.1366 30.9496 10.5478 29.6552 10.5478 27.3508V19.741C10.5478 18.7311 9.96465 17.4367 9.39569 16.7255L3.93362 10.9789C3.22241 10.2534 2.63922 8.95909 2.63922 8.10564V4.79139C2.63922 3.07027 3.93362 1.77588 5.5125 1.77588H24.4875C26.0664 1.77588 27.3608 3.0703 27.3608 4.64918Z" stroke="#911211" stroke-width="2" stroke-miterlimit="10" stroke-linecap="round" stroke-linejoin="round"/>
</svg>
