<svg width="20" height="20" viewBox="0 0 20 20" fill="none" xmlns="http://www.w3.org/2000/svg">
<path d="M7.26613 1.72923C4.18752 4.18886 3.25974 8.86287 5.90058 12.4988C5.83423 12.5678 5.76571 12.6429 5.69392 12.7146C3.92974 14.4793 2.16774 16.245 0.39975 18.0059C0.0614872 18.343 -0.0831699 18.7324 0.0478916 19.1924C0.273581 19.9826 1.23181 20.2594 1.8583 19.7221C1.99697 19.6036 2.12097 19.4671 2.25094 19.3376C3.92865 17.66 5.60637 15.9829 7.2819 14.3031C7.34879 14.2357 7.39176 14.1454 7.44886 14.0611C11.1289 16.7355 15.8021 15.8198 18.2672 12.7326C20.7743 9.59211 20.5345 5.12529 17.7191 2.29805C14.902 -0.531912 10.4067 -0.779341 7.26613 1.72923ZM6.60538 7.84378C6.5994 4.7479 9.08143 2.24693 12.1677 2.23986C15.2425 2.23225 17.7598 4.74626 17.7593 7.8242C17.7588 10.8945 15.261 13.3911 12.1867 13.3944C9.10101 13.3971 6.61082 10.9212 6.60538 7.84378Z" fill="#911211"/>
</svg>
