<svg width="24" height="25" viewBox="0 0 24 25" fill="none" xmlns="http://www.w3.org/2000/svg">
<path d="M19.79 15.0038C17.73 17.0538 14.78 17.6838 12.19 16.8738L7.47999 21.5738C7.13999 21.9238 6.46999 22.1338 5.98999 22.0638L3.80999 21.7638C3.08999 21.6638 2.41999 20.9838 2.30999 20.2638L2.00999 18.0838C1.93999 17.6038 2.16999 16.9338 2.49999 16.5938L7.19999 11.8938C6.39999 9.2938 7.01999 6.3438 9.07999 4.2938C12.03 1.3438 16.82 1.3438 19.78 4.2938C22.74 7.2438 22.74 12.0538 19.79 15.0038Z" stroke="#911211" stroke-width="1.5" stroke-miterlimit="10" stroke-linecap="round" stroke-linejoin="round"/>
<path d="M6.89001 17.5637L9.19001 19.8637" stroke="#911211" stroke-width="1.5" stroke-miterlimit="10" stroke-linecap="round" stroke-linejoin="round"/>
<path d="M14.5 11.0737C15.3284 11.0737 16 10.4022 16 9.57373C16 8.7453 15.3284 8.07373 14.5 8.07373C13.6716 8.07373 13 8.7453 13 9.57373C13 10.4022 13.6716 11.0737 14.5 11.0737Z" stroke="#911211" stroke-width="1.5" stroke-linecap="round" stroke-linejoin="round"/>
</svg>
