<svg width="16" height="17" viewBox="0 0 16 17" fill="none" xmlns="http://www.w3.org/2000/svg">
<path d="M7.04894 2.00078C7.3483 1.07947 8.6517 1.07947 8.95106 2.00078L10.0206 5.29258C10.1545 5.7046 10.5385 5.98356 10.9717 5.98356H14.4329C15.4016 5.98356 15.8044 7.22318 15.0207 7.79258L12.2205 9.82702C11.87 10.0817 11.7234 10.533 11.8572 10.9451L12.9268 14.2369C13.2261 15.1582 12.1717 15.9243 11.388 15.3549L8.58779 13.3204C8.2373 13.0658 7.7627 13.0658 7.41221 13.3204L4.61204 15.3549C3.82833 15.9243 2.77385 15.1582 3.0732 14.2369L4.14277 10.9451C4.27665 10.533 4.12999 10.0817 3.7795 9.82702L0.979333 7.79258C0.195619 7.22318 0.598395 5.98356 1.56712 5.98356H5.02832C5.46154 5.98356 5.8455 5.7046 5.97937 5.29258L7.04894 2.00078Z" stroke="#911211"/>
</svg>
