<svg width="54" height="52" viewBox="0 0 54 52" fill="none" xmlns="http://www.w3.org/2000/svg">
<rect x="6.10352e-05" y="0.0736084" width="54" height="51" rx="15" fill="#efdcdb"/>
<path d="M17.0001 23.0001V21.0001C17.0001 18.0001 19.0001 16.0001 22.0001 16.0001H32.0001C35.0001 16.0001 37.0001 18.0001 37.0001 21.0001V23.0001" stroke="#911211" stroke-width="1.5" stroke-miterlimit="10" stroke-linecap="round" stroke-linejoin="round"/>
<path d="M17.0001 29.0001V31.0001C17.0001 34.0001 19.0001 36.0001 22.0001 36.0001H32.0001C35.0001 36.0001 37.0001 34.0001 37.0001 31.0001V29.0001" stroke="#911211" stroke-width="1.5" stroke-miterlimit="10" stroke-linecap="round" stroke-linejoin="round"/>
<path d="M21.7001 23.2601L27.0001 26.3301L32.2601 23.2802" stroke="#911211" stroke-width="1.5" stroke-linecap="round" stroke-linejoin="round"/>
<path d="M27.0001 31.7701V26.3201" stroke="#911211" stroke-width="1.5" stroke-linecap="round" stroke-linejoin="round"/>
<path d="M25.76 20.2901L22.56 22.0701C21.84 22.4701 21.2401 23.4801 21.2401 24.3101V27.7001C21.2401 28.5301 21.83 29.5401 22.56 29.9401L25.76 31.7201C26.44 32.1001 27.56 32.1001 28.25 31.7201L31.45 29.9401C32.17 29.5401 32.7701 28.5301 32.7701 27.7001V24.3101C32.7701 23.4801 32.18 22.4701 31.45 22.0701L28.25 20.2901C27.56 19.9001 26.44 19.9001 25.76 20.2901Z" stroke="#911211" stroke-width="1.5" stroke-linecap="round" stroke-linejoin="round"/>
</svg>
