<svg width="52" height="52" viewBox="0 0 52 52" fill="none" xmlns="http://www.w3.org/2000/svg">
<g id=" icon warning ">
<g id="Group">
<path id="Vector" d="M26 38.9625C25.19 38.9625 24.44 38.6625 23.87 38.0925C23.6 37.7925 23.39 37.4625 23.21 37.1025C23.06 36.7425 23 36.3525 23 35.9625C23 35.1825 23.33 34.4025 23.87 33.8325C24.98 32.7225 27.02 32.7225 28.13 33.8325C28.67 34.4025 29 35.1825 29 35.9625C29 36.3525 28.91 36.7425 28.76 37.1025C28.61 37.4625 28.4 37.7925 28.13 38.0925C27.56 38.6625 26.81 38.9625 26 38.9625Z" fill="#911211"/>
<path id="Rectangle 10120" d="M23 15C23 13.3431 24.3431 12 26 12C27.6569 12 29 13.3431 29 15V27C29 28.6569 27.6569 30 26 30C24.3431 30 23 28.6569 23 27V15Z" fill="#911211"/>
<path id="Polygon 1" d="M25.5 2.59808C25.8094 2.41944 26.1906 2.41944 26.5 2.59808L46.0167 13.866C46.3261 14.0447 46.5167 14.3748 46.5167 14.7321V37.2679C46.5167 37.6252 46.3261 37.9553 46.0167 38.134L26.5 49.4019C26.1906 49.5806 25.8094 49.5806 25.5 49.4019L5.98334 38.134C5.67394 37.9553 5.48334 37.6252 5.48334 37.2679V14.732C5.48334 14.3748 5.67394 14.0447 5.98334 13.866L25.5 2.59808Z" stroke="#911211" stroke-width="4"/>
</g>
</g>
</svg>
