<svg width="168" height="179" viewBox="0 0 168 179" fill="none" xmlns="http://www.w3.org/2000/svg">
<path d="M165.466 153.016C166.646 158.559 166.885 164.297 167.554 169.95C168.031 174.056 166.722 177.225 162.762 179H4.85826C0.898238 177.225 -0.162227 174.066 0.0192938 169.945C0.516088 158.744 2.35518 147.877 7.38523 137.737C13.8627 124.671 24.0947 115.502 37.2884 109.492C46.9281 105.096 57.1268 102.845 67.6359 101.713C76.0862 100.809 84.546 100.561 93.0106 101.099C109.314 102.132 125.049 105.282 139.079 114.26C153.409 123.434 161.984 136.586 165.471 153.016H165.466ZM13.3181 165.729H154.236C153.667 162.304 153.256 159.025 152.569 155.804C150.796 147.472 147.324 139.945 141.61 133.526C133.8 124.742 123.707 119.937 112.519 117.125C101.915 114.46 91.0903 113.723 80.1943 114.008C67.698 114.332 55.4214 115.902 43.8184 120.922C37.9285 123.467 32.5928 126.869 28.0165 131.385C21.7063 137.604 17.708 145.15 15.5393 153.634C14.541 157.545 14.0585 161.58 13.3133 165.729H13.3181Z" fill="#282828"/>
<path d="M73.7026 1.18679C97.1713 -4.17092 120.664 8.93786 126.191 33.9183C126.936 37.3061 127.141 40.8082 127.404 42.8066C127.051 58.2564 122.374 70.4183 111.999 79.9822C102.23 88.9847 90.5984 92.9055 77.3282 90.6787C62.6584 88.2187 52.2688 79.7015 45.6623 66.7307C39.5384 54.7116 38.4111 42.0215 42.7867 29.1696C47.8693 14.2385 58.2924 4.70785 73.6978 1.19155L73.7026 1.18679ZM62.5868 68.3295C72.4845 79.7967 88.6207 81.4192 100.601 72.3977C109.859 65.4222 113.823 55.706 114.091 46.3752C114.11 36.5544 111.922 29.4932 106.782 23.5693C99.4069 15.0807 89.9057 12.0545 78.9094 13.6009C68.4576 15.0759 60.6235 20.5764 56.5393 30.2402C50.7258 44.0057 52.8229 57.0193 62.5868 68.3342V68.3295Z" fill="#282828"/>
</svg>
