<svg width="40" height="40" viewBox="0 0 40 40" fill="none" xmlns="http://www.w3.org/2000/svg">
<path d="M14.3343 31.1868H6.16105C4.15264 31.1868 2.51904 29.5631 2.51904 27.5668V4.37465C2.51904 2.37841 4.15264 0.754715 6.16105 0.754715H21.4696C23.478 0.754715 25.1116 2.37841 25.1116 4.37465V9.3536H24.1555V4.37465C24.1555 2.90254 22.9502 1.70508 21.4696 1.70508H6.16105C4.67996 1.70508 3.4752 2.90301 3.4752 4.37465V27.5668C3.4752 29.0389 4.68044 30.2364 6.16105 30.2364H14.3343V31.1868Z" fill="#911211" stroke="#911211" stroke-width="0.45283"/>
<path d="M33.1026 39.2451H17.5961C15.5877 39.2451 13.9541 37.6214 13.9541 35.6252V12.433C13.9541 10.4368 15.5877 8.8131 17.5961 8.8131H32.9047C34.9131 8.8131 36.5467 10.4368 36.5467 12.433V35.8219L33.1026 39.2451ZM17.5961 9.76346C16.115 9.76346 14.9103 10.9614 14.9103 12.433V35.6252C14.9103 37.0973 16.1155 38.2948 17.5961 38.2948H32.7067L35.5905 35.4285V12.433C35.5905 10.9609 34.3853 9.76346 32.9047 9.76346H17.5961Z" fill="#911211" stroke="#911211" stroke-width="0.45283"/>
<path d="M24.8455 21.0916C24.4594 21.0916 24.082 21.206 23.761 21.4205C23.4399 21.635 23.1897 21.9398 23.0419 22.2965C22.894 22.6531 22.8553 23.0456 22.9304 23.4243C23.0056 23.8031 23.1914 24.151 23.4643 24.4241C23.7371 24.6972 24.0849 24.8834 24.4635 24.9589C24.8421 25.0344 25.2346 24.996 25.5914 24.8485C25.9482 24.701 26.2532 24.4511 26.468 24.1302C26.6827 23.8094 26.7976 23.432 26.7979 23.0459C26.7979 22.5279 26.5923 22.0311 26.2262 21.6646C25.8601 21.2982 25.3635 21.092 24.8455 21.0916ZM24.8455 24.2626C24.6044 24.2626 24.3688 24.1911 24.1684 24.0571C23.968 23.9231 23.8118 23.7327 23.7196 23.51C23.6275 23.2872 23.6034 23.0421 23.6506 22.8057C23.6978 22.5693 23.814 22.3522 23.9846 22.1818C24.1552 22.0115 24.3724 21.8956 24.6089 21.8488C24.8454 21.802 25.0904 21.8264 25.313 21.9189C25.5357 22.0114 25.7258 22.1678 25.8595 22.3685C25.9931 22.5691 26.0643 22.8049 26.0639 23.0459C26.063 23.3686 25.9342 23.6778 25.7059 23.9058C25.4775 24.1338 25.1682 24.2621 24.8455 24.2626Z" fill="#911211" stroke="#911211" stroke-width="0.22541"/>
<path d="M28.644 21.7064L28.3761 21.5119C28.3388 21.485 28.3091 21.4489 28.2898 21.4071C28.2705 21.3653 28.2623 21.3192 28.266 21.2734L28.2953 20.943C28.3068 20.8095 28.2914 20.675 28.25 20.5475C28.2086 20.42 28.1421 20.3022 28.0543 20.2009C27.9665 20.0996 27.8593 20.0169 27.739 19.9578C27.6187 19.8987 27.4878 19.8643 27.354 19.8567L27.0218 19.8383C26.9758 19.8359 26.9312 19.8216 26.8923 19.7968C26.8534 19.7721 26.8215 19.7377 26.7998 19.697L26.6457 19.4034C26.5832 19.2847 26.4976 19.1797 26.3938 19.0947C26.29 19.0098 26.1702 18.9465 26.0415 18.9087C25.9128 18.8708 25.7778 18.8592 25.6446 18.8746C25.5113 18.8899 25.3825 18.9318 25.2658 18.9978L24.9758 19.1612C24.9358 19.1837 24.8906 19.1955 24.8446 19.1955C24.7987 19.1955 24.7535 19.1837 24.7134 19.1612L24.4253 18.9978C24.3087 18.9318 24.18 18.8899 24.0469 18.8746C23.9138 18.8594 23.779 18.871 23.6504 18.9088C23.5219 18.9466 23.4022 19.0099 23.2986 19.0949C23.195 19.1798 23.1095 19.2848 23.0473 19.4034L22.8931 19.697C22.8714 19.7377 22.8395 19.7721 22.8006 19.7968C22.7617 19.8216 22.7171 19.8359 22.6711 19.8383L22.3389 19.8567C22.2051 19.8643 22.0742 19.8987 21.9539 19.9578C21.8336 20.0169 21.7264 20.0996 21.6386 20.2009C21.5509 20.3022 21.4843 20.42 21.4429 20.5475C21.4015 20.675 21.3861 20.8095 21.3976 20.943L21.427 21.2734C21.4308 21.3191 21.4229 21.365 21.404 21.4068C21.385 21.4486 21.3557 21.4848 21.3187 21.5119L21.0471 21.7064C20.9388 21.7853 20.8474 21.885 20.7783 21.9997C20.7093 22.1145 20.6639 22.2419 20.6449 22.3745C20.6259 22.5071 20.6337 22.6422 20.6678 22.7717C20.7019 22.9012 20.7616 23.0226 20.8434 23.1286L21.0471 23.3911C21.075 23.4278 21.093 23.471 21.0994 23.5166C21.1058 23.5622 21.1005 23.6087 21.0838 23.6517L20.9627 23.9636C20.9139 24.0885 20.8906 24.2219 20.8943 24.356C20.898 24.49 20.9286 24.6219 20.9842 24.744C21.0398 24.866 21.1193 24.9756 21.2181 25.0663C21.3168 25.157 21.4328 25.227 21.5591 25.272L21.871 25.3821C21.9143 25.3977 21.9528 25.4241 21.983 25.4588C22.0132 25.4935 22.034 25.5353 22.0435 25.5803L22.0839 25.7804L21.3169 28.2853C21.2992 28.3487 21.2989 28.4156 21.316 28.4792C21.3331 28.5427 21.3669 28.6005 21.414 28.6465C21.4611 28.6924 21.5197 28.7249 21.5836 28.7404C21.6476 28.756 21.7145 28.7541 21.7774 28.7349L22.7922 28.4174L23.4253 29.2854C23.4594 29.3316 23.504 29.3691 23.5553 29.3949C23.6066 29.4207 23.6633 29.4341 23.7207 29.434H23.7831C23.85 29.4224 23.9124 29.3923 23.9632 29.3473C24.0141 29.3023 24.0515 29.244 24.0712 29.179L24.6712 27.2154C24.773 27.2358 24.8778 27.2358 24.9795 27.2154L25.6217 29.1753C25.6425 29.2395 25.6805 29.2968 25.7316 29.3408C25.7828 29.3849 25.8451 29.4139 25.9117 29.4249H25.9704C26.0278 29.4249 26.0845 29.4115 26.1358 29.3857C26.1871 29.3599 26.2317 29.3224 26.2658 29.2762L26.8989 28.4211L27.9137 28.7349C27.978 28.7551 28.0467 28.7572 28.1121 28.7409C28.1775 28.7246 28.2372 28.6906 28.2846 28.6427C28.332 28.5947 28.3653 28.5346 28.3808 28.469C28.3963 28.4033 28.3934 28.3347 28.3724 28.2706L27.5889 25.8684L27.6476 25.5785C27.6569 25.5334 27.6776 25.4915 27.7079 25.4568C27.7381 25.4221 27.7767 25.3958 27.8201 25.3803L28.1339 25.2684C28.2595 25.2231 28.3749 25.1531 28.4731 25.0626C28.5714 24.9721 28.6505 24.8628 28.7059 24.7412C28.7613 24.6197 28.7918 24.4882 28.7957 24.3547C28.7996 24.2211 28.7767 24.0882 28.7284 23.9636L28.6073 23.6535C28.5905 23.6106 28.585 23.564 28.5914 23.5184C28.5979 23.4727 28.616 23.4295 28.644 23.3929L28.8477 23.1305C28.9295 23.0244 28.9892 22.9031 29.0233 22.7735C29.0574 22.644 29.0652 22.5089 29.0462 22.3764C29.0272 22.2438 28.9818 22.1163 28.9128 22.0016C28.8437 21.8868 28.7523 21.7871 28.644 21.7083V21.7064ZM23.5831 28.2577L23.2271 27.7769C23.1814 27.7147 23.1173 27.6684 23.0439 27.6447C22.9704 27.621 22.8913 27.621 22.8179 27.6448L22.2178 27.8283L22.6032 26.5731C22.8192 26.6955 23.0734 26.7322 23.3152 26.6759L23.6381 26.6007C23.6831 26.59 23.73 26.5912 23.7744 26.604C23.8188 26.6169 23.8591 26.641 23.8914 26.6741L24.0198 26.8062L23.5831 28.2577ZM26.8677 27.6448C26.7948 27.6219 26.7165 27.6222 26.6438 27.6459C26.5711 27.6696 26.5076 27.7154 26.4622 27.7769L26.0952 28.2706L25.6309 26.8466L25.7924 26.6814C25.8248 26.6485 25.8651 26.6245 25.9094 26.6116C25.9538 26.5988 26.0007 26.5975 26.0456 26.608L26.3686 26.6832C26.5987 26.7363 26.8403 26.705 27.0494 26.5951L27.4512 27.8302L26.8677 27.6448ZM28.2678 22.679L28.0641 22.9415C27.9587 23.0783 27.8903 23.2401 27.8656 23.4111C27.8408 23.5821 27.8605 23.7566 27.9228 23.9177L28.0439 24.2279C28.0568 24.2612 28.0629 24.2968 28.0618 24.3325C28.0607 24.3682 28.0524 24.4034 28.0376 24.4358C28.0227 24.4683 28.0015 24.4975 27.9751 24.5217C27.9488 24.5458 27.9179 24.5645 27.8843 24.5765L27.5705 24.6885C27.4085 24.7468 27.2642 24.8458 27.1514 24.976C27.0386 25.1061 26.9612 25.263 26.9264 25.4317L26.8549 25.7602C26.8477 25.7952 26.8336 25.8285 26.8134 25.858C26.7931 25.8875 26.7672 25.9127 26.7371 25.932C26.707 25.9513 26.6734 25.9644 26.6381 25.9705C26.6029 25.9766 26.5668 25.9756 26.5319 25.9675L26.2089 25.8923C26.0417 25.8538 25.8675 25.8587 25.7027 25.9065C25.5379 25.9544 25.3881 26.0436 25.2676 26.1657L25.0364 26.4043C24.9852 26.4546 24.9164 26.4828 24.8446 26.4828C24.7729 26.4828 24.704 26.4546 24.6529 26.4043L24.4235 26.1657C24.3297 26.0694 24.2176 25.9928 24.0937 25.9405C23.9699 25.8882 23.8368 25.8612 23.7023 25.8611C23.6264 25.8609 23.5506 25.8695 23.4766 25.8868L23.1537 25.962C23.1188 25.9701 23.0827 25.9711 23.0475 25.965C23.0122 25.9589 22.9786 25.9458 22.9485 25.9265C22.9184 25.9072 22.8924 25.882 22.8722 25.8525C22.852 25.823 22.8379 25.7897 22.8307 25.7547L22.7647 25.4317C22.7282 25.2646 22.6497 25.1095 22.5367 24.9811C22.4237 24.8526 22.2799 24.7551 22.1188 24.6977L21.8068 24.5857C21.7732 24.5737 21.7423 24.555 21.7159 24.5309C21.6896 24.5067 21.6684 24.4775 21.6535 24.445C21.6387 24.4125 21.6304 24.3774 21.6293 24.3417C21.6282 24.306 21.6343 24.2704 21.6472 24.237L21.7683 23.9269C21.8304 23.7657 21.85 23.5913 21.8253 23.4203C21.8005 23.2493 21.7322 23.0876 21.627 22.9506L21.4233 22.679C21.4015 22.6507 21.3856 22.6182 21.3766 22.5836C21.3676 22.549 21.3656 22.5129 21.3707 22.4775C21.3758 22.4421 21.388 22.4081 21.4065 22.3775C21.425 22.3468 21.4494 22.3202 21.4783 22.2992L21.7481 22.1047C21.8869 22.003 21.9974 21.8676 22.0691 21.7111C22.1407 21.5547 22.1711 21.3825 22.1573 21.211L22.1279 20.8807C22.1247 20.845 22.1286 20.809 22.1396 20.7749C22.1506 20.7408 22.1684 20.7092 22.1919 20.6821C22.2153 20.6551 22.2441 20.633 22.2763 20.6173C22.3085 20.6016 22.3435 20.5925 22.3793 20.5907L22.7115 20.5724C22.8839 20.5621 23.0509 20.5076 23.1961 20.414C23.3414 20.3205 23.4601 20.1911 23.5409 20.0383L23.695 19.7447C23.7117 19.7133 23.7346 19.6855 23.7622 19.6629C23.7898 19.6404 23.8216 19.6236 23.8558 19.6135C23.8899 19.6034 23.9258 19.6003 23.9612 19.6042C23.9966 19.6081 24.0309 19.6191 24.062 19.6365L24.3519 19.7998C24.5024 19.8843 24.6721 19.9288 24.8446 19.9288C25.0172 19.9288 25.1869 19.8843 25.3373 19.7998L25.6273 19.6365C25.6583 19.6189 25.6926 19.6077 25.7281 19.6036C25.7635 19.5995 25.7995 19.6026 25.8337 19.6127C25.868 19.6228 25.8998 19.6397 25.9274 19.6624C25.955 19.6851 25.9777 19.7131 25.9943 19.7447L26.1484 20.0383C26.2294 20.1908 26.3482 20.3198 26.4934 20.413C26.6387 20.5062 26.8055 20.5605 26.9778 20.5705L27.3099 20.5889C27.3457 20.5907 27.3808 20.5997 27.413 20.6155C27.4452 20.6312 27.4739 20.6532 27.4974 20.6803C27.5209 20.7074 27.5386 20.7389 27.5496 20.773C27.5606 20.8071 27.5646 20.8431 27.5613 20.8788L27.5338 21.211C27.5194 21.3831 27.5494 21.556 27.6211 21.7132C27.6928 21.8703 27.8036 22.0064 27.943 22.1083L28.2109 22.3029C28.2399 22.3239 28.2643 22.3505 28.2828 22.3811C28.3013 22.4117 28.3134 22.4458 28.3186 22.4812C28.3237 22.5166 28.3217 22.5527 28.3127 22.5873C28.3036 22.6219 28.2877 22.6543 28.266 22.6827L28.2678 22.679Z" fill="#911211" stroke="#911211" stroke-width="0.22541"/>
<path d="M33.3858 38.77H32.4297V35.1501H36.0717V36.1005H33.3858V38.77Z" fill="#911211" stroke="#911211" stroke-width="0.45283"/>
<path d="M17.3101 6.32316H6.44141V7.27352H17.3101V6.32316Z" fill="#911211" stroke="#911211" stroke-width="0.45283"/>
<path d="M16.7827 8.94401H6.44141V9.89437H16.7827V8.94401Z" fill="#911211" stroke="#911211" stroke-width="0.45283"/>
<path d="M14.6734 11.5649H6.44141V12.5152H14.6734V11.5649Z" fill="#911211" stroke="#911211" stroke-width="0.45283"/>
<path d="M14.6734 14.185H6.44141V15.1354H14.6734V14.185Z" fill="#911211" stroke="#911211" stroke-width="0.45283"/>
<path d="M14.6734 16.8059H6.44141V17.7562H14.6734V16.8059Z" fill="#911211" stroke="#911211" stroke-width="0.45283"/>
<path d="M14.6734 19.4264H6.44141V20.3767H14.6734V19.4264Z" fill="#911211" stroke="#911211" stroke-width="0.45283"/>
<path d="M14.6734 22.0469H6.44141V22.9973H14.6734V22.0469Z" fill="#911211" stroke="#911211" stroke-width="0.45283"/>
<path d="M14.6734 24.6677H6.44141V25.6181H14.6734V24.6677Z" fill="#911211" stroke="#911211" stroke-width="0.45283"/>
</svg>
