<svg width="191" height="193" viewBox="0 0 191 193" fill="none" xmlns="http://www.w3.org/2000/svg">
<path d="M181.673 124.229V130.273H175.712V124.229H181.673Z" fill="#282828"/>
<path d="M165.1 90.5238C166.43 91.8319 167.853 93.233 169.25 94.6083C167.961 95.9009 166.58 97.2814 165.131 98.7342C163.836 97.3537 162.475 95.9009 161.104 94.4429C162.377 93.1968 163.774 91.8267 165.1 90.5238Z" fill="#282828"/>
<path d="M165.384 155.923C166.544 157.148 167.89 158.57 169.194 159.945C167.864 161.207 166.41 162.587 164.925 163.999C163.806 162.825 162.455 161.408 161.187 160.08C162.491 158.787 163.914 157.376 165.384 155.923Z" fill="#282828"/>
<path d="M90.8697 74.7648C94.0306 74.7596 96.8923 75.3128 99.1869 77.6084C101.059 76.4244 101.822 74.9457 101.801 72.6553C101.677 59.8382 101.744 47.021 101.744 34.2039V31.9238H15.9331V93.171H21.8886C21.8886 92.4006 21.8835 91.7853 21.8886 91.1701C21.8886 88.8693 21.8319 86.5634 21.9093 84.2626C22.0949 78.5236 25.9209 74.8061 31.6753 74.801C51.4085 74.7803 71.1365 74.8165 90.8697 74.7648ZM77.221 148.307C77.4582 152.624 74.7047 155.039 70.3631 155.044C64.7169 155.054 59.0708 155.054 53.4246 155.044C48.9232 155.044 46.5564 152.681 46.4946 148.172C46.4842 147.552 46.4224 146.921 46.5049 146.311C46.7008 144.946 46.113 144.202 44.9528 143.509C32.7581 136.229 20.6047 128.892 8.43583 121.577C7.92536 121.271 7.38395 121.013 6.72394 120.661V173.465H98.6351V179.732H6.73425V185.585H117.1V179.675H105.039V173.393H117.095V120.542C116.12 121.106 115.424 121.499 114.738 121.907C103.42 128.717 92.1537 135.609 80.7582 142.278C78.2419 143.747 77.056 145.215 77.221 148.307ZM107.994 78.8183C107.999 79.8937 111.397 82.6339 112.341 82.2048C113.578 81.6361 115.46 81.8532 115.785 79.8937C116.301 76.7708 116.873 73.6583 117.275 70.52C117.461 69.0464 118.033 68.5863 119.518 68.6018C126.216 68.6794 132.919 68.638 139.623 68.638H141.68V31.7532H117.188V7.22536H55.9151V25.5333H108.061V37.8955H135.585V44.1877H108.076V50.1129H135.575V56.4103H108.288C108.169 56.6584 108.02 56.8187 108.02 56.979C107.999 64.2587 107.978 71.5385 107.994 78.8183ZM124.901 143.985C136.89 149.724 151.126 140.515 150.936 127.104C150.75 114.012 137.359 105.187 125.448 110.285C124.097 110.864 123.287 111.515 123.349 113.258C123.499 117.916 123.401 122.58 123.401 127.243C123.401 131.907 123.447 136.818 123.37 141.606C123.349 142.863 123.798 143.452 124.901 143.985ZM149.249 79.2732C149.781 81.6309 152.544 82.939 154.535 81.5327C157.458 79.4645 160.361 77.3706 162.981 75.4989C170.122 82.665 177.114 89.6862 184.199 96.7953C182.188 99.6235 180.017 102.648 177.877 105.693C177.068 106.846 178.114 110.042 179.465 110.285C183.297 110.967 187.154 111.515 191 112.115V142.361C187.344 142.95 183.683 143.514 180.033 144.145C178.058 144.481 176.898 147.464 178.063 149.108C180.167 152.092 182.286 155.059 184.323 157.929C177.192 165.053 170.184 172.059 163.11 179.137C160.232 177.079 157.221 174.908 154.189 172.773C152.782 171.78 149.636 173.073 149.342 174.758C148.806 177.871 148.192 180.983 147.857 184.121C147.682 185.735 146.991 185.983 145.594 185.972C138.901 185.916 132.213 185.941 125.52 185.952C124.803 185.952 124.092 186.014 123.365 186.05C123.153 189.256 121.24 190.869 118.771 192.022H4.83673C2.28951 190.719 0.366211 188.987 0.366211 185.812C0.376524 157.065 0.366211 128.319 0.38168 99.5718C0.38168 96.0818 2.75358 93.6208 6.25472 93.383C7.28082 93.3158 8.3224 93.3726 9.58569 93.3726V25.4661H49.5729V0.933132C50.0163 0.89177 50.2587 0.85039 50.4958 0.85039C59.0038 0.85039 67.5168 0.845215 76.0247 0.845215C90.844 0.845215 105.663 0.855564 120.482 0.886586C121.215 0.891756 122.107 1.40879 122.653 1.95684C130.718 9.97078 138.725 18.0468 146.785 26.0659C147.697 26.9707 148.058 27.891 148.053 29.168C148.007 39.8085 148.048 50.4489 148.017 61.0894C147.996 67.18 147.904 73.2602 149.249 79.2732ZM46.3966 137.005C46.9071 132.32 49.0469 130.371 53.5071 130.356C58.9058 130.335 64.3044 130.345 69.7031 130.356C74.5603 130.356 76.1794 131.653 77.3396 136.41C77.3757 136.56 77.5304 136.679 77.6902 136.891C78.7834 136.239 79.8456 135.614 80.9026 134.978C92.4837 128.008 104.065 121.049 115.625 114.054C116.244 113.681 117.11 113.004 117.126 112.446C117.255 108.237 117.198 104.018 117.198 99.67H6.62081C6.62081 103.708 6.66722 107.622 6.59503 111.536C6.57441 112.741 6.93019 113.423 7.98724 114.054C20.2799 121.396 32.5416 128.794 44.8136 136.172C45.2983 136.462 45.8139 136.705 46.3966 137.01V137.005ZM152.761 113.108C158.624 121.442 158.613 132.998 152.751 141.436C147.703 148.71 136.745 155.07 123.401 150.21C123.401 152.035 123.452 153.637 123.385 155.235C123.339 156.305 123.726 156.734 124.793 156.977C128.748 157.882 132.687 158.239 136.756 157.737C153.106 155.726 165.353 139.766 163.043 123.34C160.877 107.963 148.373 96.7488 132.837 96.511C129.64 96.4593 126.428 97.24 123.494 97.6071V104.282C136.395 99.6752 147.29 105.342 152.761 113.108ZM154.901 165.555C157.427 167.437 160.021 169.236 162.414 170.942C167.018 166.331 171.525 161.817 176.14 157.2C174.412 154.77 172.541 152.221 170.803 149.584C170.452 149.051 170.365 148.079 170.586 147.474C171.53 144.92 172.582 142.397 173.726 139.931C173.995 139.352 174.737 138.747 175.356 138.613C178.017 138.039 180.703 137.568 183.4 137.201C184.416 137.062 184.766 136.725 184.761 135.702C184.725 130.102 184.72 124.503 184.766 118.909C184.776 117.766 184.323 117.44 183.266 117.296C180.631 116.944 177.996 116.535 175.402 115.967C174.737 115.822 173.969 115.119 173.67 114.478C172.597 112.182 171.798 109.752 170.7 107.472C170.169 106.36 170.169 105.616 170.916 104.634C172.778 102.178 174.51 99.6287 176.021 97.5037C171.308 92.7677 166.817 88.254 162.269 83.6835C159.949 85.3483 157.402 87.1217 154.921 88.9779C154.122 89.5725 153.529 89.6242 152.601 89.1847C150.26 88.0628 147.862 87.0338 145.423 86.1601C144.31 85.762 143.882 85.1829 143.722 84.0713C143.273 81.0208 142.727 77.9859 142.211 74.9302H122.957C122.664 76.6261 122.22 78.2547 122.132 79.904C121.921 83.7662 120.879 86.8736 116.383 87.3802C116.208 87.4009 116.007 87.463 115.868 87.5716C112.64 90.0223 109.799 89.4587 107.004 86.7029C105.684 85.3949 103.987 84.4797 102.105 83.1303V93.3468C107.318 93.3468 112.392 93.3675 117.471 93.3209C118.059 93.3158 118.652 92.99 119.224 92.778C129.588 88.9158 139.762 89.3398 149.59 94.4532C162.976 101.423 170.891 115.501 169.292 131.214C168.297 141.022 163.878 149.258 156.308 155.576C148.662 161.962 139.819 164.981 129.795 164.081C127.722 163.9 125.659 163.575 123.525 163.311V179.582H142.232C142.747 176.485 143.284 173.491 143.722 170.487C143.877 169.381 144.268 168.786 145.408 168.388C147.852 167.53 150.24 166.486 152.586 165.374C153.498 164.94 154.091 164.95 154.901 165.555ZM123.53 25.4299H136.436C132.151 21.1386 127.748 16.7283 123.53 12.4991V25.4299ZM95.6857 93.2279C95.6857 90.591 95.6909 88.1093 95.6857 85.6275C95.6806 82.0549 94.7318 81.0932 91.2049 81.0932H32.4281C31.8713 81.0932 31.2989 81.0467 30.7575 81.1397C29.4169 81.3621 28.3289 82.0962 28.2773 83.5077C28.1639 86.7081 28.2412 89.9189 28.2412 93.2279H95.6857ZM70.9767 148.664V136.694H52.8368V148.664H70.9767Z" fill="#282828"/>
<path d="M135.58 170.462V176.604H129.64V170.462H135.58Z" fill="#282828"/>
<path d="M135.57 77.9238V84.0403H129.646V77.9238H135.57Z" fill="#282828"/>
<path d="M110.964 13.2436V19.298H105.019V13.2436H110.964Z" fill="#282828"/>
<path d="M98.6613 13.2746V19.3187H74.1895V13.2746H98.6613Z" fill="#282828"/>
<path d="M95.5725 50.2628V56.2862H46.5566V50.2628H95.5725Z" fill="#282828"/>
<path d="M95.572 37.911V43.9706H21.9863V37.911H95.572Z" fill="#282828"/>
<path d="M95.5669 62.5681V68.6225H21.9863V62.5681H95.5669Z" fill="#282828"/>
<path d="M67.9555 13.2126V19.2773H61.9277V13.2126H67.9555Z" fill="#282828"/>
<path d="M40.2809 50.2628V56.2965H34.3047V50.2628H40.2809Z" fill="#282828"/>
<path d="M27.916 50.2369V56.3224H22.043V50.2369H27.916Z" fill="#282828"/>
<path d="M4.83662 192.022H0V185.812H0.366098C0.366098 188.987 2.2894 190.719 4.83662 192.022Z" fill="#282828"/>
</svg>
