<svg width="41" height="40" viewBox="0 0 41 40" fill="none" xmlns="http://www.w3.org/2000/svg">
<path d="M10.4959 0.00136025C10.2724 0.0259659 10.066 0.132498 9.91647 0.300384C9.76694 0.468271 9.68493 0.685605 9.68626 0.91042V11.7339H7.68348C7.65509 11.7326 7.62665 11.7326 7.59826 11.7339C7.37223 11.7552 7.16235 11.8603 7.0099 12.0285C6.85744 12.1968 6.77344 12.4159 6.77442 12.643V39.0909C6.77445 39.332 6.87023 39.5632 7.04071 39.7337C7.21118 39.9042 7.44239 40 7.68348 40H33.1372C33.3783 40 33.6095 39.9042 33.7799 39.7337C33.9504 39.5632 34.0462 39.332 34.0462 39.0909V12.643C34.0462 12.4019 33.9504 12.1707 33.7799 12.0002C33.6095 11.8297 33.3783 11.7339 33.1372 11.7339H31.1344V0.91042C31.1344 0.66933 31.0386 0.438121 30.8681 0.267644C30.6976 0.0971678 30.4664 0.00138436 30.2253 0.00136025H10.5953C10.5622 -0.000453418 10.529 -0.000453418 10.4959 0.00136025ZM11.5044 1.81948H14.1321V11.7339H11.5044V1.81948ZM15.9503 1.81948H17.8252V11.7339H15.9503V1.81948ZM19.6433 1.81948H29.3163V11.7339H26.8164V9.68853C26.8192 9.55912 26.7943 9.43061 26.7434 9.31159C26.6925 9.19256 26.6168 9.08578 26.5213 8.99838C26.4259 8.91097 26.3128 8.84496 26.1898 8.80476C26.0667 8.76456 25.9365 8.75109 25.8079 8.76527C25.5819 8.7901 25.3735 8.89866 25.2236 9.06955C25.0738 9.24045 24.9934 9.46129 24.9982 9.68853V11.7339H19.6433V1.81948ZM25.8079 3.11205C25.5844 3.13666 25.378 3.24319 25.2285 3.41107C25.0789 3.57896 24.9969 3.7963 24.9982 4.02111V6.81931C24.9965 6.93977 25.0188 7.05937 25.0637 7.17116C25.1086 7.28294 25.1753 7.38468 25.2599 7.47047C25.3445 7.55626 25.4453 7.62438 25.5564 7.67088C25.6676 7.71737 25.7868 7.74132 25.9073 7.74132C26.0278 7.74132 26.147 7.71737 26.2582 7.67088C26.3693 7.62438 26.4701 7.55626 26.5547 7.47047C26.6393 7.38468 26.706 7.28294 26.7509 7.17116C26.7958 7.05937 26.8181 6.93977 26.8164 6.81931V4.02111C26.8171 3.89289 26.7907 3.76596 26.739 3.64865C26.6872 3.53134 26.6112 3.42631 26.5159 3.34046C26.4207 3.25461 26.3084 3.18988 26.1863 3.15051C26.0643 3.11114 25.9353 3.09804 25.8079 3.11205ZM8.59254 13.552H32.2281V38.1819H8.59254V13.552ZM20.4103 17.9979C18.2055 17.9979 16.4048 19.7986 16.4048 22.0035V24.0772H15.7372C15.7088 24.0759 15.6804 24.0759 15.652 24.0772C15.4259 24.0986 15.2161 24.2036 15.0636 24.3719C14.9111 24.5401 14.8271 24.7593 14.8281 24.9863V32.8127C14.8282 33.0538 14.9239 33.285 15.0944 33.4555C15.2649 33.626 15.4961 33.7218 15.7372 33.7218H25.0835C25.3246 33.7218 25.5558 33.626 25.7262 33.4555C25.8967 33.285 25.9925 33.0538 25.9925 32.8127V28.8995V24.9863C25.9925 24.7452 25.8967 24.514 25.7262 24.3435C25.5558 24.1731 25.3246 24.0773 25.0835 24.0772H24.4159V22.0035C24.4159 19.7986 22.6152 17.9979 20.4103 17.9979ZM20.4103 19.816C21.6394 19.816 22.5978 20.7745 22.5978 22.0035V24.0772H18.2229V22.0035C18.2229 20.7745 19.1812 19.816 20.4103 19.816ZM16.6462 25.8954H24.1744V31.9037H16.6462V25.8954Z" fill="#911211"/>
</svg>
