<svg width="42" height="42" viewBox="0 0 42 42" fill="none" xmlns="http://www.w3.org/2000/svg">
<path fill-rule="evenodd" clip-rule="evenodd" d="M13.2209 1.41663C12.8759 1.41669 12.545 1.55328 12.3004 1.79657L4.46442 9.63251C4.34349 9.75408 4.2477 9.89829 4.18251 10.0569C4.11732 10.2155 4.08401 10.3854 4.08448 10.5569V30.1403C4.08448 32.2876 5.85518 34.0532 8.00245 34.0532H27.5859C29.7332 34.0532 31.4975 32.2876 31.4975 30.1403V5.33332C31.4975 3.18608 29.7332 1.41663 27.5859 1.41663H13.2209ZM14.5264 4.02776H27.5859C28.3318 4.02776 28.8915 4.58748 28.8915 5.33332V30.1403C28.8915 30.8862 28.3318 31.4472 27.5859 31.4472H8.00245C7.25659 31.4472 6.69561 30.8862 6.69561 30.1403V11.8637H10.6085C12.7557 11.8637 14.5264 10.093 14.5264 7.94573V4.02776ZM11.914 5.87901V7.94573C11.914 8.69159 11.3544 9.25129 10.6085 9.25129H8.54176L11.914 5.87901ZM34.1099 6.64016C33.9361 6.63633 33.7632 6.66727 33.6014 6.73116C33.4397 6.79505 33.2923 6.8906 33.168 7.01222C33.0437 7.13383 32.9449 7.27905 32.8775 7.43935C32.81 7.59966 32.7753 7.77181 32.7753 7.94573C32.7753 8.11964 32.81 8.2918 32.8775 8.4521C32.9449 8.6124 33.0437 8.75762 33.168 8.87923C33.2923 9.00085 33.4397 9.0964 33.6014 9.16029C33.7632 9.22418 33.9361 9.25512 34.1099 9.25129C34.8558 9.25129 35.4155 9.81102 35.4155 10.5569V36.6656C35.4155 37.4114 34.8558 37.9712 34.1099 37.9712H13.2209C12.475 37.9712 11.914 37.4114 11.914 36.6656C11.9255 36.4875 11.9003 36.3089 11.8399 36.1409C11.7796 35.9728 11.6855 35.819 11.5634 35.6888C11.4413 35.5586 11.2938 35.4548 11.13 35.3838C10.9662 35.3129 10.7895 35.2763 10.611 35.2763C10.4325 35.2763 10.2559 35.3129 10.0921 35.3838C9.92829 35.4548 9.78077 35.5586 9.65866 35.6888C9.53654 35.819 9.44242 35.9728 9.38211 36.1409C9.3218 36.3089 9.29658 36.4875 9.30801 36.6656C9.30801 38.8129 11.0736 40.5836 13.2209 40.5836H34.1099C36.2572 40.5836 38.0279 38.8129 38.0279 36.6656V10.5569C38.0279 8.40959 36.2572 6.64016 34.1099 6.64016ZM13.2209 17.0821C12.8797 17.0898 12.5551 17.2307 12.3165 17.4747C12.0779 17.7187 11.9443 18.0464 11.9443 18.3877C11.9443 18.729 12.0779 19.0567 12.3165 19.3007C12.5551 19.5447 12.8797 19.6856 13.2209 19.6933H22.3624C22.5363 19.6972 22.7092 19.6663 22.8711 19.6024C23.0329 19.5386 23.1803 19.443 23.3047 19.3214C23.4291 19.1998 23.5279 19.0545 23.5954 18.8942C23.6628 18.7339 23.6976 18.5617 23.6976 18.3877C23.6976 18.2137 23.6628 18.0415 23.5954 17.8812C23.5279 17.7208 23.4291 17.5756 23.3047 17.454C23.1803 17.3324 23.0329 17.2368 22.8711 17.173C22.7092 17.1091 22.5363 17.0782 22.3624 17.0821H13.2209ZM13.2209 22.3057C13.047 22.3018 12.8741 22.3328 12.7124 22.3967C12.5506 22.4606 12.4033 22.5561 12.279 22.6777C12.1546 22.7993 12.0559 22.9446 11.9884 23.1049C11.921 23.2652 11.8862 23.4373 11.8862 23.6112C11.8862 23.7851 11.921 23.9573 11.9884 24.1176C12.0559 24.2779 12.1546 24.4231 12.279 24.5447C12.4033 24.6663 12.5506 24.7619 12.7124 24.8258C12.8741 24.8897 13.047 24.9206 13.2209 24.9168H18.4444C18.6183 24.9206 18.7912 24.8897 18.9529 24.8258C19.1147 24.7619 19.262 24.6663 19.3863 24.5447C19.5107 24.4231 19.6094 24.2779 19.6769 24.1176C19.7443 23.9573 19.7791 23.7851 19.7791 23.6112C19.7791 23.4373 19.7443 23.2652 19.6769 23.1049C19.6094 22.9446 19.5107 22.7993 19.3863 22.6777C19.262 22.5561 19.1147 22.4606 18.9529 22.3967C18.7912 22.3328 18.6183 22.3018 18.4444 22.3057H13.2209ZM22.3611 22.3057C21.6401 22.3057 21.0556 22.8902 21.0555 23.6112C21.0555 24.3323 21.6401 24.9168 22.3611 24.9168C23.0822 24.9168 23.6667 24.3323 23.6667 23.6112C23.6667 22.8902 23.0821 22.3057 22.3611 22.3057Z" fill="#911211"/>
</svg>
