<svg width="40" height="40" viewBox="0 0 40 40" fill="none" xmlns="http://www.w3.org/2000/svg">
<path d="M20.2306 5.38461C16.8371 5.38461 14.0771 8.14539 14.0771 11.5389C14.0771 14.9324 16.8371 17.6923 20.2306 17.6923C23.6241 17.6923 26.3848 14.9324 26.3848 11.5389C26.3848 8.14539 23.6241 5.38461 20.2306 5.38461ZM20.2306 6.25229C23.1552 6.25229 25.5172 8.61433 25.5172 11.5389C25.5172 14.4635 23.1552 16.8246 20.2306 16.8246C17.306 16.8246 14.9448 14.4635 14.9448 11.5389C14.9448 8.61433 17.306 6.25229 20.2306 6.25229Z" fill="#911211" stroke="#911211" stroke-width="0.769231"/>
<path fill-rule="evenodd" clip-rule="evenodd" d="M19.9421 13.9423L17.9229 14.6154L18.596 12.5961L21.9613 9.23077L23.3075 10.577L19.9421 13.9423Z" fill="#911211" stroke="#911211" stroke-width="0.769231"/>
<line x1="22.041" y1="9.50273" x2="18.7774" y2="12.7663" stroke="white" stroke-width="0.769231"/>
<path d="M9.46163 0.769469C7.33737 0.769335 5.61523 2.49136 5.61523 4.61562C5.61523 13.4989 5.61523 22.3821 5.61523 31.2654C5.61523 33.3896 7.33722 35.1115 9.46139 35.1115H26.3679C26.6098 35.1115 26.8059 34.9155 26.8059 34.6736C26.8059 34.4317 26.6098 34.2356 26.3679 34.2356H10.3356C8.21143 34.2356 6.48945 32.5136 6.48945 30.3894V5.49132C6.48945 3.36715 8.21143 1.64517 10.3356 1.64517H29.7302C31.8543 1.64517 33.5763 3.36715 33.5763 5.49132V26.1669C33.5763 26.4079 33.7711 26.6037 34.0121 26.6049C34.2548 26.6061 34.4522 26.4097 34.4522 26.1669V4.61695C34.4522 2.49287 32.7304 0.770935 30.6063 0.770801L9.46163 0.769469Z" fill="#911211" stroke="#911211" stroke-width="0.769231"/>
<path d="M14.563 27.6553V28.5312H25.506V27.6553H14.563Z" fill="#911211" stroke="#911211" stroke-width="0.769231"/>
<path d="M11.2954 20.6828V21.5588H28.777V20.6828H11.2954Z" fill="#911211" stroke="#911211" stroke-width="0.769231"/>
<path d="M11.2954 24.1695V25.0454H28.777V24.1695H11.2954Z" fill="#911211" stroke="#911211" stroke-width="0.769231"/>
<path d="M32.2151 30.7279C31.8216 30.7279 31.4369 30.8445 31.1097 31.0631C30.7825 31.2817 30.5274 31.5924 30.3768 31.9559C30.2261 32.3195 30.1866 32.7195 30.2632 33.1055C30.3398 33.4915 30.5292 33.8461 30.8073 34.1245C31.0854 34.4029 31.4398 34.5926 31.8257 34.6696C32.2116 34.7466 32.6117 34.7074 32.9753 34.5571C33.339 34.4067 33.6499 34.152 33.8688 33.8249C34.0877 33.4979 34.2047 33.1133 34.2051 32.7198C34.2051 32.1918 33.9955 31.6855 33.6223 31.3119C33.2492 30.9384 32.743 30.7283 32.2151 30.7279ZM32.2151 33.9599C31.9694 33.9599 31.7292 33.887 31.5249 33.7504C31.3207 33.6139 31.1615 33.4198 31.0676 33.1928C30.9736 32.9657 30.9491 32.7159 30.9972 32.475C31.0453 32.234 31.1637 32.0127 31.3376 31.8391C31.5115 31.6655 31.7329 31.5474 31.9739 31.4996C32.215 31.4519 32.4647 31.4768 32.6916 31.5711C32.9185 31.6654 33.1123 31.8248 33.2486 32.0293C33.3848 32.2338 33.4573 32.4741 33.4569 32.7198C33.456 33.0487 33.3247 33.3638 33.092 33.5962C32.8593 33.8286 32.544 33.9594 32.2151 33.9599Z" fill="#911211" stroke="#911211" stroke-width="0.229744"/>
<path d="M36.0861 31.3546L35.813 31.1563C35.775 31.1288 35.7447 31.092 35.7251 31.0494C35.7054 31.0068 35.6971 30.9599 35.7008 30.9132L35.7307 30.5765C35.7425 30.4404 35.7268 30.3033 35.6846 30.1734C35.6424 30.0434 35.5745 29.9233 35.4851 29.82C35.3956 29.7168 35.2863 29.6325 35.1637 29.5723C35.0411 29.512 34.9077 29.477 34.7713 29.4692L34.4328 29.4505C34.3858 29.448 34.3404 29.4334 34.3007 29.4082C34.2611 29.383 34.2286 29.3479 34.2065 29.3065L34.0494 29.0072C33.9857 28.8862 33.8984 28.7793 33.7926 28.6926C33.6868 28.606 33.5647 28.5415 33.4336 28.503C33.3024 28.4644 33.1648 28.4526 33.029 28.4682C32.8932 28.4838 32.7619 28.5266 32.6429 28.5939L32.3474 28.7603C32.3066 28.7833 32.2605 28.7953 32.2137 28.7953C32.1668 28.7953 32.1208 28.7833 32.0799 28.7603L31.7863 28.5939C31.6675 28.5266 31.5363 28.4839 31.4006 28.4683C31.2649 28.4527 31.1275 28.4646 30.9965 28.5031C30.8655 28.5417 30.7436 28.6062 30.6379 28.6928C30.5323 28.7794 30.4452 28.8863 30.3817 29.0072L30.2246 29.3065C30.2025 29.3479 30.17 29.383 30.1304 29.4082C30.0907 29.4334 30.0453 29.448 29.9983 29.4505L29.6598 29.4692C29.5234 29.477 29.39 29.512 29.2674 29.5723C29.1448 29.6325 29.0355 29.7168 28.946 29.82C28.8566 29.9233 28.7887 30.0434 28.7465 30.1734C28.7043 30.3033 28.6886 30.4404 28.7004 30.5765L28.7303 30.9132C28.7342 30.9597 28.7262 31.0066 28.7068 31.0491C28.6875 31.0917 28.6576 31.1286 28.6199 31.1563L28.3431 31.3546C28.2328 31.4349 28.1396 31.5366 28.0692 31.6535C27.9988 31.7705 27.9525 31.9004 27.9332 32.0355C27.9138 32.1706 27.9217 32.3083 27.9565 32.4403C27.9913 32.5723 28.0521 32.696 28.1355 32.8041L28.3431 33.0716C28.3715 33.109 28.3899 33.153 28.3964 33.1995C28.403 33.246 28.3975 33.2934 28.3805 33.3372L28.2571 33.6551C28.2073 33.7824 28.1836 33.9184 28.1874 34.055C28.1912 34.1917 28.2223 34.3261 28.279 34.4505C28.3357 34.5749 28.4168 34.6866 28.5174 34.779C28.618 34.8715 28.7362 34.9428 28.8649 34.9887L29.1829 35.101C29.227 35.1168 29.2663 35.1437 29.297 35.1791C29.3278 35.2145 29.349 35.2571 29.3587 35.303L29.3998 35.5068L28.6181 38.0599C28.6001 38.1245 28.5997 38.1928 28.6172 38.2575C28.6346 38.3223 28.6691 38.3812 28.7171 38.428C28.7651 38.4749 28.8248 38.508 28.89 38.5238C28.9551 38.5397 29.0234 38.5377 29.0875 38.5182L30.1218 38.1946L30.767 39.0793C30.8018 39.1263 30.8472 39.1645 30.8995 39.1909C30.9518 39.2172 31.0096 39.2308 31.0681 39.2308H31.1317C31.1999 39.2189 31.2635 39.1883 31.3153 39.1423C31.3672 39.0964 31.4053 39.0371 31.4254 38.9708L32.0369 36.9695C32.1406 36.9903 32.2474 36.9903 32.3511 36.9695L33.0057 38.967C33.0268 39.0325 33.0656 39.0909 33.1177 39.1358C33.1699 39.1807 33.2334 39.2103 33.3012 39.2214H33.3611C33.4196 39.2215 33.4774 39.2078 33.5297 39.1815C33.582 39.1552 33.6274 39.117 33.6622 39.0699L34.3075 38.1983L35.3417 38.5182C35.4073 38.5387 35.4773 38.5409 35.544 38.5243C35.6107 38.5077 35.6715 38.4731 35.7198 38.4242C35.7682 38.3753 35.8021 38.314 35.8178 38.2471C35.8336 38.1802 35.8307 38.1103 35.8093 38.0449L35.0107 35.5966L35.0705 35.3011C35.08 35.2552 35.1012 35.2124 35.132 35.1771C35.1628 35.1417 35.2021 35.1148 35.2463 35.0991L35.5661 34.985C35.6942 34.9388 35.8118 34.8675 35.9119 34.7752C36.0121 34.683 36.0927 34.5716 36.1492 34.4477C36.2057 34.3238 36.2368 34.1898 36.2407 34.0537C36.2447 33.9176 36.2213 33.7821 36.1721 33.6551L36.0487 33.3391C36.0315 33.2953 36.026 33.2479 36.0325 33.2013C36.0391 33.1548 36.0575 33.1108 36.0861 33.0735L36.2937 32.806C36.3771 32.6979 36.438 32.5742 36.4727 32.4422C36.5075 32.3102 36.5154 32.1725 36.4961 32.0374C36.4767 31.9022 36.4304 31.7723 36.36 31.6554C36.2896 31.5384 36.1965 31.4368 36.0861 31.3564V31.3546ZM30.9279 38.0319L30.565 37.5418C30.5185 37.4783 30.4532 37.4312 30.3783 37.407C30.3034 37.3828 30.2228 37.3829 30.1479 37.4071L29.5364 37.5942L29.9291 36.3148C30.1493 36.4396 30.4083 36.477 30.6548 36.4196L30.984 36.3429C31.0298 36.3321 31.0776 36.3332 31.1229 36.3464C31.1681 36.3595 31.2091 36.384 31.2421 36.4177L31.373 36.5524L30.9279 38.0319ZM34.2757 37.4071C34.2013 37.3837 34.1215 37.3841 34.0474 37.4083C33.9733 37.4324 33.9086 37.4791 33.8623 37.5418L33.4883 38.0449L33.0151 36.5935L33.1797 36.4252C33.2127 36.3917 33.2538 36.3672 33.299 36.3541C33.3441 36.341 33.3919 36.3397 33.4378 36.3504L33.7669 36.4271C34.0015 36.4811 34.2477 36.4493 34.4608 36.3373L34.8704 37.5961L34.2757 37.4071ZM35.7027 32.3459L35.4951 32.6133C35.3876 32.7529 35.3179 32.9177 35.2927 33.092C35.2675 33.2663 35.2876 33.4441 35.3511 33.6084L35.4745 33.9245C35.4876 33.9585 35.4938 33.9947 35.4927 34.0311C35.4916 34.0675 35.4832 34.1033 35.468 34.1365C35.4529 34.1696 35.4312 34.1993 35.4044 34.2239C35.3776 34.2486 35.3461 34.2676 35.3118 34.2799L34.992 34.3939C34.8269 34.4534 34.6798 34.5543 34.5648 34.687C34.4499 34.8196 34.3709 34.9795 34.3355 35.1515L34.2626 35.4863C34.2553 35.522 34.2409 35.5559 34.2203 35.586C34.1997 35.616 34.1732 35.6417 34.1426 35.6614C34.1119 35.6811 34.0776 35.6944 34.0416 35.7007C34.0057 35.7069 33.9689 35.7058 33.9334 35.6976L33.6042 35.6209C33.4338 35.5817 33.2562 35.5867 33.0882 35.6354C32.9203 35.6842 32.7676 35.7752 32.6448 35.8996L32.4091 36.1428C32.357 36.194 32.2868 36.2228 32.2137 36.2228C32.1405 36.2228 32.0704 36.194 32.0182 36.1428L31.7844 35.8996C31.6888 35.8014 31.5746 35.7234 31.4483 35.67C31.3221 35.6167 31.1865 35.5892 31.0494 35.5891C30.972 35.5889 30.8948 35.5977 30.8194 35.6153L30.4902 35.692C30.4547 35.7002 30.4179 35.7013 30.382 35.695C30.346 35.6888 30.3117 35.6755 30.281 35.6558C30.2504 35.6361 30.2239 35.6104 30.2033 35.5803C30.1827 35.5503 30.1683 35.5164 30.161 35.4806L30.0937 35.1515C30.0565 34.9811 29.9766 34.823 29.8614 34.6922C29.7462 34.5613 29.5996 34.4619 29.4354 34.4033L29.1174 34.2892C29.0831 34.2769 29.0517 34.2579 29.0248 34.2333C28.998 34.2087 28.9764 34.1789 28.9612 34.1458C28.946 34.1127 28.9377 34.0769 28.9365 34.0405C28.9354 34.0041 28.9416 33.9678 28.9547 33.9338L29.0781 33.6177C29.1415 33.4534 29.1615 33.2756 29.1363 33.1014C29.111 32.9271 29.0414 32.7623 28.9341 32.6227L28.7265 32.3459C28.7043 32.3169 28.6882 32.2839 28.679 32.2486C28.6697 32.2133 28.6677 32.1765 28.6729 32.1405C28.6782 32.1044 28.6906 32.0697 28.7094 32.0385C28.7282 32.0073 28.7531 31.9801 28.7826 31.9587L29.0576 31.7604C29.1991 31.6569 29.3117 31.5188 29.3847 31.3593C29.4577 31.1999 29.4887 31.0244 29.4746 30.8496L29.4447 30.5129C29.4414 30.4765 29.4455 30.4398 29.4567 30.4051C29.4679 30.3703 29.486 30.3382 29.5099 30.3106C29.5338 30.283 29.5631 30.2605 29.5959 30.2445C29.6287 30.2285 29.6645 30.2192 29.701 30.2174L30.0395 30.1987C30.2153 30.1882 30.3854 30.1327 30.5335 30.0373C30.6816 29.942 30.8026 29.8101 30.8848 29.6544L31.0419 29.3551C31.059 29.3231 31.0823 29.2947 31.1104 29.2717C31.1385 29.2488 31.171 29.2317 31.2058 29.2214C31.2406 29.2111 31.2772 29.2079 31.3133 29.2119C31.3493 29.2159 31.3843 29.2271 31.416 29.2448L31.7115 29.4112C31.8648 29.4974 32.0378 29.5427 32.2137 29.5427C32.3896 29.5427 32.5625 29.4974 32.7158 29.4112L33.0113 29.2448C33.043 29.2268 33.078 29.2154 33.1141 29.2113C33.1503 29.2071 33.1869 29.2103 33.2218 29.2206C33.2567 29.2309 33.2892 29.2481 33.3173 29.2712C33.3454 29.2943 33.3685 29.3229 33.3854 29.3551L33.5425 29.6544C33.625 29.8097 33.7461 29.9413 33.8942 30.0363C34.0423 30.1313 34.2123 30.1865 34.3879 30.1968L34.7264 30.2155C34.7629 30.2174 34.7986 30.2266 34.8314 30.2426C34.8643 30.2586 34.8935 30.2811 34.9174 30.3087C34.9414 30.3363 34.9595 30.3684 34.9707 30.4032C34.9819 30.438 34.9859 30.4746 34.9826 30.511L34.9546 30.8496C34.9399 31.025 34.9705 31.2012 35.0435 31.3614C35.1166 31.5216 35.2296 31.6603 35.3716 31.7642L35.6447 31.9624C35.6742 31.9839 35.6991 32.011 35.7179 32.0422C35.7368 32.0734 35.7492 32.1081 35.7544 32.1442C35.7597 32.1803 35.7576 32.217 35.7484 32.2523C35.7392 32.2876 35.723 32.3207 35.7008 32.3496L35.7027 32.3459Z" fill="#911211" stroke="#911211" stroke-width="0.229744"/>
</svg>
