<svg width="40" height="40" viewBox="0 0 40 40" fill="none" xmlns="http://www.w3.org/2000/svg">
<path d="M19.5025 3.89985C18.9908 3.89985 18.4905 4.05158 18.065 4.33586C17.6394 4.62014 17.3077 5.02421 17.1118 5.49699C16.9158 5.96977 16.8644 6.49004 16.9641 6.99202C17.0638 7.49401 17.31 7.95518 17.6717 8.31723C18.0334 8.67929 18.4943 8.92598 18.9962 9.02612C19.498 9.12625 20.0183 9.07535 20.4912 8.87983C20.9642 8.68431 21.3685 8.35296 21.6532 7.92766C21.9379 7.50236 22.0901 7.00221 22.0905 6.49043C22.0905 5.80379 21.818 5.14523 21.3327 4.65947C20.8474 4.17371 20.1892 3.90049 19.5025 3.89985ZM19.5025 8.10316C19.183 8.10316 18.8707 8.00837 18.605 7.83078C18.3394 7.6532 18.1324 7.4008 18.0102 7.10553C17.888 6.81025 17.8562 6.48537 17.9187 6.172C17.9812 5.85862 18.1353 5.57083 18.3614 5.34505C18.5875 5.11926 18.8755 4.96562 19.189 4.90358C19.5024 4.84153 19.8272 4.87386 20.1223 4.99648C20.4174 5.1191 20.6694 5.3265 20.8466 5.59243C21.0238 5.85836 21.1181 6.17088 21.1176 6.49043C21.1163 6.91818 20.9457 7.328 20.643 7.63024C20.3403 7.93247 19.9303 8.10251 19.5025 8.10316Z" fill="#911211" stroke="#911211" stroke-width="0.470588"/>
<path d="M24.5373 4.71481L24.1822 4.45697C24.1328 4.42123 24.0934 4.37336 24.0678 4.31798C24.0422 4.26259 24.0314 4.20155 24.0363 4.14075L24.0752 3.7029C24.0904 3.52588 24.07 3.3476 24.0151 3.17862C23.9603 3.00963 23.872 2.85338 23.7557 2.7191C23.6393 2.58483 23.4972 2.47526 23.3378 2.3969C23.1783 2.31853 23.0048 2.27296 22.8274 2.26288L22.3871 2.23856C22.3261 2.2353 22.267 2.21635 22.2154 2.18354C22.1638 2.15073 22.1216 2.10516 22.0928 2.05126L21.8885 1.66206C21.8057 1.50471 21.6922 1.36558 21.5546 1.25293C21.417 1.14028 21.2583 1.0564 21.0877 1.00626C20.9171 0.95613 20.7382 0.94076 20.5616 0.961068C20.3849 0.981375 20.2142 1.03695 20.0594 1.12448L19.6751 1.34097C19.622 1.37081 19.5621 1.38648 19.5012 1.38648C19.4403 1.38648 19.3804 1.37081 19.3273 1.34097L18.9454 1.12448C18.7908 1.037 18.6202 0.981464 18.4438 0.961186C18.2673 0.940908 18.0886 0.956297 17.9182 1.00644C17.7478 1.05658 17.5893 1.14046 17.4519 1.25308C17.3146 1.36571 17.2013 1.50479 17.1187 1.66206L16.9144 2.05126C16.8856 2.10516 16.8434 2.15073 16.7918 2.18354C16.7403 2.21635 16.6811 2.2353 16.6201 2.23856L16.1798 2.26288C16.0025 2.27296 15.8289 2.31853 15.6695 2.3969C15.51 2.47526 15.3679 2.58483 15.2516 2.7191C15.1352 2.85338 15.047 3.00963 14.9921 3.17862C14.9372 3.3476 14.9168 3.52588 14.9321 3.7029L14.971 4.14075C14.9761 4.20133 14.9656 4.26223 14.9405 4.31759C14.9154 4.37296 14.8765 4.42095 14.8275 4.45697L14.4675 4.71481C14.3239 4.81928 14.2028 4.95148 14.1112 5.10358C14.0196 5.25568 13.9595 5.42461 13.9343 5.60036C13.9091 5.77611 13.9195 5.95513 13.9647 6.12682C14.0099 6.29851 14.089 6.4594 14.1975 6.59997L14.4675 6.94781C14.5044 6.99644 14.5283 7.05372 14.5368 7.11418C14.5453 7.17465 14.5382 7.23629 14.5161 7.29322L14.3556 7.70674C14.2909 7.87229 14.2601 8.04914 14.265 8.22681C14.2699 8.40449 14.3104 8.57938 14.3841 8.74111C14.4578 8.90284 14.5632 9.04813 14.6941 9.16837C14.825 9.28861 14.9787 9.38135 15.1461 9.4411L15.5596 9.58704C15.6169 9.60771 15.668 9.6427 15.7081 9.68868C15.7481 9.73466 15.7757 9.7901 15.7882 9.84975L15.8417 10.1149L14.825 13.4352C14.8016 13.5192 14.8012 13.608 14.8239 13.6922C14.8465 13.7765 14.8914 13.853 14.9538 13.914C15.0162 13.9749 15.0939 14.0179 15.1786 14.0385C15.2634 14.0592 15.3521 14.0566 15.4355 14.0312L16.7806 13.6103L17.6198 14.7609C17.6651 14.8221 17.7241 14.8718 17.7921 14.906C17.8601 14.9403 17.9352 14.958 18.0114 14.9579H18.0941C18.1828 14.9424 18.2655 14.9026 18.3329 14.8429C18.4003 14.7832 18.4498 14.706 18.476 14.6198L19.2713 12.0171C19.4062 12.0441 19.5451 12.0441 19.68 12.0171L20.5313 14.615C20.5587 14.7001 20.6091 14.776 20.6769 14.8344C20.7447 14.8928 20.8273 14.9313 20.9156 14.9458H20.9934C21.0696 14.9459 21.1447 14.9281 21.2127 14.8939C21.2807 14.8596 21.3397 14.8099 21.385 14.7487L22.2242 13.6152L23.5692 14.0312C23.6545 14.0579 23.7455 14.0607 23.8323 14.0391C23.919 14.0176 23.9982 13.9725 24.061 13.909C24.1238 13.8454 24.1679 13.7657 24.1884 13.6787C24.209 13.5917 24.2051 13.5007 24.1773 13.4157L23.1387 10.2316L23.2166 9.84732C23.2289 9.78758 23.2564 9.73202 23.2965 9.68601C23.3365 9.64 23.3877 9.60508 23.4452 9.58461L23.8611 9.43623C24.0277 9.3762 24.1806 9.28345 24.3108 9.16346C24.4411 9.04346 24.546 8.89862 24.6194 8.73748C24.6928 8.57634 24.7333 8.40213 24.7384 8.22512C24.7435 8.04811 24.7132 7.87186 24.6492 7.70674L24.4887 7.29566C24.4664 7.23876 24.4591 7.17708 24.4677 7.11657C24.4762 7.05606 24.5002 6.99877 24.5373 6.95025L24.8073 6.6024C24.9158 6.46183 24.9949 6.30095 25.0401 6.12925C25.0853 5.95756 25.0957 5.77854 25.0705 5.60279C25.0453 5.42704 24.9852 5.25812 24.8936 5.10601C24.802 4.95391 24.6809 4.82171 24.5373 4.71724V4.71481ZM17.829 13.3987L17.3571 12.7614C17.2966 12.6789 17.2116 12.6175 17.1142 12.5861C17.0168 12.5546 16.912 12.5547 16.8147 12.5863L16.0193 12.8295L16.5301 11.1657C16.8164 11.328 17.1533 11.3766 17.4738 11.3019L17.9019 11.2022C17.9615 11.1881 18.0237 11.1897 18.0826 11.2067C18.1414 11.2237 18.1948 11.2557 18.2376 11.2995L18.4078 11.4746L17.829 13.3987ZM22.1828 12.5863C22.0861 12.5558 21.9824 12.5563 21.886 12.5877C21.7896 12.6191 21.7055 12.6799 21.6453 12.7614L21.1588 13.4157L20.5434 11.5282L20.7575 11.3092C20.8004 11.2656 20.8538 11.2338 20.9126 11.2168C20.9714 11.1997 21.0335 11.1981 21.0931 11.2119L21.5212 11.3117C21.8263 11.3819 22.1465 11.3405 22.4236 11.1949L22.9563 12.832L22.1828 12.5863ZM24.0387 6.00402L23.7687 6.35186C23.6289 6.5333 23.5383 6.74769 23.5055 6.97435C23.4727 7.20102 23.4988 7.43231 23.5814 7.64593L23.7419 8.05702C23.759 8.10121 23.767 8.14837 23.7656 8.19571C23.7641 8.24305 23.7532 8.28962 23.7335 8.33269C23.7138 8.37575 23.6857 8.41444 23.6508 8.44647C23.6159 8.4785 23.5749 8.50322 23.5303 8.51919L23.1144 8.66757C22.8997 8.74493 22.7084 8.87615 22.5589 9.04865C22.4094 9.22115 22.3067 9.42915 22.2607 9.65272L22.1658 10.0881C22.1563 10.1346 22.1376 10.1787 22.1108 10.2178C22.084 10.2569 22.0496 10.2903 22.0097 10.3159C21.9698 10.3415 21.9252 10.3589 21.8785 10.367C21.8318 10.375 21.7839 10.3737 21.7377 10.363L21.3096 10.2633C21.088 10.2122 20.857 10.2187 20.6386 10.2821C20.4202 10.3456 20.2216 10.4639 20.0618 10.6257L19.7554 10.9419C19.6876 11.0086 19.5963 11.046 19.5012 11.046C19.4061 11.046 19.3148 11.0086 19.247 10.9419L18.943 10.6257C18.8186 10.498 18.67 10.3965 18.5058 10.3272C18.3417 10.2578 18.1653 10.222 17.9871 10.2219C17.8864 10.2217 17.786 10.2331 17.6879 10.256L17.2598 10.3557C17.2136 10.3664 17.1657 10.3678 17.119 10.3597C17.0723 10.3516 17.0277 10.3342 16.9878 10.3086C16.9479 10.283 16.9135 10.2496 16.8867 10.2105C16.8599 10.1714 16.8412 10.1273 16.8317 10.0808L16.7441 9.65272C16.6958 9.43118 16.5918 9.22562 16.442 9.05539C16.2922 8.88516 16.1015 8.75588 15.888 8.67973L15.4745 8.53135C15.4299 8.51538 15.3889 8.49066 15.354 8.45863C15.3191 8.4266 15.291 8.38792 15.2713 8.34485C15.2516 8.30179 15.2407 8.25521 15.2392 8.20787C15.2378 8.16053 15.2458 8.11337 15.2628 8.06918L15.4234 7.65809C15.5057 7.44443 15.5317 7.21319 15.4989 6.98657C15.4661 6.75995 15.3756 6.54557 15.2361 6.36402L14.9661 6.00402C14.9372 5.9664 14.9162 5.92338 14.9042 5.87749C14.8922 5.83161 14.8896 5.78379 14.8964 5.73686C14.9032 5.68993 14.9193 5.64484 14.9438 5.60424C14.9683 5.56365 15.0007 5.52837 15.0391 5.5005L15.3966 5.24265C15.5807 5.10795 15.7271 4.92836 15.8221 4.72099C15.917 4.51362 15.9573 4.28539 15.939 4.05804L15.9001 3.6202C15.8958 3.57289 15.9011 3.52519 15.9156 3.47997C15.9302 3.43476 15.9538 3.39295 15.9849 3.35705C16.016 3.32116 16.054 3.29192 16.0967 3.2711C16.1394 3.25028 16.1859 3.23829 16.2333 3.23587L16.6736 3.21154C16.9022 3.19796 17.1235 3.12568 17.3161 3.0017C17.5086 2.87771 17.666 2.7062 17.773 2.50369L17.9773 2.1145C17.9995 2.07279 18.0298 2.03593 18.0663 2.00606C18.1029 1.9762 18.1451 1.95393 18.1904 1.94056C18.2357 1.9272 18.2832 1.92301 18.3302 1.92823C18.3771 1.93345 18.4225 1.94799 18.4638 1.97098L18.8481 2.18747C19.0475 2.29956 19.2724 2.35844 19.5012 2.35844C19.7299 2.35844 19.9548 2.29956 20.1543 2.18747L20.5386 1.97098C20.5797 1.94765 20.6252 1.93284 20.6722 1.92744C20.7192 1.92204 20.7668 1.92616 20.8122 1.93955C20.8576 1.95294 20.8999 1.97533 20.9364 2.00539C20.973 2.03545 21.0031 2.07255 21.025 2.1145L21.2294 2.50369C21.3367 2.70574 21.4942 2.87677 21.6867 3.00032C21.8793 3.12386 22.1004 3.19577 22.3288 3.20911L22.769 3.23344C22.8165 3.23586 22.8629 3.24784 22.9056 3.26867C22.9483 3.28949 22.9864 3.31873 23.0175 3.35462C23.0486 3.39051 23.0722 3.43232 23.0867 3.47754C23.1013 3.52276 23.1066 3.57046 23.1022 3.61777L23.0658 4.05804C23.0466 4.28618 23.0865 4.5154 23.1815 4.7237C23.2764 4.932 23.4234 5.11238 23.6082 5.24752L23.9633 5.50536C24.0016 5.53324 24.034 5.56851 24.0585 5.60911C24.0831 5.6497 24.0992 5.6948 24.106 5.74173C24.1128 5.78866 24.1101 5.83647 24.0981 5.88236C24.0862 5.92824 24.0651 5.97126 24.0363 6.00888L24.0387 6.00402Z" fill="#911211" stroke="#911211" stroke-width="0.470588"/>
<path d="M30.6861 20.5602V25.4403L29.8211 24.5753C29.6021 24.3563 29.2481 24.3563 29.029 24.5753C28.81 24.7944 28.81 25.1484 29.029 25.3675L30.8496 27.1882C30.9017 27.2403 30.9634 27.2812 31.0323 27.3098C31.1006 27.3383 31.1734 27.3529 31.2463 27.3529C31.3191 27.3529 31.3919 27.3383 31.4602 27.3098C31.5292 27.2812 31.5908 27.2403 31.6429 27.1882L33.4635 25.3675C33.6825 25.1484 33.6825 24.7944 33.4635 24.5753C33.2445 24.3563 32.8904 24.3563 32.6714 24.5753L31.8064 25.4403V20C31.8064 19.6907 31.556 19.4397 31.2463 19.4397H20.0699V17.7591C20.0699 17.4498 19.8195 17.1989 19.5097 17.1989C19.1999 17.1989 18.9495 17.4498 18.9495 17.7591V19.4397H7.80339C7.4936 19.4397 7.2432 19.6907 7.2432 20V25.5804L6.37826 24.7154C6.15923 24.4963 5.80519 24.4963 5.58615 24.7154C5.36712 24.9344 5.36712 25.2885 5.58615 25.5075L7.40733 27.3288C7.51657 27.4381 7.65998 27.493 7.80339 27.493C7.9468 27.493 8.0902 27.4381 8.19944 27.3288L10.0206 25.5075C10.2397 25.2885 10.2397 24.9344 10.0206 24.7154C9.80159 24.4963 9.44755 24.4963 9.22851 24.7154L8.36358 25.5804V20.5602H18.9489V25.4403L18.084 24.5753C17.865 24.3563 17.5109 24.3563 17.2919 24.5753C17.0729 24.7944 17.0729 25.1484 17.2919 25.3675L19.1125 27.1882C19.1646 27.2403 19.2262 27.2812 19.2951 27.3098C19.3635 27.3383 19.4363 27.3529 19.5091 27.3529C19.582 27.3529 19.6548 27.3383 19.7231 27.3098C19.792 27.2812 19.8537 27.2403 19.9057 27.1882L21.7264 25.3675C21.9454 25.1484 21.9454 24.7944 21.7264 24.5753C21.5073 24.3563 21.1533 24.3563 20.9343 24.5753L20.0693 25.4403V20.5602H30.6861Z" fill="#911211" stroke="#911211" stroke-width="0.470588"/>
<path d="M7.80379 28.1019C6.28287 28.1019 5.04541 29.3377 5.04541 30.857C5.04541 32.3781 6.28287 33.6156 7.80379 33.6156C9.32303 33.6156 10.5594 32.3781 10.5594 30.857C10.5594 29.3377 9.32303 28.1019 7.80379 28.1019ZM7.80379 32.4951C6.90076 32.4951 6.16579 31.7601 6.16579 30.857C6.16579 29.9556 6.90076 29.2223 7.80379 29.2223C8.70514 29.2223 9.43899 29.9556 9.43899 30.857C9.43899 31.7601 8.70514 32.4951 7.80379 32.4951Z" fill="#911211" stroke="#911211" stroke-width="0.470588"/>
<path d="M9.94879 33.9826C9.80482 33.9686 6.81956 33.968 6.47953 33.968C6.09804 33.968 5.84035 33.9691 5.82074 33.9703C4.12336 34.0795 2.79123 35.4453 2.72513 37.1086C2.71841 37.1708 2.71729 37.2218 2.71729 37.2784V38.4873C2.71729 38.7966 2.96769 39.0476 3.27748 39.0476H12.3257C12.6355 39.0476 12.8859 38.7966 12.8859 38.4873V37.2784C12.8859 37.2218 12.8847 37.1714 12.8808 37.1501C12.8226 35.5366 11.5672 34.1759 9.94879 33.9826ZM11.7655 37.9271H3.83767V37.2784L3.84159 37.1932C3.88752 36.0655 4.7687 35.1613 5.87228 35.0896C5.90981 35.089 6.14341 35.089 6.47953 35.089C7.72483 35.089 9.70791 35.0929 9.82835 35.0969C10.8916 35.224 11.7235 36.1238 11.7621 37.191C11.7627 37.2044 11.7644 37.2649 11.766 37.2789L11.7655 37.9271Z" fill="#911211" stroke="#911211" stroke-width="0.470588"/>
<path d="M19.524 28.1019C18.0031 28.1019 16.7656 29.3377 16.7656 30.857C16.7656 32.3781 18.0031 33.6156 19.524 33.6156C21.0432 33.6156 22.2796 32.3781 22.2796 30.857C22.2796 29.3377 21.0432 28.1019 19.524 28.1019ZM19.524 32.4951C18.621 32.4951 17.886 31.7601 17.886 30.857C17.886 29.9556 18.621 29.2223 19.524 29.2223C20.4254 29.2223 21.1592 29.9556 21.1592 30.857C21.1592 31.7601 20.4254 32.4951 19.524 32.4951Z" fill="#911211" stroke="#911211" stroke-width="0.470588"/>
<path d="M21.669 33.9826C21.525 33.9686 18.5398 33.9681 18.1997 33.9681C17.8183 33.9681 17.5606 33.9692 17.541 33.9703C15.8436 34.0796 14.5114 35.4454 14.4453 37.1087C14.4386 37.1709 14.4375 37.2219 14.4375 37.2784V38.4874C14.4375 38.7966 14.6879 39.0476 14.9977 39.0476H24.0459C24.3557 39.0476 24.6061 38.7966 24.6061 38.4874V37.2784C24.6061 37.2219 24.605 37.1714 24.601 37.1501C24.5428 35.5367 23.2874 34.1759 21.669 33.9826ZM23.4857 37.9272H15.5579V37.2784L15.5618 37.1933C15.6077 36.0656 16.4889 35.1614 17.5925 35.0896C17.63 35.0891 17.8636 35.0891 18.1997 35.0891C19.445 35.0891 21.4281 35.093 21.5486 35.0969C22.6118 35.2241 23.4437 36.1238 23.4823 37.191C23.4829 37.2045 23.4846 37.265 23.4863 37.279L23.4857 37.9272Z" fill="#911211" stroke="#911211" stroke-width="0.470588"/>
<path d="M31.2442 33.6156C32.7635 33.6156 33.9998 32.3781 33.9998 30.857C33.9998 29.3377 32.7635 28.1019 31.2442 28.1019C29.7233 28.1019 28.4858 29.3377 28.4858 30.857C28.4858 32.3781 29.7233 33.6156 31.2442 33.6156ZM31.2442 29.2223C32.1456 29.2223 32.8794 29.9556 32.8794 30.857C32.8794 31.7601 32.1456 32.4951 31.2442 32.4951C30.3412 32.4951 29.6062 31.7601 29.6062 30.857C29.6062 29.9556 30.3406 29.2223 31.2442 29.2223Z" fill="#911211" stroke="#911211" stroke-width="0.470588"/>
<path d="M33.3936 33.9826C33.2496 33.9686 30.2644 33.9681 29.9244 33.9681C29.5429 33.9681 29.2852 33.9692 29.2656 33.9703C27.5682 34.0796 26.2361 35.4454 26.17 37.1087C26.1632 37.1709 26.1621 37.2219 26.1621 37.2784V38.4874C26.1621 38.7966 26.4125 39.0476 26.7223 39.0476H35.7705C36.0803 39.0476 36.3307 38.7966 36.3307 38.4874V37.2784C36.3307 37.2219 36.3296 37.1714 36.3257 37.1501C36.2674 35.5367 35.012 34.1759 33.3936 33.9826ZM35.2103 37.9272H27.2825V37.2784L27.2864 37.1933C27.3323 36.0656 28.2135 35.1614 29.3171 35.0896C29.3546 35.0891 29.5882 35.0891 29.9244 35.0891C31.1697 35.0891 33.1527 35.093 33.2732 35.0969C34.3364 35.2241 35.1683 36.1238 35.207 37.191C35.2075 37.2045 35.2092 37.265 35.2109 37.279L35.2103 37.9272Z" fill="#911211" stroke="#911211" stroke-width="0.470588"/>
</svg>
