<svg width="40" height="40" viewBox="0 0 40 40" fill="none" xmlns="http://www.w3.org/2000/svg">
<path d="M33.7403 14.7661C33.7403 12.7102 32.208 11.0079 30.233 10.755C31.459 8.091 29.3727 4.78719 26.229 5.06035C26.0866 2.78237 24.0988 0.7547 21.5712 0.7547C19.4329 0.7547 17.6065 2.21006 17.0709 4.20315C13.5789 2.6405 9.8018 5.76449 10.629 9.46788C8.0931 9.4917 6.0376 11.5769 6.0376 14.1365C6.0376 16.7101 8.12774 18.8039 10.6971 18.8039H29.7027C31.9291 18.8039 33.7403 16.9926 33.7403 14.7661ZM29.7027 17.6011H10.6971C8.79076 17.6011 7.24035 16.0468 7.24035 14.1365C7.24035 11.9929 9.26603 10.2845 11.3654 10.7456C11.5886 10.7944 11.8194 10.7131 11.9627 10.5348C12.106 10.3568 12.136 10.1134 12.0402 9.90607C10.5752 6.7318 14.2775 3.58382 17.1731 5.64126C17.3505 5.7678 17.583 5.78752 17.7798 5.69412C17.9771 5.60012 18.1075 5.40719 18.1216 5.18929C18.2366 3.37711 19.7524 1.95753 21.5712 1.95753C23.7219 1.95753 25.2495 3.89763 25.0092 5.7014C24.9828 5.90107 25.0574 6.1005 25.2088 6.23323C25.5735 6.55391 25.8173 6.247 26.5931 6.247C28.9161 6.247 30.3337 9.15376 28.6539 10.9785C28.4777 11.1702 28.4448 11.4536 28.5723 11.6806C28.7003 11.907 28.9587 12.0283 29.2148 11.9754C30.7071 11.6797 32.5376 12.8532 32.5376 14.766C32.5375 16.3292 31.2661 17.6011 29.7027 17.6011Z" fill="#911211" stroke="#911211" stroke-width="0.6"/>
<path d="M28.2746 37.9C28.5436 37.7718 28.7116 37.4969 28.7035 37.1991C28.6199 34.08 27.0253 31.2771 24.4376 29.7006C24.169 29.5362 23.827 29.5561 23.5797 29.7515C22.5508 30.5578 21.3174 30.9838 20.0121 30.9838C18.7072 30.9838 17.4738 30.5578 16.4449 29.7515C16.1965 29.5561 15.8545 29.5362 15.587 29.7006C12.9993 31.2771 11.4047 34.08 11.3211 37.1991C11.313 37.4969 11.481 37.7718 11.75 37.9C14.4914 39.2097 17.2519 39.8642 20.0125 39.8642C22.7727 39.8642 25.5332 39.2097 28.2746 37.9ZM15.9581 31.2624C17.1595 32.0694 18.5502 32.4932 20.0121 32.4932C21.4744 32.4932 22.8652 32.0694 24.0665 31.2624C25.8416 32.5168 26.9697 34.5134 27.1668 36.7495C22.417 38.881 17.6083 38.881 12.8578 36.7495C13.0549 34.5134 14.183 32.5168 15.9581 31.2624Z" fill="#911211" stroke="#911211" stroke-width="0.2"/>
<path d="M19.8857 29.961C22.5279 29.961 24.6774 27.811 24.6774 25.1688C24.6774 22.5266 22.5279 20.3774 19.8857 20.3774C17.2438 20.3774 15.0942 22.5266 15.0942 25.1688C15.0942 27.811 17.2438 29.961 19.8857 29.961ZM19.8857 21.8868C21.6954 21.8868 23.168 23.3594 23.168 25.1688C23.168 26.9789 21.6954 28.4515 19.8857 28.4515C18.0759 28.4515 16.6037 26.9789 16.6037 25.1688C16.6037 23.3594 18.0759 21.8868 19.8857 21.8868Z" fill="#911211" stroke="#911211" stroke-width="0.2"/>
</svg>
