<svg width="41" height="40" viewBox="0 0 41 40" fill="none" xmlns="http://www.w3.org/2000/svg">
<path d="M36.9213 1.45459H3.34878C1.48364 1.45459 0 2.93823 0 4.80337V35.1967C0 37.0619 1.48364 38.5455 3.34878 38.5455H36.9213C38.7865 38.5455 40.2701 37.0619 40.2701 35.1967V4.80337C40.2701 2.93823 38.7865 1.45459 36.9213 1.45459ZM3.34878 3.65885H36.9213C37.5572 3.65885 38.0235 4.16753 38.0235 4.76098V8.35641H2.24665V4.80337C2.24665 4.16752 2.71293 3.65885 3.34878 3.65885ZM36.9213 36.2988H3.34878C2.71293 36.2988 2.24665 35.7902 2.24665 35.1967V10.6031H38.0659V35.1967C38.0235 35.7902 37.5572 36.2988 36.9213 36.2988Z" fill="#911211"/>
<path d="M5.72228 7.32164C6.44803 7.32164 7.03636 6.7333 7.03636 6.00756C7.03636 5.28181 6.44803 4.69348 5.72228 4.69348C4.99654 4.69348 4.4082 5.28181 4.4082 6.00756C4.4082 6.7333 4.99654 7.32164 5.72228 7.32164Z" fill="#911211"/>
<path d="M9.79211 7.32164C10.5179 7.32164 11.1062 6.7333 11.1062 6.00756C11.1062 5.28181 10.5179 4.69348 9.79211 4.69348C9.06636 4.69348 8.47803 5.28181 8.47803 6.00756C8.47803 6.7333 9.06636 7.32164 9.79211 7.32164Z" fill="#911211"/>
<path d="M13.8619 7.32164C14.5877 7.32164 15.176 6.7333 15.176 6.00756C15.176 5.28181 14.5877 4.69348 13.8619 4.69348C13.1362 4.69348 12.5479 5.28181 12.5479 6.00756C12.5479 6.7333 13.1362 7.32164 13.8619 7.32164Z" fill="#911211"/>
<path d="M22 19.5083C22 18.6746 21.3151 17.9952 20.4746 17.9952C19.9861 17.9952 19.555 18.228 19.2748 18.5843L14.9141 16.0831C14.9859 15.9074 15.029 15.715 15.029 15.5131C15.029 14.6793 14.3441 14 13.5036 14C12.6631 14 11.9782 14.6793 11.9782 15.5131C11.9782 15.715 12.0189 15.9074 12.0931 16.0831L7.72517 18.5819C7.44499 18.2257 7.01395 17.9929 6.52543 17.9929C5.68489 17.9929 5 18.6722 5 19.5059C5 20.2708 5.57473 20.8955 6.31709 20.9976V25.9074C5.57473 26.0095 5 26.6366 5 27.3991C5 28.2328 5.68489 28.9121 6.52543 28.9121C6.98521 28.9121 7.39231 28.7055 7.67249 28.3872L12.0883 30.9192C12.0165 31.095 11.9734 31.2874 11.9734 31.4869C11.9734 32.3207 12.6583 33 13.4988 33C14.3393 33 15.0242 32.3207 15.0242 31.4869C15.0242 31.285 14.9835 31.095 14.9117 30.9192L19.3275 28.3895C19.6077 28.7078 20.0148 28.9145 20.4722 28.9145C21.3127 28.9145 21.9976 28.2352 21.9976 27.4014C21.9976 26.639 21.4229 26.0119 20.6805 25.9097V21C21.4253 20.8979 22 20.2708 22 19.5083ZM13.5012 14.4109C14.1142 14.4109 14.6123 14.905 14.6123 15.5131C14.6123 16.1211 14.1142 16.6152 13.5012 16.6152C12.8882 16.6152 12.3901 16.1211 12.3901 15.5131C12.3901 14.905 12.8882 14.4109 13.5012 14.4109ZM5.41668 19.5083C5.41668 18.9002 5.91478 18.4062 6.52782 18.4062C7.14086 18.4062 7.63896 18.9002 7.63896 19.5083C7.63896 20.1164 7.14086 20.6105 6.53022 20.6105C6.53022 20.6105 6.53022 20.6105 6.52782 20.6105C5.91478 20.6081 5.41668 20.114 5.41668 19.5083ZM7.44978 28.0143C7.44739 28.0166 7.44499 28.019 7.44499 28.0214V28.0238C7.24384 28.3135 6.90858 28.5036 6.52782 28.5036C5.91478 28.5036 5.41668 28.0095 5.41668 27.4014C5.41668 26.7957 5.90999 26.3064 6.51824 26.3017C6.52064 26.3017 6.52303 26.304 6.52543 26.304C6.52782 26.304 6.53022 26.3017 6.53261 26.3017C7.14086 26.3064 7.63657 26.7981 7.63657 27.4014C7.63896 27.6295 7.56952 27.8385 7.44978 28.0143ZM13.5012 32.5914C12.8882 32.5914 12.3901 32.0974 12.3901 31.4893C12.3901 30.8812 12.8882 30.3872 13.5012 30.3872C14.1142 30.3872 14.6123 30.8812 14.6123 31.4893C14.6123 32.0974 14.1142 32.5914 13.5012 32.5914ZM18.9491 27.4014C18.9491 27.6318 19.0066 27.8504 19.1 28.0475L14.7009 30.5653C14.4208 30.209 13.9897 29.9739 13.5012 29.9739C13.0127 29.9739 12.5792 30.2066 12.3015 30.5653L7.90238 28.0451C7.99577 27.8504 8.05325 27.6318 8.05325 27.4014C8.05325 26.6366 7.47612 26.0095 6.73377 25.9097V21C7.47612 20.8979 8.05325 20.2708 8.05325 19.5083C8.05325 19.3064 8.01254 19.114 7.9383 18.9359L12.3015 16.4371C12.5816 16.7933 13.0127 17.0261 13.5012 17.0261C13.9897 17.0261 14.4208 16.7933 14.7009 16.4371L19.0641 18.9382C18.9923 19.114 18.9491 19.3064 18.9491 19.5083C18.9491 20.2732 19.5263 20.9002 20.2686 21V25.9097C19.5263 26.0095 18.9491 26.6366 18.9491 27.4014ZM21.5857 27.4014C21.5857 28.0095 21.0876 28.5036 20.4746 28.5036C19.8615 28.5036 19.3634 28.0095 19.3634 27.4014C19.3634 26.7957 19.8591 26.304 20.4674 26.2993C20.4698 26.2993 20.4722 26.3017 20.477 26.3017C20.4794 26.3017 20.4818 26.2993 20.4842 26.2993C21.0924 26.3064 21.5857 26.7981 21.5857 27.4014ZM20.477 20.6081C20.4746 20.6081 20.4746 20.6081 20.4746 20.6081C19.8615 20.6081 19.3634 20.114 19.3634 19.5059C19.3634 18.8979 19.8615 18.4038 20.4746 18.4038C21.0876 18.4038 21.5857 18.8979 21.5857 19.5059C21.5857 20.114 21.09 20.6081 20.477 20.6081Z" fill="#911211" stroke="#911211" stroke-width="1.4"/>
<path d="M26.0736 20.4955C25.8305 20.74 25.4335 20.74 25.1823 20.4955C24.9392 20.251 24.9392 19.8517 25.1823 19.5991L28.8981 15.8563C29.1412 15.6118 29.5383 15.6118 29.7894 15.8563L31.7017 17.7795L35.2717 14.1834C35.5229 13.9389 35.9118 13.9389 36.163 14.1834C36.4061 14.4278 36.4061 14.8271 36.163 15.0798L32.1474 19.1241C31.9043 19.3686 31.5072 19.3686 31.2561 19.1241L29.3438 17.2009L26.0736 20.4955Z" fill="#911211" stroke="#911211" stroke-width="0.28"/>
<path d="M34.3001 28.3978C34.3001 30.9403 32.219 33 29.65 33C27.0811 33 25 30.9403 25 28.3978C25 25.8553 27.0811 23.7956 29.65 23.7956C29.9778 23.7956 30.2446 24.0597 30.2446 24.3841V27.8169H33.7131C34.0409 27.8093 34.3001 28.0734 34.3001 28.3978ZM32.1046 30.8196C32.6001 30.3292 32.9432 29.6879 33.0728 28.9787H29.6577C29.3299 28.9787 29.0631 28.7147 29.0631 28.3903V25.0103C27.4165 25.2894 26.1892 26.7078 26.1892 28.3903C26.1892 30.284 27.7367 31.823 29.6577 31.823C30.6105 31.823 31.4796 31.4383 32.1046 30.8196ZM31.35 22C33.9189 22 36 24.0597 36 26.6022C36 26.9266 35.7332 27.1907 35.4054 27.1907H31.35C31.0222 27.1907 30.7554 26.9266 30.7554 26.6022V22.5885C30.763 22.2641 31.0222 22 31.35 22ZM33.8046 24.1728C33.3091 23.6824 32.6611 23.3429 31.9446 23.2222V26.0137H34.7651C34.6431 25.3045 34.3001 24.6632 33.8046 24.1728Z" fill="#911211" stroke="#911211" stroke-width="0.28"/>
</svg>
