<svg width="41" height="40" viewBox="0 0 41 40" fill="none" xmlns="http://www.w3.org/2000/svg">
<path d="M37.4213 1.45459H3.84878C1.98364 1.45459 0.5 2.93823 0.5 4.80337V35.1967C0.5 37.0619 1.98364 38.5455 3.84878 38.5455H37.4213C39.2865 38.5455 40.7701 37.0619 40.7701 35.1967V4.80337C40.7701 2.93823 39.2865 1.45459 37.4213 1.45459ZM3.84878 3.65885H37.4213C38.0572 3.65885 38.5235 4.16753 38.5235 4.76098V8.35641H2.74665V4.80337C2.74665 4.16752 3.21293 3.65885 3.84878 3.65885ZM37.4213 36.2988H3.84878C3.21293 36.2988 2.74665 35.7902 2.74665 35.1967V10.6031H38.5659V35.1967C38.5235 35.7902 38.0572 36.2988 37.4213 36.2988Z" fill="#911211"/>
<path d="M6.22228 7.32164C6.94803 7.32164 7.53636 6.7333 7.53636 6.00756C7.53636 5.28181 6.94803 4.69348 6.22228 4.69348C5.49654 4.69348 4.9082 5.28181 4.9082 6.00756C4.9082 6.7333 5.49654 7.32164 6.22228 7.32164Z" fill="#911211"/>
<path d="M10.2921 7.32164C11.0179 7.32164 11.6062 6.7333 11.6062 6.00756C11.6062 5.28181 11.0179 4.69348 10.2921 4.69348C9.56636 4.69348 8.97803 5.28181 8.97803 6.00756C8.97803 6.7333 9.56636 7.32164 10.2921 7.32164Z" fill="#911211"/>
<path d="M14.3619 7.32164C15.0877 7.32164 15.676 6.7333 15.676 6.00756C15.676 5.28181 15.0877 4.69348 14.3619 4.69348C13.6362 4.69348 13.0479 5.28181 13.0479 6.00756C13.0479 6.7333 13.6362 7.32164 14.3619 7.32164Z" fill="#911211"/>
<path d="M31 19.0881C31 18.1666 30.154 17.4158 29.1157 17.4158C28.5122 17.4158 27.9797 17.6731 27.6336 18.0669L22.2468 15.3024C22.3355 15.1081 22.3888 14.8955 22.3888 14.6723C22.3888 13.7508 21.5428 13 20.5044 13C19.4661 13 18.6201 13.7508 18.6201 14.6723C18.6201 14.8955 18.6704 15.1081 18.7621 15.3024L13.3664 18.0643C13.0203 17.6705 12.4878 17.4132 11.8844 17.4132C10.846 17.4132 10 18.164 10 19.0855C10 19.9309 10.71 20.6213 11.627 20.7342V26.1608C10.71 26.2737 10 26.9667 10 27.8095C10 28.731 10.846 29.4818 11.8844 29.4818C12.4523 29.4818 12.9552 29.2534 13.3013 28.9016L18.7562 31.7002C18.6674 31.8945 18.6142 32.1071 18.6142 32.3277C18.6142 33.2492 19.4602 34 20.4985 34C21.5368 34 22.3829 33.2492 22.3829 32.3277C22.3829 32.1045 22.3326 31.8945 22.2438 31.7002L27.6987 28.9042C28.0448 29.256 28.5477 29.4844 29.1127 29.4844C30.151 29.4844 30.997 28.7336 30.997 27.8121C30.997 26.9694 30.2871 26.2763 29.3701 26.1634V20.7368C30.29 20.624 31 19.9309 31 19.0881ZM20.5015 13.4542C21.2588 13.4542 21.8741 14.0003 21.8741 14.6723C21.8741 15.3444 21.2588 15.8905 20.5015 15.8905C19.7442 15.8905 19.1289 15.3444 19.1289 14.6723C19.1289 14.0003 19.7442 13.4542 20.5015 13.4542ZM10.5147 19.0881C10.5147 18.4161 11.13 17.87 11.8873 17.87C12.6446 17.87 13.2599 18.4161 13.2599 19.0881C13.2599 19.7602 12.6446 20.3063 11.8903 20.3063C11.8903 20.3063 11.8903 20.3063 11.8873 20.3063C11.13 20.3037 10.5147 19.7576 10.5147 19.0881ZM13.0262 28.4894C13.0232 28.4921 13.0203 28.4947 13.0203 28.4973V28.4999C12.7718 28.8202 12.3577 29.0303 11.8873 29.0303C11.13 29.0303 10.5147 28.4842 10.5147 27.8121C10.5147 27.1426 11.1241 26.6018 11.8755 26.5966C11.8784 26.5966 11.8814 26.5992 11.8844 26.5992C11.8873 26.5992 11.8903 26.5966 11.8932 26.5966C12.6446 26.6018 13.2569 27.1453 13.2569 27.8121C13.2599 28.0641 13.1741 28.2952 13.0262 28.4894ZM20.5015 33.5484C19.7442 33.5484 19.1289 33.0024 19.1289 32.3303C19.1289 31.6582 19.7442 31.1121 20.5015 31.1121C21.2588 31.1121 21.8741 31.6582 21.8741 32.3303C21.8741 33.0024 21.2588 33.5484 20.5015 33.5484ZM27.2313 27.8121C27.2313 28.0668 27.3023 28.3083 27.4177 28.5262L21.9835 31.309C21.6374 30.9152 21.1049 30.6553 20.5015 30.6553C19.898 30.6553 19.3626 30.9126 19.0194 31.309L13.5853 28.5236C13.7007 28.3083 13.7717 28.0668 13.7717 27.8121C13.7717 26.9667 13.0587 26.2737 12.1417 26.1634V20.7368C13.0587 20.624 13.7717 19.9309 13.7717 19.0881C13.7717 18.865 13.7214 18.6523 13.6297 18.4554L19.0194 15.6936C19.3655 16.0874 19.898 16.3447 20.5015 16.3447C21.1049 16.3447 21.6374 16.0874 21.9835 15.6936L27.3733 18.4581C27.2845 18.6523 27.2313 18.865 27.2313 19.0881C27.2313 19.9335 27.9442 20.6266 28.8612 20.7368V26.1634C27.9442 26.2737 27.2313 26.9667 27.2313 27.8121ZM30.4882 27.8121C30.4882 28.4842 29.8729 29.0303 29.1157 29.0303C28.3584 29.0303 27.7431 28.4842 27.7431 27.8121C27.7431 27.1426 28.3554 26.5992 29.1068 26.5939C29.1097 26.5939 29.1127 26.5966 29.1186 26.5966C29.1216 26.5966 29.1245 26.5939 29.1275 26.5939C29.8789 26.6018 30.4882 27.1453 30.4882 27.8121ZM29.1186 20.3037C29.1157 20.3037 29.1157 20.3037 29.1157 20.3037C28.3584 20.3037 27.7431 19.7576 27.7431 19.0855C27.7431 18.4134 28.3584 17.8674 29.1157 17.8674C29.8729 17.8674 30.4882 18.4134 30.4882 19.0855C30.4882 19.7576 29.8759 20.3037 29.1186 20.3037Z" fill="#911211" stroke="#911211" stroke-width="1.4"/>
</svg>
