<svg width="41" height="40" viewBox="0 0 41 40" fill="none" xmlns="http://www.w3.org/2000/svg">
<path d="M31.2572 18.2893L28.1679 17.5627C28.0428 17.1681 27.8792 16.7687 27.677 16.3742L29.3468 13.6795C29.4479 13.5159 29.4238 13.3042 29.2891 13.1646L27.4413 11.3168C27.3065 11.1773 27.09 11.158 26.9264 11.2591L24.2316 12.9288C23.837 12.7267 23.4376 12.5631 23.043 12.438L22.3164 9.34877C22.2731 9.1611 22.1047 9.02637 21.9122 9.02637H19.2993C19.1068 9.02637 18.9384 9.1611 18.895 9.34877L18.1684 12.438C17.7738 12.5631 17.3744 12.7267 16.9798 12.9288L14.2851 11.2591C14.1215 11.158 13.9098 11.1821 13.7702 11.3168L11.9224 13.1646C11.7876 13.2994 11.7588 13.5159 11.8646 13.6795L13.5344 16.3742C13.3323 16.7687 13.1687 17.1681 13.0436 17.5627L9.95424 18.2893C9.76657 18.3326 9.63184 18.501 9.63184 18.6935V21.3064C9.63184 21.4989 9.76657 21.6673 9.95424 21.7106L13.0436 22.4372C13.1687 22.8318 13.3323 23.2312 13.5344 23.6257L11.8646 26.3204C11.7636 26.484 11.7876 26.6957 11.9224 26.8353L13.7702 28.6831C13.9049 28.8226 14.1215 28.8467 14.2851 28.7408L16.9798 27.0711C17.3744 27.2732 17.7738 27.4368 18.1684 27.5619L18.895 30.6511C18.9384 30.8388 19.1068 30.9735 19.2993 30.9735H21.9122C22.1047 30.9735 22.2731 30.8388 22.3164 30.6511L23.043 27.5619C23.4376 27.4368 23.837 27.2732 24.2316 27.0711L26.9264 28.7408C27.09 28.8419 27.3065 28.8178 27.4413 28.6831L29.2891 26.8353C29.4238 26.7006 29.4527 26.484 29.3468 26.3204L27.677 23.6257C27.8792 23.2312 28.0428 22.8318 28.1679 22.4372L31.2572 21.7106C31.4449 21.6673 31.5796 21.4989 31.5796 21.3064V18.6935C31.5796 18.501 31.4497 18.3326 31.2572 18.2893ZM30.7471 20.9792L27.7444 21.6865C27.5952 21.7202 27.4798 21.8357 27.4364 21.9801C27.3017 22.4661 27.0996 22.9569 26.8301 23.4477C26.7579 23.5776 26.7628 23.7412 26.8397 23.8663L28.4614 26.484L27.0804 27.865L24.4626 26.2434C24.3327 26.1616 24.1739 26.1616 24.0439 26.2338C23.5531 26.5033 23.0623 26.7054 22.5763 26.8401C22.4271 26.8786 22.3164 26.9989 22.2827 27.1481L21.5754 30.1507H19.6217L18.9143 27.1481C18.8806 26.9989 18.7651 26.8834 18.6208 26.8401C18.1347 26.7054 17.6439 26.5033 17.1531 26.2338C17.0232 26.1616 16.8644 26.1664 16.7344 26.2434L14.1167 27.865L12.7356 26.484L14.3573 23.8663C14.4343 23.7364 14.4391 23.5776 14.3669 23.4477C14.0974 22.9569 13.8953 22.4661 13.7606 21.9801C13.7221 21.8309 13.6018 21.7202 13.4526 21.6865L10.4499 20.9792V19.0255L13.4526 18.3182C13.6018 18.2845 13.7173 18.169 13.7606 18.0247C13.8953 17.5387 14.0974 17.0478 14.3669 16.557C14.4391 16.4271 14.4343 16.2635 14.3573 16.1384L12.7356 13.5207L14.1167 12.1397L16.7344 13.7613C16.8644 13.8383 17.0232 13.8431 17.1531 13.7709C17.6439 13.5015 18.1396 13.2994 18.6208 13.1646C18.7699 13.1261 18.8806 13.0058 18.9143 12.8567L19.6217 9.85402H21.5754L22.2827 12.8567C22.3164 13.0058 22.4319 13.1213 22.5763 13.1646C23.0623 13.2994 23.5531 13.5015 24.0439 13.7709C24.1739 13.8431 24.3375 13.8383 24.4626 13.7613L27.0804 12.1397L28.4614 13.5207L26.8397 16.1384C26.7628 16.2635 26.7579 16.4271 26.8301 16.557C27.0996 17.0478 27.3017 17.5387 27.4364 18.0247C27.4749 18.1738 27.5952 18.2845 27.7444 18.3182L30.7471 19.0255V20.9792Z" fill="#911211" stroke="#911211" stroke-width="0.90566"/>
<path d="M20.5998 14.6996C17.674 14.6996 15.2969 17.0767 15.2969 20.0024C15.2969 22.928 17.674 25.3051 20.5998 25.3051C23.5255 25.3051 25.9026 22.928 25.9026 20.0024C25.9026 17.0767 23.5255 14.6996 20.5998 14.6996ZM20.5998 24.4678C18.136 24.4678 16.1342 22.4661 16.1342 20.0024C16.1342 17.5387 18.136 15.5369 20.5998 15.5369C23.0635 15.5369 25.0653 17.5387 25.0653 20.0024C25.0653 22.4661 23.0635 24.4678 20.5998 24.4678Z" fill="#911211" stroke="#911211" stroke-width="0.90566"/>
<path d="M37.6798 11.9135C37.6798 10.2246 36.3036 8.84835 34.6146 8.84835C33.6329 8.84835 32.7667 9.31992 32.2037 10.0417L23.441 4.97476C23.5853 4.61867 23.6719 4.22891 23.6719 3.81989C23.6719 2.13091 22.2957 0.7547 20.6067 0.7547C18.9176 0.7547 17.5414 2.13091 17.5414 3.81989C17.5414 4.22891 17.6232 4.61867 17.7724 4.97476L8.99516 10.0369C8.43215 9.31511 7.56598 8.84354 6.58432 8.84354C4.89529 8.84354 3.51904 10.2198 3.51904 11.9087C3.51904 13.4582 4.67394 14.7237 6.16567 14.9306V24.8769C4.67394 25.0838 3.51904 26.3541 3.51904 27.8988C3.51904 29.5877 4.89529 30.9639 6.58432 30.9639C7.50824 30.9639 8.32629 30.5453 8.8893 29.9005L17.7627 35.03C17.6184 35.3861 17.5318 35.7759 17.5318 36.1801C17.5318 37.8691 18.908 39.2453 20.597 39.2453C22.2861 39.2453 23.6623 37.8691 23.6623 36.1801C23.6623 35.7711 23.5805 35.3861 23.4361 35.03L32.3096 29.9053C32.8726 30.5501 33.6906 30.9688 34.6097 30.9688C36.2988 30.9688 37.675 29.5925 37.675 27.9036C37.675 26.3589 36.5201 25.0886 35.0284 24.8817V14.9354C36.5249 14.7285 37.6798 13.4582 37.6798 11.9135ZM20.6018 1.58716C21.8337 1.58716 22.8346 2.58804 22.8346 3.81989C22.8346 5.05175 21.8337 6.05263 20.6018 6.05263C19.37 6.05263 18.3691 5.05175 18.3691 3.81989C18.3691 2.58804 19.37 1.58716 20.6018 1.58716ZM4.35634 11.9135C4.35634 10.6817 5.35725 9.68082 6.58913 9.68082C7.82102 9.68082 8.82193 10.6817 8.82193 11.9135C8.82193 13.1454 7.82102 14.1463 6.59395 14.1463C6.59395 14.1463 6.59395 14.1463 6.58913 14.1463C5.35725 14.1415 4.35634 13.1406 4.35634 11.9135ZM8.44178 29.145C8.43696 29.1499 8.43215 29.1547 8.43215 29.1595V29.1643C8.02794 29.7513 7.35425 30.1363 6.58913 30.1363C5.35725 30.1363 4.35634 29.1354 4.35634 27.9036C4.35634 26.6765 5.34762 25.6853 6.56989 25.6756C6.5747 25.6756 6.57951 25.6805 6.58432 25.6805C6.58914 25.6805 6.59395 25.6756 6.59876 25.6756C7.82102 25.6853 8.81712 26.6813 8.81712 27.9036C8.82193 28.3655 8.68238 28.789 8.44178 29.145ZM20.6018 38.4176C19.37 38.4176 18.3691 37.4167 18.3691 36.1849C18.3691 34.953 19.37 33.9522 20.6018 33.9522C21.8337 33.9522 22.8346 34.953 22.8346 36.1849C22.8346 37.4167 21.8337 38.4176 20.6018 38.4176ZM31.5493 27.9036C31.5493 28.3703 31.6648 28.813 31.8524 29.2124L23.0127 34.313C22.4497 33.5913 21.5835 33.1149 20.6018 33.1149C19.6202 33.1149 18.7492 33.5864 18.191 34.313L9.35126 29.2076C9.53893 28.813 9.65442 28.3703 9.65442 27.9036C9.65442 26.3541 8.49471 25.0838 7.00297 24.8817V14.9354C8.49471 14.7285 9.65442 13.4582 9.65442 11.9135C9.65442 11.5045 9.57261 11.1148 9.42344 10.7539L18.191 5.69173C18.754 6.41352 19.6202 6.88509 20.6018 6.88509C21.5835 6.88509 22.4497 6.41352 23.0127 5.69173L31.7803 10.7587C31.6359 11.1148 31.5493 11.5045 31.5493 11.9135C31.5493 13.463 32.709 14.7333 34.2007 14.9354V24.8817C32.709 25.0838 31.5493 26.3541 31.5493 27.9036ZM36.8473 27.9036C36.8473 29.1354 35.8464 30.1363 34.6146 30.1363C33.3827 30.1363 32.3818 29.1354 32.3818 27.9036C32.3818 26.6765 33.3779 25.6805 34.6001 25.6708C34.6049 25.6708 34.6097 25.6756 34.6194 25.6756C34.6242 25.6756 34.629 25.6708 34.6338 25.6708C35.8561 25.6853 36.8473 26.6813 36.8473 27.9036ZM34.6194 14.1415C34.6146 14.1415 34.6146 14.1415 34.6146 14.1415C33.3827 14.1415 32.3818 13.1406 32.3818 11.9087C32.3818 10.6769 33.3827 9.676 34.6146 9.676C35.8464 9.676 36.8473 10.6769 36.8473 11.9087C36.8473 13.1406 35.8512 14.1415 34.6194 14.1415Z" fill="#911211" stroke="#911211" stroke-width="0.90566"/>
</svg>
