<svg width="41" height="40" viewBox="0 0 41 40" fill="none" xmlns="http://www.w3.org/2000/svg">
<path d="M37.3957 3.80957H3.59614C1.87606 3.80957 0.5 5.18565 0.5 6.90576V33.0943C0.5 34.8144 1.87606 36.1905 3.59614 36.1905H37.3527C39.0728 36.1905 40.4488 34.8144 40.4488 33.0943V6.86275C40.4488 5.18565 39.0728 3.80957 37.3957 3.80957ZM3.59614 5.9597H37.3527C37.8687 5.9597 38.2987 6.38973 38.2987 6.90576V11.378H2.6931V6.86275C2.6931 6.34672 3.08012 5.9597 3.59614 5.9597ZM37.3957 33.9974H3.59614C3.08012 33.9974 2.6501 33.5674 2.6501 33.0513V13.4852H38.2987V33.0513C38.2987 33.6104 37.9117 33.9974 37.3957 33.9974ZM8.41236 8.62586C8.41236 7.89482 9.01439 7.33578 9.70242 7.33578C10.3905 7.33578 10.9925 7.93782 10.9925 8.62586C10.9925 9.35691 10.3905 9.91594 9.70242 9.91594C9.01439 9.91594 8.41236 9.35691 8.41236 8.62586ZM12.7126 8.62586C12.7126 7.89482 13.3146 7.33578 14.0026 7.33578C14.6907 7.33578 15.2927 7.93782 15.2927 8.62586C15.2927 9.35691 14.6907 9.91594 14.0026 9.91594C13.3146 9.91594 12.7126 9.35691 12.7126 8.62586ZM4.11217 8.62586C4.11217 7.89482 4.71419 7.33578 5.40223 7.33578C6.13326 7.33578 6.69229 7.93782 6.69229 8.62586C6.69229 9.35691 6.09026 9.91594 5.40223 9.91594C4.71419 9.95894 4.11217 9.35691 4.11217 8.62586ZM35.7186 17.0114C35.7186 17.6134 35.2456 18.0864 34.6436 18.0864H6.34827C5.74624 18.0864 5.27322 17.6134 5.27322 17.0114C5.27322 16.4093 5.74624 15.9363 6.34827 15.9363H34.6436C35.2456 15.9363 35.7186 16.4093 35.7186 17.0114ZM5.27322 21.5696C5.27322 20.9676 5.74624 20.4946 6.34827 20.4946H27.2042C27.8063 20.4946 28.2793 20.9676 28.2793 21.5696C28.2793 22.1717 27.8063 22.6447 27.2042 22.6447H6.34827C5.74624 22.6447 5.27322 22.1287 5.27322 21.5696ZM35.7186 26.0849C35.7186 26.6869 35.2456 27.16 34.6436 27.16H6.34827C5.74624 27.16 5.27322 26.6869 5.27322 26.0849C5.27322 25.4829 5.74624 25.0098 6.34827 25.0098H34.6436C35.2456 25.0098 35.7186 25.4829 35.7186 26.0849ZM21.571 30.6002C21.571 31.2022 21.0979 31.6752 20.4959 31.6752H6.34827C5.74624 31.6752 5.27322 31.2022 5.27322 30.6002C5.27322 29.9981 5.74624 29.5251 6.34827 29.5251H20.4959C21.0979 29.5251 21.571 30.0412 21.571 30.6002Z" fill="#911211"/>
</svg>
