<svg width="192" height="193" viewBox="0 0 192 193" fill="none" xmlns="http://www.w3.org/2000/svg">
<path d="M137.532 11.3937C138.976 11.4452 140.264 10.1887 140.3 8.69004C140.336 7.17596 139.151 5.87303 137.692 5.82153C136.239 5.77003 134.955 7.02661 134.924 8.52524C134.888 10.0393 136.069 11.3422 137.532 11.3937ZM5.64933 65.4318C5.68541 66.8892 6.98435 68.0892 8.49462 68.0634C9.99458 68.0377 11.2574 66.7656 11.2213 65.3134C11.1853 63.8559 9.89149 62.6612 8.37606 62.6869C6.87095 62.7127 5.61325 63.9795 5.64933 65.4318ZM17.0872 89.796C18.649 89.8269 19.85 88.7043 19.8861 87.1748C19.9273 85.6401 18.783 84.4556 17.2263 84.4196C15.6491 84.3887 14.4635 85.4959 14.4223 87.0357C14.3811 88.5704 15.5357 89.7651 17.0872 89.796ZM15.7882 61.1625C16.113 61.6827 16.68 62.4088 17.149 62.414C22.1283 62.5066 27.1127 62.4706 32.3342 62.4706V54.6994C32.3342 51.8875 32.3136 49.0808 32.3445 46.2741C32.3754 43.3387 33.4836 41.8194 36.2877 41.1706C47.2719 38.6316 57.2768 33.8319 67.0085 28.2752C86.2039 17.3162 105.507 17.3316 124.801 28.131C127.847 29.8356 130.919 31.4887 133.986 33.1521C134.13 33.2345 134.342 33.1985 134.692 33.2397C134.692 27.8992 134.708 22.6103 134.661 17.3213C134.656 16.9505 134.244 16.4407 133.883 16.2398C130.625 14.4219 128.883 11.6512 129.182 7.95876C129.497 4.11177 131.723 1.57288 135.45 0.408999C135.558 0.372949 135.641 0.254495 135.739 0.177246H139.486C142.671 1.39263 145.151 3.28778 145.872 6.85667C146.604 10.4668 145.156 14.0099 141.945 15.8021C140.739 16.4716 140.491 17.2286 140.501 18.4543C140.553 23.7587 140.579 29.0682 140.486 34.3727C140.46 35.8146 140.929 36.5099 142.264 36.9219C146.604 38.2557 150.893 39.7543 155.248 41.0212C158.485 41.9688 159.635 43.2202 159.64 46.5625C159.656 54.6788 159.645 62.795 159.645 70.9113C159.645 71.2255 159.661 71.5396 159.63 71.8486C159.439 73.7489 158.346 74.8149 156.645 74.7738C155.042 74.7377 153.949 73.6871 153.862 71.8589C153.764 69.9328 153.826 67.9913 153.826 66.0549C153.826 60.1222 153.8 54.1947 153.846 48.262C153.852 47.1033 153.599 46.511 152.331 46.1917C141.924 43.5601 132.203 39.2342 123.048 33.6826C113.404 27.8323 103.023 25.1801 91.7862 26.0504C84.2864 26.6272 77.2402 28.8417 70.7558 32.6783C60.8437 38.539 50.5657 43.5292 39.3134 46.2741C37.9835 46.5986 38.1536 47.4947 38.1536 48.4216C38.1536 62.9084 38.0918 77.3951 38.1949 91.8766C38.2309 97.1038 38.3753 102.367 38.9938 107.548C39.9732 115.716 43.1071 123.162 47.6585 130.012C47.8647 130.321 48.1018 130.619 48.2874 130.944C49.1894 132.515 48.8492 134.157 47.4523 135.038C46.1225 135.872 44.4421 135.625 43.5555 134.06C41.1948 129.898 38.7103 125.763 36.8289 121.386C33.5094 113.676 32.4012 105.462 32.3393 97.1038C32.3239 94.8121 32.3342 92.5204 32.3342 90.0381C30.0198 90.0381 27.9065 89.9403 25.8086 90.105C25.288 90.1463 24.7365 90.9702 24.3653 91.5419C22.2881 94.7915 18.4325 96.3004 14.7625 95.2498C11.3193 94.261 8.75234 90.929 8.65956 87.3344C8.56163 83.5853 11.108 80.0576 14.6852 78.9864C18.3139 77.8997 22.3705 79.3314 24.2622 82.6377C25.0096 83.9458 25.8292 84.3268 27.2106 84.2393C28.8188 84.1363 30.4425 84.2135 32.195 84.2135V68.4857C31.86 68.4291 31.4476 68.3055 31.0404 68.3055C26.6024 68.29 22.1695 68.2694 17.7315 68.3312C17.1696 68.3415 16.3449 68.6659 16.0975 69.1037C14.2419 72.343 11.4842 74.0888 7.79361 73.7953C3.93804 73.4863 1.39172 71.2667 0.231953 67.5381C0.195871 67.43 0.0773175 67.3424 0 67.2497V63.5006C1.12368 60.4158 2.9793 58.0314 6.31426 57.1765C10.0719 56.2135 13.7058 57.8048 15.7882 61.1625Z" fill="#282828"/>
<path d="M93.3015 99.5964C93.2706 101.105 94.4664 102.403 95.9252 102.444C97.3736 102.485 98.6519 101.219 98.6828 99.72C98.7086 98.2162 97.5128 96.9133 96.054 96.8721C94.6005 96.8309 93.3273 98.0926 93.3015 99.5964ZM95.9458 113.697C94.4046 113.681 93.183 112.765 93.2706 111.379C93.4407 108.619 92.1057 107.182 90.0851 105.565C87.08 103.16 86.7398 98.6539 88.7192 95.3271C90.2707 92.7315 93.0953 91.1814 95.987 91.1814C96.6829 91.1814 97.3839 91.2741 98.0694 91.4595C101.879 92.4946 104.574 95.9348 104.507 99.447C104.301 102.728 103.126 105.302 100.394 106.806C99.121 107.507 98.7395 108.295 98.889 109.603C98.9457 110.154 98.9199 110.736 98.8014 111.276C98.4715 112.765 97.6004 113.697 95.9973 113.697H95.9458Z" fill="#282828"/>
<path d="M81.9567 84.3835C81.9567 82.4163 81.7609 80.5262 81.9928 78.6928C82.9618 70.9989 89.2916 65.4576 96.4615 65.8747C104.271 66.3279 109.904 72.2194 110.142 80.1915C110.183 81.5562 110.147 82.9209 110.147 84.4247C110.719 84.5071 111.188 84.5689 111.657 84.6461C115.234 85.2641 117.559 87.664 117.61 91.2587C117.713 98.7415 117.729 106.229 117.605 113.717C117.538 117.57 114.781 120.289 110.873 120.33C100.946 120.433 91.0183 120.443 81.0959 120.33C77.0342 120.284 74.3848 117.42 74.3487 113.331C74.292 106.096 74.292 98.8548 74.3487 91.6192C74.3848 87.4117 76.6373 85.2693 81.9567 84.3835ZM80.1166 112.538C80.0908 114.274 80.7557 114.619 82.3072 114.593C86.8071 114.511 91.3018 114.562 95.8017 114.562H95.9976C100.616 114.562 105.24 114.505 109.858 114.593C111.446 114.624 111.873 114.057 111.858 112.538C111.791 105.797 111.796 99.0556 111.853 92.3144C111.868 90.8724 111.471 90.3626 109.951 90.3729C105.296 90.4038 100.642 90.4192 95.9873 90.4192C91.3328 90.4192 86.6834 90.4038 82.0289 90.3729C80.5135 90.3626 80.1166 90.8672 80.1269 92.3092C80.1887 99.0505 80.2093 105.797 80.1166 112.538ZM104.307 84.4917C104.307 82.7149 104.353 81.1597 104.301 79.6095C104.167 75.7162 101.25 72.343 97.5594 71.7508C93.3997 71.0813 89.3173 73.2134 88.2091 77.1118C87.5494 79.419 87.6937 81.963 87.472 84.4917H104.307Z" fill="#282828"/>
<path d="M61.9363 43.8125C62.8538 43.452 64.127 43.2099 64.9259 43.5807C65.7146 43.9412 66.6269 45.1978 66.5496 45.9703C66.4517 46.9488 65.6167 48.2723 64.7455 48.6792C60.3488 50.734 55.8695 52.624 51.3438 54.3801C49.9264 54.9363 49.3542 55.4976 49.3645 57.0993C49.4418 69.7732 49.6686 82.4575 49.3387 95.1211C48.9418 110.432 54.318 123.054 65.4053 133.524C74.0649 141.702 83.6471 148.433 94.5025 153.32C95.2963 153.676 96.5076 153.753 97.2704 153.408C111.265 147.104 123.363 138.231 133.063 126.299C139.115 118.852 142.12 110.118 142.465 100.585C142.718 93.4165 142.512 86.2272 142.512 79.0482H142.573C142.573 71.6169 142.542 64.1856 142.609 56.7594C142.62 55.4822 142.243 54.9106 141.022 54.4986C132.661 51.6816 124.759 47.8603 117.218 43.3078C109.966 38.9252 102.183 36.7622 93.6881 37.236C87.8635 37.5605 82.41 39.1467 77.2864 41.8967C76.6267 42.2521 75.9927 42.6537 75.3277 42.9988C73.6474 43.8691 72.0959 43.5293 71.2557 42.1233C70.4 40.6917 70.7969 39.1003 72.4103 38.1218C80.0029 33.4921 88.2655 31.2209 97.1622 31.4424C105.244 31.6432 112.734 33.9659 119.667 38.1321C127.594 42.8958 135.898 46.8664 144.707 49.7606C147.419 50.6516 148.388 52.0472 148.388 54.9209C148.403 69.284 148.511 83.6419 148.357 98.005C148.202 112.126 143.316 124.362 133.434 134.642C123.388 145.08 111.832 153.258 98.6106 159.145C96.8272 159.938 95.2293 159.948 93.4252 159.145C79.6421 153.058 67.663 144.483 57.4365 133.421C48.0398 123.255 43.6997 111.168 43.6069 97.4798C43.5141 83.369 43.5812 69.2582 43.5863 55.1475C43.5915 51.9442 44.5811 50.7906 47.5759 49.6319C52.3954 47.7625 57.1272 45.687 61.9363 43.8073V43.8125Z" fill="#282828"/>
<path d="M183.485 92.7933C184.995 92.819 186.294 91.6191 186.33 90.1669C186.371 88.7146 185.114 87.4425 183.603 87.4168C182.093 87.391 180.799 88.5807 180.758 90.0433C180.717 91.4955 181.98 92.7675 183.485 92.7933ZM63.6788 183.669C63.7149 185.167 64.9983 186.429 66.4467 186.378C67.9055 186.326 69.091 185.023 69.0601 183.509C69.024 182.01 67.7405 180.754 66.2869 180.805C64.8282 180.857 63.6427 182.155 63.6788 183.669ZM50.4265 140.167C51.1791 138.046 53.612 137.665 55.4316 139.349C58.6841 142.356 61.8335 145.492 65.2303 148.33C74.1166 155.736 84.07 161.38 94.781 165.706C95.3996 165.958 96.2758 166.046 96.8686 165.809C114.775 158.65 130.125 147.913 142.223 132.834C148.738 124.718 152.429 115.268 153.331 104.916C153.872 98.7157 153.687 92.4534 153.826 86.2169C153.836 85.6555 153.805 85.0942 153.831 84.5328C153.919 82.4523 155.114 81.103 156.81 81.1545C158.439 81.2008 159.547 82.4935 159.64 84.4968C159.676 85.3002 159.645 86.1087 159.645 87.2108H163.98C167.351 87.2108 170.727 87.2726 174.099 87.1593C174.784 87.1335 175.712 86.6031 176.078 86.0263C178.382 82.3699 182.346 80.7682 186.222 82.0763C189.773 83.2711 192 86.4692 192 90.2338C192 90.5325 191.985 90.8312 191.959 91.1299C191.613 94.8996 188.51 98.072 184.408 98.4994C180.872 98.8651 178.124 97.3613 176.207 94.3383C175.882 93.8233 175.315 93.0971 174.846 93.092C169.861 92.9993 164.877 93.0354 159.872 93.0354C159.552 98.3346 159.248 103.474 158.918 108.923C161.259 108.923 163.779 108.969 166.289 108.877C166.671 108.861 167.104 108.222 167.372 107.79C169.619 104.097 173.614 102.506 177.485 103.799C181.155 105.029 183.614 108.686 183.31 112.461C182.985 116.529 179.959 119.758 175.717 120.227C172.176 120.618 169.356 119.156 167.568 116.055C166.975 115.031 166.346 114.691 165.212 114.732C163.032 114.819 160.836 114.686 158.656 114.809C158.109 114.84 157.254 115.407 157.12 115.886C153.12 130.331 143.919 141.141 132.893 150.684C122.662 159.547 111.147 166.293 98.6057 171.35C96.8222 172.071 95.1831 172.076 93.3842 171.34C85.3895 168.085 77.7402 164.192 70.5652 159.382C70.2611 159.181 69.9415 159.011 69.2817 158.614C69.2817 164.181 69.2405 169.419 69.3436 174.651C69.3539 175.223 70.1271 175.923 70.7147 176.309C73.5857 178.184 75.0599 180.841 74.8022 184.204C74.529 187.804 72.5497 190.369 69.091 191.594C68.1786 191.919 67.2508 192.073 66.3333 192.073C63.1582 192.073 60.1582 190.23 58.7098 187.191C56.8851 183.365 58.1222 178.74 61.818 176.567C63.1891 175.764 63.5035 174.898 63.4829 173.467C63.421 167.725 63.4056 161.977 63.4932 156.235C63.519 154.757 62.9674 153.887 61.8953 152.949C58.3696 149.875 54.947 146.677 51.5038 143.505C50.5399 142.614 49.9317 141.542 50.4265 140.167ZM177.552 111.982C177.634 110.452 176.511 109.216 174.97 109.155C173.392 109.088 172.171 110.164 172.093 111.688C172.016 113.223 173.135 114.454 174.676 114.521C176.258 114.593 177.47 113.522 177.552 111.982Z" fill="#282828"/>
</svg>
