<svg width="41" height="40" viewBox="0 0 41 40" fill="none" xmlns="http://www.w3.org/2000/svg">
<path d="M28.7455 19.4897H12.1552C11.6386 19.4897 11.2186 19.9097 11.2186 20.4263V37.6088C11.2186 38.1254 11.6386 38.5454 12.1552 38.5454H28.7455C29.2621 38.5454 29.6821 38.1254 29.6821 37.6088V20.4263C29.6821 19.9097 29.2621 19.4897 28.7455 19.4897ZM27.8131 21.3587V25.2144H13.0918V21.3587H27.8131ZM27.8131 27.0876V30.9433H13.0918V27.0876H27.8131ZM13.0918 36.6722V32.8165H27.8131V36.6722H13.0918ZM20.6268 23.2865C20.6268 22.7699 21.0468 22.3499 21.5634 22.3499H25.8475C26.3641 22.3499 26.7841 22.7699 26.7841 23.2865C26.7841 23.8032 26.3641 24.2232 25.8475 24.2232H21.5634C21.0468 24.2232 20.6268 23.8032 20.6268 23.2865ZM20.6268 29.0155C20.6268 28.4988 21.0468 28.0788 21.5634 28.0788H25.8475C26.3641 28.0788 26.7841 28.4988 26.7841 29.0155C26.7841 29.5321 26.3641 29.9521 25.8475 29.9521H21.5634C21.0468 29.9521 20.6268 29.5321 20.6268 29.0155ZM26.7799 34.7402C26.7799 35.2568 26.3599 35.6768 25.8433 35.6768H21.5592C21.0426 35.6768 20.6226 35.2568 20.6226 34.7402C20.6226 34.2236 21.0426 33.8035 21.5592 33.8035H25.8433C26.3641 33.8077 26.7799 34.2278 26.7799 34.7402ZM40.4007 18.07C40.4007 23.1983 36.2301 27.369 31.1018 27.369C30.5852 27.369 30.1651 26.949 30.1651 26.4324C30.1651 25.9158 30.5852 25.4958 31.1018 25.4958C35.1968 25.4958 38.5317 22.1609 38.5317 18.0658C38.5317 13.9708 35.1968 10.6359 31.1018 10.6359C31.001 10.6359 30.896 10.6401 30.7952 10.6443C30.4088 10.6611 30.0475 10.4343 29.8963 10.0773C28.1533 5.97801 24.1464 3.32356 19.6902 3.32356C14.2007 3.32356 9.47977 7.41864 8.71115 12.8451C8.64815 13.282 8.29114 13.6138 7.85434 13.6474C4.77988 13.8784 2.36903 16.474 2.36903 19.5653C2.36903 22.8371 5.03188 25.5 8.30374 25.5C8.82035 25.5 9.24036 25.92 9.24036 26.4366C9.24036 26.9532 8.82035 27.3732 8.30374 27.3732C4.00286 27.369 0.5 23.8704 0.5 19.5653C0.5 15.7516 3.29305 12.5091 6.98072 11.8749C8.17354 5.88561 13.516 1.45453 19.6902 1.45453C24.6882 1.45453 29.2033 4.30638 31.3622 8.77527C36.3687 8.90967 40.4007 13.03 40.4007 18.07Z" fill="#911211"/>
</svg>
