<svg width="40" height="40" viewBox="0 0 40 40" fill="none" xmlns="http://www.w3.org/2000/svg">
<path d="M11.1327 31.997C12.4621 31.997 13.5389 30.9203 13.5389 29.591C13.5389 28.2616 12.4621 27.1849 11.1327 27.1849C9.80331 27.1849 8.72656 28.2616 8.72656 29.591C8.72656 30.9143 9.80331 31.997 11.1327 31.997ZM11.1327 28.785C11.5778 28.785 11.9328 29.1459 11.9328 29.585C11.9328 30.0301 11.5718 30.385 11.1327 30.385C10.6876 30.385 10.3327 30.0241 10.3327 29.585C10.3327 29.1459 10.6876 28.785 11.1327 28.785Z" fill="#911211" stroke="#911211" stroke-width="0.45283"/>
<path fill-rule="evenodd" clip-rule="evenodd" d="M20.7645 1.55474V18.197L20.7585 19.803V38.4453C20.7585 38.8844 20.4036 39.2453 19.9584 39.2453H2.30932C1.8702 39.2453 1.50928 38.8904 1.50928 38.4453V1.55474C1.50928 1.11564 1.8702 0.75473 2.31534 0.75473H19.9584C20.3975 0.75473 20.7585 1.11564 20.7645 1.55474ZM19.1524 37.6453H3.11538V16.7549H19.1524V37.6453ZM19.1524 15.1549H3.11538V11.9428H19.1524V15.1549ZM19.1524 10.3428H3.11538V7.15479H19.1524V10.3428ZM19.1524 5.54876H3.11538V2.36076H19.1524V5.54876Z" fill="#911211" stroke="#911211" stroke-width="0.45283"/>
<path d="M32.6585 15.0324C32.3974 15 32.1689 15 31.9078 15C28.9053 15 26.1639 16.8136 24.989 19.5341H14.9372C13.3054 19.5341 12 20.8295 12 22.4489C12 24.0682 13.3054 25.3636 14.9372 25.3636C15.492 25.3636 15.9163 24.9426 15.9163 24.392C15.9163 23.8415 15.492 23.4204 14.9372 23.4204C14.3824 23.4204 13.9581 22.9994 13.9581 22.4489C13.9581 21.8983 14.3824 21.4773 14.9372 21.4773H25.707C25.8376 21.4773 25.9681 21.4449 26.0334 21.4125C26.2945 21.3153 26.5229 21.0886 26.6208 20.7972C27.4041 18.3358 29.8518 16.7165 32.4626 16.9756C33.9313 17.1375 35.2693 17.8176 36.2158 18.9511C37.1622 20.0847 37.5865 21.5097 37.4559 22.9994C37.1622 26.0114 34.4208 28.246 31.3857 27.9222C29.1991 27.6954 27.3388 26.2057 26.6535 24.1329C26.5556 23.8739 26.3924 23.6795 26.1639 23.55C26.066 23.4528 25.9355 23.4204 25.7397 23.4204H23.4552C22.9004 23.4204 22.4761 23.8415 22.4761 24.392C22.4761 24.9426 22.9004 25.3636 23.4552 25.3636H25.0217C26.0987 27.8574 28.4484 29.5739 31.1899 29.8653C33.1806 30.0597 35.1388 29.4767 36.7053 28.2136C38.2718 26.9506 39.2183 25.1693 39.4141 23.1937C39.6099 21.2182 39.0224 19.275 37.7496 17.7205C36.4442 16.1983 34.6492 15.2267 32.6585 15.0324Z" fill="#911211"/>
<path d="M34.7436 24.9346V20.7516C34.7436 20.159 34.2338 19.7058 33.5671 19.7058C32.9004 19.7058 32.3906 20.159 32.3906 20.7516V24.9346C32.3906 25.5272 32.9004 25.9803 33.5671 25.9803C34.2338 25.9803 34.7436 25.5272 34.7436 24.9346Z" fill="#911211"/>
</svg>
