<svg width="41" height="41" viewBox="0 0 41 41" fill="none" xmlns="http://www.w3.org/2000/svg">
<path d="M3.79047 35.4527H22.8562C23.4592 35.4527 23.9331 34.9789 23.9331 34.3759C23.9331 33.7728 23.4592 33.299 22.8562 33.299H3.79047C3.35971 33.299 3.01511 32.9544 3.01511 32.5236V14.6042H35.6233V19.7732C35.6233 20.3763 36.0971 20.8501 36.7002 20.8501C37.3033 20.8501 37.7771 20.3763 37.7771 19.7732V8.40131C37.7771 6.80751 36.4848 5.47217 34.848 5.47217H3.79047C2.19667 5.47217 0.861328 6.76443 0.861328 8.40131V32.5236C0.861328 34.1174 2.1536 35.4527 3.79047 35.4527ZM3.79047 7.62594H34.848C35.2787 7.62594 35.6233 7.97055 35.6233 8.40131V12.4073H3.01511V8.40131C3.01511 7.97055 3.35971 7.62594 3.79047 7.62594ZM40.2629 36.7019V31.2744C40.2629 30.1975 39.4445 29.2929 38.3676 29.1637V27.2253C38.3676 24.5116 36.1276 22.2716 33.4139 22.2716C31.3463 22.2716 29.5371 23.5208 28.8048 25.4161C28.5894 25.9761 28.8479 26.5792 29.4079 26.7946C29.9678 27.0099 30.5709 26.7515 30.7863 26.1915C31.217 25.1146 32.2508 24.4254 33.4139 24.4254C34.9646 24.4254 36.2138 25.6746 36.2138 27.2253V29.1637H28.7186C27.5556 29.1637 26.6079 30.1114 26.6079 31.2744V36.6589C26.6079 37.8219 27.5556 38.7696 28.7186 38.7696H38.1522C39.3152 38.8126 40.2629 37.865 40.2629 36.7019ZM38.1091 36.6589H28.7617V31.3175H38.1091V36.6589ZM8.18418 10.0382C8.18418 9.39204 8.70108 8.83206 9.39029 8.83206C10.0795 8.83206 10.5964 9.34897 10.5964 10.0382C10.5964 10.6843 10.0795 11.2443 9.39029 11.2443C8.70108 11.2443 8.18418 10.6843 8.18418 10.0382ZM12.1471 10.0382C12.1471 9.39204 12.664 8.83206 13.3532 8.83206C14.0425 8.83206 14.5594 9.34897 14.5594 10.0382C14.5594 10.6843 14.0425 11.2443 13.3532 11.2443C12.664 11.2443 12.1471 10.6843 12.1471 10.0382ZM4.2643 10.0382C4.2643 9.39204 4.7812 8.83206 5.47041 8.83206C6.15962 8.83206 6.67653 9.34897 6.67653 10.0382C6.67653 10.6843 6.15962 11.2443 5.47041 11.2443C4.7812 11.2443 4.2643 10.6843 4.2643 10.0382Z" fill="#911211"/>
</svg>
