<svg width="40" height="40" viewBox="0 0 40 40" fill="none" xmlns="http://www.w3.org/2000/svg">
<path d="M8.76454 34.9242C6.49483 34.9242 4.5 32.938 4.5 30.6822V4.47446C4.5 2.21866 6.34613 0.38385 8.61584 0.38385H25.9161C28.1858 0.38385 30.032 2.21866 30.032 4.47446V5.92736H28.9514V4.47446C28.9514 2.81094 27.5894 1.45778 25.9161 1.45778H8.61584C6.94206 1.45778 5.58056 2.81148 5.58056 4.47446V30.6822C5.58056 32.3457 7.0913 33.6449 8.76454 33.6449V34.9242Z" fill="#911211" stroke="#911211" stroke-width="0.461538"/>
<path d="M30.5289 39.615H13.005C10.7353 39.615 8.88916 37.7801 8.88916 35.5243V9.31662C8.88916 7.06083 10.7353 5.22601 13.005 5.22601H30.3053C32.575 5.22601 34.4211 7.06083 34.4211 9.31662V35.7466L30.5289 39.615ZM13.005 6.29995C11.3312 6.29995 9.96972 7.65364 9.96972 9.31662V35.5243C9.96972 37.1879 11.3318 38.541 13.005 38.541H30.0816L33.3406 35.302V9.31662C33.3406 7.6531 31.9785 6.29995 30.3053 6.29995H13.005Z" fill="#911211" stroke="#911211" stroke-width="0.461538"/>
<path fill-rule="evenodd" clip-rule="evenodd" d="M17.2905 23.594C17.2905 22.4165 18.2452 21.4619 19.4228 21.4619H24.2966C25.4742 21.4619 26.4288 22.4165 26.4288 23.594V27.2491C26.4288 28.4266 25.4742 29.3812 24.2966 29.3812H19.4228C18.2452 29.3812 17.2905 28.4266 17.2905 27.2491V23.594ZM19.4228 22.0711C18.5816 22.0711 17.8997 22.7529 17.8997 23.594V27.2491C17.8997 28.0902 18.5816 28.772 19.4228 28.772H24.2966C25.1377 28.772 25.8196 28.0902 25.8196 27.2491V23.594C25.8196 22.7529 25.1377 22.0711 24.2966 22.0711H19.4228Z" fill="#911211" stroke="#911211" stroke-width="0.538462"/>
<path fill-rule="evenodd" clip-rule="evenodd" d="M18.5098 19.9389C18.5098 18.0885 20.0099 16.5884 21.8605 16.5884C23.711 16.5884 25.2112 18.0885 25.2112 19.9389V21.7664C25.2112 21.9346 25.0748 22.071 24.9066 22.071H18.8144C18.6461 22.071 18.5098 21.9346 18.5098 21.7664V19.9389ZM21.8605 17.1976C20.3464 17.1976 19.119 18.4249 19.119 19.9389V21.4619H24.602V19.9389C24.602 18.4249 23.3746 17.1976 21.8605 17.1976Z" fill="#911211" stroke="#911211" stroke-width="0.538462"/>
<path d="M21.762 23.8193C21.7298 23.8428 21.7045 23.8665 21.6757 23.8937C21.3439 24.2056 21.2295 24.6908 21.3823 25.1134L20.2717 26.1576C20.0914 26.3272 20.0817 26.6059 20.25 26.7848C20.4182 26.9637 20.697 26.9712 20.8773 26.8017C20.9386 26.7441 20.9418 26.6535 20.8846 26.5926C20.8274 26.5318 20.7368 26.5294 20.6755 26.587C20.6142 26.6447 20.5235 26.6422 20.4663 26.5814C20.4091 26.5206 20.4123 26.43 20.4736 26.3723L21.6635 25.2535C21.6779 25.2399 21.689 25.2228 21.6929 25.2124C21.7116 25.1746 21.7133 25.1258 21.6938 25.0834C21.5246 24.7301 21.6268 24.2969 21.9422 24.0543C22.1213 23.9196 22.3398 23.8557 22.5622 23.8826C22.7845 23.9096 22.9794 24.0229 23.1198 24.2011C23.4003 24.5644 23.3295 25.096 22.9605 25.3756C22.6954 25.5777 22.3351 25.6064 22.044 25.4486C22.0063 25.4301 21.9681 25.4256 21.9294 25.435C21.9084 25.4344 21.8907 25.4444 21.869 25.4648L21.6166 25.7021C21.5553 25.7597 21.5522 25.8503 21.6094 25.9112C21.6666 25.972 21.7572 25.9744 21.8185 25.9168L21.9916 25.754C22.3697 25.9177 22.8076 25.8632 23.1408 25.6106C23.381 25.4253 23.5367 25.1574 23.5786 24.8551C23.6205 24.5528 23.54 24.2577 23.3563 24.0191C23.1727 23.7805 22.9059 23.6268 22.6038 23.5873C22.3014 23.5548 22.0021 23.6339 21.762 23.8193Z" fill="#911211" stroke="#911211" stroke-width="0.538462"/>
<path d="M30.852 39.0779H29.7715V34.9873H33.8873V36.0613H30.852V39.0779Z" fill="#911211" stroke="#911211" stroke-width="0.461538"/>
</svg>
