<svg width="41" height="40" viewBox="0 0 41 40" fill="none" xmlns="http://www.w3.org/2000/svg">
<path d="M7.55902 0.784549C5.39311 0.784412 3.63721 2.5402 3.63721 4.70612C3.63721 13.7636 3.63721 22.821 3.63721 31.8784C3.63721 34.0443 5.39295 35.8 7.55878 35.8H24.7968C25.0434 35.8 25.2433 35.6001 25.2433 35.3534C25.2433 35.1068 25.0434 34.9069 24.7968 34.9069H8.45013C6.28431 34.9069 4.52856 33.1511 4.52856 30.9853V5.59899C4.52856 3.43317 6.28431 1.67742 8.45013 1.67742H28.225C30.3908 1.67742 32.1465 3.43317 32.1465 5.59899V26.68C32.1465 26.9257 32.3451 27.1253 32.5908 27.1265C32.8383 27.1278 33.0396 26.9275 33.0396 26.68V4.70748C33.0396 2.54175 31.284 0.786044 29.1183 0.785908L7.55902 0.784549Z" fill="#911211" stroke="#911211" stroke-width="1.17647"/>
<path d="M28.7354 32.9247V33.3313H33.8145V32.9247H28.7354Z" fill="#911211" stroke="#911211" stroke-width="0.54902"/>
<path d="M31.0688 35.6675L31.4754 35.6675L31.4754 30.5884L31.0688 30.5884L31.0688 35.6675Z" fill="#911211" stroke="#911211" stroke-width="0.54902"/>
<path d="M31.1476 26.6667C27.6547 26.6667 24.814 29.5084 24.814 33.0014C24.814 36.4944 27.6547 39.3352 31.1476 39.3352C34.6405 39.3352 37.4822 36.4944 37.4822 33.0014C37.4822 29.5084 34.6405 26.6667 31.1476 26.6667ZM31.1476 27.5598C34.1579 27.5598 36.5891 29.9911 36.5891 33.0014C36.5891 36.0117 34.1579 38.442 31.1476 38.442C28.1374 38.442 25.7071 36.0117 25.7071 33.0014C25.7071 29.9911 28.1374 27.5598 31.1476 27.5598Z" fill="#911211" stroke="#911211" stroke-width="0.784314"/>
<path d="M18.4494 18.481C20.3 18.481 21.806 16.9736 21.806 15.1208C21.806 13.2701 20.3 11.7647 18.4494 11.7647C16.5967 11.7647 15.0894 13.2701 15.0894 15.1208C15.0894 16.9736 16.5967 18.481 18.4494 18.481ZM18.4494 13.1295C19.5473 13.1295 20.4412 14.0228 20.4412 15.1208C20.4412 16.2209 19.5473 17.1162 18.4494 17.1162C17.3494 17.1162 16.4541 16.2209 16.4541 15.1208C16.4541 14.0228 17.3487 13.1295 18.4494 13.1295Z" fill="#911211" stroke="#911211" stroke-width="0.545933"/>
<path d="M21.0734 18.9286C20.8981 18.9115 17.2617 18.9109 16.8475 18.9109C16.3828 18.9109 16.0689 18.9122 16.045 18.9136C13.9774 19.0467 12.3547 20.7104 12.2742 22.7365C12.266 22.8122 12.2646 22.8743 12.2646 22.9433V24.4159C12.2646 24.7926 12.5697 25.0983 12.947 25.0983H23.9688C24.3461 25.0983 24.6511 24.7926 24.6511 24.4159V22.9433C24.6511 22.8743 24.6498 22.8129 24.645 22.787C24.574 20.8216 23.0448 19.164 21.0734 18.9286ZM23.2864 23.7335H13.6294V22.9433L13.6342 22.8395C13.6901 21.4658 14.7635 20.3644 16.1078 20.2771C16.1535 20.2764 16.4381 20.2764 16.8475 20.2764C18.3644 20.2764 20.78 20.2812 20.9267 20.2859C22.2219 20.4408 23.2352 21.5368 23.2823 22.8368C23.283 22.8532 23.285 22.9269 23.2871 22.9439L23.2864 23.7335Z" fill="#911211" stroke="#911211" stroke-width="0.545933"/>
</svg>
