<svg width="177" height="177" viewBox="0 0 177 177" fill="none" xmlns="http://www.w3.org/2000/svg">
<path d="M113.62 4.37555C136.812 12.2784 153.847 27.3483 164.641 49.3126C171.728 63.7377 174.273 79.0759 172.726 95.059C171.754 105.087 169.057 114.665 164.775 123.801C164.455 124.476 164.429 125.467 164.654 126.194C165.57 129.15 166.642 132.063 167.649 134.989C170.769 144.038 173.884 153.088 177 162.138V166.63C176.041 169.751 174.697 172.676 171.845 174.49C170.224 175.516 168.375 176.173 166.629 177H162.135C161.232 176.68 160.328 176.346 159.421 176.035C148.838 172.408 138.234 168.842 127.685 165.111C125.689 164.406 124.116 164.548 122.202 165.401C103.711 173.65 84.5806 175.438 64.9576 170.383C45.4945 165.375 29.7261 154.629 17.5228 138.719C8.65122 127.146 3.13726 114.089 0.993896 99.6423C0.648193 97.3225 0.328418 94.9984 0 92.6743V80.5777C0.341382 78.1411 0.648193 75.6958 1.02847 73.2635C3.76816 55.6574 11.2354 40.3062 23.4516 27.3699C37.794 12.1875 55.3989 3.25462 76.1757 0.679491C79.8272 0.229384 83.4614 0 87.074 0C96.0795 0 104.943 1.42389 113.62 4.37555ZM120.646 154.447C123.096 153.196 125.322 153.101 127.893 154.006C139.375 158.044 150.895 161.956 162.407 165.907C162.947 166.094 163.505 166.28 164.066 166.34C165.553 166.509 166.508 165.557 166.339 164.072C166.266 163.458 166.05 162.848 165.847 162.25C161.953 150.907 158.133 139.537 154.101 128.241C153.086 125.407 153.233 123.031 154.564 120.36C161.858 105.706 164.222 90.242 161.461 74.1031C157.796 52.6884 146.66 35.9176 128.882 23.6652C113.775 13.2522 96.8747 9.26612 78.6086 11.0492C68.635 12.023 59.1671 14.7496 50.4856 19.7095C24.7307 34.4288 11.6199 56.813 10.3279 87.8357C10.8551 91.8347 11.1878 97.3139 12.3459 102.62C16.4771 121.568 26.6753 136.638 42.2665 148.111C54.1198 156.832 67.4683 161.554 82.1002 162.428C95.6215 163.241 108.538 160.61 120.646 154.447Z" fill="#282828"/>
<path d="M87.0049 117.599C84.0016 118.408 80.9508 116.396 80.536 113.314C80.4625 112.747 80.4279 112.167 80.4279 111.596C80.4193 105.087 80.4063 98.5819 80.4279 92.077C80.4409 87.8919 82.2774 86.0049 86.4821 85.7712C94.6234 85.3168 101.002 78.985 101.213 70.6061C101.403 63.2053 96.6846 56.761 88.8544 55.0731C79.339 53.0173 70.7353 59.994 70.1649 69.9439C69.9488 73.6962 67.3992 75.9598 63.9725 75.4317C61.3365 75.0292 59.5215 72.77 59.5345 69.9049C59.595 55.3414 72.3428 43.5564 86.9444 44.1926C99.3725 44.7336 111.71 54.8913 111.857 70.3161C111.969 82.0102 103.836 92.4492 92.48 95.4788C92.0349 95.5956 91.6028 95.7514 90.9373 95.9549C90.9373 101.529 90.9632 107.052 90.9243 112.574C90.9027 115.115 89.4032 116.954 87.0049 117.599Z" fill="#282828"/>
<path d="M85.7256 135.885C82.8088 135.898 80.5142 133.608 80.4666 130.63C80.4234 127.757 82.8174 125.415 85.7732 125.441C88.6814 125.463 90.9285 127.796 90.9285 130.791C90.9285 133.604 88.6209 135.867 85.7256 135.885Z" fill="#282828"/>
</svg>
