<svg width="41" height="40" viewBox="0 0 41 40" fill="none" xmlns="http://www.w3.org/2000/svg">
<path fill-rule="evenodd" clip-rule="evenodd" d="M20.4698 24.0656C19.25 24.0656 18.3013 22.9814 18.3013 21.7616C18.3013 20.5419 19.25 19.5931 20.4698 19.5931C21.6895 19.5931 22.6382 20.5419 22.6382 21.7616C22.6382 22.9814 21.6895 24.0656 20.4698 24.0656ZM20.4698 21.2195C20.1987 21.2195 19.9276 21.4906 19.9276 21.7616C19.9276 22.1682 20.1987 22.4393 20.4698 22.4393C20.7408 22.4393 21.0119 22.1682 21.0119 21.7616C21.0119 21.4906 20.7408 21.2195 20.4698 21.2195Z" fill="#911211" stroke="#911211" stroke-width="0.2"/>
<path fill-rule="evenodd" clip-rule="evenodd" d="M20.4645 25.8276C20.058 25.8276 19.6514 25.4211 19.6514 25.0145V23.2526C19.6514 22.7105 20.058 22.4394 20.4645 22.4394C20.8711 22.4394 21.2777 22.7105 21.2777 23.2526V25.0145C21.2777 25.4211 20.8711 25.8276 20.4645 25.8276Z" fill="#911211" stroke="#911211" stroke-width="0.2"/>
<path fill-rule="evenodd" clip-rule="evenodd" d="M25.7698 19.8646C25.4987 19.8646 25.2277 19.7291 25.0921 19.458C24.0079 17.9672 22.3815 17.0185 20.4841 17.0185C18.5867 17.0185 16.9603 17.9672 15.8761 19.458C15.605 19.7291 15.334 19.8646 14.9274 19.7291C14.6563 19.7291 14.3853 19.3225 14.3853 19.0514V16.2053C14.3853 12.817 17.0959 10.1064 20.4841 10.1064C23.8724 10.1064 26.583 12.817 26.583 16.2053V19.0514C26.583 19.3225 26.3119 19.7291 26.0408 19.7291C25.9053 19.7291 25.9053 19.8646 25.7698 19.8646ZM20.4841 15.3921C22.1105 15.3921 23.7368 15.9342 24.9566 17.0185V16.2053C24.9566 13.7658 22.9237 11.7328 20.4841 11.7328C18.0446 11.7328 16.0116 13.7658 16.0116 16.2053V17.0185C17.2314 15.9342 18.8577 15.3921 20.4841 15.3921Z" fill="#911211" stroke="#911211" stroke-width="0.45283"/>
<path fill-rule="evenodd" clip-rule="evenodd" d="M20.47 29.8936C16.4041 29.8936 13.1514 26.6408 13.1514 22.7105C13.1514 18.6446 16.4041 15.3918 20.47 15.3918C24.5359 15.3918 27.7886 18.6446 27.7886 22.7105C27.7886 26.6408 24.5359 29.8936 20.47 29.8936ZM20.47 17.0182C17.3528 17.0182 14.7777 19.5933 14.7777 22.7105C14.7777 25.8277 17.3528 28.2672 20.47 28.2672C23.5872 28.2672 26.1623 25.8277 26.1623 22.7105C26.1623 19.5933 23.5872 17.0182 20.47 17.0182Z" fill="#911211" stroke="#911211" stroke-width="0.45283"/>
<path fill-rule="evenodd" clip-rule="evenodd" d="M20.4821 35.0438C20.3466 35.0438 20.211 35.0438 20.211 34.9083C10.0463 30.5713 8.55545 24.3369 8.41992 24.0659C8.41992 23.9303 8.41992 23.9303 8.41992 23.7948V10.1063C8.41992 9.83519 8.69098 9.56413 8.96204 9.4286L20.211 5.09164C20.3466 4.95611 20.6176 4.95611 20.7532 5.09164L32.0022 9.4286C32.2732 9.56413 32.5443 9.83519 32.5443 10.1063V23.7948C32.5443 23.9303 32.5443 23.9303 32.5443 24.0659C32.4088 24.3369 30.9179 30.5713 20.7532 34.9083C20.7532 35.0438 20.6176 35.0438 20.4821 35.0438ZM10.0463 23.7948C10.3173 24.4725 12.0792 29.4871 20.4821 33.2819C28.885 29.4871 30.6469 24.4725 30.9179 23.7948V10.7839L20.4821 6.718L10.0463 10.7839V23.7948Z" fill="#911211" stroke="#911211" stroke-width="0.45283"/>
<path fill-rule="evenodd" clip-rule="evenodd" d="M20.4788 39.2453C20.3432 39.2453 20.2077 39.2453 20.2077 39.2453C7.1968 33.553 5.16385 25.5567 5.02832 25.1501V25.0146V7.26015C5.02832 6.85356 5.29938 6.5825 5.57044 6.44697L20.2077 0.7547C20.3432 0.7547 20.6143 0.7547 20.7498 0.7547L35.3871 6.44697C35.6581 6.5825 35.9292 6.85356 35.9292 7.26015V25.0146V25.1501C35.7937 25.5567 33.7607 33.553 20.7498 39.2453C20.7498 39.2453 20.6143 39.2453 20.4788 39.2453ZM6.65468 24.8791C6.79021 25.2857 7.33233 27.0476 9.09422 29.216C10.8561 31.52 14.2444 34.7728 20.4788 37.6189C26.7131 34.7728 30.1014 31.52 31.8633 29.216C33.6252 27.0476 34.1673 25.2857 34.3028 24.8791V7.80227L20.4788 2.38106L6.65468 7.80227V24.8791Z" fill="#911211" stroke="#911211" stroke-width="0.45283"/>
</svg>
