<svg width="41" height="40" viewBox="0 0 41 40" fill="none" xmlns="http://www.w3.org/2000/svg">
<path d="M30.554 23.4888C30.9316 25.0492 32.3308 26.2159 34.0059 26.2159C35.9693 26.2159 37.5666 24.6184 37.5666 22.6555C37.5666 20.6926 35.9693 19.0951 34.0059 19.0951C32.3308 19.0951 30.9316 20.2618 30.554 21.8221H21.043V19.0186C21.043 18.9252 21.0182 18.8392 20.9899 18.7554C23.6083 18.6711 26.2252 18.1674 28.8252 17.2356C29.1565 17.1167 29.3774 16.8026 29.3774 16.4511V16.3615C29.3774 16.355 29.3774 16.3485 29.377 16.342C29.3058 13.278 27.3143 10.5119 24.3038 9.2953C24.047 9.19195 23.7556 9.22125 23.5265 9.37587C21.5313 10.717 18.7719 10.6877 16.8284 9.33599C16.6021 9.1773 16.3128 9.14231 16.0548 9.24078C12.0156 10.7837 11.2074 15.0009 11.0507 16.3119C11.0239 16.4706 11.043 16.6342 11.1081 16.7839C11.2001 16.9947 11.3746 17.1582 11.5911 17.2356C14.1924 18.1677 16.8101 18.6714 19.4293 18.7555C19.401 18.8393 19.3762 18.9253 19.3762 19.0186V21.8221H9.86558C9.48799 20.2618 8.0888 19.0951 6.4137 19.0951C4.45025 19.0951 2.85303 20.6926 2.85303 22.6555C2.85303 24.6184 4.45025 26.2159 6.4137 26.2159C8.0888 26.2159 9.48799 25.0492 9.86558 23.4888H18.0919L11.468 29.6594C10.9049 29.286 10.2317 29.0658 9.50681 29.0658C7.54335 29.0658 5.94573 30.6633 5.94573 32.6262C5.94573 34.5899 7.54335 36.1874 9.50681 36.1874C11.4703 36.1874 13.0675 34.5899 13.0675 32.6262C13.0675 31.9917 12.8869 31.4039 12.5946 30.8874L19.3762 24.5698V32.9872C17.8154 33.3648 16.6489 34.7643 16.6489 36.4396C16.6489 38.4025 18.2461 40 20.2096 40C22.1731 40 23.7707 38.4025 23.7707 36.4396C23.7707 34.7643 22.6038 33.3648 21.043 32.9872V24.5714L27.8242 30.8889C27.5324 31.4051 27.3521 31.9923 27.3521 32.6262C27.3521 34.5899 28.9493 36.1874 30.9128 36.1874C32.8762 36.1874 34.4739 34.5899 34.4739 32.6262C34.4739 30.6633 32.8762 29.0658 30.9128 29.0658C30.1873 29.0658 29.5134 29.2862 28.95 29.6602L22.3257 23.4888H30.554ZM16.2692 10.9595C18.5908 12.369 21.6896 12.3975 24.06 11.0084C26.0434 11.9589 27.4319 13.8314 27.6744 15.87C22.7371 17.5074 17.7403 17.5155 12.8022 15.8895C13.0602 14.5606 13.8569 12.0875 16.2692 10.9595ZM34.0059 20.7618C35.0501 20.7618 35.8998 21.6114 35.8998 22.6555C35.8998 23.6996 35.0501 24.5492 34.0059 24.5492C32.9617 24.5492 32.112 23.6996 32.112 22.6555C32.112 21.6114 32.9617 20.7618 34.0059 20.7618ZM6.4137 24.5492C5.36951 24.5492 4.51983 23.6996 4.51983 22.6555C4.51983 21.6114 5.36951 20.7618 6.4137 20.7618C7.4579 20.7618 8.30758 21.6114 8.30758 22.6555C8.30758 23.6996 7.4579 24.5492 6.4137 24.5492ZM9.50681 34.5207C8.46221 34.5207 7.61253 33.6711 7.61253 32.6262C7.61253 31.5821 8.46221 30.7324 9.50681 30.7324C10.551 30.7324 11.4007 31.5821 11.4007 32.6262C11.4007 33.6711 10.551 34.5207 9.50681 34.5207ZM22.1039 36.4396C22.1039 37.4837 21.2542 38.3333 20.2096 38.3333C19.1654 38.3333 18.3157 37.4837 18.3157 36.4396C18.3157 35.3947 19.1654 34.5451 20.2096 34.5451C21.2542 34.5451 22.1039 35.3947 22.1039 36.4396ZM32.8071 32.6262C32.8071 33.6711 31.9574 34.5207 30.9128 34.5207C29.8686 34.5207 29.0189 33.6711 29.0189 32.6262C29.0189 31.5821 29.8686 30.7324 30.9128 30.7324C31.9574 30.7324 32.8071 31.5821 32.8071 32.6262Z" fill="#911211"/>
<path d="M20.2151 8.80939C22.6441 8.80939 24.6202 6.83349 24.6202 4.40429C24.6202 1.97591 22.6441 0 20.2151 0C17.7861 0 15.8101 1.97591 15.8101 4.40429C15.8101 6.83349 17.7861 8.80939 20.2151 8.80939ZM20.2151 1.66666C21.7249 1.66666 22.9534 2.89469 22.9534 4.40429C22.9534 5.91389 21.7249 7.14273 20.2151 7.14273C18.7054 7.14273 17.4769 5.91389 17.4769 4.40429C17.4769 2.89469 18.7054 1.66666 20.2151 1.66666Z" fill="#911211"/>
</svg>
