<svg width="41" height="40" viewBox="0 0 41 40" fill="none" xmlns="http://www.w3.org/2000/svg">
<path d="M1.25488 28.6092C1.25488 29.6022 1.65345 31.054 3.5531 32.332C6.13712 34.0713 10.8146 34.9875 15.5296 34.9875C18.8636 34.9875 22.2076 34.5222 24.8511 33.5719C27.0338 36.7537 30.9482 39.012 31.1767 39.141C31.2992 39.2107 31.4355 39.2452 31.5717 39.2452C31.708 39.2452 31.8442 39.2107 31.9668 39.141C32.2843 38.9617 39.7392 34.6805 39.7392 29.5051V21.6702C39.7392 21.3578 39.5575 21.0735 39.2741 20.9427C38.991 20.8104 38.6566 20.8566 38.4182 21.0594C36.6709 22.5434 34.6123 22.5927 31.9397 21.2113C31.7087 21.0923 31.4339 21.0923 31.2021 21.2121C30.0949 21.7871 29.0975 22.1001 28.1783 22.1804C26.9956 19.8347 25.1905 17.8658 22.9137 16.4736C22.6381 16.3053 22.2869 16.3186 22.0261 16.5081C20.1163 17.8879 17.8553 18.6177 15.4874 18.6177C13.1277 18.6177 10.8663 17.8879 8.94783 16.5073C8.68512 16.3186 8.33549 16.3045 8.06065 16.4744C3.79897 19.0852 1.25488 23.6217 1.25488 28.6092ZM31.5721 22.8206C34.0814 24.0289 36.2445 24.1479 38.1355 23.1745V29.5051C38.1355 33.1543 33.0364 36.5944 31.5674 37.5098C29.4199 36.195 25.0083 32.8105 25.0083 29.5051V23.1675C25.8206 23.5798 26.6932 23.7812 27.6165 23.7967C27.6748 23.8031 27.7312 23.8051 27.7906 23.7983C28.9679 23.7864 30.2284 23.4681 31.5721 22.8206ZM15.4874 20.2215C18.0099 20.2215 20.4271 19.4971 22.5128 18.1205C24.0194 19.1267 25.2731 20.4263 26.2125 21.939C25.6917 21.7469 25.1964 21.4594 24.7256 21.0594C24.4868 20.8566 24.1532 20.8104 23.8698 20.9427C23.5863 21.0735 23.4046 21.3578 23.4046 21.6702V29.5051C23.4046 30.4236 23.6475 31.3119 24.0356 32.1561C18.1963 34.1206 8.30706 33.5981 4.44811 31.0016C3.39336 30.2913 2.85854 29.4871 2.85854 28.6092C2.85854 24.3562 4.94377 20.4729 8.46352 18.1205C10.5558 19.4971 12.9726 20.2215 15.4874 20.2215Z" fill="#911211" stroke="#911211" stroke-width="0.603774"/>
<path d="M15.4942 15.249C19.49 15.249 22.7412 11.9976 22.7412 8.00144C22.7412 4.00532 19.49 0.7547 15.4942 0.7547C11.4983 0.7547 8.24756 4.00532 8.24756 8.00144C8.24756 11.9976 11.4983 15.249 15.4942 15.249ZM15.4942 2.35847C18.606 2.35847 21.1375 4.89021 21.1375 8.00144C21.1375 11.1135 18.606 13.6452 15.4942 13.6452C12.3828 13.6452 9.85122 11.1135 9.85122 8.00144C9.85122 4.89021 12.3828 2.35847 15.4942 2.35847Z" fill="#911211" stroke="#911211" stroke-width="0.603774"/>
</svg>
