<svg width="191" height="192" viewBox="0 0 191 192" fill="none" xmlns="http://www.w3.org/2000/svg">
<path d="M76.3066 146.905C114.703 147.039 146.393 115.316 146.393 76.747C146.388 38.2352 114.986 6.71328 76.5026 6.59437C38.0963 6.47546 6.43142 38.1732 6.42626 76.747C6.42626 115.238 37.8332 146.77 76.3066 146.905ZM168.237 182.216C172.064 186.011 178.151 185.954 181.798 182.242C185.491 178.489 185.511 172.745 181.674 168.852C174.324 161.391 166.901 154.009 159.5 146.6C157.617 144.718 155.296 143.932 152.325 143.932C148.647 144.015 145.676 145.871 144.072 149.542C142.385 153.388 143.133 157.002 146.058 159.975C153.403 167.435 160.799 174.849 168.237 182.216ZM127.897 20.1813C157.715 47.5258 162.373 95.3696 132.848 128.417C133.209 128.83 133.56 129.285 133.957 129.689C135.969 131.715 138.12 133.618 139.972 135.774C142.329 138.519 144.34 139.848 148.503 138.374C154.45 136.27 160.196 138.028 164.823 142.748C172.023 150.095 179.425 157.235 186.548 164.649C194.197 172.616 191.634 185.67 181.586 190.142C175.474 192.862 169.444 192.164 164.58 187.547C156.451 179.838 148.596 171.825 140.807 163.764C136.304 159.101 135.525 151.858 138.62 145.985C139.342 144.62 139.105 143.942 138.115 142.981C134.798 139.755 131.564 136.441 128.227 133.09C110.545 148.627 90.1712 155.544 66.9191 152.675C46.5605 150.162 29.8125 140.654 16.9279 124.674C-8.51125 93.1103 -4.84393 47.4948 25.0053 20.14C54.0241 -6.46005 98.9346 -6.38249 127.897 20.1813Z" fill="#282828"/>
<path d="M149.88 26.2251C151.541 25.1446 153.393 25.6151 154.615 27.5745C161.109 37.9715 165.483 49.2009 167.402 61.3196C168.206 66.4121 168.505 71.5821 169.032 76.716C168.799 85.5724 167.427 94.1754 165.06 102.644C164.575 104.376 163.75 105.725 161.769 105.818C159.582 105.922 158.164 103.926 158.643 101.605C159.649 96.7501 160.897 91.9264 161.547 87.0251C163.796 69.9898 160.805 53.7816 153.253 38.4058C152.005 35.8518 150.499 33.427 149.106 30.9402C148.013 28.9911 148.296 27.2643 149.88 26.2251Z" fill="#282828"/>
<path d="M111.334 125.165C109.591 124.958 108.554 123.893 108.389 122.187C108.306 121.365 108.642 120.496 108.796 119.654C110.632 109.763 112.887 99.9297 114.222 89.9721C116.523 72.8023 103.906 55.8083 86.9109 52.4219C66.5111 48.3531 47.9837 61.4799 44.9198 82.0826C43.228 93.4878 40.845 104.753 37.4253 115.781C37.2705 116.288 37.1519 116.81 36.9559 117.301C36.2596 119.09 34.7173 119.933 33.0307 119.462C31.2667 118.971 30.3021 117.337 30.7818 115.414C31.1996 113.749 31.8959 112.147 32.257 110.471C34.5471 99.7332 36.8837 89.0002 39.0036 78.2257C42.3099 61.4747 56.6542 47.8671 73.6085 45.6491C75.5737 45.3906 77.5544 45.2717 79.5299 45.0908C99.9348 45.2976 116.951 59.7634 120.453 79.9784C121.542 86.2342 120.789 92.4279 119.633 98.5648C118.158 106.434 116.502 114.277 114.878 122.114C114.439 124.229 113.041 125.366 111.334 125.165Z" fill="#282828"/>
<path d="M127.489 42.2317C127.185 44.7443 124.044 45.6232 122.12 43.7465C116.219 38.0026 109.519 33.5304 101.901 30.4077C100.317 29.7615 99.5692 28.4121 99.9663 26.706C100.333 25.1084 101.503 24.3122 103.298 24.1416C103.711 24.276 104.284 24.426 104.825 24.6534C112.851 27.9726 120.031 32.6102 126.143 38.7988C126.958 39.6208 127.618 41.1408 127.489 42.2317Z" fill="#282828"/>
<path d="M91.0793 96.2951C89.4133 96.1297 88.263 94.8527 88.3404 93.0121C88.3971 91.5645 88.6344 90.1169 88.8407 88.6744C89.697 82.7133 86.3494 78.1585 80.49 77.3468C75.3939 76.6385 70.8549 80.4075 70.0554 85.9963C67.9096 100.969 64.5157 115.652 59.6569 129.983C59.5073 130.423 59.3783 130.867 59.1875 131.291C58.4241 132.992 56.722 133.773 55.1127 133.184C53.4363 132.573 52.6162 130.847 53.1939 128.96C54.4834 124.725 56.0979 120.563 57.083 116.252C59.4351 105.937 61.7252 95.5971 63.6182 85.1898C65.0882 77.0883 71.1695 71.029 78.9374 70.8067C87.0509 70.574 93.648 75.9354 95.2779 84.1403C95.4584 85.0399 95.4687 85.9808 95.5874 87.1906C95.2934 89.2224 95.0406 91.5283 94.6125 93.8031C94.2927 95.5144 92.8124 96.4657 91.0793 96.2951Z" fill="#282828"/>
<path d="M85.9728 105.25C86.4886 103.264 87.9225 102.086 89.6092 102.318C91.2597 102.551 92.3739 103.89 92.3687 106.315C91.6208 109.613 90.8162 113.563 89.8103 117.461C88.5879 122.187 87.2159 126.881 85.8593 131.576C85.1785 133.913 83.5176 135.003 81.6401 134.471C79.7832 133.944 79.0199 132.113 79.6285 129.787C81.7536 121.613 83.8684 113.434 85.9728 105.25Z" fill="#282828"/>
<path d="M82.7592 87.6042C82.0216 91.8747 81.4594 96.8432 80.2628 101.651C77.5497 112.56 74.5477 123.402 71.5767 134.243C71.3034 135.241 70.5812 136.513 69.7405 136.86C68.7656 137.263 67.244 137.128 66.2898 136.617C64.9745 135.903 64.7991 134.455 65.253 132.93C67.3111 126.023 69.5909 119.162 71.2569 112.157C73.1602 104.179 74.491 96.0677 76.0693 88.0127C76.188 87.4285 76.2808 86.8391 76.4201 86.2549C76.8379 84.4764 78.1789 83.4165 79.8089 83.5664C81.5471 83.7215 82.7489 85.1071 82.7592 87.6042Z" fill="#282828"/>
<path d="M79.5666 57.9694C97.1914 58.0108 110.437 73.5261 107.899 91.0372C106.104 103.44 103.582 115.683 100.235 127.755C100.147 128.076 100.039 128.386 99.9406 128.701C99.2288 130.96 97.733 131.958 95.8658 131.415C93.9729 130.867 93.2095 129.213 93.7562 126.974C95.3449 120.481 97.0883 114.023 98.4345 107.483C99.7601 101.067 101.101 94.6045 101.669 88.0954C102.633 77.0004 94.7775 66.6758 83.5125 64.7991C70.1481 62.5759 59.1307 71.3082 57.2738 85.0554C55.4634 98.4666 52.2861 111.588 48.0359 124.441C47.484 126.121 46.473 127.29 44.6419 127.238C43.1203 127.191 41.9856 126.297 41.6709 124.762C41.5214 124.033 41.6348 123.169 41.8721 122.451C45.7251 111.004 48.4021 99.2783 50.4498 87.3923C51.012 84.13 51.3628 80.7901 52.3531 77.6622C56.0823 65.8538 67.1771 57.9384 79.5666 57.9694Z" fill="#282828"/>
<path d="M45.3278 156.878C62.7773 163.863 80.6703 164.638 98.8161 159.815C99.3886 159.665 99.956 159.468 100.534 159.344C102.685 158.884 104.222 159.701 104.774 161.567C105.295 163.33 104.315 165.031 102.21 165.584C98.8935 166.463 95.5717 167.42 92.1881 167.906C86.896 168.666 81.5523 169.059 76.2293 169.607C58.2847 169.183 41.7792 164.313 26.656 154.707C25.155 153.75 23.9893 152.649 24.4071 150.695C24.9074 148.342 27.3626 147.696 29.8023 148.994C34.9294 151.718 39.9584 154.727 45.3278 156.878Z" fill="#282828"/>
<path d="M79.6077 32.2224C105.65 32.2586 129.073 51.5637 133.184 79.1511C134.36 87.0252 133.24 94.7648 131.863 102.489C131.662 103.595 131.492 104.712 131.27 105.813C130.857 107.861 129.547 108.874 127.644 108.657C125.834 108.45 124.699 107.054 124.962 104.934C125.416 101.32 126.055 97.7324 126.607 94.1288C130.146 71.0807 116.859 48.9786 94.9269 41.4251C67.8372 32.0983 38.2665 49.1286 32.7423 77.2848C31.427 83.9748 30.2975 90.7063 29.075 97.4118C28.9667 98.0012 28.8429 98.5854 28.6778 99.1542C28.1517 100.959 26.5631 102.06 24.9847 101.744C23.2104 101.388 22.0241 99.7952 22.3851 97.8823C24.0615 89.0363 25.0673 79.9784 27.6927 71.4219C34.1195 50.4624 48.5825 37.8578 69.9726 33.3443C73.1242 32.6825 76.3943 32.5843 79.6077 32.2224Z" fill="#282828"/>
<path d="M88.294 20.202C90.5326 20.4553 91.9304 21.934 91.7499 23.7952C91.5694 25.5944 90.022 26.8559 88.1341 26.7421C78.7363 25.3824 69.4777 26.0597 60.5441 29.2755C37.9831 37.4132 24.3815 53.337 19.9353 77.0107C19.5846 78.8771 18.8728 80.3299 16.856 80.6453C14.8599 80.9555 13.1062 78.9702 13.3847 76.8143C16.7787 50.3694 38.3442 26.9955 64.4229 21.3498C72.3404 19.6333 80.2785 19.2921 88.294 20.202Z" fill="#282828"/>
</svg>
