<svg width="179" height="179" viewBox="0 0 179 179" fill="none" xmlns="http://www.w3.org/2000/svg">
<path d="M145.478 19.634C167.828 38.3288 179 61.4812 179 88.7641C179 93.8151 178.617 99.0109 177.851 104.342C175.64 119.734 169.346 133.62 159.37 145.563C140.768 167.842 117.555 179 90.0888 179C85.8413 179 81.4911 178.734 77.0427 178.201C60.5623 176.225 45.82 169.576 33.0029 158.997C15.373 144.447 4.62593 125.855 1.02798 103.212C0.658844 100.875 0.341104 98.525 0 96.1794V82.8907C0.107471 82.5122 0.261669 82.1384 0.327086 81.7459C1.04667 77.2837 1.49525 72.756 2.50921 68.3545C10.3546 34.4085 39.3905 7.12096 73.6363 1.39711C76.7109 0.883132 79.8042 0.462581 82.8929 0H96.1819C98.9341 0.383148 101.696 0.691559 104.429 1.16348C119.69 3.80346 133.591 9.69084 145.478 19.634ZM89.5654 166.506C132.04 166.492 166.524 131.98 166.51 89.5023C166.496 47.0244 131.988 12.5458 89.5047 12.5644C47.0303 12.5831 12.5507 47.0851 12.5648 89.5631C12.5788 132.032 47.0957 166.524 89.5654 166.506Z" fill="#282828"/>
<path d="M96.4716 128.705C92.841 131.298 87.0142 131.499 83.2247 129.139C81.3649 127.976 80.3837 126.439 80.4117 124.107C80.5098 116.879 80.4491 109.65 80.4491 102.422V81.6151C80.4491 77.8771 81.6593 76.223 85.2573 75.1904C88.7991 74.1718 92.2896 74.3306 95.6352 75.9286C97.6959 76.9098 98.7939 78.4985 98.7846 80.9095C98.7425 95.3664 98.7519 109.823 98.7799 124.28C98.7846 126.214 98.0089 127.611 96.4716 128.705Z" fill="#282828"/>
<path d="M94.3176 62.6306C90.0935 64.8827 84.8181 63.8968 81.7809 60.327C79.066 57.1357 79.1969 52.9351 82.1266 49.9306C84.1405 47.8607 86.6591 46.9823 88.888 46.8888C95.3035 46.8748 99.7238 51.309 98.9715 56.4815C98.5557 59.3458 96.8034 61.3036 94.3176 62.6306Z" fill="#282828"/>
</svg>
