<svg width="192" height="193" viewBox="0 0 192 193" fill="none" xmlns="http://www.w3.org/2000/svg">
<path d="M191.432 173.104V178.348C190.243 182.676 188.47 186.73 184.553 189.215C182.304 190.639 179.684 191.477 177.224 192.58H171.989C171.839 192.482 171.694 192.326 171.529 192.301C161.523 190.458 155.574 180.015 158.463 170.94C158.639 170.381 158.344 169.459 157.946 168.967C155.481 165.908 152.964 162.884 150.354 159.954C149.832 159.369 148.809 158.929 148.013 158.919C140.349 158.846 132.689 158.872 125.025 158.883C124.498 158.883 123.96 158.955 123.386 158.991C123.386 160.995 123.412 162.802 123.386 164.608C123.242 173.875 115.98 181.304 106.755 181.32C76.7225 181.382 46.695 181.387 16.6624 181.32C7.44226 181.294 0.0826918 173.87 0.0568506 164.603C0.0258412 153.136 0 141.669 0 130.202C0 118.734 0.0258412 107.821 0.0826918 96.6334C0.118869 89.8722 3.59709 84.9384 9.60258 81.9305C10.8533 81.3041 11.2874 80.7036 11.2771 79.3161C11.2099 69.9508 11.2564 60.5907 11.2357 51.2253C11.2202 44.2052 12.5485 37.4233 15.5047 31.0969C23.1847 14.6545 35.9141 4.5385 53.8944 1.52026C56.8248 1.02844 59.7035 0.785095 62.5357 0.785095C72.7843 0.785095 82.3403 3.9949 90.9971 10.3161C105.241 20.7272 112.228 34.9952 112.171 52.6956C112.146 61.6778 112.187 70.6704 112.146 79.6578C112.146 80.7191 112.419 81.2731 113.443 81.7649C119.877 84.8452 123.2 90.0068 123.371 97.1667C123.417 98.9579 123.381 100.754 123.381 102.468C123.686 102.592 123.795 102.675 123.903 102.675C132.255 102.691 140.602 102.716 148.949 102.675C149.543 102.675 150.246 102.282 150.701 101.857C153.212 99.5274 155.621 97.0735 158.169 94.78C159.202 93.8481 159.388 93.0923 158.872 91.7514C155.988 84.2861 159.047 75.4592 165.761 71.535C173.286 67.1345 182.248 68.4702 187.431 75.1537C189.235 77.4783 190.119 80.5172 191.426 83.23V88.4743C191.349 88.5675 191.22 88.6504 191.204 88.7591C189.178 99.9571 177.193 105.305 168.784 101.671C168.267 101.448 167.218 101.816 166.743 102.261C163.311 105.434 159.952 108.686 156.598 111.942C155.181 113.314 153.59 113.977 151.574 113.966C142.855 113.909 134.142 113.94 125.423 113.94H123.485V125.076C123.805 125.112 124.043 125.169 124.281 125.169C135.361 125.169 146.447 125.154 157.533 125.206C158.68 125.206 158.954 124.584 159.332 123.756C164.489 112.48 179.7 110.404 187.436 120.101C189.266 122.389 190.124 125.459 191.426 128.172V133.417C191.318 133.634 191.163 133.836 191.106 134.064C189.204 141.741 183.679 146.789 176.309 147.571C169.032 148.342 162.572 144.563 159.218 137.491C158.737 136.471 158.086 136.404 157.176 136.404C146.406 136.424 135.64 136.414 124.87 136.424C124.399 136.424 123.924 136.507 123.48 136.554V147.659H125.573C134.1 147.659 142.633 147.716 151.155 147.622C153.76 147.597 155.652 148.513 157.264 150.506C160.164 154.083 163.182 157.562 166.133 161.067C166.526 160.902 166.815 160.793 167.099 160.663C174.759 157.071 183.028 158.945 188.036 165.773C189.602 167.901 190.32 170.655 191.432 173.119V173.104ZM174.64 181.32C177.622 181.294 180.253 178.607 180.191 175.646C180.129 172.648 177.431 170.039 174.485 170.132C171.554 170.226 169.038 172.793 169.022 175.713C169.012 178.69 171.673 181.346 174.64 181.32ZM180.191 85.8858C180.222 82.9142 177.581 80.2428 174.604 80.248C171.699 80.248 169.125 82.7692 169.022 85.7046C168.924 88.6556 171.529 91.3683 174.516 91.4357C177.472 91.503 180.154 88.873 180.191 85.8858ZM180.191 130.787C180.191 127.877 177.679 125.294 174.748 125.19C171.808 125.087 169.1 127.691 169.022 130.688C168.955 133.65 171.58 136.342 174.562 136.378C177.529 136.414 180.191 133.763 180.191 130.781V130.787ZM112.182 163.138V98.5438C112.182 93.5634 110.104 91.4615 105.168 91.4615C76.2005 91.4615 47.2325 91.4615 18.2697 91.4615C13.3289 91.4615 11.2461 93.5582 11.2461 98.5334C11.2461 120.003 11.2461 141.467 11.2461 162.936C11.2461 168.046 13.2875 170.112 18.3472 170.112C32.7356 170.112 47.1292 170.112 61.5175 170.112C75.9059 170.112 90.6715 170.112 105.251 170.112C110.063 170.112 112.182 167.984 112.182 163.138ZM100.93 80.0823C100.93 70.1424 101.008 60.3525 100.879 50.5575C100.843 47.7826 100.455 44.9455 99.7883 42.2431C94.5167 21.0067 73.2856 7.98125 52.592 13.2049C35.8676 17.4294 23.8876 31.1228 22.8126 48.2796C22.1614 58.7166 22.5645 69.226 22.4973 79.7044C22.4973 79.8183 22.58 79.927 22.6627 80.1289H33.6866V78.0115C33.6866 69.3399 33.6659 60.6683 33.7021 51.9967C33.7124 50.3245 33.8313 48.6368 34.0639 46.9801C35.7694 34.5862 46.6899 24.3304 59.1763 23.3571C75.849 22.0525 89.7206 34.8451 89.7516 51.5774C89.7723 60.4353 89.7516 69.2985 89.7516 78.1564V80.0927H100.93V80.0823ZM78.5417 80.1548C78.5417 79.4507 78.5417 78.8968 78.5417 78.348C78.4383 68.6255 78.6709 58.8874 78.1334 49.1907C77.5959 39.4216 66.8977 32.4429 57.5328 35.1971C49.7546 37.4906 45.067 43.4338 44.9327 51.7068C44.7828 60.9945 44.9068 70.2873 44.912 79.5801C44.912 79.751 45.0102 79.9166 45.0825 80.1548H78.5417Z" fill="#282828"/>
<path d="M75.6526 110.104C77.6113 113.014 78.5881 116.265 78.5106 121.25C78.1592 126.666 75.0065 131.76 68.8098 134.788C67.6883 135.337 67.2697 135.865 67.2904 137.118C67.3627 142.363 67.3317 147.602 67.3162 152.846C67.3059 156.455 64.9802 158.898 61.626 158.867C58.3803 158.836 56.1218 156.392 56.1115 152.867C56.096 147.565 56.0804 142.259 56.1321 136.952C56.1425 135.876 55.822 135.332 54.8091 134.871C48.1317 131.843 44.271 125.144 44.9636 117.953C45.6406 110.834 50.783 104.906 57.8118 103.136C64.3755 101.484 71.7557 104.332 75.6474 110.109L75.6526 110.104ZM67.3007 119.583C67.3265 116.612 64.6752 113.946 61.7035 113.956C58.7989 113.966 56.2252 116.488 56.1321 119.423C56.0391 122.374 58.6439 125.081 61.6363 125.144C64.5925 125.206 67.2749 122.571 67.3007 119.583Z" fill="#282828"/>
</svg>
