<svg width="40" height="40" viewBox="0 0 40 40" fill="none" xmlns="http://www.w3.org/2000/svg">
<path d="M37.9395 22.2117H37.1749C36.995 21.5371 36.7252 20.9074 36.4104 20.3228L36.95 19.7831C37.6696 19.0635 37.6696 17.8942 36.95 17.1746L35.5558 15.7804C35.1961 15.4207 34.7463 15.2408 34.2516 15.2408C33.7569 15.2408 33.3072 15.4207 32.9474 15.7804L32.4077 16.3201C31.823 16.0053 31.1934 15.7355 30.5188 15.5556V14.791C30.5188 13.7566 29.7092 12.9471 28.6748 12.9471H26.651C25.6166 12.9471 24.8071 13.7566 24.8071 14.791V15.5556C24.1325 15.7355 23.5028 16.0053 22.9182 16.3201L22.3785 15.7804C22.0187 15.4207 21.569 15.2408 21.0743 15.2408C20.5795 15.2408 20.1298 15.4207 19.77 15.7804L18.3309 17.1746C17.6113 17.8942 17.6113 19.0635 18.3309 19.7831L18.8705 20.3228C18.5557 20.9074 18.2859 21.5371 18.106 22.2117H17.3414C16.307 22.2117 15.4975 23.0212 15.4975 24.0556V26.0344C15.4975 27.0688 16.307 27.8783 17.3414 27.8783H18.106C18.2859 28.5529 18.5557 29.1826 18.8705 29.7672L18.3309 30.3069C17.6113 31.0265 17.6113 32.1958 18.3309 32.9154L19.725 34.3095C20.0848 34.6693 20.5346 34.8492 21.0293 34.8492C21.524 34.8492 21.9737 34.6693 22.3335 34.3095L22.8732 33.7699C23.4579 34.0847 24.0875 34.3545 24.7621 34.5344V35.299C24.7621 36.3334 25.5716 37.1429 26.606 37.1429H28.5849C29.6193 37.1429 30.4288 36.3334 30.4288 35.299V34.5344C31.1034 34.3545 31.7331 34.0847 32.3177 33.7699L32.8574 34.3095C33.2172 34.6693 33.6669 34.8492 34.1617 34.8492C34.6564 34.8492 35.1061 34.6693 35.4659 34.3095L36.8601 32.9154C37.5797 32.1958 37.5797 31.0265 36.8601 30.3069L36.3654 29.7672C36.6802 29.1826 36.95 28.5529 37.1299 27.8783H37.8945C38.9289 27.8783 39.7384 27.0688 39.7384 26.0344V24.0556C39.7834 23.0212 38.9739 22.2117 37.9395 22.2117ZM37.5347 25.6296H36.2754C35.7357 25.6296 35.286 25.9894 35.1511 26.5291C34.9712 27.5185 34.5664 28.463 33.9818 29.3175C33.6669 29.7672 33.7569 30.3519 34.1167 30.7566L35.0162 31.6561L34.2066 32.4656L33.3072 31.5662C32.9474 31.2064 32.3177 31.1164 31.868 31.4312C31.0135 32.0159 30.069 32.3757 29.0796 32.6005C28.5399 32.6905 28.1801 33.1852 28.1801 33.7249V34.9841H27.0108V33.7249C27.0108 33.1852 26.651 32.7355 26.1113 32.6005C25.1219 32.4207 24.1775 32.0159 23.323 31.4312C22.8732 31.1164 22.2886 31.2064 21.8838 31.5662L20.9843 32.4656L20.1298 31.6111L21.0293 30.7117C21.3891 30.3519 21.479 29.7222 21.1642 29.2725C20.5795 28.418 20.2198 27.4736 19.9949 26.4841C19.9049 25.9445 19.4102 25.5847 18.8705 25.5847H17.6113V24.4154H18.8705C19.4102 24.4154 19.86 24.0556 19.9949 23.5159C20.1748 22.5265 20.5795 21.582 21.1642 20.7275C21.479 20.2778 21.3891 19.6931 21.0293 19.2884L20.1298 18.3889L20.9843 17.5344L21.8838 18.4339C22.2436 18.7937 22.8732 18.8836 23.323 18.5688C24.1775 17.9841 25.1219 17.6244 26.1113 17.3995C26.651 17.3095 27.0108 16.8148 27.0108 16.2751V15.0159H28.1801V16.2751C28.1801 16.8148 28.5399 17.2646 29.0796 17.3995C30.069 17.5794 31.0135 17.9841 31.868 18.5688C32.3177 18.8836 32.9024 18.7937 33.3072 18.4339L34.2066 17.5344L35.0611 18.3889L34.1617 19.2884C33.8019 19.6482 33.7119 20.2778 34.0267 20.7275C34.6114 21.582 34.9712 22.5265 35.1961 23.5159C35.286 24.0556 35.7807 24.4154 36.3204 24.4154H37.5797V25.6296H37.5347ZM27.6404 19.6931C24.6722 19.6931 22.2886 22.0767 22.2886 25.045C22.2886 28.0132 24.6722 30.3968 27.6404 30.3968C30.6087 30.3968 32.9923 28.0132 32.9923 25.045C32.9923 22.0767 30.5637 19.6931 27.6404 19.6931ZM27.6404 28.1482C25.9314 28.1482 24.5372 26.754 24.5372 25.045C24.5372 23.336 25.9314 21.9418 27.6404 21.9418C29.3494 21.9418 30.7436 23.336 30.7436 25.045C30.7436 26.754 29.3494 28.1482 27.6404 28.1482ZM2.96828 31.291H13.3943C14.024 31.291 14.5187 30.7963 14.5187 30.1667C14.5187 29.5371 14.024 29.0423 13.3943 29.0423H2.96828C2.56351 29.0423 2.24869 28.7275 2.24869 28.3228V10.6032H34.495V11.2434C34.495 11.873 34.9897 12.3677 35.6193 12.3677C36.2489 12.3677 36.7437 11.873 36.7437 11.2434V4.39684C36.7437 2.7778 35.4394 1.42859 33.7754 1.42859H2.96828C1.34922 1.42859 0 2.73282 0 4.39684V28.3228C0 29.9418 1.34922 31.291 2.96828 31.291ZM2.96828 3.72224H33.7754C34.1801 3.72224 34.495 4.03705 34.495 4.44182V8.39949H2.24869V4.39684C2.24869 4.03705 2.56351 3.72224 2.96828 3.72224ZM7.33074 6.01589C7.33074 5.34129 7.87043 4.84658 8.50006 4.84658C9.1297 4.84658 9.66938 5.38626 9.66938 6.01589C9.66938 6.64552 9.1297 7.1852 8.50006 7.1852C7.87043 7.1852 7.33074 6.69049 7.33074 6.01589ZM11.2435 6.01589C11.2435 5.34129 11.7832 4.84658 12.4128 4.84658C13.0424 4.84658 13.5821 5.38626 13.5821 6.01589C13.5821 6.64552 13.0424 7.1852 12.4128 7.1852C11.7832 7.1852 11.2435 6.69049 11.2435 6.01589ZM3.41801 6.01589C3.41801 5.34129 3.9577 4.84658 4.58734 4.84658C5.26194 4.84658 5.75666 5.38626 5.75666 6.01589C5.75666 6.64552 5.21697 7.1852 4.58734 7.1852C3.9577 7.23018 3.41801 6.69049 3.41801 6.01589Z" fill="#911211"/>
</svg>
