<svg width="41" height="40" viewBox="0 0 41 40" fill="none" xmlns="http://www.w3.org/2000/svg">
<path d="M24.7538 33.8537H3.11113C2.52498 33.8537 2.07409 33.4028 2.07409 32.8166V13.8793H35.3948V20.1466C36.1613 20.4172 36.8376 20.7779 37.4688 21.2739V6.61993C37.4688 4.90655 36.0711 3.50879 34.3577 3.50879H3.11113C1.39775 3.50879 0 4.90655 0 6.61993V32.8166C0 34.53 1.39775 35.9278 3.11113 35.9278H26.7828C26.0163 35.3416 25.2948 34.6653 24.7538 33.8537ZM2.07409 6.61993C2.07409 6.03377 2.52498 5.58288 3.11113 5.58288H34.3577C34.9439 5.58288 35.3948 6.03377 35.3948 6.61993V11.8052H2.07409V6.61993Z" fill="#911211"/>
<path d="M5.3214 9.91137C5.99375 9.91137 6.5388 9.36632 6.5388 8.69396C6.5388 8.02161 5.99375 7.47656 5.3214 7.47656C4.64905 7.47656 4.104 8.02161 4.104 8.69396C4.104 9.36632 4.64905 9.91137 5.3214 9.91137Z" fill="#911211"/>
<path d="M9.10802 9.91137C9.78038 9.91137 10.3254 9.36632 10.3254 8.69396C10.3254 8.02161 9.78038 7.47656 9.10802 7.47656C8.43567 7.47656 7.89062 8.02161 7.89062 8.69396C7.89062 9.36632 8.43567 9.91137 9.10802 9.91137Z" fill="#911211"/>
<path d="M12.8946 9.91137C13.567 9.91137 14.112 9.36632 14.112 8.69396C14.112 8.02161 13.567 7.47656 12.8946 7.47656C12.2223 7.47656 11.6772 8.02161 11.6772 8.69396C11.6772 9.36632 12.2223 9.91137 12.8946 9.91137Z" fill="#911211"/>
<path d="M39.7105 34.7441L37.693 32.6815C38.5046 31.5542 39.0006 30.1565 39.0006 28.6685C39.0006 24.9262 35.9346 21.8601 32.1922 21.8601C28.4498 21.8601 25.3838 24.9262 25.3838 28.6685C25.3838 32.4109 28.4498 35.477 32.1922 35.477C33.6801 35.477 35.0779 34.981 36.2051 34.1694L38.2677 36.1869C38.6735 36.5927 39.3498 36.5927 39.7556 36.1869C40.1614 35.7811 40.1163 35.1499 39.7105 34.7441ZM27.4579 28.6685C27.4579 26.0534 29.5771 23.9342 32.1922 23.9342C34.8074 23.9342 36.9265 26.0534 36.9265 28.6685C36.9265 31.2837 34.8074 33.4029 32.1922 33.4029C29.5771 33.4029 27.4579 31.2837 27.4579 28.6685Z" fill="#911211"/>
<path d="M5.42785 19.277C6.1002 19.277 6.64525 18.7319 6.64525 18.0596C6.64525 17.3872 6.1002 16.8422 5.42785 16.8422C4.7555 16.8422 4.21045 17.3872 4.21045 18.0596C4.21045 18.7319 4.7555 19.277 5.42785 19.277Z" fill="#911211"/>
<rect x="8.75049" y="17.0068" width="18.2456" height="2.10526" rx="1.05263" fill="#911211"/>
<path d="M5.42785 24.1892C6.1002 24.1892 6.64525 23.6441 6.64525 22.9718C6.64525 22.2994 6.1002 21.7544 5.42785 21.7544C4.7555 21.7544 4.21045 22.2994 4.21045 22.9718C4.21045 23.6441 4.7555 24.1892 5.42785 24.1892Z" fill="#911211"/>
<rect x="8.75049" y="21.9191" width="13.3333" height="2.10526" rx="1.05263" fill="#911211"/>
<path d="M5.42785 29.1014C6.1002 29.1014 6.64525 28.5564 6.64525 27.884C6.64525 27.2117 6.1002 26.6666 5.42785 26.6666C4.7555 26.6666 4.21045 27.2117 4.21045 27.884C4.21045 28.5564 4.7555 29.1014 5.42785 29.1014Z" fill="#911211"/>
<rect x="8.75049" y="26.8314" width="13.3333" height="2.10526" rx="1.05263" fill="#911211"/>
</svg>
