<svg width="40" height="40" viewBox="0 0 40 40" fill="none" xmlns="http://www.w3.org/2000/svg">
<path d="M16.9867 0C10.3451 0 3.63672 1.74031 3.63672 5.0896V24.7913C3.63672 25.4151 3.90372 26.3346 5.07184 27.254C5.23871 27.3853 5.47234 27.451 5.67259 27.451C5.97296 27.451 6.27334 27.3196 6.47358 27.0569C6.80733 26.6301 6.70721 26.0062 6.27334 25.6778C5.83946 25.3495 5.60584 25.0539 5.60584 24.7913V21.0479C8.07558 22.5584 12.5478 23.3136 16.9533 23.3136C23.5949 23.3136 30.3033 21.5733 30.3033 18.224V5.25378C30.3033 5.22094 30.3033 5.22094 30.3033 5.1881C30.3033 5.15527 30.3033 5.12243 30.3033 5.0896C30.3366 1.74031 23.6283 0 16.9867 0ZM28.3341 18.224C28.3341 19.2748 24.3292 21.3435 16.9867 21.3435C9.6442 21.3435 5.63921 19.2748 5.63921 18.224V14.4807C8.10895 15.9912 12.5812 16.7464 16.9867 16.7464C21.3922 16.7464 25.8644 15.9583 28.3341 14.4807V18.224ZM28.3341 11.6568C28.3341 12.7076 24.3292 14.7762 16.9867 14.7762C9.6442 14.7762 5.63921 12.7076 5.63921 11.6568V7.9135C8.10895 9.42396 12.5812 10.1792 16.9867 10.1792C21.3922 10.1792 25.8644 9.39113 28.3341 7.9135V11.6568ZM16.9867 8.20903C9.6442 8.20903 5.63921 6.14035 5.63921 5.0896C5.63921 4.03884 9.6442 1.97017 16.9867 1.97017C24.3292 1.97017 28.3341 4.03884 28.3341 5.0896C28.3341 6.14035 24.3292 8.20903 16.9867 8.20903Z" fill="#911211"/>
<path d="M16.8729 36.0785C17.3729 36.0785 17.7553 35.5687 17.7553 34.9021C17.7553 34.2354 17.3729 33.7256 16.8729 33.7256H16.2847C15.7847 33.7256 15.4023 34.2354 15.4023 34.9021C15.4023 35.5687 15.7847 36.0785 16.2847 36.0785H16.8729Z" fill="#911211"/>
<path d="M30.5706 25.1305C30.3095 25.0981 30.081 25.0981 29.8199 25.0981C26.8175 25.0981 24.076 26.9118 22.9012 29.6322H12.8493C11.2175 29.6322 9.91211 30.9277 9.91211 32.547C9.91211 34.1663 11.2175 35.4618 12.8493 35.4618C13.4041 35.4618 13.8284 35.0408 13.8284 34.4902C13.8284 33.9396 13.4041 33.5186 12.8493 33.5186C12.2945 33.5186 11.8703 33.0976 11.8703 32.547C11.8703 31.9964 12.2945 31.5754 12.8493 31.5754H23.6191C23.7497 31.5754 23.8802 31.543 23.9455 31.5106C24.2066 31.4135 24.435 31.1868 24.5329 30.8953C25.3162 28.4339 27.7639 26.8146 30.3748 27.0737C31.8434 27.2356 33.1814 27.9158 34.1279 29.0493C35.0743 30.1828 35.4986 31.6078 35.368 33.0976C35.0743 36.1095 32.3329 38.3442 29.2978 38.0203C27.1112 37.7936 25.2509 36.3038 24.5656 34.2311C24.4677 33.972 24.3045 33.7777 24.076 33.6481C23.9781 33.551 23.8476 33.5186 23.6518 33.5186H21.3673C20.8125 33.5186 20.3882 33.9396 20.3882 34.4902C20.3882 35.0408 20.8125 35.4618 21.3673 35.4618H22.9338C24.0108 37.9555 26.3606 39.672 29.102 39.9635C31.0927 40.1578 33.0509 39.5748 34.6174 38.3118C36.1839 37.0487 37.1304 35.2675 37.3262 33.2919C37.522 31.3163 36.9346 29.3731 35.6618 27.8186C34.3563 26.2964 32.5614 25.3248 30.5706 25.1305Z" fill="#911211"/>
<path d="M32.6557 35.0327V30.8497C32.6557 30.2571 32.1459 29.804 31.4792 29.804C30.8125 29.804 30.3027 30.2571 30.3027 30.8497V35.0327C30.3027 35.6253 30.8125 36.0785 31.4792 36.0785C32.1459 36.0785 32.6557 35.6253 32.6557 35.0327Z" fill="#911211"/>
</svg>
