<svg width="40" height="40" viewBox="0 0 40 40" fill="none" xmlns="http://www.w3.org/2000/svg">
<path d="M27.2533 30.6667H25.9199V32.0001H27.2533V30.6667Z" fill="#911211"/>
<path d="M29.9193 31.3333H28.5859V32.6666H29.9193V31.3333Z" fill="#911211"/>
<path d="M27.2533 35.3334H25.9199V36.6667H27.2533V35.3334Z" fill="#911211"/>
<path d="M29.9193 36H28.5859V37.3333H29.9193V36Z" fill="#911211"/>
<path d="M35.9199 26H27.9199V27.3333H35.9199V26Z" fill="#911211"/>
<path d="M31.9199 22.6665C27.3599 22.6665 23.9199 24.3865 23.9199 26.6665V35.9998C23.9199 38.2798 27.3599 39.9998 31.9199 39.9998C36.4799 39.9998 39.9199 38.2798 39.9199 35.9998V26.6665C39.9199 24.3865 36.4799 22.6665 31.9199 22.6665ZM38.5866 35.9998C38.5866 37.2598 35.7333 38.6665 31.9199 38.6665C28.1066 38.6665 25.2533 37.2598 25.2533 35.9998V33.6065C26.6599 34.6598 29.0733 35.3332 31.9199 35.3332C34.7666 35.3332 37.1799 34.6598 38.5866 33.6065V35.9998ZM38.5866 31.3332C38.5866 32.5932 35.7333 33.9998 31.9199 33.9998C28.1066 33.9998 25.2533 32.5932 25.2533 31.3332V28.9398C26.6599 29.9932 29.0733 30.6665 31.9199 30.6665C34.7666 30.6665 37.1799 29.9932 38.5866 28.9398V31.3332ZM31.9199 29.3332C28.1066 29.3332 25.2533 27.9265 25.2533 26.6665C25.2533 25.4065 28.1066 23.9998 31.9199 23.9998C35.7333 23.9998 38.5866 25.4065 38.5866 26.6665C38.5866 27.9265 35.7333 29.3332 31.9199 29.3332Z" fill="#911211"/>
<path d="M27.2533 7.99997H25.9199V9.3333H27.2533V7.99997Z" fill="#911211"/>
<path d="M29.9193 8.66675H28.5859V10.0001H29.9193V8.66675Z" fill="#911211"/>
<path d="M27.2533 12.6666H25.9199V13.9999H27.2533V12.6666Z" fill="#911211"/>
<path d="M29.9193 13.3333H28.5859V14.6666H29.9193V13.3333Z" fill="#911211"/>
<path d="M35.9199 3.33325H27.9199V4.66659H35.9199V3.33325Z" fill="#911211"/>
<path d="M31.9199 0C27.3599 0 23.9199 1.72 23.9199 4V13.3333C23.9199 15.6133 27.3599 17.3333 31.9199 17.3333C36.4799 17.3333 39.9199 15.6133 39.9199 13.3333V4C39.9199 1.72 36.4799 0 31.9199 0ZM38.5866 13.3333C38.5866 14.5933 35.7333 16 31.9199 16C28.1066 16 25.2533 14.5933 25.2533 13.3333V10.94C26.6599 11.9933 29.0733 12.6667 31.9199 12.6667C34.7666 12.6667 37.1799 11.9933 38.5866 10.94V13.3333ZM38.5866 8.66667C38.5866 9.92667 35.7333 11.3333 31.9199 11.3333C28.1066 11.3333 25.2533 9.92667 25.2533 8.66667V6.27333C26.6599 7.32667 29.0733 8 31.9199 8C34.7666 8 37.1799 7.32667 38.5866 6.27333V8.66667ZM31.9199 6.66667C28.1066 6.66667 25.2533 5.26 25.2533 4C25.2533 2.74 28.1066 1.33333 31.9199 1.33333C35.7333 1.33333 38.5866 2.74 38.5866 4C38.5866 5.26 35.7333 6.66667 31.9199 6.66667Z" fill="#911211"/>
<path d="M6.40124 22.9987C6.57397 22.8363 6.54045 22.536 6.3239 22.3057C6.10734 22.0754 5.80965 22.0235 5.63692 22.1859L5.43372 22.377C5.26099 22.5394 5.29451 22.8397 5.51107 23.07C5.72762 23.3003 6.02531 23.3522 6.19804 23.1898L6.40124 22.9987Z" fill="#911211" stroke="#911211" stroke-width="0.514834"/>
<path d="M7.57673 14.7666C7.47602 14.8402 7.3971 14.9144 7.3069 14.9992C6.26968 15.9745 5.91179 17.4916 6.38962 18.813L2.91719 22.0782C2.35349 22.6083 2.32333 23.4798 2.84934 24.0392C3.37536 24.5986 4.24713 24.6221 4.81084 24.092C5.0025 23.9118 5.0123 23.6285 4.83345 23.4383C4.65461 23.2481 4.37128 23.2405 4.17962 23.4207C3.98796 23.601 3.70463 23.5933 3.52579 23.4031C3.34695 23.2129 3.35675 22.9297 3.54841 22.7495L7.26887 19.251C7.31396 19.2086 7.34854 19.155 7.36057 19.1227C7.4192 19.0043 7.42448 18.8518 7.36362 18.7193C6.83466 17.6145 7.15421 16.2601 8.1403 15.5015C8.70023 15.0803 9.3834 14.8806 10.0786 14.9648C10.7737 15.0489 11.3832 15.4034 11.822 15.9604C12.6989 17.0963 12.4778 18.7588 11.3241 19.6328C10.4951 20.2648 9.36853 20.3544 8.45848 19.861C8.34049 19.8033 8.221 19.7892 8.1 19.8187C8.03462 19.8169 7.979 19.8481 7.91136 19.9117L7.12217 20.6538C6.93051 20.834 6.92071 21.1173 7.09955 21.3075C7.2784 21.4977 7.56172 21.5053 7.75338 21.3251L8.29454 20.8162C9.47665 21.3279 10.846 21.1575 11.8877 20.3677C12.6385 19.7882 13.1256 18.9507 13.2565 18.0055C13.3873 17.0603 13.1357 16.1375 12.5616 15.3915C11.9875 14.6454 11.1533 14.1649 10.2087 14.0414C9.26326 13.9396 8.32757 14.187 7.57673 14.7666Z" fill="#911211" stroke="#911211" stroke-width="0.514834"/>
<path d="M10.9488 17.7546L9.59003 16.3096C9.39753 16.1049 9.07422 16.1139 8.84391 16.3305C8.61361 16.547 8.5847 16.8692 8.7772 17.0739L10.136 18.5189C10.3285 18.7236 10.6518 18.7146 10.8821 18.498C11.1124 18.2815 11.1413 17.9593 10.9488 17.7546Z" fill="#911211" stroke="#911211" stroke-width="0.514834"/>
<path d="M18.5866 9.33337V18.1227C18.3078 18.2223 18.0545 18.3826 17.8452 18.5919C17.6358 18.8013 17.4755 19.0545 17.3759 19.3334H15.9199V20.6667H17.3759C17.4755 20.9455 17.6358 21.1988 17.8452 21.4081C18.0545 21.6175 18.3078 21.7778 18.5866 21.8774V30.6667C18.5866 30.8435 18.6568 31.0131 18.7819 31.1381C18.9069 31.2631 19.0764 31.3334 19.2533 31.3334H22.5866V30H19.9199V21.8774C20.3096 21.7416 20.6474 21.4879 20.8864 21.1515C21.1255 20.8151 21.2539 20.4127 21.2539 20C21.2539 19.5874 21.1255 19.1849 20.8864 18.8485C20.6474 18.5121 20.3096 18.2585 19.9199 18.1227V10H22.5866V8.6667H19.2533C19.0764 8.6667 18.9069 8.73694 18.7819 8.86196C18.6568 8.98699 18.5866 9.15656 18.5866 9.33337ZM19.2533 20.6667C19.1214 20.6667 18.9925 20.6276 18.8829 20.5543C18.7732 20.4811 18.6878 20.377 18.6373 20.2552C18.5869 20.1333 18.5737 19.9993 18.5994 19.87C18.6251 19.7407 18.6886 19.6219 18.7819 19.5286C18.8751 19.4354 18.9939 19.3719 19.1232 19.3462C19.2525 19.3205 19.3866 19.3337 19.5084 19.3841C19.6302 19.4346 19.7343 19.52 19.8076 19.6297C19.8808 19.7393 19.9199 19.8682 19.9199 20C19.9199 20.1768 19.8497 20.3464 19.7247 20.4714C19.5996 20.5965 19.4301 20.6667 19.2533 20.6667Z" fill="#911211"/>
</svg>
