<svg width="189" height="193" viewBox="0 0 189 193" fill="none" xmlns="http://www.w3.org/2000/svg">
<path d="M185.2 109.68C188.093 110.903 189.666 113.995 188.729 117.01C186.861 123.044 184.921 129.064 182.877 135.041C181.718 138.424 178.577 139.89 175.074 138.9C173.719 138.517 172.384 138.046 171.369 137.719C166.728 144.117 162.195 150.369 157.513 156.828C158.056 157.605 158.879 158.75 159.676 159.921C161.854 163.132 161.388 166.504 158.31 168.799C153.446 172.425 148.535 175.994 143.594 179.511C140.391 181.796 136.987 181.184 134.601 178.03C133.789 176.952 133.008 175.854 132.356 174.958C127.078 176.776 121.992 178.574 116.874 180.267C115.105 180.848 113.268 181.314 111.426 181.568C110.111 181.749 109.853 182.345 109.925 183.479C109.987 184.51 109.961 185.551 109.92 186.582C109.78 189.876 107.25 192.487 103.959 192.523C97.6311 192.596 91.3082 192.596 84.9801 192.523C81.6996 192.487 79.159 189.85 79.0452 186.561C78.9883 185.028 79.0348 183.489 79.0348 182.07C75.0921 181.003 71.3252 180.138 67.667 178.947C64.0606 177.776 60.5628 176.279 56.7804 174.834C56.087 175.751 55.285 176.812 54.4778 177.88C51.9424 181.236 48.5792 181.827 45.2056 179.408C40.4297 175.984 35.6849 172.523 30.9557 169.037C27.4941 166.484 27.0077 163.127 29.5069 159.599C30.252 158.548 30.9971 157.507 31.7887 156.398C26.6093 150.907 22.206 144.956 18.5375 138.46C18.3357 138.097 17.4923 137.859 17.0059 137.942C16.0021 138.108 15.0448 138.553 14.0514 138.843C10.2949 139.936 7.13858 138.362 5.91228 134.673C4.02368 128.981 2.18164 123.272 0.381 117.554C-0.819427 113.757 0.872554 110.597 4.67046 109.328C8.35453 108.095 8.22 108.095 8.15791 104.241C8.04407 97.8025 8.12686 91.3587 8.12686 84.6455C7.12305 84.3036 5.7881 83.8788 4.46866 83.4023C0.820812 82.0917 -0.788381 78.9371 0.386175 75.2283C2.19199 69.5096 4.02885 63.7961 5.92263 58.1085C7.14893 54.4152 10.3156 52.8561 14.0669 53.9749C15.3605 54.3582 16.6385 54.783 17.5906 55.0834C22.2267 48.6862 26.7593 42.4392 31.4472 35.9746C30.9039 35.2028 30.076 34.0528 29.2844 32.8873C27.106 29.6706 27.5665 26.3036 30.6504 24.0089C35.5659 20.3467 40.5229 16.731 45.5212 13.1828C48.5481 11.0434 51.9528 11.6702 54.2346 14.628C55.0987 15.7468 55.9163 16.902 56.7545 18.0416C60.0143 16.7518 63.124 15.348 66.3528 14.2965C69.9592 13.1206 73.6485 12.1675 77.348 11.318C78.7192 11.002 79.1745 10.4788 79.04 9.13722C78.9365 8.11677 78.9883 7.07043 79.0452 6.03961C79.2263 2.93164 81.6892 0.341647 84.7886 0.295027C91.2409 0.201788 97.6984 0.201788 104.151 0.295027C107.317 0.341647 109.796 3.01451 109.915 6.22608C109.972 7.76453 109.925 9.30299 109.925 10.3804C117.552 12.8668 124.868 15.2496 132.423 17.71C133.028 16.8968 133.851 15.752 134.715 14.6331C137.002 11.6702 140.396 11.0331 143.423 13.1776C148.479 16.7621 153.487 20.4088 158.444 24.128C161.347 26.3036 161.807 29.7017 159.789 32.7216C158.972 33.9492 158.077 35.1303 157.28 36.2439C159.795 39.3623 162.34 42.289 164.612 45.4073C166.852 48.479 168.813 51.7475 171.033 55.1352C172.218 54.7778 173.548 54.3634 174.888 53.9697C178.629 52.8664 181.811 54.4308 183.037 58.1137C184.952 63.8635 186.809 69.6339 188.62 75.42C189.723 78.9579 188.134 82.014 184.662 83.3297C183.291 83.8529 181.34 84.0187 180.719 85.0132C180.088 86.0233 180.875 87.857 180.859 89.3281C180.802 95.1297 180.714 100.931 180.523 106.733C180.492 107.795 180.74 108.235 181.728 108.499C182.908 108.815 184.077 109.209 185.2 109.68ZM179.307 78.4969C180.388 78.1394 181.459 77.7406 182.686 77.3054C180.761 71.4003 178.898 65.6816 177.015 59.906C175.39 60.4033 174.112 60.8332 172.808 61.1906C169.765 62.0298 167.018 61.0767 165.486 58.3572C161.885 51.9651 157.642 46.0703 152.659 40.6728C150.367 38.1864 150.336 35.3167 152.24 32.4988C152.985 31.3903 153.777 30.3077 154.657 29.0593C149.638 25.4127 144.769 21.8747 139.827 18.2902C138.875 19.5748 138.13 20.6264 137.338 21.6416C135.274 24.299 132.444 25.1796 129.437 23.781C122.85 20.7093 116.01 18.5181 108.895 17.0677C105.465 16.3684 103.757 14.0478 103.711 10.5669C103.695 9.24082 103.711 7.91994 103.711 6.61977H85.2491C85.2491 7.89922 85.2543 9.04915 85.2491 10.1991C85.2233 14.1255 83.4847 16.4409 79.6661 17.1869C72.7895 18.5233 66.213 20.7093 59.8487 23.6256C56.4854 25.1692 53.7638 24.4025 51.4819 21.4603C50.7058 20.4554 49.9504 19.435 49.1018 18.3057C44.4553 21.6831 39.9692 24.9361 35.4883 28.2046C35.1313 28.4636 34.8208 28.79 34.3914 29.1785C35.2348 30.3802 36.0782 31.5146 36.8491 32.6905C38.5929 35.3478 38.5618 38.2331 36.4145 40.5537C31.3437 46.0392 27.0336 52.048 23.3495 58.5385C21.9007 61.087 19.1687 62.0039 16.3177 61.2372C14.9051 60.8591 13.5133 60.4084 11.9144 59.9319C10.0103 65.8215 8.15791 71.5453 6.27448 77.3573C7.53182 77.7872 8.50458 78.1187 9.47217 78.445C13.684 79.8695 15.0759 82.2989 14.6671 86.7019C14.2842 90.8769 14.0824 95.0779 14.0566 99.2685C14.041 101.967 14.5585 104.671 14.7137 107.375C14.9051 110.695 13.3839 112.928 10.2845 114.088C9.03235 114.555 7.75431 114.964 6.27448 115.477C8.1786 121.345 10.031 127.069 11.9248 132.912C13.4719 132.431 14.7499 132.001 16.0383 131.638C19.1791 130.757 21.9318 131.716 23.5099 134.528C27.075 140.869 31.2972 146.701 36.2282 152.047C38.598 154.616 38.6394 157.481 36.6732 160.382C35.9281 161.48 35.1572 162.562 34.3241 163.759C39.3431 167.411 44.1759 170.923 49.1173 174.518C50.1056 173.197 50.9179 172.042 51.8027 170.944C53.7276 168.55 56.501 167.665 59.2433 168.929C66.0164 172.052 73.0482 174.285 80.3388 175.823C83.5313 176.491 85.187 178.838 85.2439 182.143C85.2698 183.474 85.2491 184.81 85.2491 186.157H103.706C103.706 184.836 103.701 183.676 103.711 182.521C103.737 178.698 105.465 176.367 109.18 175.647C116.124 174.295 122.768 172.104 129.184 169.141C132.428 167.639 135.227 168.431 137.406 171.249C138.213 172.301 139.004 173.363 139.869 174.507C144.908 170.835 149.741 167.318 154.667 163.728C153.741 162.417 152.934 161.335 152.188 160.216C150.357 157.455 150.388 154.627 152.618 152.197C157.632 146.748 161.906 140.796 165.548 134.352C167.044 131.711 169.781 130.778 172.725 131.581C174.127 131.964 175.519 132.405 177.046 132.855C178.955 126.966 180.797 121.283 182.691 115.43C181.268 114.959 180.047 114.586 178.846 114.156C175.638 113.016 174.086 110.752 174.241 107.365C174.293 106.142 174.609 104.92 174.593 103.703C174.521 97.8388 174.474 91.9699 174.231 86.1114C174.065 82.0814 175.488 79.7452 179.307 78.4969Z" fill="#282828"/>
<path d="M94.4489 24.9672C133.928 24.9931 165.843 56.9897 165.828 96.5386C165.817 136.176 133.789 167.887 93.8125 167.841C54.7986 167.794 23.0804 135.554 23.127 95.9896C23.1736 56.8705 55.2332 24.9413 94.4489 24.9672ZM94.3299 161.609C130.369 161.604 159.624 132.332 159.608 96.2848C159.588 60.5276 130.369 31.2194 94.7076 31.1987C58.5965 31.1728 29.3413 60.3566 29.3516 96.4091C29.362 132.296 58.581 161.614 94.3299 161.609Z" fill="#282828"/>
<path d="M137.938 68.2405C140.949 74.819 139.025 82.7288 133.209 86.966C131.936 87.8932 131.584 88.8308 131.594 90.3071C131.651 100.19 131.672 110.074 131.563 119.957C131.548 121.325 130.948 122.806 130.239 124.018C129.24 125.733 127.91 127.261 126.679 128.841C124.971 131.042 122.917 131.084 121.236 128.939C119.849 127.163 118.416 125.396 117.21 123.495C116.631 122.578 116.175 121.32 116.289 120.284C116.579 117.642 115.73 115.673 113.65 114.114C113.138 113.731 112.708 113.228 112.284 112.747C110.872 111.156 110.851 109.675 112.346 108.131C113.148 107.297 114.121 106.634 115.497 105.5C114.038 104.267 113.014 103.563 112.186 102.672C110.877 101.263 110.928 99.8123 112.186 98.3412C112.476 97.9994 112.776 97.6367 113.138 97.3829C115.777 95.5389 116.631 93.0421 116.284 89.872C116.144 88.5874 115.756 87.8415 114.757 87.0645C109.526 82.9878 107.426 77.58 108.947 71.1361C110.427 64.8735 114.54 60.9316 120.873 59.5641C127.895 58.0411 134.937 61.6827 137.938 68.2405ZM128.707 82.5164C132.412 80.6309 133.959 76.2228 132.857 72.198C131.755 68.1835 128.159 65.4019 124.019 65.3708C119.771 65.3397 116.098 68.1058 114.985 72.1876C113.883 76.2228 115.409 80.6465 119.124 82.5061C121.862 83.8736 122.731 85.7384 122.384 88.5407C122.307 89.1779 122.353 89.8306 122.379 90.4781C122.508 94.2542 122.928 98.1288 118.964 100.128C120.201 102.071 122.115 103.759 122.126 105.464C122.136 107.158 120.237 108.862 118.974 110.882C122.467 112.622 122.617 116.036 122.446 119.657C122.41 120.413 123.191 121.211 123.595 121.988C123.869 122.008 124.149 122.029 124.428 122.045C124.775 120.9 125.411 119.755 125.422 118.605C125.499 108.525 125.551 98.4396 125.416 88.3646C125.38 85.5934 126.094 83.8477 128.707 82.5164Z" fill="#282828"/>
<path d="M127.006 71.5661C127.006 73.2444 125.603 74.6637 123.932 74.6689C122.256 74.6741 120.843 73.2703 120.838 71.5868C120.833 69.9085 122.235 68.4996 123.911 68.4892C125.583 68.4892 126.995 69.893 127.006 71.5661Z" fill="#282828"/>
<path d="M98.2104 90.2242C103.379 89.8409 103.809 91.5348 103.762 95.9326C103.659 106.018 103.731 116.103 103.731 126.184C103.731 129.55 102.815 130.488 99.5402 130.488C85.787 130.493 72.0338 130.493 58.2806 130.488C55.2227 130.488 54.2396 129.499 54.2396 126.432C54.2344 115.891 54.2344 105.355 54.2344 94.8189C54.2344 91.0582 54.995 90.2864 58.7308 90.2398C59.2327 90.2346 59.7346 90.1932 60.4331 90.1621C60.4331 86.0647 60.4176 82.0762 60.4383 78.0876C60.4849 68.5617 66.7043 61.1647 76.0697 59.4708C86.7183 57.5439 97.1652 65.982 97.4911 76.8703C97.6205 81.2474 97.5118 85.6348 97.5118 90.0947C97.9568 90.1828 98.0862 90.2346 98.2104 90.2242ZM97.3877 124.055V96.6474H60.6142V124.055H97.3877ZM91.339 90.1517C91.339 85.4639 91.6598 80.8692 91.2613 76.3368C90.718 70.126 85.5024 65.5469 79.4433 65.3449C73.3067 65.1377 67.6926 69.2765 66.932 75.4406C66.3421 80.2476 66.813 85.1842 66.813 90.1517H91.339Z" fill="#282828"/>
<path d="M82.0619 105.785V114.984H75.9355V105.785H82.0619Z" fill="#282828"/>
</svg>
