<svg width="41" height="40" viewBox="0 0 41 40" fill="none" xmlns="http://www.w3.org/2000/svg">
<path d="M39.1811 16.9999L33.7631 15.7256C33.5436 15.0336 33.2567 14.3332 32.9023 13.6411L35.8307 8.91527C36.0079 8.62835 35.9657 8.25703 35.7294 8.01229L32.4887 4.77169C32.2524 4.52696 31.8727 4.4932 31.5857 4.67042L26.8597 7.59878C26.1677 7.24434 25.4672 6.95741 24.7752 6.73799L23.5009 1.32012C23.4249 0.990994 23.1295 0.7547 22.792 0.7547H18.2094C17.8719 0.7547 17.5765 0.990994 17.5005 1.32012L16.2262 6.73799C15.5342 6.95741 14.8337 7.24434 14.1417 7.59878L9.41568 4.67042C9.12875 4.4932 8.75742 4.5354 8.51268 4.77169L5.27199 8.01229C5.03569 8.24859 4.98505 8.62835 5.17072 8.91527L8.09915 13.6411C7.7447 14.3332 7.45777 15.0336 7.23835 15.7256L1.82032 16.9999C1.49118 17.0758 1.25488 17.3712 1.25488 17.7088V22.2912C1.25488 22.6287 1.49118 22.9241 1.82032 23.0001L7.23835 24.2744C7.45777 24.9664 7.7447 25.6668 8.09915 26.3588L5.17072 31.0847C4.99349 31.3716 5.03569 31.7429 5.27199 31.9877L8.51268 35.2283C8.74898 35.473 9.12875 35.5152 9.41568 35.3295L14.1417 32.4012C14.8337 32.7556 15.5342 33.0426 16.2262 33.262L17.5005 38.6798C17.5765 39.009 17.8719 39.2453 18.2094 39.2453H22.792C23.1295 39.2453 23.4249 39.009 23.5009 38.6798L24.7752 33.262C25.4672 33.0426 26.1677 32.7556 26.8597 32.4012L31.5857 35.3295C31.8727 35.5068 32.2524 35.4646 32.4887 35.2283L35.7294 31.9877C35.9657 31.7514 36.0164 31.3716 35.8307 31.0847L32.9023 26.3588C33.2567 25.6668 33.5436 24.9664 33.7631 24.2744L39.1811 23.0001C39.5102 22.9241 39.7465 22.6287 39.7465 22.2912V17.7088C39.7465 17.3712 39.5187 17.0758 39.1811 16.9999ZM38.2865 21.7173L33.0204 22.9579C32.7588 23.0169 32.5562 23.2195 32.4803 23.4727C32.244 24.325 31.8895 25.1858 31.4169 26.0466C31.2903 26.2744 31.2988 26.5614 31.4338 26.7808L34.2779 31.3716L31.8558 33.7936L27.2648 30.9497C27.0369 30.8062 26.7584 30.8062 26.5306 30.9328C25.6698 31.4054 24.809 31.7598 23.9566 31.9961C23.695 32.0636 23.5009 32.2746 23.4418 32.5362L22.2012 37.8022H18.7749L17.5343 32.5362C17.4752 32.2746 17.2727 32.0721 17.0195 31.9961C16.1671 31.7598 15.3063 31.4054 14.4455 30.9328C14.2176 30.8062 13.9391 30.8146 13.7113 30.9497L9.12031 33.7936L6.69823 31.3716L9.54227 26.7808C9.6773 26.5529 9.68574 26.2744 9.55915 26.0466C9.08655 25.1858 8.7321 24.325 8.4958 23.4727C8.42829 23.211 8.2173 23.0169 7.95569 22.9579L2.68956 21.7173V18.2911L7.95569 17.0505C8.2173 16.9915 8.41985 16.7889 8.4958 16.5357C8.7321 15.6834 9.08655 14.8226 9.55915 13.9618C9.68574 13.734 9.6773 13.4471 9.54227 13.2276L6.69823 8.63678L9.12031 6.21477L13.7113 9.05874C13.9391 9.19376 14.2176 9.2022 14.4455 9.07561C15.3063 8.60303 16.1756 8.24859 17.0195 8.01229C17.2811 7.94478 17.4752 7.73381 17.5343 7.47219L18.7749 2.20622H22.2012L23.4418 7.47219C23.5009 7.73381 23.7034 7.93634 23.9566 8.01229C24.809 8.24859 25.6698 8.60303 26.5306 9.07561C26.7584 9.2022 27.0454 9.19376 27.2648 9.05874L31.8558 6.21477L34.2779 8.63678L31.4338 13.2276C31.2988 13.4471 31.2903 13.734 31.4169 13.9618C31.8895 14.8226 32.244 15.6834 32.4803 16.5357C32.5478 16.7974 32.7588 16.9915 33.0204 17.0505L38.2865 18.2911V21.7173Z" fill="#911211" stroke="#911211" stroke-width="0.45283"/>
<path d="M20.8776 9.05658C15.048 9.05658 10.3115 13.7931 10.3115 19.6226C10.3115 25.4522 15.048 30.1887 20.8776 30.1887C26.7071 30.1887 31.4436 25.4522 31.4436 19.6226C31.4436 13.7931 26.7071 9.05658 20.8776 9.05658ZM20.8776 28.5203C15.9685 28.5203 11.9798 24.5317 11.9798 19.6226C11.9798 14.7135 15.9685 10.7249 20.8776 10.7249C25.7866 10.7249 29.7753 14.7135 29.7753 19.6226C29.7753 24.5317 25.7866 28.5203 20.8776 28.5203Z" fill="#911211" stroke="#911211" stroke-width="0.45283"/>
<path d="M19.8317 22.8855C19.998 22.7292 19.9657 22.4402 19.7573 22.2186C19.5489 21.997 19.2625 21.947 19.0963 22.1033L18.9007 22.2872C18.7345 22.4435 18.7668 22.7325 18.9752 22.9541C19.1835 23.1757 19.47 23.2256 19.6362 23.0693L19.8317 22.8855Z" fill="#911211" stroke="#911211" stroke-width="0.388554"/>
<path d="M20.9623 14.964C20.8654 15.0349 20.7894 15.1063 20.7027 15.1879C19.7046 16.1264 19.3602 17.5862 19.82 18.8578L16.4786 21.9997C15.9362 22.5098 15.9071 23.3485 16.4133 23.8868C16.9195 24.4251 17.7583 24.4476 18.3008 23.9376C18.4852 23.7642 18.4946 23.4916 18.3225 23.3086C18.1505 23.1256 17.8778 23.1182 17.6934 23.2916C17.509 23.4651 17.2363 23.4577 17.0642 23.2747C16.8921 23.0917 16.9016 22.8191 17.086 22.6457L20.6661 19.2793C20.7095 19.2385 20.7427 19.1869 20.7543 19.1557C20.8107 19.0418 20.8158 18.8951 20.7572 18.7676C20.2482 17.7045 20.5557 16.4012 21.5046 15.6712C22.0434 15.266 22.7008 15.0738 23.3697 15.1548C24.0386 15.2357 24.6251 15.5768 25.0474 16.1128C25.8912 17.2059 25.6784 18.8056 24.5683 19.6467C23.7705 20.2548 22.6865 20.341 21.8108 19.8662C21.6972 19.8107 21.5823 19.7971 21.4658 19.8255C21.4029 19.8238 21.3494 19.8538 21.2843 19.915L20.5249 20.6291C20.3405 20.8025 20.331 21.0751 20.5031 21.2581C20.6752 21.4411 20.9479 21.4485 21.1323 21.2751L21.653 20.7854C22.7905 21.2777 24.1082 21.1138 25.1106 20.3538C25.8331 19.7961 26.3018 18.9903 26.4277 18.0807C26.5536 17.1712 26.3115 16.2833 25.759 15.5654C25.2066 14.8474 24.4039 14.3851 23.4949 14.2662C22.5852 14.1683 21.6848 14.4064 20.9623 14.964Z" fill="#911211" stroke="#911211" stroke-width="0.388554"/>
<path d="M24.2081 17.8393L22.9005 16.4488C22.7153 16.2518 22.4042 16.2605 22.1826 16.4689C21.961 16.6773 21.9332 16.9873 22.1184 17.1843L23.4259 18.5748C23.6111 18.7718 23.9222 18.7631 24.1439 18.5547C24.3655 18.3463 24.3933 18.0363 24.2081 17.8393Z" fill="#911211" stroke="#911211" stroke-width="0.388554"/>
</svg>
