<svg width="140" height="193" viewBox="0 0 140 193" fill="none" xmlns="http://www.w3.org/2000/svg">
<path d="M11.913 16.7873C9.70097 16.8286 8.06778 18.5421 8.10913 20.7769C8.15047 22.9291 9.98006 24.7201 12.0887 24.6582C14.2388 24.5911 15.9288 22.7898 15.8875 20.6014C15.8461 18.3769 14.1457 16.746 11.913 16.7873ZM48.1431 37.9845C46.1429 34.0413 44.1221 30.1136 42.215 26.1291C41.6827 25.0194 41.078 24.6272 39.8324 24.6427C34.4005 24.7201 28.9685 24.6788 23.4229 24.6788C23.2369 25.0453 23.0456 25.4168 22.8596 25.7885C20.601 30.3252 16.1407 32.9987 11.3755 32.6684C6.11931 32.3071 2.05183 29.1433 0.423804 24.173C0.315269 23.8324 0.144714 23.5124 0 23.182V18.3098C0.93547 15.6466 2.10351 13.1434 4.40859 11.3215C10.347 6.62477 18.9833 8.31251 22.503 15.0118C23.2162 16.3641 24.0069 16.6737 25.3869 16.6582C31.253 16.5963 37.1242 16.6995 42.9903 16.6014C45.347 16.5602 46.913 17.4376 47.9415 19.5072C49.9055 23.4607 51.9315 27.3833 53.8644 31.3575C54.3038 32.2607 54.7896 32.6426 55.8284 32.6116C58.3867 32.5291 60.9502 32.5549 63.5086 32.591C66.1806 32.6323 67.9533 34.2529 67.9947 36.5961C68.0309 39.0219 66.2219 40.7096 63.4569 40.7354C59.8959 40.7664 56.3349 40.6529 52.7791 40.7767C50.5309 40.8542 49.0992 39.8632 48.1431 37.9845Z" fill="#282828"/>
<path d="M12.0939 96.6059C9.9904 96.544 8.15047 98.335 8.10913 100.487C8.06261 102.722 9.70098 104.436 11.9079 104.477C14.1509 104.518 15.8461 102.892 15.8875 100.668C15.9288 98.4795 14.2388 96.673 12.0939 96.6059ZM56.3659 88.637C54.8464 88.5389 54.1797 89.1428 53.5698 90.4176C51.7248 94.2989 49.7091 98.0924 47.8433 101.963C47.0577 103.589 45.9517 104.492 44.0911 104.503C37.8529 104.523 31.6147 104.627 25.3714 104.606C23.9863 104.601 23.2162 104.916 22.4978 106.252C20.1307 110.66 16.2338 112.879 11.2773 112.57C6.17617 112.245 2.55833 109.514 0.671884 104.678C0.444477 104.1 0.222239 103.527 0 102.949V98.0821C0.160219 97.695 0.346279 97.3079 0.480656 96.9105C2.13452 92.0537 6.22268 88.8434 11.3807 88.6267C16.5594 88.4099 20.3426 90.7789 22.7872 95.3156C22.9939 95.6976 23.1697 96.095 23.4022 96.5853C29.1184 96.5853 34.8553 96.6111 40.5921 96.5337C41.078 96.5285 41.7447 95.9247 41.9979 95.4292C44.0653 91.455 46.1068 87.4654 48.0294 83.4241C48.9855 81.4164 50.5205 80.539 52.624 80.5235C56.3659 80.4926 60.113 80.4616 63.86 80.5493C66.3563 80.6061 68.0412 82.4022 67.9947 84.6989C67.943 86.9131 66.2633 88.5854 63.8548 88.6576C61.3585 88.7299 58.8519 88.7918 56.3659 88.637Z" fill="#282828"/>
<path d="M28.0484 56.7456C25.8622 56.725 24.0584 58.4385 24.0222 60.5856C23.986 62.7017 25.7795 64.503 27.945 64.5236C30.1777 64.5494 31.8781 62.8927 31.8988 60.6837C31.9246 58.454 30.2759 56.7714 28.0484 56.7456ZM41.0467 64.6836C39.8373 64.6733 39.1861 64.9933 38.6124 66.1236C36.0748 71.1197 30.5653 73.6177 25.2523 72.3119C19.7377 70.9597 15.9596 66.2733 15.8976 60.6991C15.8407 55.1353 19.6963 50.3095 25.3091 48.9418C30.6015 47.6515 36.0748 50.165 38.6331 55.1972C39.1706 56.2605 39.7702 56.6011 40.9175 56.5805C44.6646 56.5082 48.4168 56.5547 52.1638 56.5547C55.9109 56.5547 59.5391 56.5392 63.2241 56.5598C66.1597 56.5701 68.01 58.1856 67.9945 60.663C67.9738 63.1352 66.1339 64.6991 63.1672 64.7043C55.792 64.7197 48.4168 64.7404 41.0467 64.6836Z" fill="#282828"/>
<path d="M96.2657 192.445C94.4051 192.445 92.5083 192.352 90.5805 192.166C72.1605 190.396 56.3247 176.574 52.5983 155.439C49.3681 137.153 57.7357 119.646 74.1141 110.386C75.4734 109.617 75.9799 108.807 75.9748 107.202C75.8766 80.4254 75.8455 53.6489 75.8352 26.8723C75.83 23.3782 76.0471 19.8892 76.1298 16.395C76.1608 14.9705 76.7603 13.995 77.9284 13.1331C83.4844 9.04022 88.9783 4.8596 94.4929 0.709961H97.4906C101.253 5.18992 105.036 9.65441 108.773 14.1653C110.763 16.5653 112.67 19.0375 114.603 21.484C116.52 23.9149 116.629 24.684 115.006 27.3626C113.554 29.7575 111.931 32.0542 110.391 34.3974C110.019 34.96 109.657 35.5329 109.155 36.3122C110.861 37.9432 112.546 39.5174 114.184 41.138C116.407 43.3367 116.567 45.0089 114.867 47.5844C113.254 50.0308 111.667 52.4927 109.988 54.8979C109.373 55.7753 109.336 56.3379 110.174 57.0966C111.698 58.485 113.125 59.9766 114.556 61.4578C116.293 63.254 116.469 65.0759 115.094 67.1971C113.435 69.7571 111.771 72.3222 110.013 74.8203C109.326 75.7958 109.409 76.4048 110.277 77.1738C111.59 78.33 112.773 79.6254 114.04 80.828C115.482 82.2009 116.091 83.8267 116.071 85.8447C116.004 93.1427 116.066 100.446 116.029 107.749C116.024 108.848 116.257 109.535 117.332 110.118C143.566 124.332 146.135 156.946 129.643 176.956C120.789 187.702 109.435 192.445 96.2657 192.445ZM131.963 149.922C132.625 135.857 124.345 122.123 111.368 116.167C108.835 115.006 107.962 113.37 107.977 110.82C108.013 105.581 107.967 100.338 107.951 95.0937C107.946 92.1673 108.706 88.926 107.698 86.3918C106.721 83.9247 103.925 82.1854 101.93 80.1209C99.5114 77.6228 99.3667 76.0951 101.289 73.1945C103.098 70.4539 104.923 67.7236 106.84 64.8333C105.062 63.1198 103.377 61.5456 101.744 59.9146C99.5631 57.7366 99.4287 56.0643 101.15 53.4476C102.995 50.6502 104.85 47.8579 106.856 44.8283C105.166 43.2231 103.517 41.7057 101.925 40.1316C99.5321 37.7677 99.377 36.1677 101.212 33.3858C103.124 30.4852 105.042 27.5846 106.964 24.6736C103.047 19.8582 99.2323 15.1666 95.263 10.2841C92.0741 12.6737 89.0817 15.0221 85.9703 17.195C84.5077 18.2221 83.934 19.3163 83.9443 21.1691C84.058 48.436 84.0891 75.708 84.0942 102.975C84.0942 106.278 83.7945 109.576 83.6497 112.874C83.5877 114.366 82.8176 115.14 81.4429 115.744C66.7028 122.19 58.0665 137.886 60.4025 153.839C63.2348 173.132 81.5566 186.907 100.762 184.177C118.19 181.705 131.142 167.485 131.963 149.922Z" fill="#282828"/>
<path d="M112.05 161.39C111.471 170.133 103.946 176.967 95.4385 176.476C86.3009 175.955 79.427 168.518 79.9335 159.712C80.4503 150.649 88.0375 144.058 97.3922 144.544C105.656 144.972 112.608 152.962 112.05 161.39ZM103.894 160.636C103.935 156.146 100.56 152.683 96.0742 152.605C91.7173 152.533 88.1408 155.971 88.084 160.28C88.0271 164.812 91.5674 168.481 96.0019 168.471C100.292 168.466 103.858 164.925 103.894 160.636Z" fill="#282828"/>
</svg>
