<svg width="40" height="40" viewBox="0 0 40 40" fill="none" xmlns="http://www.w3.org/2000/svg">
<path d="M18.8625 17.2827H10.9637C10.5031 17.2827 10.1304 17.6554 10.1304 18.1161C10.1304 18.5767 10.5031 18.9494 10.9637 18.9494H18.8625C19.3231 18.9494 19.6959 18.5767 19.6959 18.1161C19.6959 17.6554 19.3231 17.2827 18.8625 17.2827Z" fill="#911211"/>
<path d="M27.8036 17.5258C27.7702 17.4835 27.7287 17.451 27.6782 17.4257C27.6367 17.3924 27.5863 17.3671 27.5366 17.3419C27.487 17.3256 27.4365 17.3086 27.3779 17.3004C27.2697 17.2752 27.1615 17.2752 27.0532 17.3004C27.0036 17.3086 26.9531 17.3256 26.9035 17.3419C26.853 17.3671 26.8034 17.3924 26.7529 17.4257C26.7114 17.451 26.6699 17.4835 26.6284 17.5258C26.4697 17.6837 26.3867 17.8921 26.3867 18.1175C26.3867 18.3339 26.4697 18.5504 26.6284 18.701C26.7863 18.8589 26.9946 18.9508 27.2201 18.9508C27.4447 18.9508 27.653 18.8589 27.8036 18.701C27.9614 18.5504 28.0534 18.3421 28.0534 18.1175C28.0534 18.0092 28.0282 17.9002 27.9867 17.792C27.9452 17.6919 27.8866 17.6007 27.8036 17.5258Z" fill="#911211"/>
<path d="M32.8395 26.909C35.6832 26.6397 38.1843 25.0313 39.2116 22.714C39.6877 21.6397 39.9506 20.4727 39.9937 19.2455C40.1695 14.3546 36.6408 10.2229 32.1258 10.0349C31.8947 10.0251 31.6611 10.0276 31.4276 10.0398C31.4626 9.76469 31.4853 9.48963 31.4951 9.21537C31.6628 4.32522 28.1308 0.194344 23.6223 0.00635445C20.5787 -0.117344 17.754 1.57293 16.2346 4.3773C15.7105 4.24221 15.1856 4.16571 14.668 4.14862C10.8944 3.97854 7.50652 6.65514 6.47624 10.5614C2.83201 11.4021 0.146448 14.816 0.0064734 18.8972C-0.0203823 19.6508 0.0365842 20.3767 0.17249 21.0457C0.789763 24.265 3.44654 26.5831 6.77084 26.9182V27.6725C6.77084 28.1939 6.97327 28.6673 7.29778 29.0453C6.97327 29.4232 6.77084 29.8963 6.77084 30.4174V34.9585C6.77084 36.1743 7.82879 37.1639 9.12925 37.1639H18.9723V38.3333H14.2416C13.781 38.3333 13.4083 38.7061 13.4083 39.1667C13.4083 39.6273 13.781 40 14.2416 40H25.3696C25.8302 40 26.2029 39.6273 26.2029 39.1667C26.2029 38.7061 25.8302 38.3333 25.3696 38.3333H20.6389V37.1639H30.4819C31.7816 37.1639 32.8395 36.1743 32.8395 34.9585V30.4174C32.8395 29.8963 32.6371 29.4232 32.3126 29.0453C32.6371 28.6673 32.8395 28.1939 32.8395 27.6725V26.909ZM8.43752 20.3865V15.8454C8.43752 15.5533 8.75409 15.3067 9.12925 15.3067H30.4819C30.8563 15.3067 31.1728 15.5533 31.1728 15.8454V20.3865C31.1728 20.6786 30.8563 20.926 30.4819 20.926H9.12925C8.75409 20.926 8.43752 20.6786 8.43752 20.3865ZM8.43752 27.6725V23.1314C8.43752 22.8393 8.75409 22.5927 9.12925 22.5927H30.4819C30.8563 22.5927 31.1728 22.8393 31.1728 23.1314V27.6725C31.1728 27.9646 30.8563 28.212 30.4819 28.212H9.12925C8.75409 28.212 8.43752 27.9646 8.43752 27.6725ZM1.80743 20.7226C1.69594 20.1724 1.65036 19.5784 1.67152 18.955C1.79197 15.4654 4.15526 12.5829 7.29168 12.1011C7.63673 12.0482 7.91261 11.7854 7.98178 11.4428C8.66701 8.04675 11.4633 5.67776 14.6054 5.81367C15.1921 5.8332 15.7911 5.95202 16.386 6.16686C16.7969 6.31579 17.2543 6.12047 17.4317 5.71927C18.5645 3.15008 20.9742 1.57049 23.5515 1.6714C27.1502 1.82114 29.966 5.17971 29.8301 9.15597C29.8097 9.70284 29.7267 10.2603 29.5843 10.8121C29.5127 11.0928 29.5908 11.3899 29.7918 11.5982C29.9928 11.8073 30.2866 11.8969 30.5698 11.8342C31.0679 11.726 31.5708 11.6796 32.0575 11.6999C35.6586 11.8505 38.4711 15.2082 38.3287 19.1861C38.2928 20.2001 38.0772 21.1604 37.6882 22.0385C36.8182 24.0005 34.7518 25.0163 32.8395 25.2458V23.1314C32.8395 22.6103 32.6371 22.1372 32.3126 21.7593C32.6371 21.3813 32.8395 20.9079 32.8395 20.3865V15.8454C32.8395 14.6296 31.7816 13.64 30.4819 13.64H9.12925C7.82879 13.64 6.77084 14.6296 6.77084 15.8454V20.3865C6.77084 20.9079 6.97327 21.3813 7.29778 21.7593C6.97327 22.1372 6.77084 22.6103 6.77084 23.1314V25.2301C4.26213 24.9066 2.2741 23.1551 1.80743 20.7226ZM31.1728 34.9585C31.1728 35.2506 30.8563 35.4972 30.4819 35.4972H9.12925C8.75409 35.4972 8.43752 35.2506 8.43752 34.9585V30.4174C8.43752 30.1253 8.75409 29.8787 9.12925 29.8787H30.4819C30.8563 29.8787 31.1728 30.1253 31.1728 30.4174V34.9585Z" fill="#911211"/>
<path d="M18.8625 24.5687H10.9637C10.5031 24.5687 10.1304 24.9414 10.1304 25.4021C10.1304 25.8627 10.5031 26.2354 10.9637 26.2354H18.8625C19.3231 26.2354 19.6959 25.8627 19.6959 25.4021C19.6959 24.9414 19.3231 24.5687 18.8625 24.5687Z" fill="#911211"/>
<path d="M27.6782 24.7095C27.6367 24.6761 27.5863 24.6509 27.5366 24.6338C27.487 24.6094 27.4365 24.5923 27.3779 24.5842C27.1118 24.5256 26.8197 24.6175 26.6284 24.8088C26.4697 24.9675 26.3867 25.1839 26.3867 25.4004C26.3867 25.6258 26.4697 25.8342 26.6284 25.9928C26.7033 26.0677 26.7952 26.1255 26.8953 26.1678C27.0036 26.2093 27.1037 26.2337 27.2201 26.2337C27.4447 26.2337 27.653 26.1507 27.8036 25.9928C27.9614 25.8342 28.0534 25.6258 28.0534 25.4004C28.0534 25.1839 27.9614 24.9675 27.8036 24.8088C27.7702 24.7754 27.7287 24.7428 27.6782 24.7095Z" fill="#911211"/>
<path d="M18.8625 31.8547H10.9637C10.5031 31.8547 10.1304 32.2275 10.1304 32.6881C10.1304 33.1487 10.5031 33.5214 10.9637 33.5214H18.8625C19.3231 33.5214 19.6959 33.1487 19.6959 32.6881C19.6959 32.2275 19.3231 31.8547 18.8625 31.8547Z" fill="#911211"/>
<path d="M27.8036 32.1002C27.4951 31.7837 26.9369 31.7837 26.6284 32.1002C26.5535 32.1759 26.495 32.2671 26.4453 32.3671C26.403 32.4672 26.3867 32.5755 26.3867 32.6837C26.3867 32.8009 26.403 32.9091 26.4453 33.0092C26.4868 33.1085 26.5535 33.2005 26.6284 33.2754C26.7114 33.3502 26.7952 33.417 26.8953 33.4593C26.9946 33.5008 27.1037 33.5171 27.2201 33.5171C27.4447 33.5171 27.653 33.434 27.8036 33.2754C27.8866 33.2005 27.9452 33.1085 27.9867 33.0092C28.0282 32.9091 28.0534 32.8009 28.0534 32.6837C28.0534 32.5755 28.0282 32.4754 27.9867 32.3671C27.9452 32.2671 27.8866 32.1759 27.8036 32.1002Z" fill="#911211"/>
</svg>
