<svg width="192" height="192" viewBox="0 0 192 192" fill="none" xmlns="http://www.w3.org/2000/svg">
<path d="M127.114 15.3755C148.272 4.16774 174.241 15.785 179.893 38.9841C180.419 41.1529 179.67 42.7403 177.92 43.165C176.392 43.5391 175.046 42.5482 174.444 40.5817C174.297 40.1115 174.236 39.606 174.049 39.1459C172.926 36.3604 171.778 33.585 170.639 30.8045C170.417 30.8854 170.189 30.9663 169.961 31.0422C169.961 41.5169 169.961 51.9917 169.966 62.4664C169.966 62.699 170.012 62.9315 170.073 63.5533C172.445 60.2168 173.67 56.7791 174.479 53.1645C174.697 52.1939 174.752 51.1879 174.97 50.2223C175.395 48.367 176.64 47.4722 178.324 47.7351C179.842 47.9727 180.748 49.2466 180.571 51.0716C180.125 55.5861 178.856 59.8882 176.614 63.8162C169.42 76.389 158.497 83.1379 144.017 82.9509C128.738 82.7537 117.562 75.3122 111.021 61.4907C103.128 44.813 110.444 24.2073 127.114 15.3755ZM114.264 53.4021C119.04 74.8572 144.913 84.5433 162.615 71.5307C163.774 70.6814 164.315 69.8119 164.295 68.3104C164.204 61.2683 164.254 54.2262 164.254 47.184C164.254 40.1419 164.219 32.852 164.285 25.6834C164.3 24.4095 163.87 23.6158 162.873 22.903C155.507 17.6201 147.397 15.8103 138.462 17.3673C121.944 20.254 110.626 37.0581 114.264 53.4021Z" fill="#282828"/>
<path d="M131.041 60.4241C132.108 61.9053 131.997 63.3916 130.788 64.433C129.649 65.4137 127.985 65.3379 126.755 64.1044C123.806 61.1419 121.696 57.6385 120.649 53.5892C120.113 51.5013 119.92 49.3224 119.571 47.1891C119.784 40.7081 121.98 35.1269 126.406 30.4355C127.939 28.8127 129.503 28.5903 130.803 29.7429C132.123 30.9107 132.164 32.4577 130.661 34.1765C127.889 37.3462 126.062 40.8901 125.622 45.1416C125.126 49.9443 126.351 54.2312 129.169 58.0986C129.756 58.8973 130.454 59.6202 131.041 60.4241Z" fill="#282828"/>
<path d="M138.872 131.023C142.545 131.114 146.224 131.109 149.897 131.023C151.667 130.977 152.699 129.865 152.694 128.384C152.689 126.877 151.677 125.861 149.881 125.775C148.08 125.689 146.269 125.755 144.463 125.755C142.657 125.755 140.724 125.684 138.857 125.775C137.011 125.861 136.11 126.796 136.115 128.399C136.12 129.976 137.031 130.982 138.872 131.023ZM144.372 88.2186C167.306 88.2186 185.984 69.817 186.081 47.1284C186.177 24.6269 167.397 5.81583 144.463 5.8866C121.059 5.95232 102.769 24.268 102.729 47.1284C102.693 69.8979 121.423 88.2186 144.372 88.2186ZM137.769 180.262C138.382 183.73 141.098 186.202 144.412 186.177C147.676 186.146 150.468 183.786 150.893 180.348C151.718 173.69 152.371 167.012 153.155 159.803C152.32 152.842 151.414 145.451 150.58 138.044C150.458 136.953 149.972 136.745 149.016 136.755C145.9 136.796 142.783 136.72 139.667 136.826C139.156 136.841 138.316 137.488 138.225 137.959C137.618 141.128 136.975 144.313 136.702 147.518C135.771 158.468 135.847 169.398 137.769 180.262ZM155.927 135.668C158.194 146.538 158.872 157.503 158.037 168.564C157.986 169.241 158.032 169.924 158.032 170.864C159.737 170.864 161.401 170.94 163.051 170.808C163.471 170.778 164.017 170.166 164.189 169.706C164.391 169.155 164.255 168.478 164.255 167.851C164.255 144.465 164.255 121.079 164.26 97.6924C164.26 96.9442 164.27 96.196 164.326 95.4529C164.457 93.8149 165.464 92.9403 167.002 92.8746C168.57 92.8089 169.557 93.7391 169.881 95.2709C169.992 95.8118 169.962 96.3881 169.962 96.9493C169.962 120.957 169.967 144.97 169.962 168.978C169.962 174.069 167.503 176.521 162.393 176.556C160.779 176.567 159.165 176.556 157.425 176.556C157.02 178.644 156.747 180.666 156.226 182.623C154.718 188.31 150.023 191.798 144.119 191.798C143.871 191.798 143.618 191.788 143.365 191.778C137.926 191.51 133.14 187.062 132.184 181.405C129.619 166.203 129.67 151.037 132.776 135.901C132.907 135.239 132.644 134.298 132.224 133.747C128.916 129.364 130.044 123.571 134.886 120.972C135.847 120.457 136.034 119.886 136.029 118.94C136.004 110.892 135.994 102.849 136.039 94.8058C136.044 93.5622 135.629 93.183 134.41 92.8847C116.819 88.5927 104.611 78.0826 99.1974 60.7274C93.9864 44.0042 97.8213 28.9038 109.255 15.6941C109.827 15.0369 110.439 14.415 111.021 13.7629C111.087 13.6921 111.061 13.5455 111.102 13.3079H24.9777C28.1195 17.696 27.4315 22.6351 27.4365 27.4428C27.4568 74.2809 27.4466 121.114 27.4466 167.952C27.4466 169.897 28.4416 170.869 30.4316 170.869H120.482C120.978 170.869 121.479 170.864 121.979 170.869C124.256 170.904 125.622 171.986 125.617 173.746C125.607 175.535 124.347 176.546 121.954 176.546C90.9407 176.556 59.9273 176.567 28.9138 176.541C24.2137 176.541 21.7448 173.933 21.7448 169.145C21.7398 131.351 21.7398 93.5571 21.7398 55.7681V53.0533H19.6604C14.5404 53.0533 9.42545 52.9977 4.30545 53.0887C2.59035 53.114 1.15858 52.7652 0 51.4811V18.9244C0.445217 17.7061 0.77913 16.4372 1.36095 15.2846C4.18909 9.66299 8.98023 7.37795 15.0767 7.37795C49.242 7.38301 83.4074 7.38807 117.573 7.35268C118.509 7.34762 119.475 6.98867 120.371 6.63479C124.519 5.0019 128.602 3.18701 132.801 1.70073C134.987 0.927257 137.365 0.689684 139.662 0.214478H149.021C151.323 0.699795 153.661 1.06377 155.922 1.68558C174.596 6.84713 186.541 18.8739 190.695 37.6951C191.423 41.0064 191.772 44.2974 191.772 47.543C191.772 65.8789 180.566 82.4909 163.38 89.9577C160.43 91.2417 157.268 92.0506 154.162 92.9151C153.145 93.1982 152.694 93.4712 152.699 94.5884C152.74 102.824 152.704 111.054 152.765 119.284C152.765 119.805 153.241 120.528 153.701 120.796C158.74 123.733 159.879 129.208 156.408 133.849C156.054 134.324 155.816 135.112 155.927 135.668ZM146.942 119.875C146.942 111.478 146.957 103.198 146.901 94.9221C146.896 94.5833 146.289 93.9919 145.92 93.9565C144.635 93.8402 143.335 93.911 141.938 93.911V119.875H146.942ZM21.7398 47.2548C21.7398 38.6051 21.7549 30.0867 21.7347 21.5634C21.7246 16.9175 18.5322 13.4242 14.1862 13.2371C9.5317 13.0299 5.803 16.1693 5.69676 20.982C5.49944 29.6874 5.6411 38.4029 5.6411 47.2548H21.7398Z" fill="#282828"/>
<path d="M122.359 156.335C124.307 156.411 125.47 157.487 125.526 159.09C125.587 160.809 124.464 161.896 122.405 162.088C121.909 162.133 121.408 162.108 120.912 162.108H40.9955C37.0442 162.103 36.3207 161.38 36.3207 157.427C36.3207 145.142 36.3207 132.863 36.3258 120.578C36.3258 119.956 36.26 119.309 36.4017 118.718C36.7508 117.277 37.7272 116.453 39.2248 116.498C40.7071 116.544 41.6633 117.363 41.9011 118.859C41.9973 119.471 41.9517 120.103 41.9517 120.725C41.9517 131.826 41.9517 142.923 41.9517 154.019V156.178H50.8814V154.232C50.8814 148.307 50.8763 142.382 50.8864 136.462C50.8965 132.716 52.7381 130.901 56.5275 130.876C58.4602 130.866 60.3979 130.83 62.3305 130.891C65.5179 130.987 67.3848 132.918 67.3949 136.098C67.4101 142.084 67.3999 148.069 67.3999 154.055V156.264H72.6464V154.282C72.6464 143.499 72.6464 132.711 72.6464 121.923C72.6515 118.288 74.4779 116.443 78.156 116.377C79.9014 116.347 81.6519 116.362 83.3974 116.377C87.4398 116.407 89.2105 118.146 89.2156 122.16C89.2308 132.757 89.2206 143.358 89.2206 153.954V156.229H94.3963V151.082C94.3963 148.524 94.371 145.971 94.4064 143.413C94.4519 140.213 96.3492 138.307 99.5214 138.257C101.641 138.221 103.761 138.226 105.881 138.257C109.174 138.302 111.057 140.163 111.097 143.499C111.143 147.675 111.107 151.846 111.107 156.31H116.551C118.484 156.315 120.421 156.259 122.354 156.335H122.359ZM105.178 156.178V143.974H100.321V156.178H105.178ZM83.4025 156.203V122.262H78.4191V156.203H83.4025ZM61.6627 156.203V136.76H56.6237V156.203H61.6627Z" fill="#282828"/>
<path d="M88.5632 76.4901C91.5077 76.4901 92.7877 77.3141 92.8383 79.2149C92.8939 81.2017 91.5077 82.147 88.548 82.147C80.4987 82.147 72.4493 82.147 64.4 82.147C56.3507 82.147 48.3014 82.1521 40.252 82.1319C39.5184 82.1319 38.5319 82.2128 38.1069 81.7982C37.343 81.05 36.5335 79.9935 36.4424 79.0026C36.321 77.6781 37.343 76.7378 38.7747 76.5558C39.3869 76.4749 40.0193 76.485 40.6416 76.485H88.5632V76.4901Z" fill="#282828"/>
<path d="M85.6237 28.4639C85.6136 30.203 84.2375 31.2646 81.9355 31.2646C67.8504 31.2697 53.7654 31.2646 39.6753 31.2798C38.0411 31.2798 36.8471 30.6832 36.4221 29.0807C36.0579 27.7056 36.6549 26.5783 37.9045 25.9817C38.542 25.6784 39.3515 25.6531 40.08 25.6531C46.996 25.6329 53.9172 25.638 60.8332 25.638C67.7492 25.638 74.9183 25.638 81.9658 25.643C84.2729 25.6481 85.6338 26.7198 85.6237 28.4639Z" fill="#282828"/>
<path d="M67.4558 36.5172C69.7325 36.5222 71.1137 37.6344 71.0783 39.3886C71.0378 41.0923 69.7325 42.1337 67.5418 42.1388C62.862 42.1539 58.1822 42.1438 53.5023 42.1438C48.8225 42.1438 44.517 42.1539 40.0244 42.1438C37.6566 42.1337 36.3615 41.153 36.3362 39.3836C36.3159 37.6041 37.6465 36.5222 39.9384 36.5222C49.1109 36.5121 58.2834 36.5121 67.4558 36.5172Z" fill="#282828"/>
<path d="M53.1735 54.6357C55.2934 54.6711 56.5886 55.94 56.5127 57.6234C56.4418 59.2614 55.1821 60.3382 53.1331 60.3887C50.8918 60.4443 48.6455 60.3988 46.4042 60.3988C44.2186 60.4039 42.0381 60.4342 39.8575 60.3938C37.677 60.3533 36.3868 59.2917 36.3413 57.583C36.2907 55.8793 37.5606 54.666 39.7108 54.6357C44.1984 54.57 48.686 54.5649 53.1735 54.6357Z" fill="#282828"/>
<path d="M90.4149 98.3192C91.9428 98.6327 92.8839 99.573 92.8181 101.176C92.7523 102.753 91.8467 103.693 90.2429 103.86C89.6257 103.926 88.9983 103.895 88.376 103.9H40.8288C40.2066 103.895 39.5792 103.921 38.9569 103.86C37.3531 103.703 36.4374 102.753 36.3666 101.191C36.2907 99.5932 37.2368 98.6428 38.7596 98.3192C39.3009 98.203 39.8777 98.2636 40.4393 98.2636H88.7352C89.2968 98.2636 89.8736 98.203 90.4149 98.3192Z" fill="#282828"/>
<path d="M101.267 87.435C102.744 87.6625 103.624 88.532 103.7 90.0486C103.786 91.6663 102.906 92.6167 101.383 92.9605C100.847 93.0768 100.265 93.0111 99.7034 93.0111H40.4086C39.847 93.0111 39.2702 93.0717 38.7289 92.9605C37.1959 92.637 36.2954 91.6613 36.3662 90.0688C36.432 88.5876 37.3123 87.6675 38.7997 87.44C39.4068 87.344 40.0443 87.3945 40.6666 87.3945H99.587C100.149 87.3945 100.72 87.349 101.267 87.435Z" fill="#282828"/>
</svg>
