<svg width="40" height="40" viewBox="0 0 40 40" fill="none" xmlns="http://www.w3.org/2000/svg">
<path fill-rule="evenodd" clip-rule="evenodd" d="M16.9359 33.6123C16.0714 33.6123 15.3679 34.3084 15.3679 35.1637V36.0187H0.8C0.358152 36.0187 0 36.3731 0 36.8103C0 37.2473 0.358152 37.6018 0.8 37.6018H15.3679V38.4486C15.3679 39.3039 16.0714 40 16.9359 40H23.0718C23.932 40 24.632 39.3039 24.632 38.4486V37.6018H39.2C39.6418 37.6018 40 37.2473 40 36.8103C40 36.3731 39.6418 36.0187 39.2 36.0187H24.632V35.1637C24.632 34.3084 23.932 33.6123 23.0718 33.6123H20.8V27.3179H30.8004C31.2422 27.3179 31.6004 26.9634 31.6004 26.5263V21.6335L30.0004 21.6369V25.7348H10.0043V22H8.40431V26.5263C8.40431 26.9634 8.76247 27.3179 9.20431 27.3179H19.2V33.6123H16.9359ZM23.032 38.4173L16.9679 38.4486C16.9672 38.3689 16.934 34.997 16.9359 35.1954L19.7098 35.181C21.4145 35.1721 23.2372 35.1627 23.032 35.1637V38.4173Z" fill="#911211"/>
<path d="M3.477 2.47427C4.851 1.86413 6.804 1.46667 9 1.46667C11.196 1.46667 13.149 1.86267 14.523 2.47427C15.966 3.11667 16.5 3.85293 16.5 4.4C16.5 4.94853 15.966 5.68333 14.523 6.32573C13.149 6.93587 11.196 7.33333 9 7.33333C6.804 7.33333 4.851 6.93733 3.477 6.32573C2.034 5.68333 1.5 4.94707 1.5 4.4C1.5 3.85147 2.034 3.11667 3.477 2.47427ZM16.5 6.8904V8.8C16.5 9.34853 15.966 10.0833 14.523 10.7257C13.149 11.3359 11.196 11.7333 9 11.7333C6.804 11.7333 4.851 11.3373 3.477 10.7257C2.034 10.0833 1.5 9.34707 1.5 8.8V6.8904C1.9065 7.18667 2.37 7.4448 2.856 7.6604C4.467 8.37613 6.6405 8.8 9 8.8C11.3595 8.8 13.533 8.37613 15.144 7.6604C15.6227 7.45155 16.0772 7.19342 16.5 6.8904ZM18 4.4C18 2.92307 16.6875 1.826 15.144 1.1396C13.533 0.423867 11.3595 0 9 0C6.6405 0 4.467 0.423867 2.856 1.1396C1.3125 1.826 0 2.92307 0 4.4V17.6C0 19.0769 1.3125 20.174 2.856 20.8604C4.467 21.5747 6.6405 22 9 22C11.3595 22 13.533 21.5761 15.144 20.8604C16.6875 20.174 18 19.0769 18 17.6V4.4ZM16.5 11.2904V13.2C16.5 13.7485 15.966 14.4833 14.523 15.1257C13.149 15.7359 11.196 16.1333 9 16.1333C6.804 16.1333 4.851 15.7373 3.477 15.1257C2.034 14.4833 1.5 13.7471 1.5 13.2V11.2904C1.9065 11.5867 2.37 11.8448 2.856 12.0604C4.467 12.7747 6.6405 13.2 9 13.2C11.3595 13.2 13.533 12.7761 15.144 12.0604C15.6227 11.8515 16.0772 11.5934 16.5 11.2904ZM16.5 15.6904V17.6C16.5 18.1485 15.966 18.8833 14.523 19.5257C13.149 20.1359 11.196 20.5333 9 20.5333C6.804 20.5333 4.851 20.1373 3.477 19.5257C2.034 18.8833 1.5 18.1471 1.5 17.6V15.6904C1.9065 15.9867 2.37 16.2448 2.856 16.4604C4.467 17.1747 6.6405 17.6 9 17.6C11.3595 17.6 13.533 17.1761 15.144 16.4604C15.63 16.2448 16.0935 15.9867 16.5 15.6904Z" fill="#911211"/>
<path d="M25.477 2.47427C26.851 1.86413 28.804 1.46667 31 1.46667C33.196 1.46667 35.149 1.86267 36.523 2.47427C37.966 3.11667 38.5 3.85293 38.5 4.4C38.5 4.94853 37.966 5.68333 36.523 6.32573C35.149 6.93587 33.196 7.33333 31 7.33333C28.804 7.33333 26.851 6.93733 25.477 6.32573C24.034 5.68333 23.5 4.94707 23.5 4.4C23.5 3.85147 24.034 3.11667 25.477 2.47427ZM38.5 6.8904V8.8C38.5 9.34853 37.966 10.0833 36.523 10.7257C35.149 11.3359 33.196 11.7333 31 11.7333C28.804 11.7333 26.851 11.3373 25.477 10.7257C24.034 10.0833 23.5 9.34707 23.5 8.8V6.8904C23.9065 7.18667 24.37 7.4448 24.856 7.6604C26.467 8.37613 28.6405 8.8 31 8.8C33.3595 8.8 35.533 8.37613 37.144 7.6604C37.6227 7.45155 38.0772 7.19342 38.5 6.8904ZM40 4.4C40 2.92307 38.6875 1.826 37.144 1.1396C35.533 0.423867 33.3595 0 31 0C28.6405 0 26.467 0.423867 24.856 1.1396C23.3125 1.826 22 2.92307 22 4.4V17.6C22 19.0769 23.3125 20.174 24.856 20.8604C26.467 21.5747 28.6405 22 31 22C33.3595 22 35.533 21.5761 37.144 20.8604C38.6875 20.174 40 19.0769 40 17.6V4.4ZM38.5 11.2904V13.2C38.5 13.7485 37.966 14.4833 36.523 15.1257C35.149 15.7359 33.196 16.1333 31 16.1333C28.804 16.1333 26.851 15.7373 25.477 15.1257C24.034 14.4833 23.5 13.7471 23.5 13.2V11.2904C23.9065 11.5867 24.37 11.8448 24.856 12.0604C26.467 12.7747 28.6405 13.2 31 13.2C33.3595 13.2 35.533 12.7761 37.144 12.0604C37.6227 11.8515 38.0772 11.5934 38.5 11.2904ZM38.5 15.6904V17.6C38.5 18.1485 37.966 18.8833 36.523 19.5257C35.149 20.1359 33.196 20.5333 31 20.5333C28.804 20.5333 26.851 20.1373 25.477 19.5257C24.034 18.8833 23.5 18.1471 23.5 17.6V15.6904C23.9065 15.9867 24.37 16.2448 24.856 16.4604C26.467 17.1747 28.6405 17.6 31 17.6C33.3595 17.6 35.533 17.1761 37.144 16.4604C37.63 16.2448 38.0935 15.9867 38.5 15.6904Z" fill="#911211"/>
</svg>
