<svg width="40" height="40" viewBox="0 0 40 40" fill="none" xmlns="http://www.w3.org/2000/svg">
<path d="M0.000488281 2.52821C0.000488281 7.59878 0.000488281 32.975 0.000488281 37.4718C0.000488281 38.866 1.13454 40 2.52837 40H37.4742C38.8684 40 40.0024 38.866 40.0024 37.4718C40.0024 32.3679 40.0024 6.98595 40.0024 2.52821C40.0024 1.13406 38.8684 0 37.4742 0H2.52837C1.13454 0 0.000488281 1.13406 0.000488281 2.52821ZM37.4742 38.3999H2.52837C2.01659 38.3999 1.60057 37.9835 1.60057 37.4718V8.53635H38.4024V37.4718C38.4024 37.9835 37.9859 38.3999 37.4742 38.3999ZM38.4024 2.52821V6.93627H1.60057V2.52821C1.60057 2.0165 2.01659 1.60008 2.52837 1.60008H37.4742C37.9859 1.60008 38.4024 2.0165 38.4024 2.52821Z" fill="#911211"/>
<path d="M11.3636 5.46824C12.0236 5.46824 12.5637 4.92821 12.5637 4.26818C12.5637 3.60814 12.0236 3.06812 11.3636 3.06812C10.6916 3.06812 10.1636 3.60814 10.1636 4.26818C10.1636 4.92821 10.6916 5.46824 11.3636 5.46824Z" fill="#911211"/>
<path d="M4.63805 5.46824C5.29808 5.46824 5.83811 4.92821 5.83811 4.26818C5.83811 3.60814 5.29808 3.06812 4.63805 3.06812C3.97801 3.06812 3.43799 3.60814 3.43799 4.26818C3.43799 4.92821 3.97801 5.46824 4.63805 5.46824Z" fill="#911211"/>
<path d="M8.00084 5.46824C8.66087 5.46824 9.2009 4.92821 9.2009 4.26818C9.2009 3.60814 8.66087 3.06812 8.00084 3.06812C7.34081 3.06812 6.80078 3.60814 6.80078 4.26818C6.80078 4.92821 7.34081 5.46824 8.00084 5.46824Z" fill="#911211"/>
<path d="M15.3386 5.06822H36.2116C36.6533 5.06822 37.0116 4.71004 37.0116 4.26818C37.0116 3.8264 36.6533 3.46814 36.2116 3.46814H15.3386C14.8968 3.46814 14.5386 3.8264 14.5386 4.26818C14.5386 4.71004 14.8968 5.06822 15.3386 5.06822Z" fill="#911211"/>
<path d="M34.6271 16.5134C34.6271 15.5323 33.8471 14.6731 32.7789 14.6731H6.06552C5.04411 14.6731 4.22559 15.5236 4.22559 16.5134V31.7623C4.22559 32.7858 5.05099 33.6182 6.06552 33.6182H25.1667C26.3922 34.6538 27.9377 35.2264 29.5627 35.2264C33.2594 35.2264 36.267 32.3123 36.267 28.73C36.267 27.1412 35.6812 25.6474 34.6271 24.4844V16.5134ZM31.4905 16.2736L20.0775 24.3404C19.6899 24.6138 19.1482 24.6134 18.7622 24.3408L7.34486 16.2736H31.4905ZM6.06552 32.0181C5.93543 32.0181 5.82566 31.9009 5.82566 31.7623V17.1595L17.8391 25.6479C18.3044 25.976 18.8505 26.1494 19.4193 26.1494C19.988 26.1494 20.5341 25.976 21.0002 25.6475L33.027 17.1468V23.161C31.975 22.5385 30.7184 22.2258 29.5627 22.2258C25.8661 22.2258 22.8585 25.1435 22.8585 28.73C22.8585 29.8566 23.1841 31.0476 23.7773 32.0181H6.06552ZM29.5627 33.6264C26.8164 33.6264 24.4586 31.4906 24.4586 28.73C24.4586 26.026 26.7481 23.8259 29.5627 23.8259C32.3081 23.8259 34.6669 25.9621 34.6669 28.73C34.6669 31.4298 32.3773 33.6264 29.5627 33.6264Z" fill="#911211"/>
<path d="M11.9041 25.6403H7.69457C7.25271 25.6403 6.89453 25.9985 6.89453 26.4403C6.89453 26.8821 7.25271 27.2403 7.69457 27.2403H11.9041C12.3459 27.2403 12.7042 26.8821 12.7042 26.4403C12.7042 25.9985 12.3459 25.6403 11.9041 25.6403Z" fill="#911211"/>
<path d="M11.9041 28.9008H7.69457C7.25271 28.9008 6.89453 29.259 6.89453 29.7008C6.89453 30.1426 7.25271 30.5008 7.69457 30.5008H11.9041C12.3459 30.5008 12.7042 30.1426 12.7042 29.7008C12.7042 29.259 12.3459 28.9008 11.9041 28.9008Z" fill="#911211"/>
<path d="M29.6308 24.9677C27.4945 24.9677 25.7764 26.6822 25.7764 28.8268C25.7764 30.9857 27.3982 32.5524 29.5164 32.5524C30.1802 32.5524 31.0684 32.2789 31.6059 31.8082L31.2149 31.1308C30.725 31.6016 30.159 31.8367 29.5164 31.8367C27.9236 31.8367 26.6163 30.6157 26.6163 28.8268C26.6163 27.1494 27.8926 25.6829 29.6882 25.6829C31.4927 25.6829 32.5313 27.074 32.5313 28.7932C32.5313 29.2069 32.4661 29.5503 32.3356 29.8237C32.0701 30.3818 31.5966 30.3954 31.5966 29.7569V26.7134H30.4039V27.1045L30.2797 26.9806C30.2035 26.8982 30.0762 26.8138 29.898 26.7279C29.7199 26.642 29.5324 26.5989 29.3351 26.5989C28.1086 26.5989 27.3792 27.6325 27.3792 28.8268C27.3792 30.1485 28.3606 30.9879 29.3781 30.9879C29.9156 30.9879 30.3594 30.7621 30.709 30.3105C31.0132 31.195 32.2608 31.4232 32.9274 30.4488C33.2166 30.0257 33.3615 29.4644 33.3615 28.7647C33.3615 26.6045 31.7802 24.9677 29.6308 24.9677ZM30.1699 29.5995C30.0078 29.819 29.7867 29.9289 29.507 29.9289C28.9172 29.9289 28.6007 29.3629 28.6007 28.7791C28.6007 28.4705 28.6815 28.2116 28.8437 28.0014C29.0062 27.7916 29.2238 27.6865 29.4972 27.6865C29.7706 27.6865 29.9918 27.7916 30.1605 28.0014C30.3289 28.2116 30.4133 28.4753 30.4133 28.7932C30.4133 29.1116 30.3324 29.38 30.1699 29.5995Z" fill="#911211"/>
</svg>
