<svg width="174" height="195" viewBox="0 0 174 195" fill="none" xmlns="http://www.w3.org/2000/svg">
<path d="M169.599 147.321C172.633 148.985 174.026 151.361 173.995 154.796C173.923 161.718 173.938 168.64 173.985 175.562C174.01 178.822 172.767 181.187 169.857 182.804C163.876 186.126 157.957 189.556 152.044 192.991C150.728 193.755 149.443 194.132 148.153 194.132C146.863 194.132 145.547 193.745 144.221 192.975C138.251 189.499 132.249 186.079 126.243 182.68C123.384 181.069 122.089 178.692 122.424 175.128C123.049 168.413 122.899 161.666 122.404 154.936C122.151 151.5 123.436 149.202 126.248 147.621C131.991 144.393 137.683 141.061 143.431 137.843C144.515 137.238 144.907 136.541 144.866 135.311C144.773 132.672 144.85 130.027 144.835 127.382C144.809 124.314 143.824 123.301 140.758 123.291C132.652 123.27 124.54 123.286 116.434 123.286H90.3078C90.3078 125.404 90.2923 127.382 90.3078 129.361C90.3284 131.876 89.5286 134.893 90.6432 136.763C91.7939 138.7 94.8023 139.547 97.0211 140.833C100.984 143.122 104.957 145.405 108.951 147.642C111.49 149.062 112.775 151.149 112.77 154.078C112.749 161.439 112.749 168.805 112.77 176.166C112.775 179.085 111.516 181.182 108.982 182.618C102.924 186.053 96.8818 189.52 90.8548 193.006C89.5544 193.761 88.2798 194.132 87.0053 194.132C85.7307 194.132 84.3736 193.735 83.0268 192.95C77.1185 189.504 71.1843 186.09 65.214 182.758C62.4533 181.218 61.1685 179.013 61.1943 175.862C61.2562 168.687 61.251 161.511 61.1994 154.342C61.1788 151.263 62.443 149.098 65.1366 147.595C70.885 144.382 76.5715 141.05 82.3147 137.817C83.3055 137.264 83.7234 136.644 83.7028 135.466C83.6202 131.509 83.6718 127.553 83.6718 123.379C82.8823 123.343 82.2218 123.286 81.5562 123.286C65.5907 123.281 49.6252 123.281 33.6597 123.286C29.9857 123.286 29.1498 124.148 29.1395 127.883C29.1343 130.399 29.2014 132.92 29.1137 135.43C29.0724 136.603 29.5058 137.233 30.5017 137.791C36.1366 140.952 41.7096 144.227 47.3599 147.358C50.3064 148.985 51.679 151.268 51.6222 154.688C51.4984 161.666 51.5087 168.656 51.617 175.64C51.6738 178.971 50.3528 181.234 47.4786 182.84C41.6167 186.115 35.7909 189.458 30.0012 192.851C28.5873 193.678 27.2199 194.096 25.8524 194.096C24.485 194.096 23.1021 193.678 21.6779 192.836C15.8418 189.39 9.94888 186.033 4.02504 182.737C1.24889 181.193 -0.0101894 178.94 0.000130927 175.825C0.0207715 168.718 0.0310918 161.604 0.000130927 154.497C-0.0153495 151.284 1.34177 149.031 4.16437 147.471C9.87664 144.31 15.5064 141.004 21.198 137.806C22.1836 137.249 22.6119 136.634 22.5706 135.451C22.4725 132.625 22.5242 129.789 22.5448 126.959C22.5912 120.93 26.74 116.767 32.7567 116.762C48.9131 116.746 65.0644 116.756 81.2208 116.756H83.6615C83.6615 113.347 83.7183 110.098 83.5996 106.854C83.5841 106.379 82.8152 105.805 82.2734 105.495C77.2217 102.566 72.1441 99.6891 67.0768 96.7964C61.9167 93.852 61.8806 93.8003 61.0085 87.9942C60.3222 87.9632 59.5998 87.9115 58.8722 87.9011C52.3343 87.8237 45.7861 88.0148 39.2688 87.6274C26.7968 86.8939 15.7076 76.8364 13.4836 64.6041C10.3617 47.48 21.5076 32.1588 38.7373 29.9634C39.7745 29.8291 40.0274 29.3797 40.3112 28.5118C44.883 14.4251 54.3467 5.50409 68.6816 1.79C70.1471 1.40774 71.6435 1.13395 73.1245 0.803345L82.1806 0.942827C85.1012 1.69184 88.0734 2.28072 90.9063 3.28801C97.1243 5.49891 102.352 9.24918 106.624 14.2857C107.367 15.1587 107.914 15.4221 109.111 14.9675C119.968 10.8557 131.692 16.9305 134.654 28.2587C135.026 29.6844 135.722 29.9892 136.868 30.2165C149.314 32.696 157.266 40.1397 160.321 52.3874C164.547 69.3048 152.013 86.4548 134.608 87.6377C128.034 88.082 121.418 87.834 114.818 87.896C114.21 87.9063 113.601 87.9011 112.935 87.9011C112.863 88.4952 112.775 88.8568 112.78 89.2235C112.837 92.3436 111.258 94.3789 108.626 95.8562C102.991 99.0124 97.4081 102.272 91.7681 105.428C90.7258 106.017 90.2304 106.637 90.282 107.908C90.3903 110.785 90.3181 113.667 90.3181 116.756H92.6969C108.724 116.756 124.752 116.756 140.784 116.756C147.42 116.756 151.44 120.791 151.45 127.449C151.455 129.965 151.559 132.491 151.414 134.996C151.321 136.551 151.925 137.31 153.236 138.034C158.726 141.071 164.108 144.305 169.609 147.316L169.599 147.321ZM167.333 175.335C167.39 170.562 167.364 165.783 167.364 161.01V157.456C162.08 160.484 157.132 163.294 152.214 166.15C151.858 166.362 151.481 166.91 151.481 167.302C151.435 173.315 151.45 179.333 151.45 185.769C156.781 182.727 161.734 179.932 166.631 177.045C167.065 176.791 167.328 175.918 167.333 175.335ZM158.876 154.786C160.548 153.83 162.204 152.849 164.072 151.764C158.881 148.789 153.948 145.947 148.984 143.158C148.581 142.931 147.854 142.884 147.472 143.096C142.446 145.901 137.451 148.763 132.332 151.676C132.636 151.934 132.802 152.126 133.003 152.244C137.735 154.951 142.456 157.684 147.234 160.323C147.74 160.602 148.679 160.54 149.211 160.251C152.467 158.495 155.666 156.63 158.876 154.786ZM153.556 65.1465C156.131 56.4373 153.927 48.6475 147.343 42.4177C139.19 34.7054 127.848 34.2715 118.353 40.9869C116.377 42.3816 114.607 42.2679 113.368 40.6562C112.14 39.0497 112.429 37.1436 114.447 35.8212C116.743 34.3232 119.148 32.9285 121.65 31.8179C123.673 30.9139 125.913 30.4954 128.209 29.8187C127.672 27.0603 126.186 24.8804 124.06 23.1396C117.553 17.8189 108.471 19.9059 104.323 27.6388C103.239 29.6638 101.593 30.3663 99.8644 29.545C98.0377 28.672 97.4081 26.7813 98.5072 24.7719C99.5548 22.8658 100.84 21.0888 102.145 19.0587C94.312 10.1118 84.4252 5.8915 72.5414 7.75113C59.5482 9.78639 51.0597 17.5814 46.6736 29.7826C49.8007 30.9862 52.7626 31.9935 55.5852 33.3004C56.4469 33.7033 57.3758 34.9017 57.4532 35.8109C57.546 36.8027 56.9578 38.3679 56.1786 38.7915C55.2085 39.3184 53.5572 39.3442 52.5304 38.8689C48.0204 36.7872 43.4331 35.8367 38.4587 36.6115C27.8701 38.2645 19.6345 47.604 19.4745 58.2917C19.3094 69.3514 27.1012 79.4812 37.8188 80.7519C45.3784 81.6507 53.1135 81.1135 60.766 81.2065C60.864 81.2065 60.9621 81.0773 61.2149 80.9017C61.2149 76.4851 61.2665 71.9652 61.1943 67.4452C61.1478 64.2839 62.4637 62.0885 65.214 60.5491C71.1791 57.207 77.1133 53.7925 83.0217 50.347C85.7359 48.7663 88.3108 48.8025 91.0147 50.378C96.9231 53.8235 102.862 57.2173 108.828 60.5698C111.5 62.073 112.816 64.2374 112.775 67.3161C112.723 71.2781 112.76 75.2454 112.77 79.2074C112.77 79.8686 112.827 80.5298 112.863 81.2891C117.104 81.2891 121.124 81.3408 125.144 81.2788C128.839 81.2168 132.621 81.4854 136.218 80.8191C145.072 79.1712 151.007 73.7525 153.556 65.1465ZM144.83 185.676C144.83 179.317 144.845 173.305 144.794 167.292C144.794 166.899 144.417 166.347 144.061 166.14C139.097 163.252 134.112 160.406 129.035 157.503C128.942 157.854 128.864 158.014 128.864 158.18C128.854 163.955 128.818 169.73 128.906 175.505C128.911 176.115 129.54 176.936 130.108 177.277C133.653 179.405 137.255 181.43 140.846 183.476C142.069 184.178 143.313 184.845 144.83 185.676ZM106.206 175.257C106.268 169.787 106.247 164.316 106.237 158.851C106.237 158.464 106.134 158.076 106.057 157.544C100.979 160.447 96.0665 163.216 91.216 166.083C90.7257 166.372 90.3645 167.271 90.3491 167.901C90.2562 170.727 90.3078 173.558 90.3078 176.383V185.423C90.7 185.382 90.9115 185.418 91.0508 185.335C95.8498 182.608 100.654 179.896 105.401 177.086C105.876 176.802 106.201 175.882 106.206 175.257ZM106.206 88.7277C106.253 82.7614 106.237 76.795 106.237 70.4516C101.144 73.3547 96.4329 76.0925 91.6649 78.7218C90.5555 79.3314 90.2613 80.0545 90.2768 81.253C90.3336 86.4754 90.2975 91.6979 90.3078 96.9152C90.3078 97.4421 90.38 97.9638 90.4316 98.7025C95.6021 95.7478 100.556 92.9325 105.473 90.0552C105.855 89.8331 106.201 89.1822 106.206 88.7277ZM94.4204 156.671C97.1811 155.091 99.9366 153.505 102.94 151.779C97.6765 148.768 92.6969 145.896 87.6813 143.086C87.2943 142.869 86.5667 142.936 86.159 143.163C81.1846 145.953 76.2412 148.794 71.2049 151.666C71.4526 151.903 71.6074 152.105 71.8087 152.224C76.5973 154.967 81.3807 157.725 86.2055 160.401C86.6596 160.649 87.5161 160.535 88.0218 160.272C90.1891 159.135 92.2944 157.885 94.4204 156.671ZM102.981 64.7849C98.5434 62.2486 94.2398 60.0377 90.2149 57.3981C87.7948 55.8019 85.9836 55.993 83.6564 57.4756C79.6056 60.0532 75.3434 62.3054 70.9985 64.7953C76.1741 67.7448 81.1176 70.5911 86.1074 73.3547C86.5873 73.6182 87.4749 73.5769 87.9651 73.3031C92.8982 70.5653 97.79 67.7448 102.981 64.7849ZM83.7492 83.6188C83.9918 80.4626 82.8927 78.789 80.1217 77.4252C75.9884 75.39 72.0667 72.9105 67.7322 70.4361C67.7322 76.7847 67.7167 82.689 67.758 88.5985C67.758 89.0686 68.0521 89.7504 68.4236 89.9674C73.3825 92.8808 78.3775 95.7219 83.5738 98.7025C83.6099 97.8295 83.6615 97.2303 83.6615 96.6311C83.6718 92.2919 83.419 87.9322 83.7492 83.6188ZM83.6615 185.738C83.6615 179.323 83.6873 173.356 83.6202 167.39C83.6151 166.904 83.1145 166.243 82.6656 165.98C77.9492 163.237 73.2019 160.551 68.4546 157.859C68.274 157.756 68.0366 157.761 67.727 157.694C67.727 162.855 67.9282 167.891 67.6496 172.902C67.4948 175.743 68.372 177.272 70.916 178.537C75.1576 180.645 79.1877 183.176 83.6615 185.738ZM45.0946 175.65C45.1359 169.689 45.1204 163.728 45.1204 157.415C39.8726 160.416 34.9188 163.206 30.027 166.104C29.5419 166.388 29.1859 167.297 29.1756 167.927C29.0982 171.946 29.1343 175.965 29.1343 179.984V185.346C29.5007 185.372 29.6503 185.428 29.738 185.377C34.6402 182.598 39.5475 179.829 44.4186 176.993C44.785 176.776 45.0895 176.11 45.0946 175.65ZM39.8829 152.885C40.4505 152.559 40.9871 152.188 41.6992 151.733C36.5701 148.789 31.6886 145.958 26.7658 143.21C26.2859 142.941 25.3983 142.951 24.9185 143.21C19.9854 145.953 15.0987 148.773 9.86632 151.764C15.1761 154.801 20.2124 157.71 25.3055 160.52C25.7286 160.752 26.6007 160.442 27.1322 160.148C31.3996 157.756 35.6412 155.318 39.8829 152.88V152.885ZM22.5242 185.542C22.5242 179.328 22.5396 173.361 22.4984 167.4C22.4932 166.987 22.1991 166.393 21.8533 166.192C16.8893 163.299 11.8994 160.458 6.60511 157.425C6.60511 163.764 6.56899 169.668 6.66187 175.567C6.67219 176.177 7.31205 177.003 7.88999 177.344C12.2555 179.927 16.6777 182.417 21.0896 184.927C21.487 185.155 21.9307 185.294 22.5242 185.542Z" fill="#282828"/>
</svg>
