<svg width="40" height="40" viewBox="0 0 40 40" fill="none" xmlns="http://www.w3.org/2000/svg">
<path d="M29.0091 1H28.8183H9.82568H9.63494C8.70328 1 7.83031 1.35946 7.17742 2.01969L5.94498 3.25212C5.28475 3.91235 4.92529 4.78533 4.92529 5.70965V34.2903C4.92529 35.222 5.28475 36.095 5.94498 36.7479L7.17742 37.9803C7.83765 38.6405 8.71062 39 9.63494 39H9.82568H28.8183H29.0091C29.9407 39 30.8137 38.6405 31.4666 37.9803L32.699 36.7479C33.3593 36.0876 33.7187 35.2147 33.7187 34.2903V5.70965C33.7187 4.77799 33.3593 3.90502 32.699 3.25212L31.4666 2.01969C30.8064 1.35946 29.9334 1 29.0091 1ZM28.1508 14.344H10.4859V8.85676H28.1581V14.344H28.1508ZM10.4859 15.6571H28.1581V33.8722H10.4859V15.6571ZM28.1508 2.32046V7.53629H10.4859V2.32046H28.1508ZM6.86931 35.8162C6.46583 35.4127 6.23842 34.8699 6.23842 34.2903V5.70965C6.23842 5.13012 6.46583 4.59459 6.86931 4.18378L8.10174 2.95135C8.39518 2.65791 8.76197 2.45984 9.15811 2.37181V37.6208C8.76197 37.5328 8.39518 37.3347 8.10174 37.0413L6.86931 35.8162ZM10.4859 37.6795V35.1927H28.1581V37.6795H10.4859ZM32.3983 5.70965V34.2903C32.3983 34.8699 32.1709 35.4054 31.7674 35.8162L30.5349 37.0486C30.2415 37.3421 29.8747 37.5401 29.4786 37.6282V2.37181C29.8747 2.45984 30.2415 2.65791 30.5349 2.95135L31.7674 4.18378C32.1709 4.59459 32.3983 5.13012 32.3983 5.70965Z" fill="#911211" stroke="#911211" stroke-width="0.447059"/>
<path d="M24.0284 11.703H25.3782C25.745 11.703 26.0384 11.4096 26.0384 11.0428V10.7567C26.0384 10.3899 25.745 10.0965 25.3782 10.0965H24.0284C23.6616 10.0965 23.3682 10.3899 23.3682 10.7567V11.0428C23.3682 11.4096 23.6689 11.703 24.0284 11.703Z" fill="#911211" stroke="#911211" stroke-width="0.447059"/>
<path d="M19.5145 21.8227C19.1333 21.8227 18.7607 21.9357 18.4438 22.1474C18.1268 22.3591 17.8798 22.6601 17.7338 23.0122C17.5879 23.3643 17.5496 23.7518 17.6238 24.1257C17.698 24.4996 17.8815 24.8431 18.1508 25.1127C18.4202 25.3824 18.7635 25.5661 19.1373 25.6407C19.5111 25.7153 19.8986 25.6774 20.2508 25.5318C20.6031 25.3861 20.9043 25.1394 21.1163 24.8226C21.3283 24.5058 21.4417 24.1333 21.442 23.7521C21.442 23.2407 21.239 22.7502 20.8776 22.3884C20.5161 22.0266 20.0258 21.8231 19.5145 21.8227ZM19.5145 24.9533C19.2765 24.9533 19.0438 24.8827 18.846 24.7504C18.6481 24.6182 18.4939 24.4302 18.4029 24.2103C18.312 23.9903 18.2882 23.7484 18.3348 23.515C18.3814 23.2816 18.4961 23.0672 18.6645 22.899C18.8329 22.7309 19.0474 22.6165 19.2809 22.5702C19.5144 22.524 19.7563 22.5481 19.976 22.6394C20.1958 22.7308 20.3836 22.8852 20.5155 23.0833C20.6475 23.2814 20.7177 23.5141 20.7174 23.7521C20.7164 24.0707 20.5893 24.376 20.3639 24.6011C20.1384 24.8262 19.833 24.9528 19.5145 24.9533Z" fill="#911211" stroke="#911211" stroke-width="0.222537"/>
<path d="M23.2641 22.4297L22.9996 22.2377C22.9628 22.2111 22.9334 22.1754 22.9144 22.1342C22.8953 22.0929 22.8872 22.0474 22.8909 22.0022L22.9199 21.676C22.9312 21.5442 22.916 21.4114 22.8751 21.2856C22.8343 21.1597 22.7686 21.0433 22.6819 20.9433C22.5952 20.8433 22.4894 20.7617 22.3706 20.7033C22.2519 20.645 22.1226 20.611 21.9905 20.6035L21.6626 20.5854C21.6172 20.583 21.5731 20.5689 21.5347 20.5444C21.4963 20.52 21.4649 20.486 21.4434 20.4459L21.2912 20.156C21.2296 20.0388 21.145 19.9352 21.0425 19.8513C20.9401 19.7674 20.8218 19.7049 20.6948 19.6676C20.5677 19.6302 20.4345 19.6188 20.3029 19.6339C20.1713 19.649 20.0442 19.6904 19.9289 19.7556L19.6427 19.9169C19.6031 19.9391 19.5585 19.9508 19.5131 19.9508C19.4678 19.9508 19.4232 19.9391 19.3836 19.9169L19.0992 19.7556C18.9841 19.6905 18.857 19.6491 18.7256 19.634C18.5942 19.6189 18.4611 19.6304 18.3342 19.6677C18.2072 19.7051 18.0891 19.7675 17.9868 19.8514C17.8846 19.9353 17.8002 20.0389 17.7387 20.156L17.5865 20.4459C17.5651 20.486 17.5336 20.52 17.4952 20.5444C17.4568 20.5689 17.4127 20.583 17.3673 20.5854L17.0394 20.6035C16.9073 20.611 16.778 20.645 16.6593 20.7033C16.5405 20.7617 16.4347 20.8433 16.348 20.9433C16.2613 21.0433 16.1956 21.1597 16.1548 21.2856C16.1139 21.4114 16.0987 21.5442 16.11 21.676L16.139 22.0022C16.1429 22.0473 16.1351 22.0926 16.1163 22.1339C16.0976 22.1751 16.0686 22.2109 16.0321 22.2377L15.764 22.4297C15.6571 22.5075 15.5669 22.606 15.4987 22.7193C15.4305 22.8326 15.3857 22.9584 15.3669 23.0893C15.3482 23.2202 15.3559 23.3535 15.3895 23.4814C15.4232 23.6093 15.4822 23.7291 15.5629 23.8338L15.764 24.0929C15.7915 24.1291 15.8093 24.1717 15.8156 24.2168C15.822 24.2618 15.8167 24.3077 15.8003 24.3501L15.6807 24.6581C15.6325 24.7814 15.6095 24.9131 15.6132 25.0455C15.6168 25.1778 15.647 25.3081 15.7019 25.4285C15.7568 25.549 15.8353 25.6572 15.9328 25.7467C16.0303 25.8363 16.1448 25.9054 16.2695 25.9499L16.5774 26.0586C16.6201 26.074 16.6582 26.1 16.688 26.1343C16.7178 26.1685 16.7384 26.2098 16.7477 26.2542L16.7876 26.4517L16.0303 28.9247C16.0129 28.9873 16.0126 29.0534 16.0295 29.1161C16.0463 29.1789 16.0798 29.2359 16.1263 29.2813C16.1728 29.3267 16.2306 29.3587 16.2937 29.3741C16.3568 29.3894 16.4229 29.3875 16.485 29.3686L17.4869 29.0551L18.1119 29.9121C18.1456 29.9577 18.1896 29.9947 18.2402 30.0202C18.2909 30.0457 18.3468 30.0589 18.4035 30.0588H18.4651C18.5312 30.0473 18.5928 30.0176 18.643 29.9732C18.6932 29.9287 18.7301 29.8712 18.7496 29.807L19.3419 27.8685C19.4424 27.8886 19.5458 27.8886 19.6463 27.8685L20.2804 29.8034C20.3008 29.8668 20.3383 29.9233 20.3888 29.9668C20.4393 30.0103 20.5008 30.039 20.5666 30.0498H20.6246C20.6813 30.0498 20.7372 30.0366 20.7879 30.0111C20.8385 29.9856 20.8825 29.9486 20.9162 29.903L21.5412 29.0588L22.543 29.3686C22.6066 29.3885 22.6744 29.3906 22.739 29.3745C22.8036 29.3585 22.8625 29.3249 22.9093 29.2775C22.9561 29.2302 22.9889 29.1708 23.0042 29.106C23.0195 29.0412 23.0166 28.9735 22.9959 28.9102L22.2224 26.5387L22.2804 26.2524C22.2896 26.2079 22.3101 26.1666 22.3399 26.1323C22.3697 26.098 22.4079 26.072 22.4507 26.0568L22.7604 25.9462C22.8845 25.9015 22.9984 25.8325 23.0954 25.7431C23.1924 25.6537 23.2705 25.5458 23.3252 25.4258C23.3799 25.3058 23.41 25.176 23.4138 25.0442C23.4177 24.9124 23.3951 24.7811 23.3474 24.6581L23.2278 24.3519C23.2112 24.3096 23.2058 24.2636 23.2122 24.2186C23.2185 24.1735 23.2364 24.1308 23.2641 24.0947L23.4652 23.8356C23.5459 23.7309 23.6049 23.6111 23.6386 23.4832C23.6722 23.3553 23.6799 23.222 23.6612 23.0911C23.6424 22.9602 23.5976 22.8344 23.5294 22.7211C23.4612 22.6078 23.371 22.5093 23.2641 22.4315V22.4297ZM18.2677 28.8975L17.9162 28.4228C17.8712 28.3614 17.8079 28.3157 17.7353 28.2923C17.6628 28.2688 17.5847 28.2689 17.5122 28.2924L16.9198 28.4736L17.3003 27.2344C17.5135 27.3552 17.7644 27.3914 18.0032 27.3358L18.322 27.2615C18.3664 27.251 18.4127 27.2522 18.4565 27.2649C18.5003 27.2776 18.5401 27.3014 18.572 27.334L18.6988 27.4645L18.2677 28.8975ZM21.5104 28.2924C21.4384 28.2697 21.3611 28.2701 21.2894 28.2935C21.2176 28.3169 21.1549 28.3621 21.1101 28.4228L20.7477 28.9102L20.2894 27.5043L20.4488 27.3413C20.4808 27.3088 20.5206 27.2851 20.5644 27.2724C20.6082 27.2597 20.6544 27.2585 20.6988 27.2688L21.0177 27.3431C21.2449 27.3954 21.4834 27.3646 21.6898 27.2561L22.0865 28.4754L21.5104 28.2924ZM22.8927 23.3899L22.6916 23.649C22.5875 23.7841 22.52 23.9438 22.4956 24.1126C22.4711 24.2815 22.4906 24.4537 22.5521 24.6128L22.6717 24.919C22.6844 24.9519 22.6904 24.987 22.6893 25.0223C22.6882 25.0576 22.6801 25.0922 22.6654 25.1243C22.6507 25.1564 22.6297 25.1852 22.6038 25.2091C22.5778 25.2329 22.5473 25.2513 22.5141 25.2632L22.2043 25.3737C22.0443 25.4314 21.9019 25.5291 21.7905 25.6576C21.6792 25.7861 21.6027 25.941 21.5684 26.1075L21.4978 26.4318C21.4907 26.4664 21.4768 26.4992 21.4568 26.5284C21.4368 26.5575 21.4112 26.5823 21.3815 26.6014C21.3518 26.6205 21.3186 26.6334 21.2838 26.6395C21.249 26.6455 21.2133 26.6445 21.1789 26.6365L20.8601 26.5622C20.695 26.5242 20.5229 26.529 20.3603 26.5763C20.1976 26.6235 20.0497 26.7116 19.9307 26.8322L19.7025 27.0677C19.652 27.1174 19.584 27.1452 19.5131 27.1452C19.4423 27.1452 19.3743 27.1174 19.3238 27.0677L19.0974 26.8322C19.0048 26.7371 18.8941 26.6615 18.7718 26.6098C18.6495 26.5582 18.5182 26.5315 18.3854 26.5314C18.3104 26.5312 18.2356 26.5398 18.1626 26.5568L17.8437 26.6311C17.8093 26.639 17.7737 26.64 17.7389 26.634C17.7041 26.628 17.6709 26.6151 17.6411 26.596C17.6114 26.5769 17.5858 26.552 17.5659 26.5229C17.5459 26.4938 17.532 26.4609 17.5249 26.4263L17.4597 26.1075C17.4237 25.9425 17.3462 25.7894 17.2347 25.6626C17.1231 25.5358 16.9811 25.4395 16.822 25.3828L16.514 25.2723C16.4808 25.2604 16.4503 25.242 16.4243 25.2181C16.3983 25.1943 16.3774 25.1655 16.3627 25.1334C16.348 25.1013 16.3399 25.0666 16.3388 25.0314C16.3377 24.9961 16.3437 24.961 16.3564 24.9281L16.476 24.6219C16.5373 24.4627 16.5567 24.2905 16.5323 24.1217C16.5078 23.9529 16.4404 23.7933 16.3365 23.6581L16.1354 23.3899C16.1139 23.3619 16.0982 23.3299 16.0893 23.2957C16.0804 23.2615 16.0784 23.2259 16.0835 23.1909C16.0885 23.156 16.1006 23.1224 16.1188 23.0922C16.1371 23.0619 16.1612 23.0357 16.1898 23.0149L16.4561 22.8229C16.5931 22.7225 16.7022 22.5888 16.7729 22.4343C16.8437 22.2799 16.8737 22.1099 16.86 21.9406L16.8311 21.6144C16.8278 21.5792 16.8318 21.5437 16.8426 21.51C16.8535 21.4763 16.871 21.4452 16.8942 21.4185C16.9174 21.3917 16.9457 21.3699 16.9775 21.3544C17.0093 21.3389 17.0439 21.33 17.0793 21.3282L17.4072 21.3101C17.5774 21.3 17.7422 21.2461 17.8857 21.1538C18.0291 21.0614 18.1463 20.9337 18.226 20.7829L18.3782 20.493C18.3947 20.4619 18.4172 20.4345 18.4445 20.4122C18.4717 20.39 18.5031 20.3734 18.5369 20.3635C18.5706 20.3535 18.606 20.3504 18.641 20.3543C18.6759 20.3582 18.7098 20.369 18.7405 20.3861L19.0267 20.5474C19.1753 20.6308 19.3428 20.6747 19.5131 20.6747C19.6835 20.6747 19.851 20.6308 19.9996 20.5474L20.2858 20.3861C20.3165 20.3687 20.3503 20.3577 20.3853 20.3537C20.4203 20.3497 20.4558 20.3527 20.4896 20.3627C20.5234 20.3727 20.5549 20.3893 20.5821 20.4117C20.6093 20.4341 20.6318 20.4618 20.6481 20.493L20.8003 20.7829C20.8802 20.9334 20.9975 21.0607 21.1409 21.1528C21.2844 21.2448 21.449 21.2983 21.6191 21.3083L21.947 21.3264C21.9824 21.3282 22.017 21.3371 22.0488 21.3526C22.0806 21.3681 22.1089 21.3899 22.1321 21.4166C22.1553 21.4434 22.1728 21.4745 22.1837 21.5082C22.1945 21.5419 22.1984 21.5774 22.1952 21.6126L22.168 21.9406C22.1538 22.1105 22.1835 22.2812 22.2542 22.4363C22.325 22.5915 22.4344 22.7258 22.572 22.8265L22.8365 23.0185C22.8651 23.0393 22.8892 23.0656 22.9075 23.0958C22.9257 23.126 22.9377 23.1596 22.9428 23.1946C22.9479 23.2295 22.9459 23.2651 22.937 23.2993C22.9281 23.3335 22.9124 23.3655 22.8909 23.3935L22.8927 23.3899Z" fill="#911211" stroke="#911211" stroke-width="0.222537"/>
</svg>
