<svg width="40" height="41" viewBox="0 0 40 41" fill="none" xmlns="http://www.w3.org/2000/svg">
<path d="M11.1327 32.997C12.4621 32.997 13.5389 31.9203 13.5389 30.591C13.5389 29.2616 12.4621 28.1849 11.1327 28.1849C9.80331 28.1849 8.72656 29.2616 8.72656 30.591C8.72656 31.9143 9.80331 32.997 11.1327 32.997ZM11.1327 29.785C11.5778 29.785 11.9328 30.1459 11.9328 30.585C11.9328 31.0301 11.5718 31.385 11.1327 31.385C10.6876 31.385 10.3327 31.0241 10.3327 30.585C10.3327 30.1459 10.6876 29.785 11.1327 29.785Z" fill="#911211" stroke="#911211" stroke-width="0.45283"/>
<path fill-rule="evenodd" clip-rule="evenodd" d="M20.7645 2.55474V19.197L20.7585 20.803V39.4453C20.7585 39.8844 20.4036 40.2453 19.9584 40.2453H2.30932C1.8702 40.2453 1.50928 39.8904 1.50928 39.4453V2.55474C1.50928 2.11564 1.8702 1.75473 2.31534 1.75473H19.9584C20.3975 1.75473 20.7585 2.11564 20.7645 2.55474ZM19.1524 38.6453H3.11538V17.7549H19.1524V38.6453ZM19.1524 16.1549H3.11538V12.9428H19.1524V16.1549ZM19.1524 11.3428H3.11538V8.15479H19.1524V11.3428ZM19.1524 6.54876H3.11538V3.36076H19.1524V6.54876Z" fill="#911211" stroke="#911211" stroke-width="0.45283"/>
<path d="M27.9215 19.9608C27.9215 20.4608 28.4313 20.8432 29.0979 20.8432C29.7646 20.8432 30.2744 20.4608 30.2744 19.9608L30.2744 19.3726C30.2744 18.8726 29.7646 18.4902 29.0979 18.4902C28.4313 18.4902 27.9215 18.8726 27.9215 19.3726L27.9215 19.9608Z" fill="#911211"/>
<path d="M38.8695 33.6585C38.9019 33.3974 38.9019 33.1689 38.9019 32.9078C38.9019 29.9053 37.0882 27.1639 34.3678 25.989L34.3678 15.9372C34.3678 14.3054 33.0723 13 31.453 13C29.8337 13 28.5382 14.3054 28.5382 15.9372C28.5382 16.492 28.9592 16.9163 29.5098 16.9163C30.0604 16.9163 30.4814 16.492 30.4814 15.9372C30.4814 15.3824 30.9024 14.9581 31.453 14.9581C32.0036 14.9581 32.4246 15.3824 32.4246 15.9372L32.4246 26.707C32.4246 26.8376 32.457 26.9681 32.4894 27.0334C32.5865 27.2945 32.8132 27.5229 33.1047 27.6208C35.5661 28.4041 37.1854 30.8518 36.9263 33.4626C36.7644 34.9313 36.0842 36.2693 34.9507 37.2158C33.8172 38.1622 32.3922 38.5865 30.9024 38.4559C27.8905 38.1622 25.6558 35.4208 25.9797 32.3857C26.2064 30.1991 27.6962 28.3388 29.7689 27.6535C30.028 27.5556 30.2223 27.3924 30.3519 27.1639C30.449 27.066 30.4814 26.9355 30.4814 26.7397L30.4814 24.4552C30.4814 23.9004 30.0604 23.4761 29.5098 23.4761C28.9592 23.4761 28.5382 23.9004 28.5382 24.4552L28.5382 26.0217C26.0445 27.0987 24.328 29.4484 24.0365 32.1899C23.8422 34.1806 24.4252 36.1388 25.6882 37.7053C26.9513 39.2718 28.7325 40.2183 30.7081 40.4141C32.6837 40.6099 34.6269 40.0224 36.1814 38.7496C37.7036 37.4442 38.6752 35.6492 38.8695 33.6585Z" fill="#911211"/>
<path d="M32.5 6.75C32.5 4.68 30.82 3 28.75 3L27.5 3L27.5 1L24 4L27.5 7L27.5 5L28.75 5C29.715 5 30.5 5.785 30.5 6.75L30.5 10.5L32.5 10.5L32.5 6.75Z" fill="#911211"/>
<path d="M28.967 35.7436L33.15 35.7436C33.7426 35.7436 34.1958 35.2338 34.1958 34.5671C34.1958 33.9004 33.7426 33.3906 33.15 33.3906L28.967 33.3906C28.3745 33.3906 27.9213 33.9004 27.9213 34.5671C27.9213 35.2338 28.3745 35.7436 28.967 35.7436Z" fill="#911211"/>
</svg>
