<svg width="40" height="40" viewBox="0 0 40 40" fill="none" xmlns="http://www.w3.org/2000/svg">
<path d="M16.9948 19.7474C16.7517 19.9918 16.3547 19.9918 16.1035 19.7474C15.8604 19.5029 15.8604 19.1036 16.1035 18.851L20.8193 14.1082C21.0624 13.8637 21.4594 13.8637 21.7106 14.1082L23.6229 16.0314L28.1928 11.4352C28.444 11.1908 28.833 11.1908 29.0841 11.4352C29.3272 11.6797 29.3272 12.079 29.0841 12.3316L24.0685 17.376C23.8254 17.6204 23.4284 17.6204 23.1772 17.376L21.2649 15.4528L16.9948 19.7474ZM19.2474 29.4204C19.5958 29.4204 19.8794 29.7056 19.8794 30.056C19.8794 30.4064 19.5958 30.6917 19.2474 30.6917H14.175C13.8266 30.6917 13.543 30.4064 13.543 30.056C13.543 29.7056 13.8266 29.4204 14.175 29.4204H19.2474ZM19.2474 32.183C19.5958 32.183 19.8794 32.4682 19.8794 32.8186C19.8794 33.169 19.5958 33.4542 19.2474 33.4542H14.175C13.8266 33.4542 13.543 33.169 13.543 32.8186C13.543 32.4682 13.8266 32.183 14.175 32.183H19.2474ZM15.5444 15.355C15.5444 18.1012 13.3323 20.326 10.6017 20.326C7.87103 20.326 5.65897 18.1012 5.65897 15.355C5.65897 12.6087 7.87103 10.384 10.6017 10.384C10.9501 10.384 11.2337 10.6692 11.2337 11.0196V14.7275H14.9205C15.2689 14.7193 15.5444 15.0046 15.5444 15.355ZM13.2108 17.9709C13.7375 17.4412 14.1021 16.7485 14.2398 15.9825H10.6098C10.2614 15.9825 9.97776 15.6972 9.97776 15.3468V11.696C8.22755 11.9975 6.923 13.5296 6.923 15.3468C6.923 17.3923 8.56787 19.0547 10.6098 19.0547C11.6226 19.0547 12.5463 18.6391 13.2108 17.9709ZM12.4086 8.4445C15.1392 8.4445 17.3513 10.6692 17.3513 13.4155C17.3513 13.7659 17.0677 14.0511 16.7193 14.0511H12.4086C12.0602 14.0511 11.7766 13.7659 11.7766 13.4155V9.08013C11.7847 8.72972 12.0602 8.4445 12.4086 8.4445ZM15.0177 10.7915C14.491 10.2618 13.8023 9.89505 13.0406 9.76466V12.7798H16.0386C15.909 12.0138 15.5444 11.3211 15.0177 10.7915ZM7.06075 5.34782V3.6365C7.06075 2.07187 8.33289 0.784302 9.89673 0.784302H34.0269C35.5826 0.784302 36.8628 2.06372 36.8628 3.6365V31.7999C36.8628 33.3646 35.5907 34.6522 34.0269 34.6522H32.147V36.3635C32.147 37.9281 30.8749 39.2157 29.311 39.2157H10.7718C10.6017 39.2157 10.4477 39.1505 10.3262 39.0282L2.53939 31.1969C2.41785 31.0747 2.35303 30.9117 2.35303 30.7406V8.20003C2.35303 6.63539 3.62517 5.34782 5.18901 5.34782H7.06075ZM32.147 33.389H34.0269C34.8939 33.389 35.5988 32.6719 35.5988 31.8081V3.6365C35.5988 2.76454 34.8857 2.05557 34.0269 2.05557H9.88863C9.02163 2.05557 8.31668 2.76454 8.31668 3.6365V5.34782H29.311C30.8668 5.34782 32.147 6.62724 32.147 8.20003V33.389ZM19.2474 22.4447C19.5958 22.4447 19.8794 22.7299 19.8794 23.0804C19.8794 23.4308 19.5958 23.716 19.2474 23.716H10.3505C10.0021 23.716 9.71847 23.4308 9.71847 23.0804C9.71847 22.7299 10.0021 22.4447 10.3505 22.4447H19.2474ZM19.2474 25.2154C19.5958 25.2154 19.8794 25.5007 19.8794 25.8511C19.8794 26.2015 19.5958 26.4867 19.2474 26.4867H10.3505C10.0021 26.4867 9.71847 26.2015 9.71847 25.8511C9.71847 25.5007 10.0021 25.2154 10.3505 25.2154H19.2474ZM26.1509 30.0153H23.3393V32.8512H26.1509V30.0153ZM22.7072 28.7522H26.7749C27.1233 28.7522 27.4069 29.0374 27.4069 29.3878V33.4868C27.4069 33.8372 27.1233 34.1225 26.7749 34.1225H22.7072C22.3588 34.1225 22.0752 33.8372 22.0752 33.4868V29.3878C22.0752 29.0374 22.3588 28.7522 22.7072 28.7522ZM26.1509 23.0478H23.3393V25.8755H26.1509V23.0478ZM22.7072 21.7847H26.7749C27.1233 21.7847 27.4069 22.0699 27.4069 22.4203V26.5193C27.4069 26.8697 27.1233 27.1549 26.7749 27.1549H22.7072C22.3588 27.1549 22.0752 26.8697 22.0752 26.5193V22.4203C22.0752 22.0699 22.3588 21.7847 22.7072 21.7847ZM3.60896 30.1049H8.57597C10.1317 30.1049 11.412 31.3843 11.412 32.9571V37.9526H29.3191C30.1861 37.9526 30.8911 37.2354 30.8911 36.3716V8.20003C30.8911 7.32807 30.178 6.61909 29.3191 6.61909H5.1809C4.3139 6.61909 3.60896 7.33622 3.60896 8.20003V30.1049ZM10.1479 37.0561V32.9571C10.1479 32.0852 9.43487 31.3762 8.57597 31.3762H4.49217L10.1479 37.0561Z" fill="#911211" stroke="#911211" stroke-width="0.392157"/>
</svg>
