<svg width="40" height="40" viewBox="0 0 40 40" fill="none" xmlns="http://www.w3.org/2000/svg">
<path d="M35.3454 29.9156C35.0606 29.7422 34.6981 29.7633 34.436 29.9696C32.6517 31.3672 30.0314 31.3664 28.2478 29.9696C27.9845 29.7633 27.622 29.7422 27.3384 29.9156C24.9989 31.3406 23.5571 33.8742 23.4817 36.6922C23.4731 37.0078 23.6513 37.2992 23.9364 37.4352C26.3935 38.6086 28.8677 39.1953 31.3419 39.1953C33.8161 39.1953 36.2899 38.6086 38.747 37.4352C39.0321 37.2992 39.2103 37.0078 39.2017 36.6922C39.1267 33.8742 37.6849 31.3406 35.3454 29.9156ZM25.1142 36.2164C25.3056 34.3321 26.2552 32.6508 27.7384 31.5711C29.8829 32.9696 32.8001 32.9703 34.9454 31.5711C36.4286 32.6508 37.3782 34.3321 37.5692 36.2164C33.3841 38.0758 29.3001 38.0758 25.1142 36.2164Z" fill="#911211" stroke="#911211" stroke-width="0.48"/>
<path d="M26.9502 25.1188C26.9502 27.5399 28.9201 29.5102 31.3416 29.5102C33.7627 29.5102 35.7326 27.5399 35.7326 25.1188C35.7326 22.6977 33.7627 20.7274 31.3416 20.7274C28.9201 20.7274 26.9502 22.6977 26.9502 25.1188ZM31.3416 22.3274C32.8807 22.3274 34.1326 23.5797 34.1326 25.1188C34.1326 26.6578 32.8807 27.9102 31.3416 27.9102C29.8025 27.9102 28.5502 26.6578 28.5502 25.1188C28.5502 23.5797 29.8025 22.3274 31.3416 22.3274Z" fill="#911211" stroke="#911211" stroke-width="0.48"/>
<path d="M1.25479 37.4352C3.71182 38.6086 6.18604 39.1953 8.66026 39.1953C11.1345 39.1953 13.6087 38.6086 16.0657 37.4352C16.3509 37.2992 16.529 37.0078 16.5204 36.6922C16.445 33.8742 15.0032 31.3406 12.6638 29.9156C12.3794 29.7422 12.0161 29.7633 11.7544 29.9696C9.97002 31.3664 7.35049 31.3664 5.56612 29.9696C5.30323 29.7633 4.94073 29.7422 4.65674 29.9156C2.31729 31.3406 0.875493 33.8742 0.800102 36.6922C0.791509 37.0078 0.969633 37.2992 1.25479 37.4352ZM5.05674 31.5711C7.20205 32.9696 10.1185 32.9696 12.2638 31.5711C13.747 32.6508 14.6966 34.3321 14.888 36.2164C10.7021 38.0758 6.61846 38.0758 2.43252 36.2164C2.62393 34.3321 3.57354 32.6508 5.05674 31.5711Z" fill="#911211" stroke="#911211" stroke-width="0.48"/>
<path d="M4.26855 25.1188C4.26855 27.5399 6.23848 29.5102 8.65957 29.5102C11.0811 29.5102 13.051 27.5399 13.051 25.1188C13.051 22.6977 11.0811 20.7274 8.65957 20.7274C6.23848 20.7274 4.26855 22.6977 4.26855 25.1188ZM11.451 25.1188C11.451 26.6578 10.1986 27.9102 8.65957 27.9102C7.12051 27.9102 5.86855 26.6578 5.86855 25.1188C5.86855 23.5797 7.12051 22.3274 8.65957 22.3274C10.1986 22.3274 11.451 23.5797 11.451 25.1188Z" fill="#911211" stroke="#911211" stroke-width="0.48"/>
<path d="M28.7586 19.3741C29.0438 19.2381 29.2219 18.9467 29.2133 18.6311C29.1246 15.3248 27.4344 12.3537 24.6914 10.6826C24.4066 10.5084 24.0441 10.5295 23.782 10.7366C22.6914 11.5912 21.384 12.0428 20.0004 12.0428C18.6172 12.0428 17.3098 11.5912 16.2191 10.7366C15.9559 10.5295 15.5934 10.5084 15.3098 10.6826C12.5668 12.3537 10.8766 15.3248 10.7879 18.6311C10.7793 18.9467 10.9574 19.2381 11.2426 19.3741C14.1484 20.7623 17.0746 21.4561 20.0008 21.4561C22.9266 21.4561 25.8527 20.7623 28.7586 19.3741ZM15.7031 12.3381C16.9766 13.1936 18.4508 13.6428 20.0004 13.6428C21.5504 13.6428 23.0246 13.1936 24.2981 12.3381C26.1797 13.6678 27.3754 15.7842 27.5844 18.1545C22.5496 20.4139 17.4523 20.4139 12.4168 18.1545C12.6258 15.7842 13.8215 13.6678 15.7031 12.3381Z" fill="#911211" stroke="#911211" stroke-width="0.48"/>
<path d="M19.9979 10.9586C22.7986 10.9586 25.0771 8.67968 25.0771 5.87889C25.0771 3.07811 22.7986 0.799988 19.9979 0.799988C17.1975 0.799988 14.9189 3.07811 14.9189 5.87889C14.9189 8.67968 17.1975 10.9586 19.9979 10.9586ZM19.9979 2.39999C21.9162 2.39999 23.4771 3.96093 23.4771 5.87889C23.4771 7.79764 21.9162 9.35858 19.9979 9.35858C18.0795 9.35858 16.5189 7.79764 16.5189 5.87889C16.5189 3.96093 18.0795 2.39999 19.9979 2.39999Z" fill="#911211" stroke="#911211" stroke-width="0.48"/>
<path d="M15.9875 29.9273C17.657 29.9273 19.1305 29.0719 19.993 27.7765C20.1688 28.0414 20.3727 28.2906 20.6027 28.5203C21.5109 29.4297 22.7188 29.9304 24.0039 29.9304C24.4457 29.9304 24.8039 29.5726 24.8039 29.1304C24.8039 28.6883 24.4457 28.3304 24.0039 28.3304C23.1465 28.3304 22.3406 27.9961 21.7344 27.3898C21.1285 26.7828 20.7949 25.9765 20.7957 25.1195C20.7957 24.6781 20.4379 24.3187 19.9961 24.3187C19.5547 24.3187 19.1961 24.6765 19.1957 25.1179C19.1957 25.1195 19.1957 25.1203 19.1957 25.1219C19.1941 26.8898 17.7555 28.3273 15.9875 28.3273C15.5457 28.3273 15.1875 28.6851 15.1875 29.1273C15.1875 29.5695 15.5457 29.9273 15.9875 29.9273Z" fill="#911211" stroke="#911211" stroke-width="0.48"/>
</svg>
