<svg width="40" height="40" viewBox="0 0 40 40" fill="none" xmlns="http://www.w3.org/2000/svg">
<mask id="path-1-inside-1_4213_19779" fill="white">
<path fill-rule="evenodd" clip-rule="evenodd" d="M5.92773 21.9047C5.92773 18.2228 8.9125 15.238 12.5944 15.238H27.8325C31.5144 15.238 34.4992 18.2228 34.4992 21.9047V33.3332C34.4992 37.0151 31.5144 39.9999 27.8325 39.9999H12.5944C8.9125 39.9999 5.92773 37.0151 5.92773 33.3332V21.9047ZM12.5944 17.1428C9.96448 17.1428 7.8325 19.2748 7.8325 21.9047V33.3332C7.8325 35.9631 9.96448 38.0951 12.5944 38.0951H27.8325C30.4624 38.0951 32.5944 35.9631 32.5944 33.3332V21.9047C32.5944 19.2748 30.4624 17.1428 27.8325 17.1428H12.5944Z"/>
</mask>
<path fill-rule="evenodd" clip-rule="evenodd" d="M5.92773 21.9047C5.92773 18.2228 8.9125 15.238 12.5944 15.238H27.8325C31.5144 15.238 34.4992 18.2228 34.4992 21.9047V33.3332C34.4992 37.0151 31.5144 39.9999 27.8325 39.9999H12.5944C8.9125 39.9999 5.92773 37.0151 5.92773 33.3332V21.9047ZM12.5944 17.1428C9.96448 17.1428 7.8325 19.2748 7.8325 21.9047V33.3332C7.8325 35.9631 9.96448 38.0951 12.5944 38.0951H27.8325C30.4624 38.0951 32.5944 35.9631 32.5944 33.3332V21.9047C32.5944 19.2748 30.4624 17.1428 27.8325 17.1428H12.5944Z" fill="black"/>
<path d="M8.35631 21.9047C8.35631 19.564 10.2538 17.6666 12.5944 17.6666V12.8094C7.57123 12.8094 3.49916 16.8815 3.49916 21.9047H8.35631ZM12.5944 17.6666H27.8325V12.8094H12.5944V17.6666ZM27.8325 17.6666C30.1731 17.6666 32.0706 19.564 32.0706 21.9047H36.9277C36.9277 16.8815 32.8557 12.8094 27.8325 12.8094V17.6666ZM32.0706 21.9047V33.3332H36.9277V21.9047H32.0706ZM32.0706 33.3332C32.0706 35.6739 30.1731 37.5713 27.8325 37.5713V42.4285C32.8557 42.4285 36.9277 38.3564 36.9277 33.3332H32.0706ZM27.8325 37.5713H12.5944V42.4285H27.8325V37.5713ZM12.5944 37.5713C10.2538 37.5713 8.35631 35.6739 8.35631 33.3332H3.49916C3.49916 38.3564 7.57123 42.4285 12.5944 42.4285V37.5713ZM8.35631 33.3332V21.9047H3.49916V33.3332H8.35631ZM12.5944 14.7142C8.62321 14.7142 5.40392 17.9335 5.40392 21.9047H10.2611C10.2611 20.616 11.3057 19.5713 12.5944 19.5713V14.7142ZM5.40392 21.9047V33.3332H10.2611V21.9047H5.40392ZM5.40392 33.3332C5.40392 37.3044 8.62321 40.5237 12.5944 40.5237V35.6666C11.3057 35.6666 10.2611 34.6219 10.2611 33.3332H5.40392ZM12.5944 40.5237H27.8325V35.6666H12.5944V40.5237ZM27.8325 40.5237C31.8037 40.5237 35.023 37.3044 35.023 33.3332H30.1658C30.1658 34.6219 29.1211 35.6666 27.8325 35.6666V40.5237ZM35.023 33.3332V21.9047H30.1658V33.3332H35.023ZM35.023 21.9047C35.023 17.9335 31.8037 14.7142 27.8325 14.7142V19.5713C29.1211 19.5713 30.1658 20.616 30.1658 21.9047H35.023ZM27.8325 14.7142H12.5944V19.5713H27.8325V14.7142Z" fill="#911211" mask="url(#path-1-inside-1_4213_19779)"/>
<mask id="path-3-inside-2_4213_19779" fill="white">
<path fill-rule="evenodd" clip-rule="evenodd" d="M9.73828 10.4762C9.73828 4.69034 14.4286 0 20.2145 0C26.0004 0 30.6907 4.69034 30.6907 10.4762V16.1905C30.6907 16.7164 30.2642 17.1429 29.7383 17.1429H10.6907C10.1647 17.1429 9.73828 16.7164 9.73828 16.1905V10.4762ZM20.2145 1.90476C15.4806 1.90476 11.643 5.74232 11.643 10.4762V15.2381H28.7859V10.4762C28.7859 5.74232 24.9484 1.90476 20.2145 1.90476Z"/>
</mask>
<path fill-rule="evenodd" clip-rule="evenodd" d="M9.73828 10.4762C9.73828 4.69034 14.4286 0 20.2145 0C26.0004 0 30.6907 4.69034 30.6907 10.4762V16.1905C30.6907 16.7164 30.2642 17.1429 29.7383 17.1429H10.6907C10.1647 17.1429 9.73828 16.7164 9.73828 16.1905V10.4762ZM20.2145 1.90476C15.4806 1.90476 11.643 5.74232 11.643 10.4762V15.2381H28.7859V10.4762C28.7859 5.74232 24.9484 1.90476 20.2145 1.90476Z" fill="black"/>
<path d="M11.643 15.2381H9.21447V17.6667H11.643V15.2381ZM28.7859 15.2381V17.6667H31.2145V15.2381H28.7859ZM12.1669 10.4762C12.1669 6.03161 15.7699 2.42857 20.2145 2.42857V-2.42857C13.0874 -2.42857 7.30971 3.34908 7.30971 10.4762H12.1669ZM20.2145 2.42857C24.6591 2.42857 28.2621 6.0316 28.2621 10.4762H33.1192C33.1192 3.34909 27.3416 -2.42857 20.2145 -2.42857V2.42857ZM28.2621 10.4762V16.1905H33.1192V10.4762H28.2621ZM28.2621 16.1905C28.2621 15.3751 28.9229 14.7143 29.7383 14.7143V19.5714C31.6054 19.5714 33.1192 18.0576 33.1192 16.1905H28.2621ZM29.7383 14.7143H10.6907V19.5714H29.7383V14.7143ZM10.6907 14.7143C11.5061 14.7143 12.1669 15.3752 12.1669 16.1905H7.30971C7.30971 18.0575 8.82329 19.5714 10.6907 19.5714V14.7143ZM12.1669 16.1905V10.4762H7.30971V16.1905H12.1669ZM20.2145 -0.523809C14.1393 -0.523809 9.21447 4.40106 9.21447 10.4762H14.0716C14.0716 7.08359 16.8219 4.33333 20.2145 4.33333V-0.523809ZM9.21447 10.4762V15.2381H14.0716V10.4762H9.21447ZM11.643 17.6667H28.7859V12.8095H11.643V17.6667ZM31.2145 15.2381V10.4762H26.3573V15.2381H31.2145ZM31.2145 10.4762C31.2145 4.40107 26.2896 -0.523809 20.2145 -0.523809V4.33333C23.6071 4.33333 26.3573 7.08358 26.3573 10.4762H31.2145Z" fill="#911211" mask="url(#path-3-inside-2_4213_19779)"/>
<path d="M18.7372 30.8417C18.9099 30.6793 18.8764 30.379 18.6598 30.1487C18.4433 29.9184 18.1456 29.8665 17.9729 30.0289L17.7697 30.22C17.5969 30.3824 17.6304 30.6827 17.847 30.913C18.0636 31.1433 18.3612 31.1952 18.534 31.0328L18.7372 30.8417Z" fill="#911211" stroke="#911211" stroke-width="0.514834"/>
<path d="M19.9127 22.6097C19.812 22.6833 19.733 22.7575 19.6428 22.8423C18.6056 23.8176 18.2477 25.3347 18.7256 26.6561L15.2531 29.9213C14.6894 30.4513 14.6593 31.3229 15.1853 31.8823C15.7113 32.4417 16.5831 32.4652 17.1468 31.9351C17.3384 31.7549 17.3482 31.4716 17.1694 31.2814C16.9905 31.0912 16.7072 31.0836 16.5156 31.2638C16.3239 31.4441 16.0406 31.4364 15.8617 31.2462C15.6829 31.056 15.6927 30.7728 15.8843 30.5926L19.6048 27.0941C19.6499 27.0517 19.6845 26.9981 19.6965 26.9657C19.7551 26.8474 19.7604 26.6948 19.6996 26.5624C19.1706 25.4576 19.4901 24.1031 20.4762 23.3445C21.0362 22.9234 21.7193 22.7237 22.4145 22.8079C23.1097 22.892 23.7191 23.2465 24.1579 23.8035C25.0349 24.9394 24.8137 26.6019 23.66 27.4759C22.831 28.1079 21.7045 28.1975 20.7944 27.7041C20.6764 27.6464 20.5569 27.6323 20.4359 27.6617C20.3706 27.66 20.3149 27.6912 20.2473 27.7548L19.4581 28.4969C19.2664 28.6771 19.2566 28.9604 19.4355 29.1506C19.6143 29.3408 19.8977 29.3484 20.0893 29.1682L20.6305 28.6593C21.8126 29.1709 23.1819 29.0006 24.2236 28.2108C24.9744 27.6313 25.4615 26.7938 25.5924 25.8486C25.7233 24.9034 25.4716 23.9806 24.8975 23.2346C24.3234 22.4885 23.4893 22.008 22.5446 21.8845C21.5992 21.7827 20.6635 22.0301 19.9127 22.6097Z" fill="#911211" stroke="#911211" stroke-width="0.514834"/>
<path d="M23.2867 25.5976L21.9279 24.1526C21.7354 23.9479 21.4121 23.9569 21.1818 24.1735C20.9515 24.3901 20.9226 24.7122 21.1151 24.9169L22.4739 26.362C22.6664 26.5667 22.9897 26.5576 23.22 26.3411C23.4503 26.1245 23.4792 25.8023 23.2867 25.5976Z" fill="#911211" stroke="#911211" stroke-width="0.514834"/>
</svg>
