<svg width="40" height="40" viewBox="0 0 40 40" fill="none" xmlns="http://www.w3.org/2000/svg">
<path d="M0 29.9932V5.88914C0 4.28509 1.30057 2.94116 2.94797 2.94116H33.9883C35.5924 2.94116 36.9363 4.24174 36.9363 5.88914V7.53654C36.9363 8.14347 36.4594 8.62035 35.8525 8.62035C35.2456 8.62035 34.7687 8.14347 34.7687 7.53654V5.88914C34.7687 5.45561 34.4219 5.10879 33.9883 5.10879H2.90462C2.47109 5.10879 2.12427 5.45561 2.12427 5.88914V9.92093H31.9941C32.6011 9.92093 33.0779 10.3978 33.0779 11.0047C33.0779 11.6117 32.6011 12.0886 31.9941 12.0886H2.16762V29.9932C2.16762 30.4267 2.51444 30.7735 2.94797 30.7735H12.9012C13.5081 30.7735 13.985 31.2504 13.985 31.8573C13.985 32.4643 13.5081 32.9412 12.9012 32.9412H2.90462C1.30057 32.9412 0 31.5972 0 29.9932ZM33.5183 14.1686C33.9951 13.6918 34.472 13.6051 34.7755 13.6051C34.8622 13.6051 34.9055 13.6051 34.9922 13.6051H35.0789C35.3391 13.6484 35.6859 13.6918 36.0761 13.8218C37.6367 14.4288 38.7639 15.5559 39.4576 17.1166C39.5876 17.4201 39.631 17.6802 39.6743 17.9403C39.6743 18.027 39.7177 18.1137 39.7177 18.1571C39.761 18.2871 39.761 18.4172 39.761 18.5039C39.7177 18.9808 39.5009 19.4143 39.1974 19.7611C35.8593 23.0559 26.7119 32.2467 23.4171 35.5415C23.157 35.8016 22.8102 35.975 22.42 36.0617C21.1195 36.3218 19.8189 36.6253 18.5183 36.8854L18.1281 36.9721C17.9981 37.0155 17.9114 37.0155 17.7813 37.0155C17.3044 37.0155 16.9143 36.7987 16.6108 36.4519C16.3073 36.105 16.2206 35.6282 16.3073 35.1513L16.4374 34.501C16.6975 33.2871 16.9576 32.0299 17.2177 30.816C17.3044 30.4692 17.4778 30.1657 17.738 29.9056C18.4749 29.1686 19.1686 28.4316 19.9056 27.738L22.3333 25.3103C25.6715 21.9721 31.5674 16.0761 33.5183 14.1686ZM34.9055 20.975L32.3477 18.4172C29.7466 21.0183 26.235 24.5733 23.894 26.8709L21.4229 29.2987C20.7293 29.9923 19.9923 30.7293 19.2986 31.423C19.0819 32.5068 18.8218 33.5906 18.605 34.6744C19.6888 34.4577 20.7726 34.1975 21.8564 33.9808C24.5009 31.3363 30.7437 25.0935 34.9055 20.975ZM33.8217 16.8565L36.3795 19.4143C36.813 19.0241 37.1599 18.634 37.4633 18.3305C37.42 18.2004 37.42 18.0704 37.3766 17.9837C36.9431 16.9432 36.2061 16.2496 35.1657 15.816C35.0789 15.7727 34.9922 15.7727 34.8622 15.7727C34.6454 16.0761 34.2553 16.4663 33.8217 16.8565ZM7.32657 7.53654C7.32657 8.18683 7.8468 8.75041 8.54044 8.75041C9.23408 8.75041 9.75431 8.23018 9.75431 7.53654C9.75431 6.88625 9.23408 6.32267 8.54044 6.32267C7.8468 6.32267 7.32657 6.8429 7.32657 7.53654ZM11.2716 7.53654C11.2716 8.18683 11.7919 8.75041 12.4855 8.75041C13.1792 8.75041 13.6994 8.23018 13.6994 7.53654C13.6994 6.88625 13.1792 6.32267 12.4855 6.32267C11.7919 6.32267 11.2716 6.8429 11.2716 7.53654ZM3.38149 7.53654C3.38149 8.18683 3.90172 8.75041 4.59536 8.75041C5.289 8.75041 5.80923 8.23018 5.80923 7.53654C5.80923 6.88625 5.289 6.32267 4.59536 6.32267C3.90172 6.32267 3.38149 6.8429 3.38149 7.53654Z" fill="#911211"/>
</svg>
