<svg width="180" height="179" viewBox="0 0 180 179" fill="none" xmlns="http://www.w3.org/2000/svg">
<path d="M89.5335 119.255C106.004 119.255 119.289 105.998 119.298 89.5455C119.308 73.0549 106.081 59.7735 89.6244 59.7496C73.1203 59.7257 59.807 72.9354 59.7735 89.3685C59.74 105.945 72.9912 119.25 89.5335 119.255ZM89.6723 52.1356C110.166 52.2026 126.957 69.0949 126.914 89.5933C126.871 110.073 109.979 126.898 89.4857 126.869C68.9919 126.841 52.1529 109.977 52.1577 89.4929C52.1577 68.9323 69.0971 52.0687 89.6723 52.1356V52.1356Z" fill="#282828"/>
<path d="M27.4925 59.257C27.9278 58.3196 27.8513 57.7361 27.2246 56.9517C24.8183 53.953 22.4982 50.8873 20.1302 47.8599C15.6287 42.1064 15.9444 36.4629 21.0726 31.3263C24.6126 27.7824 28.1479 24.2289 31.707 20.7041C36.3377 16.1175 42.0974 15.7349 47.307 19.695C50.5552 22.158 53.7699 24.6641 56.9559 27.2133C57.7309 27.8302 58.3193 27.945 59.2665 27.5098C61.7397 26.3667 64.2608 25.3098 66.8249 24.3771C67.9204 23.9754 68.3844 23.368 68.5136 22.2776C68.9776 18.2888 69.5373 14.3192 69.9583 10.3257C70.5993 4.30439 75.2731 0.0191399 81.3485 0.00957463C84.3527 0.00479198 87.3569 0 90.3612 0C92.8344 0 95.3076 9.34131e-06 97.7808 0.00957463C103.765 0.0191399 108.42 4.25179 109.095 10.2157C109.549 14.2045 110.085 18.1788 110.539 22.1628C110.673 23.325 111.142 23.9611 112.319 24.3819C114.883 25.2954 117.399 26.3763 119.877 27.5146C120.748 27.9163 121.288 27.8733 122.035 27.2754C125.125 24.7932 128.278 22.3971 131.401 19.9628C136.955 15.6441 142.662 15.9979 147.676 20.991C151.225 24.5302 154.775 28.0694 158.305 31.6229C162.974 36.3242 163.352 42.0634 159.32 47.3577C156.885 50.5525 154.421 53.7282 151.91 56.8609C151.245 57.693 151.139 58.31 151.613 59.3144C152.775 61.7822 153.823 64.3122 154.746 66.8757C155.129 67.9327 155.703 68.344 156.722 68.4636C160.702 68.9418 164.677 69.5014 168.667 69.927C174.814 70.5823 179.058 75.2167 179.067 81.415C179.072 84.1219 179.077 86.8337 179.077 89.5455C179.077 92.2572 179.072 94.9594 179.067 97.6712C179.053 103.678 174.9 108.322 168.921 109.044C164.936 109.527 160.956 110.044 156.971 110.484C155.727 110.623 155.062 111.125 154.632 112.368C153.799 114.779 152.799 117.137 151.723 119.451C151.225 120.513 151.149 121.23 151.962 122.216C154.402 125.181 156.717 128.256 159.071 131.293C163.41 136.889 163.075 142.58 158.114 147.568C154.536 151.16 150.962 154.757 147.355 158.315C142.715 162.897 136.922 163.251 131.746 159.286C128.464 156.77 125.235 154.188 121.915 151.72C121.456 151.38 120.528 151.304 119.973 151.514C117.313 152.523 114.744 153.772 112.06 154.719C110.922 155.12 110.697 155.828 110.578 156.765C110.085 160.572 109.568 164.375 109.138 168.186C108.506 173.801 105.856 177.049 100.455 178.713C100.297 178.761 100.168 178.904 100.029 179H79.0427C78.904 178.904 78.7748 178.761 78.6169 178.713C73.2352 177.058 70.5419 173.744 69.9344 168.196C69.5182 164.327 68.9585 160.472 68.4944 156.608C68.37 155.57 67.8869 155.034 66.8679 154.661C64.3134 153.719 61.7923 152.662 59.3095 151.538C58.4054 151.132 57.817 151.108 56.999 151.763C53.7364 154.389 50.4308 156.962 47.0774 159.472C42.0926 163.203 36.2755 162.811 31.884 158.482C28.0713 154.719 24.2778 150.935 20.5225 147.119C16.1692 142.7 15.8057 136.913 19.561 131.944C21.9768 128.739 24.4356 125.564 26.9567 122.44C27.7795 121.422 27.9757 120.647 27.3394 119.384C26.2152 117.165 25.2919 114.831 24.4739 112.478C24.0338 111.201 23.3593 110.623 22.0437 110.489C18.9247 110.173 15.8105 109.781 12.701 109.374C9.99814 109.016 7.27616 108.791 4.90339 107.165C2.32493 105.39 0.942408 102.851 0 99.9907V79.0141C1.22944 76.948 2.18141 74.638 3.74571 72.8684C6.09456 70.2044 9.58673 70.0036 12.8971 69.6162C16.0162 69.2527 19.1352 68.8462 22.2542 68.4875C23.3354 68.3631 23.9525 67.9327 24.3543 66.8135C25.2776 64.2453 26.3444 61.7296 27.4925 59.257V59.257ZM7.55362 97.7285C7.58232 99.9477 8.69216 101.134 10.931 101.454C16.0592 102.176 21.1874 102.879 26.33 103.458C28.5975 103.716 29.7887 104.816 30.578 106.93C32.1184 111.058 33.8502 115.118 35.6728 119.131C36.5243 121.006 36.4095 122.541 35.1514 124.134C31.9749 128.156 28.8367 132.211 25.7081 136.272C24.0242 138.458 24.1295 140.036 26.0526 141.968C29.6308 145.56 33.2187 149.137 36.8113 152.719C38.9736 154.876 40.5044 154.996 42.9059 153.145C46.9243 150.055 50.9283 146.952 54.918 143.828C56.444 142.633 57.9414 142.465 59.7736 143.288C63.8972 145.139 68.0687 146.899 72.2976 148.506C74.2924 149.262 75.3066 150.448 75.5553 152.542C76.1629 157.679 76.8278 162.811 77.5549 167.933C77.9042 170.386 79.0953 171.443 81.5159 171.467C86.8786 171.52 92.2412 171.52 97.6038 171.463C99.9527 171.439 101.168 170.367 101.493 168.062C102.22 162.94 102.914 157.813 103.507 152.672C103.756 150.505 104.736 149.276 106.822 148.501C110.898 146.99 114.936 145.34 118.868 143.489C121.006 142.485 122.657 142.618 124.47 144.077C128.373 147.215 132.358 150.247 136.329 153.303C138.491 154.967 140.103 154.867 142.036 152.949C145.671 149.338 149.293 145.708 152.914 142.073C154.914 140.065 155.038 138.472 153.321 136.243C150.197 132.178 147.059 128.127 143.887 124.1C142.619 122.498 142.567 120.963 143.414 119.093C145.231 115.085 146.963 111.024 148.503 106.897C149.298 104.769 150.522 103.716 152.78 103.463C157.923 102.889 163.051 102.186 168.174 101.454C170.342 101.148 171.475 99.9621 171.504 97.8625C171.576 92.2716 171.576 86.6806 171.499 81.085C171.47 79.0475 170.327 77.8567 168.299 77.5745C163.118 76.8427 157.928 76.1397 152.728 75.5371C150.561 75.2884 149.331 74.2936 148.556 72.2179C147.006 68.0953 145.303 64.0252 143.466 60.0222C142.548 58.0182 142.667 56.4352 144.035 54.723C147.202 50.7726 150.278 46.7408 153.364 42.7234C155.043 40.5425 154.938 38.9594 153.015 37.0272C149.436 33.4355 145.848 29.8533 142.256 26.2758C140.084 24.1093 138.568 24.0041 136.166 25.8598C132.157 28.9589 128.144 32.0533 124.159 35.1812C122.556 36.4438 121.011 36.4964 119.145 35.6546C115.074 33.8133 110.955 32.082 106.779 30.4989C104.78 29.7433 103.77 28.5572 103.521 26.4672C102.904 21.2684 102.23 16.0793 101.493 10.8997C101.177 8.66617 99.967 7.57573 97.7378 7.55181C92.2603 7.48486 86.7781 7.48486 81.3007 7.55181C79.0858 7.58051 77.8946 8.69487 77.5789 10.9331C76.8565 16.0554 76.1581 21.1823 75.5649 26.3237C75.3161 28.4902 74.3307 29.7337 72.2593 30.5085C68.1356 32.0581 64.0551 33.7416 60.051 35.5781C58.0466 36.5011 56.4632 36.4007 54.7506 35.0376C50.8374 31.9146 46.8525 28.8776 42.8772 25.8263C40.4996 23.9993 39.0023 24.095 36.9214 26.1706C33.3718 29.705 29.8318 33.2537 26.2918 36.8024C24.0816 39.0168 23.9955 40.509 25.9473 43.0342C28.9755 46.956 32.0419 50.8395 35.0365 54.7804C35.6537 55.5887 36.0459 56.5643 36.5387 57.4587C36.1942 58.3865 35.9359 59.147 35.6297 59.8883C33.9124 64.0109 32.0897 68.0905 30.5063 72.2658C29.7504 74.2601 28.5688 75.274 26.4735 75.5227C21.2783 76.1445 16.0879 76.8236 10.9071 77.5506C8.67781 77.8662 7.57754 79.0715 7.54883 81.3002C7.48664 86.7763 7.48665 92.2524 7.55362 97.7285V97.7285Z" fill="#282828"/>
</svg>
