<svg width="191" height="192" viewBox="0 0 191 192" fill="none" xmlns="http://www.w3.org/2000/svg">
<path d="M103.571 45.1122C115.89 44.8342 126.505 48.9088 135.09 57.8063C142.644 65.6371 146.459 75.1463 146.54 85.9648C146.626 97.2838 142.573 107.106 134.681 115.271C133.294 116.707 131.336 116.793 130.026 115.589C128.635 114.31 128.579 112.425 130.107 110.817C134.266 106.429 137.372 101.454 138.976 95.5902C144.587 75.1261 131.417 54.7478 110.376 51.6842C99.9031 50.1575 90.5333 53.0441 82.4587 59.9548C81.8465 60.4806 81.29 61.0721 80.6626 61.5726C79.0588 62.8617 77.2476 62.801 76.0131 61.4361C74.809 60.1116 74.8191 58.0793 76.433 56.8357C79.7975 54.2372 83.1467 51.5427 86.84 49.47C91.9651 46.5985 97.6416 45.2791 103.571 45.1021V45.1122Z" fill="#282828"/>
<path d="M114.478 0.650146C120.221 0.670368 124.293 4.70458 124.364 10.4576C124.405 13.4352 124.445 16.4078 124.349 19.3803C124.288 21.4278 125.204 22.6006 127.051 23.3134C129.525 24.274 131.994 25.2699 134.407 26.3719C136.233 27.201 137.706 26.9836 139.107 25.5378C141.126 23.4348 143.205 21.3924 145.289 19.3601C149.646 15.1136 155.13 15.0529 159.501 19.2995C163.862 23.5359 168.168 27.8228 172.402 32.1755C176.571 36.4574 176.526 41.9577 172.367 46.2447C170.298 48.3831 168.193 50.4811 166.058 52.5588C164.682 53.8985 164.439 55.3292 165.233 57.0935C166.346 59.5656 167.353 62.0933 168.34 64.6311C169.033 66.3904 170.171 67.3003 172.139 67.2447C174.993 67.1588 177.846 67.2144 180.699 67.2245C185.774 67.2447 188.885 69.4489 190.661 74.2565C190.717 74.4031 190.884 74.5144 191 74.6407V98.0674C190.869 98.2494 190.686 98.4112 190.611 98.6134C188.956 103.032 185.749 105.342 181.018 105.433C178.038 105.494 175.063 105.504 172.089 105.433C170.206 105.383 169.068 106.191 168.39 107.895C167.363 110.478 166.336 113.062 165.193 115.594C164.393 117.374 164.717 118.794 166.073 120.114C168.157 122.151 170.222 124.214 172.25 126.297C176.52 130.69 176.601 136.114 172.341 140.497C168.112 144.855 163.806 149.147 159.445 153.373C155.231 157.458 149.838 157.564 145.644 153.616C142.173 150.34 138.859 146.902 135.49 143.52C134.275 142.302 133.866 140.876 134.766 139.319C135.54 137.964 136.856 137.494 138.282 137.939C139.112 138.197 139.881 138.854 140.529 139.486C143.549 142.428 146.504 145.431 149.504 148.399C151.659 150.537 153.212 150.527 155.368 148.374C159.415 144.349 163.452 140.32 167.474 136.276C169.554 134.183 169.539 132.682 167.449 130.553C165.496 128.562 163.503 126.61 161.545 124.623C157.998 121.039 157.371 117.419 159.405 112.774C160.417 110.453 161.398 108.118 162.334 105.767C164.156 101.192 167.201 99.0128 172.114 98.9268C175.033 98.8763 177.947 98.942 180.856 98.9066C183.376 98.8813 184.61 97.8096 184.641 95.3628C184.706 89.3519 184.706 83.336 184.641 77.3252C184.61 74.8076 183.391 73.7409 180.72 73.6802C177.375 73.6044 174.016 73.7207 170.677 73.5387C166.933 73.3415 164.297 71.3143 162.79 67.9373C161.429 64.899 160.174 61.8051 158.96 58.691C157.548 55.0764 158.16 51.7247 160.771 48.8684C162.901 46.5379 165.208 44.3742 167.424 42.1144C169.584 39.9103 169.579 38.4796 167.378 36.2704C163.351 32.2261 159.319 28.1919 155.271 24.1729C153.157 22.0749 151.7 22.085 149.549 24.183C147.602 26.0888 145.694 28.0402 143.751 29.9613C139.997 33.6669 136.431 34.2887 131.584 32.1502C129.322 31.1543 127.036 30.214 124.739 29.3041C120.17 27.4993 118.071 24.6127 117.954 19.714C117.888 16.8678 117.969 14.0166 117.934 11.1653C117.893 8.13211 116.775 7.01487 113.765 6.99971C108.124 6.97949 102.478 6.97949 96.8316 6.99971C93.7859 7.00982 92.7184 8.10685 92.6729 11.1249C92.6173 14.5929 92.7134 18.076 92.425 21.5238C92.1316 25.012 90.0522 27.4538 86.8851 28.8642C83.895 30.1938 80.8544 31.4172 77.8138 32.6255C73.9738 34.1522 70.5082 33.4495 67.5232 30.6387C65.3123 28.5559 63.2127 26.3568 61.0473 24.2285C58.8566 22.0749 57.3793 22.085 55.1886 24.2639C51.1412 28.2829 47.1039 32.312 43.0818 36.3614C41.0429 38.4088 41.0581 40.0063 43.1223 42.0942C46.259 45.2639 49.4362 48.3983 52.573 51.5781C53.7164 52.7358 54.1464 54.0906 53.2863 55.6224C52.5173 56.9873 51.2626 57.4727 49.8157 57.1087C49.0871 56.9267 48.3637 56.406 47.8122 55.8651C44.5338 52.6549 41.2604 49.4447 38.0832 46.1335C34.1167 42.0032 33.975 36.6344 37.9162 32.4839C42.2672 27.8936 46.7447 23.4247 51.3284 19.072C55.5478 15.063 60.9158 15.2147 65.1301 19.2439C67.2803 21.2964 69.3799 23.4095 71.4543 25.5429C72.8456 26.9786 74.3178 27.2263 76.1493 26.3871C78.6182 25.2598 81.1529 24.2638 83.6876 23.2629C85.3774 22.5855 86.2223 21.4733 86.1666 19.5826C86.0857 16.6707 86.1161 13.7537 86.1565 10.8468C86.2375 4.62367 90.2394 0.675438 96.4522 0.665327C99.9077 0.665327 103.363 0.655207 106.819 0.655207C109.379 0.655207 111.944 0.655191 114.504 0.670357L114.478 0.650146Z" fill="#282828"/>
<path d="M41.7771 127.702C41.7872 139.87 51.9007 149.819 64.1745 149.749C76.2966 149.673 86.1217 139.663 86.0914 127.424C86.061 115.23 76.1701 105.423 63.9165 105.453C51.6224 105.479 41.7619 115.382 41.7771 127.702ZM63.9114 99.0229C79.7723 99.0532 92.5572 111.085 92.5521 127.51C92.542 145.204 80.0152 155.749 64.0582 156.043C47.9747 156.336 35.3771 143.348 35.4277 127.257C35.3113 113.416 46.3962 98.9875 63.9114 99.0229Z" fill="#282828"/>
<path d="M92.1976 85.8485C89.6932 87.7696 86.8752 88.6088 83.8245 87.623C77.7533 85.6463 72.9672 83.7505 73.4378 74.5497C73.4479 74.3627 73.4378 74.1757 73.4378 73.9886C73.3568 71.7288 72.2337 70.556 69.9722 70.5307C66.0057 70.4953 62.0341 70.5004 58.0676 70.5307C55.8264 70.5509 54.6476 71.6732 54.4756 73.9229C54.3895 75.03 54.4654 76.1523 54.4401 77.2645C54.3642 80.7679 52.8363 83.518 49.821 85.2217C47.9592 86.2732 45.8899 87.0265 43.8308 87.6483C40.7345 88.5936 37.9722 87.6129 35.5336 85.6362C34.6684 84.9335 33.9298 84.0842 33.1203 83.3158C31.0814 81.3594 29.513 81.329 27.5096 83.2956C25.0356 85.7221 22.5919 88.1993 20.1432 90.6562C17.5023 93.3052 17.6136 94.3972 20.1432 97.1979C21.6053 98.8156 23.0371 100.636 23.8517 102.622C25.3037 106.146 23.6088 109.386 22.1163 112.531C20.4468 116.039 17.5529 117.793 13.7331 118.082C12.6858 118.163 11.6234 118.092 10.5711 118.112C8.13754 118.157 6.8879 119.285 6.84236 121.742C6.77153 125.645 6.76647 129.552 6.84236 133.455C6.89295 135.796 8.11732 136.933 10.4648 137.065C11.5121 137.125 12.5746 137.065 13.6269 137.095C17.2847 137.176 20.123 138.819 21.7976 142.009C25.076 148.267 26.0069 152.822 19.7081 158.403C19.3843 158.687 19.0656 159.02 18.8683 159.394C18.5597 159.976 18.3624 160.613 18.0031 161.507C18.5546 162.326 19.015 163.262 19.7081 163.974C22.1214 166.472 24.6005 168.903 27.0593 171.35C29.7154 173.994 30.793 173.883 33.6111 171.35C35.23 169.894 37.0564 168.469 39.0447 167.655C42.5761 166.204 45.8039 167.933 48.9559 169.404C51.8498 170.754 53.6408 173.054 54.258 176.138C54.5464 177.573 54.3997 179.1 54.4351 180.581C54.5059 183.438 55.6797 184.641 58.5533 184.666C62.1454 184.696 65.7477 184.696 69.3397 184.666C72.264 184.641 73.4024 183.488 73.4226 180.622C73.4327 179.692 73.3821 178.761 73.4479 177.836C73.6806 174.247 75.2186 171.345 78.4465 169.677C84.6896 166.457 89.1924 165.461 94.8537 171.81C94.8942 171.856 94.9397 171.901 94.9853 171.947C96.8926 173.747 98.4003 173.772 100.308 171.922C102.402 169.894 104.441 167.806 106.5 165.754C110.871 161.386 110.871 161.214 106.561 156.725C101.153 151.088 104.163 139.764 111.686 137.494C112.445 137.267 113.259 137.171 114.059 137.12C115.106 137.049 116.168 137.11 117.221 137.075C119.887 136.989 121.036 135.816 121.051 133.157C121.071 130.124 121.051 127.085 121.051 124.052C121.051 118.486 120.717 118.147 115.212 118.112C108.291 118.072 102.362 110.615 103.702 103.755C104.284 100.762 106.197 98.7297 108.236 96.7075C110.234 94.7207 110.209 93.1182 108.246 91.1162C106.207 89.0334 104.087 87.0315 102.078 84.9234C98.9214 81.6121 97.4542 80.1612 93.2904 84.8678C92.9615 85.2419 92.5669 85.5503 92.1723 85.8536L92.1976 85.8485ZM84.7959 81.2229C86.258 81.7436 87.5785 81.5414 88.7168 80.3837C89.673 79.413 90.6242 78.4222 91.6866 77.5779C95.4456 74.57 100.373 74.5599 103.925 77.8105C107.35 80.9448 110.644 84.2409 113.786 87.6584C117.115 91.2831 117.023 96.4295 113.811 100.181C112.966 101.166 111.843 101.95 111.15 103.017C110.593 103.876 110.123 105.105 110.285 106.04C110.553 107.521 111.155 109.073 112.065 110.251C112.662 111.024 114.018 111.388 115.096 111.57C116.796 111.853 118.597 111.616 120.267 111.98C124.198 112.834 127.177 116.181 127.344 120.261C127.552 125.205 127.562 130.169 127.324 135.108C127.102 139.602 123.044 143.227 118.546 143.399C117.681 143.434 116.806 143.485 115.946 143.399C113.401 143.161 111.929 144.304 111.013 146.665C109.602 150.3 109.586 150.664 112.399 153.479C117.514 158.606 117.509 163.878 112.374 169.005C109.88 171.502 107.391 174.014 104.871 176.492C100.459 180.819 94.9852 180.849 90.5027 176.588C90.3661 176.461 90.2396 176.33 90.1081 176.193C86.8651 172.998 85.1399 172.766 81.4365 175.481C80.6068 176.087 80.1818 177.513 79.9743 178.635C79.6455 180.384 79.8782 182.24 79.4836 183.968C78.6134 187.785 75.765 189.762 72.2842 191.011H55.5431C54.1568 190.237 52.6441 189.625 51.4197 188.655C49.2796 186.961 48.202 184.626 48.111 181.876C48.0958 181.38 48.1008 180.88 48.1008 180.384C48.1008 176.138 46.2947 173.974 42.0348 173.645C41.0178 173.57 39.7176 174.399 38.8727 175.172C36.9906 176.886 35.2604 178.767 32.6649 179.393C29.1234 180.243 26.0171 179.333 23.4267 176.845C20.4316 173.969 17.4567 171.062 14.6185 168.039C10.6672 163.838 10.7836 158.408 14.7602 154.223C14.8917 154.086 15.0182 153.955 15.1548 153.823C18.848 150.295 18.504 150.254 16.1666 145.143C15.5089 143.718 14.1682 143.46 12.7314 143.394C10.8797 143.313 8.97231 143.404 7.21168 142.954C3.26544 141.948 0.523309 138.243 0.482835 134.158C0.457538 131.908 0.442383 129.658 0.442383 127.404C0.442383 125.149 0.457538 123.107 0.482835 120.963C0.543546 116.13 4.15588 112.273 8.99256 111.793C10.2827 111.666 11.593 111.626 12.8882 111.631C14.7096 111.631 15.9946 110.928 16.5815 109.149C16.6422 108.977 16.7434 108.815 16.8142 108.643C18.504 104.69 18.5242 104.604 15.4381 101.581C12.3064 98.5173 10.824 94.9735 12.4126 90.6916C12.9337 89.2912 13.8748 87.9566 14.9018 86.8495C17.568 83.9932 20.3658 81.2683 23.1535 78.5283C27.4893 74.2768 32.9685 74.2768 37.365 78.4828C37.5421 78.6497 37.7192 78.8317 37.8912 79.0035C40.8762 81.971 43.2996 82.2188 46.6286 79.5596C47.4128 78.9328 47.8529 77.6082 48.0351 76.5365C48.2981 74.9643 47.9693 73.2859 48.2729 71.7288C49.0925 67.4773 52.4012 64.4339 56.7927 64.2267C61.6749 64.0042 66.5824 64.0244 71.4646 64.257C75.8105 64.4592 79.3015 68.1142 79.7163 72.4265C79.858 73.842 79.8985 75.2676 79.9035 76.6882C79.9137 78.3716 80.6422 79.5141 82.2055 80.141C83.0656 80.4848 83.9004 80.8993 84.7706 81.2127L84.7959 81.2229Z" fill="#282828"/>
</svg>
