<svg width="41" height="40" viewBox="0 0 41 40" fill="none" xmlns="http://www.w3.org/2000/svg">
<path d="M37.3963 36.1905C39.1164 36.1905 40.4925 34.8144 40.4925 33.0943V6.90576C40.4925 5.18565 39.1164 3.80957 37.3963 3.80957H3.59619C1.87609 3.80957 0.5 5.18565 0.5 6.90576V33.0943C0.5 34.8144 1.87609 36.1905 3.59619 36.1905H37.3963ZM3.59619 6.0027H37.3533C37.8693 6.0027 38.2994 6.43273 38.2994 6.94876V11.421H2.69314V6.90576C2.69314 6.38973 3.08016 6.0027 3.59619 6.0027ZM2.69314 33.1373V13.5282H38.3424V33.0943C38.3424 33.6104 37.9124 34.0404 37.3963 34.0404H3.59619C3.08016 34.0404 2.69314 33.6534 2.69314 33.1373ZM8.4125 8.66886C8.4125 7.93782 9.01453 7.37879 9.70258 7.37879C10.3906 7.37879 10.9927 7.98082 10.9927 8.66886C10.9927 9.39991 10.3906 9.95894 9.70258 9.95894C9.01453 9.95894 8.4125 9.39991 8.4125 8.66886ZM12.7128 8.66886C12.7128 7.93782 13.3148 7.37879 14.0028 7.37879C14.6909 7.37879 15.2929 7.98082 15.2929 8.66886C15.2929 9.39991 14.6909 9.95894 14.0028 9.95894C13.3148 9.95894 12.7128 9.39991 12.7128 8.66886ZM4.11223 8.66886C4.11223 7.93782 4.71426 7.37879 5.40231 7.37879C6.13335 7.37879 6.69239 7.98082 6.69239 8.66886C6.69239 9.39991 6.09035 9.95894 5.40231 9.95894C4.71426 10.0019 4.11223 9.39991 4.11223 8.66886ZM14.6909 29.8691C13.1858 28.321 12.3257 26.2569 12.3257 24.0638C12.3257 23.4618 12.7988 22.9887 13.4008 22.9887C14.0028 22.9887 14.4759 23.4618 14.4759 24.0638C14.4759 25.6549 15.1209 27.203 16.239 28.3211C18.3461 30.4282 21.6573 30.6432 24.0225 28.9231L23.0334 28.8801C22.4314 28.8371 22.0014 28.3641 22.0014 27.762C22.0444 27.16 22.5174 26.73 23.1194 26.73L26.8177 26.902C27.1187 26.902 27.4197 27.074 27.5917 27.332C27.7637 27.59 27.8497 27.891 27.8067 28.192L27.0757 31.8473C26.9897 32.3633 26.5166 32.7073 26.0436 32.7073C25.9576 32.7073 25.9146 32.7073 25.8286 32.7073C25.2266 32.5783 24.8825 32.0193 24.9685 31.4602L25.0975 30.8152C23.7215 31.7613 22.0874 32.2343 20.4533 32.2343C18.3891 32.2343 16.325 31.4602 14.6909 29.8691ZM13.7018 20.5376C13.5298 20.2796 13.4438 19.9785 13.4868 19.6775L14.2179 16.0223C14.3469 15.4203 14.9059 15.0763 15.4649 15.1623C16.067 15.2913 16.411 15.8503 16.325 16.4093L16.196 17.1404C19.3352 15.1623 23.5494 15.5493 26.3016 18.3014C27.8067 19.8065 28.6668 21.8707 28.6668 24.0638C28.6668 24.6658 28.1937 25.1389 27.5917 25.1389C26.9897 25.1389 26.5166 24.6658 26.5166 24.0638C26.5166 22.4727 25.8716 20.9246 24.7535 19.8065C22.7324 17.7854 19.6792 17.5274 17.3571 18.9465L18.3031 18.9895C18.9052 19.0325 19.3352 19.5055 19.3352 20.1076C19.2922 20.6666 18.8192 21.1396 18.2601 21.1396H18.2171L14.4759 20.9246C14.1749 20.9246 13.8738 20.7526 13.7018 20.5376Z" fill="#911211"/>
</svg>
