<svg width="40" height="40" viewBox="0 0 40 40" fill="none" xmlns="http://www.w3.org/2000/svg">
<path d="M20.1748 4.29748C19.9569 4.13201 19.915 3.81763 20.0826 3.60253C20.2502 3.38742 20.5687 3.34606 20.7866 3.51152L23.5943 5.63774C23.8625 5.84457 23.8541 6.23341 23.5859 6.43197L20.7866 8.54991C20.5687 8.71537 20.2502 8.67401 20.0826 8.4589C19.915 8.2438 19.9569 7.92942 20.1748 7.76395L22.4629 6.03485L20.1748 4.29748ZM16.2775 8.69882C16.1434 8.93875 15.8333 9.02148 15.5903 8.88084C15.3472 8.74846 15.2634 8.44236 15.4059 8.20243L18.2387 3.35433C18.3728 3.11441 18.6829 3.03168 18.926 3.17232C19.1607 3.30469 19.2445 3.6108 19.1104 3.85072L16.2775 8.69882ZM13.738 3.51152C13.956 3.34606 14.2744 3.38742 14.4421 3.60253C14.6097 3.81763 14.5678 4.13201 14.3499 4.29748L12.0618 6.02658L14.3499 7.75568C14.5678 7.92114 14.6097 8.23553 14.4421 8.45063C14.2744 8.66573 13.956 8.7071 13.738 8.54163L10.9387 6.43197C10.6789 6.23341 10.6622 5.84457 10.9303 5.63774L13.738 3.51152ZM3.16937 0.888916H31.3469C31.6235 0.888916 31.8498 1.11229 31.8498 1.38531V16.4674L34.8167 12.9843C34.9927 12.7692 35.3112 12.7444 35.5207 12.9182L38.9319 15.7476C39.1414 15.9213 39.1749 16.2357 38.9905 16.4425L31.8414 24.8481V38.6147C31.8414 38.8878 31.6151 39.1111 31.3385 39.1111H3.16937C2.8928 39.1111 2.6665 38.8878 2.6665 38.6147V1.38531C2.6665 1.11229 2.8928 0.888916 3.16937 0.888916ZM30.8524 1.8817H3.68063V10.1797H30.8524V1.8817ZM30.8524 26.0312L25.3544 32.4926C25.2957 32.5588 25.2286 32.6084 25.1532 32.6332L20.7196 34.4616C20.3424 34.6188 19.9485 34.2796 20.0323 33.899L21.0548 29.2329C21.0716 29.1419 21.1135 29.0675 21.1722 29.0013L30.8357 17.6339V11.156H3.68063V38.1184H30.8524V26.0312ZM37.9094 16.1861L35.2693 13.9937L22.0187 29.5721L21.2224 33.1875L24.6587 31.7645L37.9094 16.1861ZM20.7782 23.9133C21.0548 23.9133 21.2811 24.1366 21.2811 24.4096C21.2811 24.6827 21.0548 24.906 20.7782 24.906H8.12265C7.84607 24.906 7.61978 24.6827 7.61978 24.4096C7.61978 24.1366 7.84607 23.9133 8.12265 23.9133H20.7782ZM16.4116 32.0127C16.6882 32.0127 16.9145 32.2361 16.9145 32.5091C16.9145 32.7821 16.6882 33.0055 16.4116 33.0055H8.13103C7.85446 33.0055 7.62816 32.7821 7.62816 32.5091C7.62816 32.2361 7.85446 32.0127 8.13103 32.0127H16.4116ZM19.5713 27.9671C19.8479 27.9671 20.0742 28.1905 20.0742 28.4635C20.0742 28.7365 19.8479 28.9599 19.5713 28.9599H8.12265C7.84607 28.9599 7.61978 28.7365 7.61978 28.4635C7.61978 28.1905 7.84607 27.9671 8.12265 27.9671H19.5713ZM26.3601 15.8221C26.6367 15.8221 26.863 16.0454 26.863 16.3184C26.863 16.5915 26.6367 16.8148 26.3601 16.8148H8.12265C7.84607 16.8148 7.61978 16.5915 7.61978 16.3184C7.61978 16.0454 7.84607 15.8221 8.12265 15.8221H26.3601ZM22.9993 19.8677C23.2758 19.8677 23.5021 20.091 23.5021 20.364C23.5021 20.6371 23.2758 20.8604 22.9993 20.8604H8.12265C7.84607 20.8604 7.61978 20.6371 7.61978 20.364C7.61978 20.091 7.84607 19.8677 8.12265 19.8677H22.9993Z" fill="#911211" stroke="#911211" stroke-width="0.888889"/>
</svg>
