<svg width="40" height="40" viewBox="0 0 40 40" fill="none" xmlns="http://www.w3.org/2000/svg">
<path d="M24.3361 22.6703L23.2281 21.7419L19.078 26.7068L16.7561 23.9286L15.6455 24.8569L19.078 28.9618L24.3361 22.6703Z" fill="#911211"/>
<path d="M26.2611 14.2916V10.5891C26.2611 7.14146 23.4443 4.32434 19.9971 4.32434C16.5498 4.32434 13.733 7.14146 13.733 10.5891V14.2916H10.5942V31.4674C10.5942 34.0967 12.727 36.2162 15.3426 36.2162H24.6515C27.2671 36.2162 29.3999 34.0967 29.3999 31.4674V14.2916H26.2611ZM15.1816 10.5891C15.1816 7.93294 17.3412 5.77315 19.9971 5.77315C22.6529 5.77315 24.8125 7.93294 24.8125 10.5891V14.2916H15.1816V10.5891ZM27.9512 31.4674C27.9512 33.2918 26.4623 34.7674 24.6515 34.7674H15.3426C13.5184 34.7674 12.0429 33.2918 12.0429 31.4674V15.7404H27.9512V31.4674Z" fill="#911211" stroke="#911211" stroke-width="0.4"/>
<path d="M37.3252 10.416C38.7967 10.416 39.9932 9.21808 39.9932 7.74646C39.9932 6.27485 38.7954 5.0769 37.3252 5.0769C36.1046 5.0769 35.0852 5.90326 34.7673 7.0234H28.6709V8.46953H34.7673C35.0852 9.58833 36.1046 10.416 37.3252 10.416ZM37.3252 6.52437C37.9986 6.52437 38.5472 7.07304 38.5472 7.74781C38.5472 8.42257 37.9986 8.97124 37.3252 8.97124C36.6519 8.97124 36.1019 8.42257 36.1019 7.74781C36.1019 7.07304 36.6505 6.52437 37.3252 6.52437Z" fill="#911211"/>
<path d="M37.3257 12.349C36.105 12.349 35.0856 13.1754 34.7677 14.2955H31.354V15.7416H34.7677C35.0856 16.8604 36.105 17.6881 37.3257 17.6881C38.7971 17.6881 39.9936 16.4902 39.9936 15.0186C39.9936 13.5469 38.7958 12.349 37.3257 12.349ZM37.3257 16.2407C36.651 16.2407 36.1024 15.692 36.1024 15.0172C36.1024 14.3424 36.651 13.7938 37.3257 13.7938C38.0004 13.7938 38.5476 14.3424 38.5476 15.0172C38.5476 15.692 37.999 16.2407 37.3257 16.2407Z" fill="#911211"/>
<path d="M37.3257 19.6211C36.105 19.6211 35.0856 20.4475 34.7677 21.5676H31.354V23.0137H34.7677C35.0856 24.1325 36.105 24.9602 37.3257 24.9602C38.7971 24.9602 39.9936 23.7623 39.9936 22.2907C39.9936 20.819 38.7958 19.6211 37.3257 19.6211ZM37.3257 23.5141C36.651 23.5141 36.1024 22.9654 36.1024 22.2907C36.1024 21.6159 36.651 21.0672 37.3257 21.0672C38.0004 21.0672 38.5476 21.6159 38.5476 22.2907C38.5476 22.9654 37.999 23.5141 37.3257 23.5141Z" fill="#911211"/>
<path d="M2.66927 10.416C3.88989 10.416 4.90931 9.58967 5.22721 8.46953H11.3223V7.0234H5.22587C4.90797 5.9046 3.88855 5.0769 2.66793 5.0769C1.19648 5.0769 0 6.27485 0 7.74646C0 9.21808 1.19916 10.416 2.66927 10.416ZM2.66927 6.52437C3.34397 6.52437 3.89258 7.07304 3.89258 7.74781C3.89258 8.42257 3.34397 8.97124 2.66927 8.97124C1.99458 8.97124 1.44731 8.42257 1.44731 7.74781C1.44731 7.07304 1.99592 6.52437 2.66927 6.52437Z" fill="#911211"/>
<path d="M2.66793 12.349C1.19648 12.349 0 13.5469 0 15.0186C0 16.4902 1.19782 17.6881 2.66793 17.6881C3.88855 17.6881 4.90797 16.8618 5.22587 15.7416H8.63825V14.2955H5.22587C4.90797 13.1767 3.88855 12.349 2.66793 12.349ZM2.66793 16.2407C1.99458 16.2407 1.44597 15.692 1.44597 15.0172C1.44597 14.3424 1.99458 13.7938 2.66793 13.7938C3.34128 13.7938 3.89124 14.3424 3.89124 15.0172C3.89124 15.692 3.34263 16.2407 2.66793 16.2407Z" fill="#911211"/>
<path d="M2.66793 19.6211C1.19648 19.6211 0 20.819 0 22.2907C0 23.7623 1.19782 24.9602 2.66793 24.9602C3.88855 24.9602 4.90797 24.1325 5.22587 23.0137H8.63825V21.5676H5.22587C4.90797 20.4488 3.88855 19.6211 2.66793 19.6211ZM2.66793 23.5141C1.99458 23.5141 1.44597 22.9654 1.44597 22.2907C1.44597 21.6159 1.99458 21.0672 2.66793 21.0672C3.34128 21.0672 3.89124 21.6159 3.89124 22.2907C3.89124 22.9654 3.34263 23.5141 2.66793 23.5141Z" fill="#911211"/>
</svg>
