<svg width="40" height="40" viewBox="0 0 40 40" fill="none" xmlns="http://www.w3.org/2000/svg">
<path d="M34.275 26.2685C34.275 24.0849 32.4977 22.3077 30.314 22.3077C28.1303 22.3077 26.3541 24.0849 26.3541 26.2685V28.3653H24.4482V35.6728C24.4482 37.2106 25.6994 38.4616 27.2372 38.4616H33.393C34.9308 38.4616 36.182 37.2106 36.182 35.6728V28.3653H34.2761V26.2685H34.275ZM27.5371 26.2685C27.5371 24.7374 28.7828 23.4918 30.3129 23.4918C31.8431 23.4918 33.0898 24.7374 33.0898 26.2685V28.3653H27.536V26.2685H27.5371ZM34.9967 29.5494V35.6728C34.9967 36.5581 34.2772 37.2776 33.3919 37.2776H27.2361C26.3508 37.2776 25.6313 36.5581 25.6313 35.6728V29.5494H34.9967Z" fill="#911211" stroke="#911211" stroke-width="0.538462"/>
<path d="M30.9097 31.8054H29.7256V34.6261H30.9097V31.8054Z" fill="#911211" stroke="#911211" stroke-width="0.358412"/>
<path d="M34.8165 2.30774H5.0324C2.68147 2.30774 0.769043 4.22003 0.769043 6.5708V28.2157C0.769043 30.5664 2.68147 32.4787 5.0324 32.4787H21.5487V30.954H5.0324C3.52311 30.954 2.2939 29.7249 2.2939 28.2157V8.79427H35.9835V7.26952H2.29531V6.5708C2.29531 5.06161 3.52311 3.83248 5.03382 3.83248H34.8165C36.3258 3.83248 37.555 5.0602 37.555 6.5708V23.5481H39.0799V6.5708C39.0799 4.22003 37.1675 2.30774 34.8165 2.30774Z" fill="#911211" stroke="#911211" stroke-width="0.461538"/>
<path d="M11.0185 11.855H5.5542V17.3189H11.0185V11.855ZM9.49364 15.7941H7.07905V13.3797H9.49364V15.7941Z" fill="#911211" stroke="#911211" stroke-width="0.461538"/>
<path d="M5.5542 24.2315H11.0185V18.7676H5.5542V24.2315ZM7.07905 20.2923H9.49364V22.7067H7.07905V20.2923Z" fill="#911211" stroke="#911211" stroke-width="0.461538"/>
<path d="M31.0899 13.8254H14.0859V15.3502H31.0899V13.8254Z" fill="#911211" stroke="#911211" stroke-width="0.461538"/>
<path d="M22.921 20.7366H14.0859V22.2613H22.921V20.7366Z" fill="#911211" stroke="#911211" stroke-width="0.461538"/>
</svg>
