<svg width="41" height="40" viewBox="0 0 41 40" fill="none" xmlns="http://www.w3.org/2000/svg">
<path d="M32.6226 20.6014H30.217C29.885 20.6014 29.6155 20.8709 29.6155 21.2028C29.6155 21.5348 29.885 21.8043 30.217 21.8043H32.6226C33.286 21.8043 33.8254 22.3437 33.8254 23.0071V35.6368C33.8254 36.9635 32.7465 38.0425 31.4198 38.0425C30.0931 38.0425 29.0141 36.9635 29.0141 35.6368V3.16039C29.0141 1.83367 27.9352 0.75473 26.6085 0.75473H7.36318C6.03646 0.75473 4.95752 1.83367 4.95752 3.16039V35.6368C4.95752 37.6269 6.57593 39.2453 8.56601 39.2453H31.4198C33.4099 39.2453 35.0283 37.6269 35.0283 35.6368V23.0071C35.0283 21.6804 33.9493 20.6014 32.6226 20.6014ZM8.56601 38.0425C7.23929 38.0425 6.16035 36.9635 6.16035 35.6368V3.16039C6.16035 2.49703 6.69982 1.95756 7.36318 1.95756H26.6085C27.2718 1.95756 27.8113 2.49703 27.8113 3.16039V35.6368C27.8113 36.56 28.1601 37.4038 28.7327 38.0425H8.56601Z" fill="#911211" stroke="#911211" stroke-width="0.528302"/>
<path d="M12.4774 13.3051L16.6873 15.7107C16.78 15.7636 16.8828 15.7901 16.9856 15.7901C17.0885 15.7901 17.1913 15.7636 17.2839 15.7107L21.4938 13.3051C21.6815 13.198 21.797 12.9989 21.797 12.783V7.97171C21.797 7.7558 21.6815 7.55673 21.4938 7.44968L17.2839 5.04402C17.0987 4.93817 16.872 4.93817 16.6873 5.04402L12.4774 7.44968C12.2898 7.55673 12.1743 7.7558 12.1743 7.97171V12.783C12.1743 12.9989 12.2898 13.198 12.4774 13.3051ZM13.3771 8.32053L16.9856 6.25888L20.5941 8.32053V12.4342L16.9856 14.4959L13.3771 12.4342V8.32053Z" fill="#911211" stroke="#911211" stroke-width="0.528302"/>
<path d="M19.3914 10.3774C19.3914 9.05065 18.3125 7.97171 16.9857 7.97171C15.659 7.97171 14.5801 9.05065 14.5801 10.3774C14.5801 11.7041 15.659 12.783 16.9857 12.783C18.3125 12.783 19.3914 11.7041 19.3914 10.3774ZM15.7829 10.3774C15.7829 9.71401 16.3224 9.17454 16.9857 9.17454C17.6491 9.17454 18.1886 9.71401 18.1886 10.3774C18.1886 11.0407 17.6491 11.5802 16.9857 11.5802C16.3224 11.5802 15.7829 11.0407 15.7829 10.3774Z" fill="#911211" stroke="#911211" stroke-width="0.528302"/>
<path d="M12.7757 20.6014H21.1955C21.5275 20.6014 21.797 20.332 21.797 20C21.797 19.668 21.5275 19.3986 21.1955 19.3986H12.7757C12.4438 19.3986 12.1743 19.668 12.1743 20C12.1743 20.332 12.4438 20.6014 12.7757 20.6014Z" fill="#911211" stroke="#911211" stroke-width="0.528302"/>
<path d="M10.3705 23.6085H23.6016C23.9336 23.6085 24.203 23.3391 24.203 23.0071C24.203 22.6751 23.9336 22.4057 23.6016 22.4057H10.3705C10.0385 22.4057 9.76904 22.6751 9.76904 23.0071C9.76904 23.3391 10.0385 23.6085 10.3705 23.6085Z" fill="#911211" stroke="#911211" stroke-width="0.528302"/>
<path d="M23.6016 25.4128H10.3705C10.0385 25.4128 9.76904 25.6822 9.76904 26.0142C9.76904 26.3461 10.0385 26.6156 10.3705 26.6156H23.6016C23.9336 26.6156 24.203 26.3461 24.203 26.0142C24.203 25.6822 23.9336 25.4128 23.6016 25.4128Z" fill="#911211" stroke="#911211" stroke-width="0.528302"/>
<path d="M23.6016 28.4198H10.3705C10.0385 28.4198 9.76904 28.6893 9.76904 29.0212C9.76904 29.3532 10.0385 29.6227 10.3705 29.6227H23.6016C23.9336 29.6227 24.203 29.3532 24.203 29.0212C24.203 28.6893 23.9336 28.4198 23.6016 28.4198Z" fill="#911211" stroke="#911211" stroke-width="0.528302"/>
<path d="M23.6016 31.4269H10.3705C10.0385 31.4269 9.76904 31.6963 9.76904 32.0283C9.76904 32.3603 10.0385 32.6297 10.3705 32.6297H23.6016C23.9336 32.6297 24.203 32.3603 24.203 32.0283C24.203 31.6963 23.9336 31.4269 23.6016 31.4269Z" fill="#911211" stroke="#911211" stroke-width="0.528302"/>
</svg>
