<svg width="40" height="40" viewBox="0 0 40 40" fill="none" xmlns="http://www.w3.org/2000/svg">
<path d="M16.188 17.2549C20.9407 17.2549 24.8154 13.3897 24.8154 8.62745C24.8154 3.87472 20.9503 0 16.188 0C11.4257 0 7.56055 3.86518 7.56055 8.62745C7.56055 13.3897 11.4353 17.2549 16.188 17.2549ZM16.188 1.91827C19.8909 1.91827 22.9067 4.93406 22.9067 8.63699C22.9067 12.3399 19.8909 15.3557 16.188 15.3557C12.4851 15.3557 9.46928 12.3399 9.46928 8.63699C9.46928 4.92452 12.4851 1.91827 16.188 1.91827Z" fill="#911211"/>
<path d="M31.2991 23.1287C31.1491 23.1287 30.9992 23.1381 30.8398 23.1381C29.7525 20.1013 26.8748 18.0392 23.5847 18.0392H23.1067L22.8255 18.4235C21.307 20.4949 18.8605 21.7322 16.2921 21.7322C13.7238 21.7322 11.2867 20.4949 9.7588 18.4235L9.4776 18.0392H8.99955C4.74398 18.0392 1.28516 21.5072 1.28516 25.7531V40H31.2804C35.9296 40 39.7165 36.2133 39.7165 31.5644C39.7165 26.9154 35.9484 23.1287 31.2991 23.1287ZM3.1786 25.7625C3.1786 22.6976 5.55947 20.1669 8.56837 19.9419C10.4524 22.2477 13.302 23.6067 16.3015 23.6067C19.301 23.6067 22.1412 22.2477 24.0347 19.9419C26.2281 20.1106 28.1121 21.4791 28.9557 23.4661C27.3997 23.916 25.9937 24.8065 24.9251 26.0437C23.5941 27.5715 22.863 29.5398 22.863 31.5737C22.863 34.1982 24.0815 36.5789 26.0031 38.1348H3.1786V25.7625ZM31.2991 38.1254C31.0273 38.1254 30.7461 38.1067 30.4743 38.0785C27.2029 37.6661 24.7377 34.873 24.7377 31.5644C24.7377 29.9803 25.3095 28.4619 26.3405 27.2716C27.3622 26.0906 28.7776 25.3126 30.3055 25.0783C30.6336 25.0314 30.9617 25.0033 31.2991 25.0033C34.9173 25.0033 37.8606 27.9464 37.8606 31.5644C37.8606 35.1823 34.9173 38.1254 31.2991 38.1254Z" fill="#911211"/>
<path d="M30.4139 34.7453C30.5353 34.6312 30.5118 34.4201 30.3596 34.2582C30.2073 34.0963 29.9981 34.0598 29.8766 34.174L29.7338 34.3083C29.6124 34.4225 29.6359 34.6336 29.7882 34.7955C29.9404 34.9573 30.1497 34.9938 30.2711 34.8797L30.4139 34.7453Z" fill="#911211"/>
<path d="M31.1978 27.6935C31.1189 27.7512 31.0571 27.8094 30.9865 27.8758C30.174 28.6397 29.89 29.8241 30.2586 30.8532L27.5387 33.4108C27.0972 33.826 27.0709 34.5058 27.4796 34.9404C27.8882 35.3751 28.5684 35.3906 29.01 34.9754C29.1601 34.8342 29.1686 34.6133 29.0297 34.4655C28.8907 34.3177 28.6697 34.3127 28.5196 34.4539C28.3694 34.595 28.1484 34.59 28.0094 34.4422C27.8705 34.2944 27.879 34.0735 28.0291 33.9323L30.9433 31.192C30.9787 31.1588 31.0058 31.1169 31.0153 31.0916C31.0614 30.9991 31.066 30.8801 31.019 30.777C30.6097 29.9171 30.8633 28.8596 31.6352 28.2649C32.0735 27.9347 32.6072 27.7767 33.1493 27.8402C33.6915 27.9036 34.166 28.1781 34.5066 28.6112C35.1873 29.4943 35.0095 30.7916 34.1065 31.4769C33.4576 31.9725 32.5782 32.0459 31.8697 31.664C31.7778 31.6194 31.6846 31.6087 31.5901 31.6321C31.5391 31.6309 31.4956 31.6554 31.4426 31.7053L30.8244 32.2865C30.6743 32.4277 30.6658 32.6487 30.8047 32.7964C30.9437 32.9442 31.1647 32.9493 31.3148 32.8081L31.7387 32.4095C32.6595 32.8048 33.7286 32.6676 34.5439 32.0483C35.1316 31.5939 35.5144 30.9392 35.6195 30.2016C35.7246 29.4641 35.5311 28.7452 35.0855 28.1651C34.6399 27.585 33.9905 27.213 33.2538 27.1196C32.5164 27.0432 31.7855 27.2391 31.1978 27.6935Z" fill="#911211"/>
<path d="M33.7876 30.6951L32.7131 29.5524C32.5608 29.3905 32.3206 29.3831 32.1587 29.5353C31.9968 29.6875 31.9895 29.9278 32.1417 30.0896L33.2162 31.2324C33.3685 31.3943 33.6087 31.4017 33.7706 31.2495C33.9325 31.0972 33.9399 30.857 33.7876 30.6951Z" fill="#911211"/>
</svg>
