<svg width="41" height="40" viewBox="0 0 41 40" fill="none" xmlns="http://www.w3.org/2000/svg">
<path fill-rule="evenodd" clip-rule="evenodd" d="M20.2951 22.2553C19.6185 22.2553 19.0923 21.6538 19.0923 20.9772C19.0923 20.3007 19.6185 19.7744 20.2951 19.7744C20.9717 19.7744 21.4979 20.3007 21.4979 20.9772C21.4979 21.6538 20.9717 22.2553 20.2951 22.2553ZM20.2951 20.6765C20.1448 20.6765 19.9944 20.8269 19.9944 20.9772C19.9944 21.2028 20.1448 21.3531 20.2951 21.3531C20.4455 21.3531 20.5958 21.2028 20.5958 20.9772C20.5958 20.8269 20.4455 20.6765 20.2951 20.6765Z" fill="#911211" stroke="#911211" stroke-width="0.150943"/>
<path fill-rule="evenodd" clip-rule="evenodd" d="M20.2924 23.2326C20.0668 23.2326 19.8413 23.007 19.8413 22.7815V21.8042C19.8413 21.5035 20.0668 21.3531 20.2924 21.3531C20.5179 21.3531 20.7434 21.5035 20.7434 21.8042V22.7815C20.7434 23.007 20.5179 23.2326 20.2924 23.2326Z" fill="#911211" stroke="#911211" stroke-width="0.150943"/>
<path fill-rule="evenodd" clip-rule="evenodd" d="M30.2966 39.2453H10.2996C8.64566 39.2453 7.29248 37.8921 7.29248 36.3134V3.6866C7.29248 2.10788 8.64566 0.7547 10.2996 0.7547H30.2966C31.9505 0.7547 33.3037 2.10788 33.3037 3.6866V36.3134C33.3037 37.8921 31.9505 39.2453 30.2966 39.2453ZM10.2996 1.65682C9.09673 1.65682 8.1946 2.55894 8.1946 3.6866V36.3134C8.1946 37.441 9.09673 38.3431 10.2996 38.3431H30.2966C31.4994 38.3431 32.4016 37.441 32.4016 36.3134V3.6866C32.4016 2.55894 31.4994 1.65682 30.2966 1.65682H10.2996Z" fill="#911211" stroke="#911211" stroke-width="0.603774"/>
<path fill-rule="evenodd" clip-rule="evenodd" d="M32.8526 6.99435H7.74354C7.51801 6.99435 7.29248 6.76882 7.29248 6.54329C7.29248 6.24258 7.51801 6.09222 7.74354 6.09222H32.8526C33.0782 6.09222 33.3037 6.24258 33.3037 6.54329C33.3037 6.76882 33.0782 6.99435 32.8526 6.99435Z" fill="#911211" stroke="#911211" stroke-width="0.603774"/>
<path fill-rule="evenodd" clip-rule="evenodd" d="M32.8526 33.9077H7.74354C7.51801 33.9077 7.29248 33.7573 7.29248 33.4566C7.29248 33.2311 7.51801 33.0056 7.74354 33.0056H32.8526C33.0782 33.0056 33.3037 33.2311 33.3037 33.4566C33.3037 33.7573 33.0782 33.9077 32.8526 33.9077Z" fill="#911211" stroke="#911211" stroke-width="0.603774"/>
<path fill-rule="evenodd" clip-rule="evenodd" d="M23.2299 19.9248C23.0795 19.9248 22.9292 19.8496 22.854 19.6992C22.2526 18.8723 21.3505 18.346 20.298 18.346C19.2455 18.346 18.3434 18.8723 17.742 19.6992C17.5916 19.8496 17.4413 19.9248 17.2157 19.8496C17.0654 19.8496 16.915 19.6241 16.915 19.4737V17.895C16.915 16.0156 18.4186 14.512 20.298 14.512C22.1774 14.512 23.681 16.0156 23.681 17.895V19.4737C23.681 19.6241 23.5306 19.8496 23.3803 19.8496C23.3051 19.8496 23.3051 19.9248 23.2299 19.9248ZM20.298 17.4439C21.2001 17.4439 22.1022 17.7446 22.7788 18.346V17.895C22.7788 16.5418 21.6512 15.4141 20.298 15.4141C18.9448 15.4141 17.8172 16.5418 17.8172 17.895V18.346C18.4938 17.7446 19.3959 17.4439 20.298 17.4439Z" fill="#911211" stroke="#911211" stroke-width="0.603774"/>
<path fill-rule="evenodd" clip-rule="evenodd" d="M20.2905 25.4878C18.0352 25.4878 16.231 23.6836 16.231 21.5035C16.231 19.2482 18.0352 17.4439 20.2905 17.4439C22.5458 17.4439 24.3501 19.2482 24.3501 21.5035C24.3501 23.6836 22.5458 25.4878 20.2905 25.4878ZM20.2905 18.346C18.5614 18.346 17.1331 19.7744 17.1331 21.5035C17.1331 23.2325 18.5614 24.5857 20.2905 24.5857C22.0196 24.5857 23.4479 23.2325 23.4479 21.5035C23.4479 19.7744 22.0196 18.346 20.2905 18.346Z" fill="#911211" stroke="#911211" stroke-width="0.603774"/>
<path fill-rule="evenodd" clip-rule="evenodd" d="M20.2982 28.3445C20.223 28.3445 20.1478 28.3445 20.1478 28.2694C14.5095 25.8637 13.6826 22.4056 13.6074 22.2552C13.6074 22.18 13.6074 22.18 13.6074 22.1049V14.512C13.6074 14.3616 13.7578 14.2113 13.9081 14.1361L20.1478 11.7305C20.223 11.6553 20.3733 11.6553 20.4485 11.7305L26.6882 14.1361C26.8386 14.2113 26.9889 14.3616 26.9889 14.512V22.1049C26.9889 22.18 26.9889 22.18 26.9889 22.2552C26.9137 22.4056 26.0868 25.8637 20.4485 28.2694C20.4485 28.3445 20.3733 28.3445 20.2982 28.3445ZM14.5095 22.1049C14.6599 22.4808 15.6372 25.2623 20.2982 27.3672C24.9591 25.2623 25.9364 22.4808 26.0868 22.1049V14.8879L20.2982 12.6326L14.5095 14.8879V22.1049Z" fill="#911211" stroke="#911211" stroke-width="0.603774"/>
<path fill-rule="evenodd" clip-rule="evenodd" d="M20.2967 30.6751C20.2215 30.6751 20.1464 30.6751 20.1464 30.6751C12.9294 27.5176 11.8017 23.0822 11.7266 22.8567V22.7815V12.9333C11.7266 12.7078 11.8769 12.5574 12.0273 12.4823L20.1464 9.32483C20.2215 9.32483 20.3719 9.32483 20.4471 9.32483L28.5662 12.4823C28.7165 12.5574 28.8669 12.7078 28.8669 12.9333V22.7815V22.8567C28.7917 23.0822 27.6641 27.5176 20.4471 30.6751C20.4471 30.6751 20.3719 30.6751 20.2967 30.6751ZM12.6287 22.7063C12.7039 22.9318 13.0046 23.9091 13.9819 25.112C14.9592 26.39 16.8386 28.1942 20.2967 29.7729C23.7549 28.1942 25.6343 26.39 26.6116 25.112C27.5889 23.9091 27.8896 22.9318 27.9648 22.7063V13.234L20.2967 10.227L12.6287 13.234V22.7063Z" fill="#911211" stroke="#911211" stroke-width="0.603774"/>
</svg>
