<svg width="40" height="40" viewBox="0 0 40 40" fill="none" xmlns="http://www.w3.org/2000/svg">
<path fill-rule="evenodd" clip-rule="evenodd" d="M5.85037 5.86536C9.59651 2.11524 14.6781 0.00562151 19.9788 2.809e-06L20 2.809e-06C25.3043 2.809e-06 30.3914 2.10714 34.1421 5.85787C37.8929 9.60859 40 14.6957 40 20C40 25.3043 37.8929 30.3914 34.1421 34.1421C30.3914 37.8929 25.3043 40 20 40C14.6957 40 9.60859 37.8929 5.85786 34.1421C2.10714 30.3914 0 25.3043 0 20C-2.97791e-06 14.6993 2.10422 9.61548 5.85037 5.86536ZM26.7072 7.2476C25.1208 4.3672 23.1072 2.6312 21 2.2728V8.3476H19V2.3516C17.0284 2.8404 15.156 4.5364 13.6632 7.2476C13.152 8.176 12.6952 9.2184 12.3 10.3476L11.6924 12.348C11.1644 14.3784 10.8316 16.626 10.7468 19L10.7336 21C10.7896 23.366 11.094 25.612 11.592 27.652L12.1616 29.652C12.5864 30.938 13.092 32.1156 13.6632 33.1532C15.0632 35.6952 16.7968 37.3432 18.6328 37.9432C18.6805 37.9466 18.7282 37.9506 18.7758 37.9546C18.8503 37.9608 18.9249 37.9671 19 37.9712V31.652H21V37.9712C21.2841 37.9563 21.5677 37.9346 21.8508 37.9064C23.6448 37.2764 25.336 35.6432 26.7072 33.1532C27.2784 32.1156 27.7844 30.9384 28.2084 29.652L28.778 27.652C29.276 25.612 29.5808 23.366 29.6368 21L29.624 19.0004C29.5392 16.6264 29.2064 14.3788 28.6784 12.348L28.0704 10.3476C27.6752 9.2184 27.2184 8.176 26.7072 7.2476ZM11.9108 6.2828C12.628 4.9808 13.4624 3.8336 14.392 2.8928C10.394 4.1996 7.018 6.8652 4.804 10.3476H10.186C10.6608 8.8696 11.2388 7.5028 11.9108 6.2828ZM35.196 10.3476C33.084 7.0252 29.9152 4.4432 26.156 3.078C27.0136 3.9832 27.7888 5.0648 28.4592 6.2828C29.1312 7.5028 29.7084 8.8696 30.182 10.3476H35.196ZM9.626 12.348H3.7028C2.72172 14.4369 2.15304 16.696 2.0288 19.0004H8.7448C8.8228 16.652 9.128 14.4128 9.626 12.348ZM36.2984 12.348H30.7424C31.2396 14.4128 31.5436 16.6512 31.6212 19H37.9708C37.8469 16.6957 37.2791 14.4369 36.2984 12.348ZM8.7336 21H2.0288C2.15304 23.3044 2.72132 25.5632 3.7024 27.652H9.5312C9.0616 25.5816 8.7852 23.3424 8.7336 21ZM37.9712 21H31.6304C31.5788 23.342 31.304 25.5812 30.836 27.652H36.2976C37.2787 25.5632 37.847 23.3044 37.9712 21ZM10.0584 29.652H4.804C6.918 32.9768 10.0896 35.5608 13.8524 36.9248C13.138 36.1056 12.486 35.162 11.9108 34.118C11.1784 32.788 10.5552 31.286 10.0584 29.652ZM35.196 29.652H30.31C29.8144 31.2856 29.1916 32.788 28.4592 34.118C27.9348 35.0708 27.3464 35.9404 26.7048 36.7084C30.2036 35.3024 33.1734 32.8344 35.196 29.652Z" fill="#911211"/>
<path d="M26.6543 26.4706C26.871 26.3708 27.0063 26.1567 26.9998 25.9249C26.9324 23.4962 25.6482 21.3138 23.5641 20.0862C23.3477 19.9583 23.0723 19.9738 22.8731 20.1258C22.0445 20.7537 21.0511 21.0854 19.9999 21.0854C18.9489 21.0854 17.9555 20.7537 17.1269 20.1258C16.9268 19.9738 16.6514 19.9583 16.4359 20.0862C14.3518 21.3138 13.0676 23.4962 13.0002 25.9249C12.9937 26.1567 13.129 26.3708 13.3457 26.4706C15.5536 27.4904 17.7769 28 20.0001 28C22.2231 28 24.4464 27.4904 26.6543 26.4706ZM16.7348 21.3023C17.7024 21.9307 18.8225 22.2607 19.9999 22.2607C21.1775 22.2607 22.2976 21.9307 23.2652 21.3023C24.6949 22.279 25.6034 23.8337 25.7621 25.5748C21.9367 27.2344 18.0639 27.2344 14.2379 25.5748C14.3966 23.8337 15.3051 22.279 16.7348 21.3023Z" fill="#911211" stroke="#911211" stroke-width="0.7"/>
<path d="M19.9998 19C22.2056 19 24 17.2053 24 14.9997C24 12.794 22.2056 11 19.9998 11C17.7944 11 16 12.794 16 14.9997C16 17.2053 17.7944 19 19.9998 19ZM19.9998 12.26C21.5106 12.26 22.7399 13.4893 22.7399 14.9997C22.7399 16.5107 21.5106 17.74 19.9998 17.74C18.4891 17.74 17.2601 16.5107 17.2601 14.9997C17.2601 13.4893 18.4891 12.26 19.9998 12.26Z" fill="#911211" stroke="#911211" stroke-width="0.7"/>
</svg>
